M48
; DRILL file {KiCad (6.0.6)} date Fri Aug 19 16:35:20 2022
; FORMAT={-:-/ absolute / metric / decimal}
; #@! TF.CreationDate,2022-08-19T16:35:20-03:00
; #@! TF.GenerationSoftware,Kicad,Pcbnew,(6.0.6)
; #@! TF.FileFunction,MixedPlating,1,2
FMAT,2
METRIC
; #@! TA.AperFunction,Plated,PTH,ViaDrill
T1C0.800
; #@! TA.AperFunction,Plated,PTH,ComponentDrill
T2C0.800
; #@! TA.AperFunction,Plated,PTH,ComponentDrill
T3C3.302
%
G90
G05
T1
X136.0Y-101.194
X140.881Y-101.194
T2
X128.816Y-91.669
X131.356Y-122.784
X133.896Y-91.669
X133.896Y-122.784
X136.436Y-122.784
X138.976Y-122.784
X140.881Y-91.669
X143.015Y-85.954
X144.386Y-83.414
X145.326Y-101.194
X145.326Y-122.784
X145.758Y-85.954
X145.961Y-91.669
X147.13Y-83.414
X147.866Y-122.784
X148.501Y-85.954
X149.873Y-83.414
X150.406Y-122.784
X151.041Y-106.274
X151.244Y-85.954
X152.616Y-83.414
X152.946Y-101.194
X152.946Y-105.004
X152.946Y-107.544
X153.987Y-85.954
X156.121Y-91.669
X156.121Y-98.654
X156.121Y-103.734
X156.121Y-108.814
X158.661Y-122.784
X161.201Y-91.669
X161.201Y-122.784
X163.741Y-98.654
X163.741Y-103.734
X163.741Y-108.814
X163.741Y-122.784
X166.281Y-122.784
X168.186Y-96.114
X168.186Y-98.654
X168.186Y-103.734
X168.186Y-106.274
X168.186Y-111.354
X168.186Y-113.894
T3
X135.979Y-84.684
X161.023Y-84.684
T0
M30
