%TF.GenerationSoftware,KiCad,Pcbnew,(6.0.6)*%
%TF.CreationDate,2022-08-19T16:35:04-03:00*%
%TF.ProjectId,hub_interior,6875625f-696e-4746-9572-696f722e6b69,rev?*%
%TF.SameCoordinates,Original*%
%TF.FileFunction,Copper,L1,Top*%
%TF.FilePolarity,Positive*%
%FSLAX46Y46*%
G04 Gerber Fmt 4.6, Leading zero omitted, Abs format (unit mm)*
G04 Created by KiCad (PCBNEW (6.0.6)) date 2022-08-19 16:35:04*
%MOMM*%
%LPD*%
G01*
G04 APERTURE LIST*
%TA.AperFunction,ComponentPad*%
%ADD10O,1.600000X3.200000*%
%TD*%
%TA.AperFunction,ComponentPad*%
%ADD11C,1.500000*%
%TD*%
%TA.AperFunction,ComponentPad*%
%ADD12C,5.080000*%
%TD*%
%TA.AperFunction,ComponentPad*%
%ADD13O,3.200000X1.600000*%
%TD*%
%TA.AperFunction,ViaPad*%
%ADD14C,1.800000*%
%TD*%
%TA.AperFunction,Conductor*%
%ADD15C,0.609600*%
%TD*%
G04 APERTURE END LIST*
D10*
%TO.P,JP1,1*%
%TO.N,N$13*%
X145326100Y-122783600D03*
%TO.P,JP1,2*%
%TO.N,+5V*%
X147866100Y-122783600D03*
%TO.P,JP1,3*%
%TO.N,GND*%
X150406100Y-122783600D03*
%TD*%
D11*
%TO.P,R4,1*%
%TO.N,+5V*%
X156121100Y-98653600D03*
%TO.P,R4,2*%
%TO.N,N$7*%
X163741100Y-98653600D03*
%TD*%
%TO.P,C2,1*%
%TO.N,N$2*%
X145961100Y-91668600D03*
%TO.P,C2,2*%
%TO.N,GND*%
X140881100Y-91668600D03*
%TD*%
%TO.P,R3,1*%
%TO.N,N$3*%
X156121100Y-103733600D03*
%TO.P,R3,2*%
%TO.N,N$6*%
X163741100Y-103733600D03*
%TD*%
%TO.P,X1,1*%
%TO.N,N/C*%
X143014700Y-85953600D03*
%TO.P,X1,2*%
%TO.N,N$2*%
X145757900Y-85953600D03*
%TO.P,X1,3*%
%TO.N,N/C*%
X148501100Y-85953600D03*
%TO.P,X1,4*%
%TO.N,N$10*%
X151244300Y-85953600D03*
%TO.P,X1,5*%
%TO.N,N/C*%
X153987500Y-85953600D03*
%TO.P,X1,6*%
%TO.N,N$13*%
X144386300Y-83413600D03*
%TO.P,X1,7*%
%TO.N,N$4*%
X147129500Y-83413600D03*
%TO.P,X1,8*%
%TO.N,N/C*%
X149872700Y-83413600D03*
%TO.P,X1,9*%
%TO.N,+5V*%
X152615900Y-83413600D03*
D12*
%TO.P,X1,G1*%
%TO.N,GND*%
X135978900Y-84683600D03*
%TO.P,X1,G2*%
X161023300Y-84683600D03*
%TD*%
D13*
%TO.P,X2,1*%
%TO.N,+5V*%
X168186100Y-113893600D03*
%TO.P,X2,2*%
%TO.N,N$5*%
X168186100Y-111353600D03*
%TD*%
D11*
%TO.P,C1,1*%
%TO.N,N$4*%
X133896100Y-91668600D03*
%TO.P,C1,2*%
%TO.N,GND*%
X128816100Y-91668600D03*
%TD*%
%TO.P,R2,1*%
%TO.N,N$3*%
X156121100Y-108813600D03*
%TO.P,R2,2*%
%TO.N,N$5*%
X163741100Y-108813600D03*
%TD*%
%TO.P,Q1,1*%
%TO.N,GND*%
X152946100Y-105003600D03*
%TO.P,Q1,2*%
%TO.N,N$1*%
X151041100Y-106273600D03*
%TO.P,Q1,3*%
%TO.N,N$3*%
X152946100Y-107543600D03*
%TD*%
%TO.P,C3,1*%
%TO.N,+5V*%
X156121100Y-91668600D03*
%TO.P,C3,2*%
%TO.N,GND*%
X161201100Y-91668600D03*
%TD*%
D13*
%TO.P,X3,1*%
%TO.N,+5V*%
X168186100Y-106273600D03*
%TO.P,X3,2*%
%TO.N,N$6*%
X168186100Y-103733600D03*
%TD*%
D10*
%TO.P,RELE1,1*%
%TO.N,GND*%
X131356100Y-122783600D03*
%TO.P,RELE1,2*%
%TO.N,N$4*%
X133896100Y-122783600D03*
%TO.P,RELE1,3*%
%TO.N,GND*%
X136436100Y-122783600D03*
%TO.P,RELE1,4*%
%TO.N,+5V*%
X138976100Y-122783600D03*
%TD*%
D11*
%TO.P,R1,1*%
%TO.N,N$1*%
X152946100Y-101193600D03*
%TO.P,R1,2*%
%TO.N,N$2*%
X145326100Y-101193600D03*
%TD*%
D10*
%TO.P,VOLTAGE1,1*%
%TO.N,GND*%
X158661100Y-122783600D03*
%TO.P,VOLTAGE1,2*%
%TO.N,N$10*%
X161201100Y-122783600D03*
%TO.P,VOLTAGE1,3*%
%TO.N,GND*%
X163741100Y-122783600D03*
%TO.P,VOLTAGE1,4*%
%TO.N,+5V*%
X166281100Y-122783600D03*
%TD*%
D13*
%TO.P,LED1,1*%
%TO.N,N$7*%
X168186100Y-98653600D03*
%TO.P,LED1,2*%
%TO.N,GND*%
X168186100Y-96113600D03*
%TD*%
D14*
%TO.N,GND*%
X140881100Y-101193600D03*
X136000000Y-101193600D03*
%TD*%
D15*
%TO.N,GND*%
X140881100Y-101193600D02*
X136000000Y-101193600D01*
%TD*%
M02*
