%TF.GenerationSoftware,KiCad,Pcbnew,(6.0.6)*%
%TF.CreationDate,2022-08-19T16:35:04-03:00*%
%TF.ProjectId,hub_interior,6875625f-696e-4746-9572-696f722e6b69,rev?*%
%TF.SameCoordinates,Original*%
%TF.FileFunction,Soldermask,Bot*%
%TF.FilePolarity,Negative*%
%FSLAX46Y46*%
G04 Gerber Fmt 4.6, Leading zero omitted, Abs format (unit mm)*
G04 Created by KiCad (PCBNEW (6.0.6)) date 2022-08-19 16:35:04*
%MOMM*%
%LPD*%
G01*
G04 APERTURE LIST*
%ADD10O,1.803200X3.403200*%
%ADD11C,1.703200*%
%ADD12C,5.283200*%
%ADD13O,3.403200X1.803200*%
G04 APERTURE END LIST*
D10*
%TO.C,JP1*%
X145326100Y-122783600D03*
X147866100Y-122783600D03*
X150406100Y-122783600D03*
%TD*%
D11*
%TO.C,R4*%
X156121100Y-98653600D03*
X163741100Y-98653600D03*
%TD*%
%TO.C,C2*%
X145961100Y-91668600D03*
X140881100Y-91668600D03*
%TD*%
%TO.C,R3*%
X156121100Y-103733600D03*
X163741100Y-103733600D03*
%TD*%
%TO.C,X1*%
X143014700Y-85953600D03*
X145757900Y-85953600D03*
X148501100Y-85953600D03*
X151244300Y-85953600D03*
X153987500Y-85953600D03*
X144386300Y-83413600D03*
X147129500Y-83413600D03*
X149872700Y-83413600D03*
X152615900Y-83413600D03*
D12*
X135978900Y-84683600D03*
X161023300Y-84683600D03*
%TD*%
D13*
%TO.C,X2*%
X168186100Y-113893600D03*
X168186100Y-111353600D03*
%TD*%
D11*
%TO.C,C1*%
X133896100Y-91668600D03*
X128816100Y-91668600D03*
%TD*%
%TO.C,R2*%
X156121100Y-108813600D03*
X163741100Y-108813600D03*
%TD*%
%TO.C,Q1*%
X152946100Y-105003600D03*
X151041100Y-106273600D03*
X152946100Y-107543600D03*
%TD*%
%TO.C,C3*%
X156121100Y-91668600D03*
X161201100Y-91668600D03*
%TD*%
D13*
%TO.C,X3*%
X168186100Y-106273600D03*
X168186100Y-103733600D03*
%TD*%
D10*
%TO.C,RELE1*%
X131356100Y-122783600D03*
X133896100Y-122783600D03*
X136436100Y-122783600D03*
X138976100Y-122783600D03*
%TD*%
D11*
%TO.C,R1*%
X152946100Y-101193600D03*
X145326100Y-101193600D03*
%TD*%
D10*
%TO.C,VOLTAGE1*%
X158661100Y-122783600D03*
X161201100Y-122783600D03*
X163741100Y-122783600D03*
X166281100Y-122783600D03*
%TD*%
D13*
%TO.C,LED1*%
X168186100Y-98653600D03*
X168186100Y-96113600D03*
%TD*%
M02*
