M48
; DRILL file {KiCad (6.0.6)} date Fri Aug 19 16:39:31 2022
; FORMAT={-:-/ absolute / metric / decimal}
; #@! TF.CreationDate,2022-08-19T16:39:31-03:00
; #@! TF.GenerationSoftware,Kicad,Pcbnew,(6.0.6)
; #@! TF.FileFunction,MixedPlating,1,2
FMAT,2
METRIC
; #@! TA.AperFunction,Plated,PTH,ViaDrill
T1C0.800
; #@! TA.AperFunction,Plated,PTH,ComponentDrill
T2C0.800
; #@! TA.AperFunction,Plated,PTH,ComponentDrill
T3C1.000
; #@! TA.AperFunction,Plated,PTH,ComponentDrill
T4C3.302
%
G90
G05
T1
X130.721Y-92.304
X138.976Y-118.349
X141.516Y-94.844
X141.516Y-110.084
X146.596Y-118.349
X151.041Y-118.349
X154.216Y-92.304
X158.661Y-118.349
X163.106Y-118.349
X170.726Y-118.349
T2
X130.086Y-99.289
X130.086Y-101.829
X130.086Y-105.639
X130.086Y-108.179
X130.086Y-111.989
X130.086Y-114.529
X135.801Y-97.384
X135.801Y-118.359
X135.801Y-123.439
X138.341Y-97.384
X138.976Y-123.419
X141.516Y-123.419
X144.056Y-94.844
X144.056Y-110.084
X144.056Y-123.419
X146.596Y-94.844
X146.596Y-97.384
X146.596Y-99.924
X146.596Y-102.464
X146.596Y-105.004
X146.596Y-107.544
X146.596Y-110.084
X146.596Y-123.419
X147.46Y-85.954
X148.831Y-83.414
X150.203Y-85.954
X151.041Y-123.419
X151.575Y-83.414
X152.946Y-85.954
X153.581Y-123.419
X154.216Y-94.844
X154.216Y-97.384
X154.216Y-99.924
X154.216Y-102.464
X154.216Y-105.004
X154.216Y-107.544
X154.216Y-110.084
X154.318Y-83.414
X155.689Y-85.954
X156.121Y-123.419
X157.061Y-83.414
X158.026Y-94.844
X158.026Y-102.464
X158.433Y-85.954
X158.661Y-107.544
X158.661Y-123.419
X159.931Y-105.639
X161.201Y-107.544
X161.836Y-94.844
X166.916Y-94.844
T3
X125.721Y-87.779
X128.221Y-87.779
X130.721Y-82.779
X133.221Y-87.779
X135.721Y-87.779
X166.916Y-102.489
X166.916Y-107.518
T4
X140.424Y-84.684
X165.468Y-84.684
T0
M30
