%TF.GenerationSoftware,KiCad,Pcbnew,(6.0.6)*%
%TF.CreationDate,2022-08-24T11:57:53-03:00*%
%TF.ProjectId,hub_exterior,6875625f-6578-4746-9572-696f722e6b69,rev?*%
%TF.SameCoordinates,Original*%
%TF.FileFunction,Copper,L2,Bot*%
%TF.FilePolarity,Positive*%
%FSLAX46Y46*%
G04 Gerber Fmt 4.6, Leading zero omitted, Abs format (unit mm)*
G04 Created by KiCad (PCBNEW (6.0.6)) date 2022-08-24 11:57:53*
%MOMM*%
%LPD*%
G01*
G04 APERTURE LIST*
%TA.AperFunction,ComponentPad*%
%ADD10C,1.600000*%
%TD*%
%TA.AperFunction,ComponentPad*%
%ADD11O,3.200000X1.600000*%
%TD*%
%TA.AperFunction,ComponentPad*%
%ADD12O,1.600000X3.200000*%
%TD*%
%TA.AperFunction,ComponentPad*%
%ADD13O,1.600000X1.600000*%
%TD*%
%TA.AperFunction,ComponentPad*%
%ADD14C,5.080000*%
%TD*%
%TA.AperFunction,ViaPad*%
%ADD15C,1.600000*%
%TD*%
%TA.AperFunction,Conductor*%
%ADD16C,1.000000*%
%TD*%
G04 APERTURE END LIST*
D10*
%TO.P,R8,1,1*%
%TO.N,+5V*%
X22225000Y27940000D03*
%TO.P,R8,2,2*%
%TO.N,Net-(C3-Pad+)*%
X29845000Y27940000D03*
%TD*%
D11*
%TO.P,LV,1,S*%
%TO.N,GND*%
X43160000Y12065000D03*
%TO.P,LV,2,S*%
%TO.N,Net-(LED0-Pad2)*%
X43160000Y14605000D03*
%TD*%
D10*
%TO.P,R6,1,1*%
%TO.N,Net-(R5-Pad1)*%
X19050000Y12085000D03*
%TO.P,R6,2,2*%
%TO.N,Net-(R6-Pad2)*%
X19050000Y27325000D03*
%TD*%
%TO.P,R7,1,1*%
%TO.N,Net-(C3-Pad+)*%
X29845000Y35560000D03*
%TO.P,R7,2,2*%
%TO.N,/N$4*%
X22225000Y35560000D03*
%TD*%
%TO.P,C2,1,1*%
%TO.N,+5V*%
X3215000Y16764000D03*
%TO.P,C2,2,2*%
%TO.N,GND*%
X8215000Y16764000D03*
%TD*%
D12*
%TO.P,LLUVIA,1,S*%
%TO.N,GND*%
X29210000Y7025000D03*
%TO.P,LLUVIA,2,S*%
X31750000Y7025000D03*
%TO.P,LLUVIA,3,S*%
%TO.N,Net-(X1-Pad2)*%
X34290000Y7025000D03*
%TO.P,LLUVIA,4,S*%
%TO.N,+5V*%
X36830000Y7025000D03*
%TD*%
D11*
%TO.P,LR,1,S*%
%TO.N,Net-(R2-Pad2)*%
X43200000Y18415000D03*
%TO.P,LR,2,S*%
%TO.N,+5V*%
X43200000Y20955000D03*
%TD*%
%TO.P,DC,1,KL*%
%TO.N,+5V*%
X6350000Y27305000D03*
%TO.P,DC,2,KL*%
%TO.N,GND*%
X6350000Y22305000D03*
%TD*%
D10*
%TO.P,R2,1,1*%
%TO.N,Net-(Q1-Pad3)*%
X22225000Y21590000D03*
%TO.P,R2,2,2*%
%TO.N,Net-(R2-Pad2)*%
X29845000Y21590000D03*
%TD*%
%TO.P,Q1,1,E*%
%TO.N,GND*%
X12700000Y21950000D03*
%TO.P,Q1,2,B*%
%TO.N,Net-(Q1-Pad2)*%
X13970000Y20045000D03*
%TO.P,Q1,3,C*%
%TO.N,Net-(Q1-Pad3)*%
X15240000Y21950000D03*
%TD*%
%TO.P,C1,1,1*%
%TO.N,/N$8*%
X28555000Y40640000D03*
%TO.P,C1,2,2*%
%TO.N,GND*%
X23555000Y40640000D03*
%TD*%
%TO.P,R4,1,1*%
%TO.N,+5V*%
X22225000Y12065000D03*
%TO.P,R4,2,2*%
%TO.N,Net-(LED0-Pad2)*%
X29845000Y12065000D03*
%TD*%
D11*
%TO.P,B,1,S*%
%TO.N,Net-(R3-Pad2)*%
X43200000Y24765000D03*
%TO.P,B,2,S*%
%TO.N,+5V*%
X43200000Y27305000D03*
%TD*%
D12*
%TO.P,GPS,1,S*%
%TO.N,GND*%
X13970000Y7005000D03*
%TO.P,GPS,2,S*%
%TO.N,Net-(X1-Pad7)*%
X16510000Y7005000D03*
%TO.P,GPS,3,S*%
%TO.N,Net-(R5-Pad1)*%
X19050000Y7005000D03*
%TO.P,GPS,4,S*%
%TO.N,+5V*%
X21590000Y7005000D03*
%TD*%
D10*
%TO.P,R5,1,1*%
%TO.N,Net-(R5-Pad1)*%
X22225000Y15240000D03*
%TO.P,R5,2,2*%
%TO.N,GND*%
X29845000Y15240000D03*
%TD*%
%TO.P,C3,1*%
%TO.N,Net-(C3-Pad+)*%
X43180000Y33590112D03*
%TO.P,C3,2*%
%TO.N,GND*%
X43180000Y31090112D03*
%TD*%
%TO.P,R3,1,1*%
%TO.N,Net-(Q1-Pad3)*%
X22225000Y24765000D03*
D13*
%TO.P,R3,2,2*%
%TO.N,Net-(R3-Pad2)*%
X29845000Y24765000D03*
%TD*%
D11*
%TO.P,U$1,P$3,1*%
%TO.N,/N$4*%
X42545000Y46990000D03*
D12*
%TO.P,U$1,P$4,3*%
%TO.N,unconnected-(U$1-PadP$4)*%
X40045000Y41990000D03*
%TO.P,U$1,P$5,4*%
%TO.N,Net-(C3-Pad+)*%
X45045000Y41990000D03*
%TO.P,U$1,P$6,2*%
%TO.N,unconnected-(U$1-PadP$6)*%
X37545000Y41990000D03*
%TO.P,U$1,P$7,5*%
%TO.N,Net-(C3-Pad+)*%
X47545000Y41990000D03*
%TD*%
D10*
%TO.P,R1,1,1*%
%TO.N,Net-(Q1-Pad2)*%
X22225000Y18415000D03*
%TO.P,R1,2,2*%
%TO.N,/N$8*%
X29845000Y18415000D03*
%TD*%
%TO.P,X1,1,1*%
%TO.N,unconnected-(X1-Pad1)*%
X14833600Y43815000D03*
%TO.P,X1,2,2*%
%TO.N,Net-(X1-Pad2)*%
X17576800Y43815000D03*
%TO.P,X1,3,3*%
%TO.N,/N$4*%
X20320000Y43815000D03*
%TO.P,X1,4,4*%
%TO.N,unconnected-(X1-Pad4)*%
X23063200Y43815000D03*
%TO.P,X1,5,5*%
%TO.N,GND*%
X25806400Y43815000D03*
%TO.P,X1,6,6*%
%TO.N,Net-(R6-Pad2)*%
X16205200Y46355000D03*
%TO.P,X1,7,7*%
%TO.N,Net-(X1-Pad7)*%
X18948400Y46355000D03*
%TO.P,X1,8,8*%
%TO.N,/N$8*%
X21691600Y46355000D03*
%TO.P,X1,9,9*%
%TO.N,unconnected-(X1-Pad9)*%
X24434800Y46355000D03*
D14*
%TO.P,X1,G1,G1*%
%TO.N,unconnected-(X1-PadG1)*%
X7797800Y45085000D03*
%TO.P,X1,G2,G2*%
%TO.N,unconnected-(X1-PadG2)*%
X32842200Y45085000D03*
%TD*%
D10*
%TO.P,R9,1,1*%
%TO.N,Net-(C3-Pad+)*%
X29845000Y32385000D03*
%TO.P,R9,2,2*%
%TO.N,GND*%
X22225000Y32385000D03*
%TD*%
D15*
%TO.N,GND*%
X37465000Y12065000D03*
X25400000Y1925000D03*
X37465000Y17780000D03*
X25400000Y6985000D03*
%TO.N,+5V*%
X22225000Y30162500D03*
X12700000Y30162500D03*
%TO.N,/N$4*%
X20320000Y37592000D03*
X42545000Y37592000D03*
%TO.N,Net-(X1-Pad2)*%
X34290000Y12065000D03*
X34290000Y39370000D03*
X34290000Y35560000D03*
X17576800Y39370000D03*
%TO.N,Net-(X1-Pad7)*%
X16510000Y27305000D03*
X16510000Y12065000D03*
%TD*%
D16*
%TO.N,/N$8*%
X28535000Y47030000D02*
X27305000Y48260000D01*
X27305000Y48260000D02*
X22860000Y48260000D01*
X28535000Y41275000D02*
X28535000Y47030000D01*
X27305000Y39410000D02*
X27305000Y20955000D01*
X22860000Y48260000D02*
X21691600Y47091600D01*
X28535000Y40640000D02*
X27305000Y39410000D01*
X21691600Y47091600D02*
X21691600Y46355000D01*
X27305000Y20955000D02*
X29845000Y18415000D01*
%TO.N,GND*%
X29210000Y7025000D02*
X27845000Y7025000D01*
X25400000Y1925000D02*
X18435000Y1925000D01*
X18415000Y1905000D02*
X29845000Y1905000D01*
X27845000Y7025000D02*
X27825000Y7005000D01*
X23555000Y40640000D02*
X23555000Y38040000D01*
X25400000Y6985000D02*
X25400000Y10795000D01*
X25806400Y43815000D02*
X25806400Y42911400D01*
X37465000Y12065000D02*
X40005000Y9525000D01*
X37465000Y17780000D02*
X32385000Y17780000D01*
X23555000Y38040000D02*
X24765000Y36830000D01*
X18435000Y1925000D02*
X18415000Y1905000D01*
X25806400Y42911400D02*
X23535000Y40640000D01*
X25420000Y7005000D02*
X25400000Y6985000D01*
X27825000Y7005000D02*
X25420000Y7005000D01*
%TO.N,+5V*%
X21415000Y3655000D02*
X23340000Y3655000D01*
X21590000Y11430000D02*
X21590000Y7005000D01*
X46870000Y20955000D02*
X47000000Y20825000D01*
X3215000Y4485000D02*
X3215000Y17780000D01*
X12700000Y30162500D02*
X6667500Y30162500D01*
X22225000Y27940000D02*
X22225000Y30185497D01*
X22225000Y12065000D02*
X21590000Y11430000D01*
X21590000Y3830000D02*
X21415000Y3655000D01*
X3215000Y28615000D02*
X3215000Y17780000D01*
X3965000Y3655000D02*
X3175000Y4445000D01*
X43200000Y20955000D02*
X46870000Y20955000D01*
X4762500Y30162500D02*
X3215000Y28615000D01*
X6350000Y27305000D02*
X6350000Y29845000D01*
X36830000Y3845000D02*
X37020000Y3655000D01*
X6667500Y30162500D02*
X4762500Y30162500D01*
X46000000Y3655000D02*
X47000000Y4655000D01*
X3175000Y4445000D02*
X3215000Y4485000D01*
X36830000Y7025000D02*
X36830000Y3845000D01*
X21590000Y7005000D02*
X21590000Y3830000D01*
X47000000Y26825000D02*
X47000000Y20825000D01*
X26670000Y4445000D02*
X27460000Y3655000D01*
X27460000Y3655000D02*
X46000000Y3655000D01*
X24130000Y4445000D02*
X26670000Y4445000D01*
X6350000Y29845000D02*
X6667500Y30162500D01*
X47000000Y20825000D02*
X47000000Y18825000D01*
X46520000Y27305000D02*
X47000000Y26825000D01*
X21415000Y3655000D02*
X3965000Y3655000D01*
X43200000Y27305000D02*
X46520000Y27305000D01*
X23340000Y3655000D02*
X24130000Y4445000D01*
X22225000Y12085000D02*
X22225000Y12065000D01*
X47000000Y4655000D02*
X47000000Y24655000D01*
%TO.N,Net-(LED0-Pad2)*%
X31622994Y12085000D02*
X29845000Y12085000D01*
X34142994Y14605000D02*
X31622994Y12085000D01*
X43160000Y14605000D02*
X34142994Y14605000D01*
%TO.N,Net-(Q1-Pad2)*%
X15600000Y18415000D02*
X13970000Y20045000D01*
X22225000Y18415000D02*
X15600000Y18415000D01*
%TO.N,Net-(Q1-Pad3)*%
X22225000Y21590000D02*
X22225000Y24765000D01*
X22225000Y24765000D02*
X16510000Y24765000D01*
X15240000Y21950000D02*
X15240000Y23495000D01*
X16510000Y24765000D02*
X15240000Y23495000D01*
%TO.N,Net-(R2-Pad2)*%
X39370000Y20955000D02*
X29845000Y20955000D01*
X43200000Y18415000D02*
X41910000Y18415000D01*
X41910000Y18415000D02*
X39370000Y20955000D01*
%TO.N,Net-(R3-Pad2)*%
X43200000Y24765000D02*
X29845000Y24765000D01*
%TO.N,Net-(R5-Pad1)*%
X19050000Y11430000D02*
X19050000Y13970000D01*
X19050000Y7005000D02*
X19050000Y12085000D01*
X22225000Y15240000D02*
X20320000Y15240000D01*
X20320000Y15240000D02*
X19050000Y13970000D01*
%TO.N,Net-(R6-Pad2)*%
X19050000Y33020000D02*
X12065000Y40005000D01*
X19050000Y27325000D02*
X19050000Y33020000D01*
X12065000Y45085000D02*
X13335000Y46355000D01*
X12065000Y40005000D02*
X12065000Y45085000D01*
X13335000Y46355000D02*
X16205200Y46355000D01*
%TO.N,Net-(C3-Pad+)*%
X29845000Y27940000D02*
X29845000Y33000000D01*
X43180000Y33590112D02*
X46925112Y33590112D01*
X38164888Y33590112D02*
X36959776Y32385000D01*
X43180000Y33590112D02*
X38164888Y33590112D01*
X46925112Y33590112D02*
X47545000Y34210000D01*
X47545000Y34210000D02*
X47545000Y41990000D01*
X29845000Y32385000D02*
X29845000Y35560000D01*
X47545000Y41990000D02*
X45045000Y41990000D01*
X36959776Y32385000D02*
X29845000Y32385000D01*
%TO.N,/N$4*%
X20320000Y43180000D02*
X20320000Y37465000D01*
X42545000Y46990000D02*
X42545000Y37465000D01*
X22225000Y35560000D02*
X22225000Y35687000D01*
X22225000Y35687000D02*
X20320000Y37592000D01*
%TO.N,Net-(X1-Pad2)*%
X34290000Y12065000D02*
X34290000Y7025000D01*
X17576800Y39370000D02*
X17576800Y43815000D01*
X34290000Y35560000D02*
X34290000Y39370000D01*
%TO.N,Net-(X1-Pad7)*%
X16510000Y32490000D02*
X9000000Y40000000D01*
X4445000Y48895000D02*
X18415000Y48895000D01*
X16510000Y7005000D02*
X16510000Y12065000D01*
X3810000Y48260000D02*
X4445000Y48895000D01*
X18415000Y48895000D02*
X18948400Y48361600D01*
X18948400Y48361600D02*
X18948400Y46355000D01*
X3810000Y40690000D02*
X3810000Y48260000D01*
X16510000Y27305000D02*
X16510000Y32490000D01*
X9000000Y40000000D02*
X4500000Y40000000D01*
X4500000Y40000000D02*
X3810000Y40690000D01*
%TD*%
%TA.AperFunction,Conductor*%
%TO.N,GND*%
G36*
X2338781Y49279287D02*
G01*
X2467976Y49220286D01*
X2575315Y49127276D01*
X2652102Y49007792D01*
X2692117Y48871515D01*
X2692117Y48729485D01*
X2674747Y48652513D01*
X2670011Y48637262D01*
X2665979Y48624853D01*
X2651199Y48581311D01*
X2637669Y48541452D01*
X2635397Y48525786D01*
X2630703Y48510667D01*
X2628015Y48487959D01*
X2628015Y48487957D01*
X2626532Y48475425D01*
X2620613Y48425410D01*
X2620355Y48423234D01*
X2618650Y48410279D01*
X2606009Y48323098D01*
X2606907Y48300240D01*
X2606907Y48300238D01*
X2609115Y48244044D01*
X2609500Y48224454D01*
X2609500Y40746948D01*
X2608432Y40714312D01*
X2604770Y40658440D01*
X2607459Y40635722D01*
X2607459Y40635716D01*
X2615122Y40570971D01*
X2616487Y40557987D01*
X2617769Y40544034D01*
X2624546Y40470289D01*
X2628844Y40455051D01*
X2630704Y40439333D01*
X2637489Y40417481D01*
X2637490Y40417477D01*
X2656807Y40355265D01*
X2660516Y40342745D01*
X2677344Y40283079D01*
X2684435Y40257936D01*
X2691438Y40243736D01*
X2696131Y40228621D01*
X2706786Y40208370D01*
X2706786Y40208369D01*
X2737135Y40150684D01*
X2743058Y40139061D01*
X2782020Y40060053D01*
X2791493Y40047367D01*
X2798863Y40033359D01*
X2853434Y39964135D01*
X2861346Y39953823D01*
X2900341Y39901602D01*
X2900344Y39901599D01*
X2914033Y39883267D01*
X2944378Y39855217D01*
X2972124Y39829569D01*
X2986251Y39815986D01*
X3610843Y39191394D01*
X3633166Y39167560D01*
X3655004Y39142658D01*
X3655011Y39142651D01*
X3670090Y39125457D01*
X3737741Y39072126D01*
X3739258Y39070930D01*
X3749408Y39062710D01*
X3799522Y39021031D01*
X3799527Y39021027D01*
X3817116Y39006399D01*
X3830927Y38998664D01*
X3843360Y38988863D01*
X3863606Y38978211D01*
X3863609Y38978209D01*
X3921301Y38947856D01*
X3932744Y38941643D01*
X4009620Y38898590D01*
X4024612Y38893501D01*
X4038620Y38886131D01*
X4122754Y38860007D01*
X4135143Y38855981D01*
X4176788Y38841844D01*
X4218548Y38827669D01*
X4234214Y38825398D01*
X4249333Y38820703D01*
X4272057Y38818013D01*
X4272059Y38818013D01*
X4336829Y38810347D01*
X4349762Y38808644D01*
X4436902Y38796010D01*
X4459761Y38796908D01*
X4459763Y38796908D01*
X4515931Y38799115D01*
X4535521Y38799500D01*
X8296044Y38799500D01*
X8436629Y38779287D01*
X8565824Y38720286D01*
X8648890Y38653346D01*
X15163346Y32138890D01*
X15248462Y32025189D01*
X15298096Y31892114D01*
X15309500Y31786044D01*
X15309500Y28361963D01*
X15289287Y28221378D01*
X15222722Y28080763D01*
X15212397Y28065628D01*
X15212389Y28065615D01*
X15200851Y28048700D01*
X15096965Y27824896D01*
X15091493Y27805164D01*
X15091491Y27805159D01*
X15046278Y27642126D01*
X15031026Y27587129D01*
X15004806Y27341786D01*
X15005985Y27321340D01*
X15015098Y27163306D01*
X15019010Y27095455D01*
X15023511Y27075483D01*
X15023511Y27075482D01*
X15067727Y26879282D01*
X15073255Y26854751D01*
X15166084Y26626139D01*
X15176780Y26608684D01*
X15176781Y26608683D01*
X15193033Y26582162D01*
X15295006Y26415759D01*
X15456557Y26229259D01*
X15483367Y26207001D01*
X15578619Y26101650D01*
X15640333Y25973728D01*
X15663507Y25833601D01*
X15646264Y25692621D01*
X15590001Y25562210D01*
X15517464Y25470228D01*
X14431389Y24384153D01*
X14407560Y24361834D01*
X14365457Y24324910D01*
X14310901Y24255706D01*
X14302707Y24245588D01*
X14246398Y24177883D01*
X14238663Y24164072D01*
X14228863Y24151640D01*
X14190610Y24078933D01*
X14187860Y24073706D01*
X14181627Y24062228D01*
X14149771Y24005346D01*
X14149767Y24005336D01*
X14138590Y23985379D01*
X14133502Y23970389D01*
X14126131Y23956380D01*
X14122342Y23944178D01*
X14047368Y23825039D01*
X13940919Y23731011D01*
X13812291Y23670783D01*
X13671905Y23649233D01*
X13531135Y23668107D01*
X13487113Y23682823D01*
X13276571Y23764275D01*
X13242907Y23774631D01*
X13015180Y23827415D01*
X12980404Y23832924D01*
X12747491Y23853096D01*
X12712309Y23853649D01*
X12478882Y23840803D01*
X12443951Y23836390D01*
X12214664Y23790782D01*
X12180715Y23781494D01*
X11960138Y23704034D01*
X11927838Y23690056D01*
X11834409Y23641524D01*
X11809279Y23623512D01*
X11814051Y23614326D01*
X11817180Y23610638D01*
X13124971Y22302846D01*
X13210087Y22189145D01*
X13259721Y22056070D01*
X13269854Y21914402D01*
X13239663Y21775617D01*
X13171595Y21650960D01*
X13124971Y21597154D01*
X12700000Y21172183D01*
X11826351Y20298533D01*
X11807816Y20273774D01*
X11819160Y20262430D01*
X11820097Y20261866D01*
X11851463Y20245884D01*
X12066729Y20154730D01*
X12100043Y20143323D01*
X12136903Y20133550D01*
X12267611Y20077982D01*
X12377370Y19987840D01*
X12457287Y19870426D01*
X12495806Y19760920D01*
X12528751Y19614731D01*
X12528756Y19614716D01*
X12533255Y19594751D01*
X12626084Y19366139D01*
X12755006Y19155759D01*
X12916557Y18969259D01*
X13106399Y18811649D01*
X13319433Y18687162D01*
X13338571Y18679854D01*
X13530803Y18606448D01*
X13530806Y18606447D01*
X13549939Y18599141D01*
X13570012Y18595057D01*
X13613879Y18586132D01*
X13747611Y18538297D01*
X13867240Y18449996D01*
X14710850Y17606387D01*
X14733172Y17582554D01*
X14770090Y17540457D01*
X14839294Y17485901D01*
X14849412Y17477707D01*
X14917117Y17421398D01*
X14930928Y17413663D01*
X14943360Y17403863D01*
X15021314Y17362849D01*
X15032772Y17356627D01*
X15089654Y17324771D01*
X15089664Y17324767D01*
X15109621Y17313590D01*
X15124611Y17308502D01*
X15138620Y17301131D01*
X15160471Y17294346D01*
X15160476Y17294344D01*
X15222727Y17275014D01*
X15235147Y17270979D01*
X15287789Y17253110D01*
X15318548Y17242669D01*
X15334214Y17240397D01*
X15349333Y17235703D01*
X15372041Y17233015D01*
X15372043Y17233015D01*
X15436766Y17225355D01*
X15449721Y17223650D01*
X15514264Y17214291D01*
X15514269Y17214291D01*
X15536902Y17211009D01*
X15559760Y17211907D01*
X15559762Y17211907D01*
X15615956Y17214115D01*
X15635546Y17214500D01*
X19469319Y17214500D01*
X19609904Y17194287D01*
X19739099Y17135286D01*
X19846438Y17042276D01*
X19923225Y16922792D01*
X19963240Y16786515D01*
X19963240Y16644485D01*
X19923225Y16508208D01*
X19846438Y16388724D01*
X19730055Y16290038D01*
X19710577Y16278102D01*
X19690053Y16267980D01*
X19677368Y16258507D01*
X19663359Y16251137D01*
X19594135Y16196566D01*
X19583823Y16188654D01*
X19531602Y16149659D01*
X19531599Y16149656D01*
X19513267Y16135967D01*
X19470579Y16089787D01*
X19459558Y16077865D01*
X19445977Y16063741D01*
X18241389Y14859153D01*
X18217560Y14836834D01*
X18175457Y14799910D01*
X18120901Y14730706D01*
X18112707Y14720588D01*
X18100014Y14705326D01*
X18056398Y14652883D01*
X18048663Y14639072D01*
X18038863Y14626640D01*
X17997860Y14548706D01*
X17991627Y14537228D01*
X17959771Y14480346D01*
X17959767Y14480336D01*
X17948590Y14460379D01*
X17943502Y14445389D01*
X17936131Y14431380D01*
X17929346Y14409529D01*
X17929344Y14409524D01*
X17910014Y14347273D01*
X17905979Y14334853D01*
X17887627Y14280788D01*
X17877669Y14251452D01*
X17875397Y14235786D01*
X17870703Y14220667D01*
X17868015Y14197959D01*
X17868015Y14197957D01*
X17860355Y14133234D01*
X17858650Y14120279D01*
X17849639Y14058131D01*
X17846009Y14033098D01*
X17846907Y14010240D01*
X17846907Y14010238D01*
X17849115Y13954044D01*
X17849500Y13934454D01*
X17849500Y13883209D01*
X17829287Y13742624D01*
X17770286Y13613429D01*
X17677276Y13506090D01*
X17557792Y13429303D01*
X17421515Y13389288D01*
X17279485Y13389288D01*
X17145951Y13428060D01*
X17145121Y13428433D01*
X17127198Y13438327D01*
X17085772Y13452997D01*
X16913914Y13513855D01*
X16913915Y13513855D01*
X16894610Y13520691D01*
X16651694Y13563961D01*
X16564951Y13565021D01*
X16425450Y13566725D01*
X16425448Y13566725D01*
X16404972Y13566975D01*
X16384735Y13563878D01*
X16384730Y13563878D01*
X16283021Y13548314D01*
X16161070Y13529653D01*
X15926540Y13452997D01*
X15707679Y13339065D01*
X15691299Y13326767D01*
X15691298Y13326766D01*
X15528162Y13204280D01*
X15510364Y13190917D01*
X15339896Y13012532D01*
X15328359Y12995620D01*
X15328357Y12995617D01*
X15246471Y12875576D01*
X15200851Y12808700D01*
X15096965Y12584896D01*
X15091493Y12565164D01*
X15091491Y12565159D01*
X15071513Y12493119D01*
X15031026Y12347129D01*
X15004806Y12101786D01*
X15019010Y11855455D01*
X15073255Y11614751D01*
X15166084Y11386139D01*
X15176778Y11368689D01*
X15176781Y11368682D01*
X15235967Y11272101D01*
X15292188Y11141672D01*
X15309500Y11011373D01*
X15309500Y10052472D01*
X15289287Y9911887D01*
X15230286Y9782692D01*
X15137276Y9675353D01*
X15017792Y9598566D01*
X14881515Y9558551D01*
X14739485Y9558551D01*
X14644341Y9581949D01*
X14553656Y9613973D01*
X14523324Y9620017D01*
X14521273Y9614209D01*
X14520000Y9601309D01*
X14520000Y6954000D01*
X14499787Y6813415D01*
X14440786Y6684220D01*
X14347776Y6576881D01*
X14228292Y6500094D01*
X14092015Y6460079D01*
X14021000Y6455000D01*
X12105690Y6455000D01*
X12073954Y6450437D01*
X12070000Y6436970D01*
X12070000Y6143994D01*
X12070654Y6125952D01*
X12083564Y5948014D01*
X12088768Y5912343D01*
X12140418Y5678399D01*
X12150724Y5643829D01*
X12193361Y5531292D01*
X12224267Y5392665D01*
X12214866Y5250946D01*
X12165918Y5117617D01*
X12081390Y5003478D01*
X11968130Y4917777D01*
X11835313Y4867457D01*
X11726729Y4855500D01*
X4914500Y4855500D01*
X4773915Y4875713D01*
X4644720Y4934714D01*
X4537381Y5027724D01*
X4460594Y5147208D01*
X4420579Y5283485D01*
X4415500Y5354500D01*
X4415500Y7590690D01*
X12070000Y7590690D01*
X12074563Y7558954D01*
X12088030Y7555000D01*
X13384310Y7555000D01*
X13416046Y7559563D01*
X13420000Y7573030D01*
X13420000Y9590872D01*
X13415599Y9621483D01*
X13399917Y9621483D01*
X13367710Y9611081D01*
X13145653Y9521139D01*
X13113290Y9505214D01*
X12906554Y9384164D01*
X12876828Y9363735D01*
X12689725Y9214105D01*
X12663270Y9189608D01*
X12499727Y9014535D01*
X12477077Y8986465D01*
X12340519Y8789618D01*
X12322164Y8758580D01*
X12215449Y8544073D01*
X12201771Y8510725D01*
X12127140Y8283065D01*
X12118413Y8248060D01*
X12076947Y8009236D01*
X12073580Y7978987D01*
X12070309Y7913277D01*
X12070000Y7900866D01*
X12070000Y7590690D01*
X4415500Y7590690D01*
X4415500Y15087775D01*
X7322817Y15087775D01*
X7334164Y15076427D01*
X7335097Y15075866D01*
X7366463Y15059884D01*
X7581729Y14968730D01*
X7615044Y14957323D01*
X7841022Y14897406D01*
X7875582Y14890814D01*
X8107744Y14863336D01*
X8142906Y14861678D01*
X8376628Y14867185D01*
X8411669Y14870498D01*
X8642279Y14908882D01*
X8676495Y14917096D01*
X8899405Y14987593D01*
X8932124Y15000548D01*
X9081355Y15072208D01*
X9107043Y15089425D01*
X9104282Y15095174D01*
X9096320Y15104862D01*
X8240237Y15960946D01*
X8214570Y15980160D01*
X8202250Y15973433D01*
X7341351Y15112533D01*
X7322817Y15087775D01*
X4415500Y15087775D01*
X4415500Y15703478D01*
X4435713Y15844063D01*
X4486773Y15960481D01*
X4493640Y15971910D01*
X4505588Y15988537D01*
X4526237Y16030316D01*
X4605839Y16191380D01*
X4605839Y16191381D01*
X4614911Y16209736D01*
X4686639Y16445820D01*
X4718845Y16690450D01*
X4719171Y16703765D01*
X4720031Y16738961D01*
X4720643Y16764000D01*
X4717174Y16806196D01*
X6311780Y16806196D01*
X6320957Y16572602D01*
X6324819Y16537621D01*
X6366822Y16307632D01*
X6375575Y16273546D01*
X6449558Y16051789D01*
X6463034Y16019257D01*
X6523516Y15898213D01*
X6541136Y15872798D01*
X6548619Y15876537D01*
X6555291Y15882109D01*
X7411946Y16738763D01*
X7430516Y16763570D01*
X8998840Y16763570D01*
X9005567Y16751250D01*
X9867718Y15889100D01*
X9892476Y15870566D01*
X9899804Y15877894D01*
X9905578Y15888799D01*
X10000106Y16102618D01*
X10012029Y16135733D01*
X10075487Y16360740D01*
X10082624Y16395205D01*
X10114398Y16631769D01*
X10116494Y16657121D01*
X10119453Y16751266D01*
X10118953Y16776710D01*
X10102096Y17014791D01*
X10097135Y17049650D01*
X10047932Y17278186D01*
X10038110Y17311995D01*
X9957199Y17531313D01*
X9942707Y17563410D01*
X9906917Y17629740D01*
X9888507Y17654592D01*
X9877656Y17648737D01*
X9876923Y17648105D01*
X9018054Y16789237D01*
X8998840Y16763570D01*
X7430516Y16763570D01*
X7431160Y16764430D01*
X7424433Y16776750D01*
X6564450Y17636732D01*
X6539692Y17655266D01*
X6529257Y17644831D01*
X6513250Y17617274D01*
X6497767Y17585670D01*
X6409999Y17368980D01*
X6399124Y17335512D01*
X6342765Y17108622D01*
X6336714Y17073947D01*
X6312886Y16841391D01*
X6311780Y16806196D01*
X4717174Y16806196D01*
X4713648Y16849087D01*
X4702103Y16989502D01*
X4700425Y17009911D01*
X4690444Y17049650D01*
X4645306Y17229351D01*
X4645306Y17229352D01*
X4640316Y17249217D01*
X4630854Y17270979D01*
X4550093Y17456716D01*
X4550090Y17456721D01*
X4541928Y17475493D01*
X4495528Y17547217D01*
X4436139Y17676229D01*
X4415500Y17818257D01*
X4415500Y18437512D01*
X7324279Y18437512D01*
X7329051Y18428326D01*
X7332180Y18424638D01*
X8189763Y17567054D01*
X8215430Y17547840D01*
X8227750Y17554567D01*
X9087152Y18413970D01*
X9105686Y18438728D01*
X9096062Y18448352D01*
X9041448Y18478938D01*
X9009586Y18493931D01*
X8791566Y18578277D01*
X8757907Y18588631D01*
X8530180Y18641415D01*
X8495404Y18646924D01*
X8262491Y18667096D01*
X8227309Y18667649D01*
X7993882Y18654803D01*
X7958951Y18650390D01*
X7729664Y18604782D01*
X7695715Y18595494D01*
X7475138Y18518034D01*
X7442838Y18504056D01*
X7349409Y18455524D01*
X7324279Y18437512D01*
X4415500Y18437512D01*
X4415500Y19988622D01*
X4435713Y20129207D01*
X4494714Y20258402D01*
X4587724Y20365741D01*
X4707208Y20442528D01*
X4843485Y20482543D01*
X4985515Y20482543D01*
X5054372Y20466435D01*
X5054392Y20466514D01*
X5059792Y20465168D01*
X5069952Y20462791D01*
X5071944Y20462138D01*
X5106940Y20453413D01*
X5345764Y20411947D01*
X5376013Y20408580D01*
X5441723Y20405309D01*
X5454134Y20405000D01*
X5764310Y20405000D01*
X5796046Y20409563D01*
X5800000Y20423030D01*
X5800000Y20440690D01*
X6900000Y20440690D01*
X6904563Y20408954D01*
X6918030Y20405000D01*
X7211006Y20405000D01*
X7229048Y20405654D01*
X7406986Y20418564D01*
X7442657Y20423768D01*
X7676601Y20475418D01*
X7711176Y20485726D01*
X7935193Y20570599D01*
X7967919Y20585789D01*
X8177349Y20702117D01*
X8207522Y20721861D01*
X8397979Y20867213D01*
X8424981Y20891103D01*
X8592458Y21062423D01*
X8615733Y21089967D01*
X8756724Y21283668D01*
X8775777Y21314278D01*
X8887329Y21526303D01*
X8901765Y21559347D01*
X8958974Y21721346D01*
X8965017Y21751676D01*
X8959209Y21753727D01*
X8946309Y21755000D01*
X6935690Y21755000D01*
X6903954Y21750437D01*
X6900000Y21736970D01*
X6900000Y20440690D01*
X5800000Y20440690D01*
X5800000Y21992196D01*
X10796780Y21992196D01*
X10805957Y21758602D01*
X10809819Y21723621D01*
X10851822Y21493632D01*
X10860575Y21459546D01*
X10934558Y21237789D01*
X10948034Y21205257D01*
X11008516Y21084213D01*
X11026136Y21058798D01*
X11033619Y21062537D01*
X11040291Y21068109D01*
X11896946Y21924763D01*
X11916160Y21950430D01*
X11909433Y21962750D01*
X11049450Y22822732D01*
X11024692Y22841266D01*
X11014257Y22830831D01*
X10998250Y22803274D01*
X10982767Y22771670D01*
X10894999Y22554980D01*
X10884124Y22521512D01*
X10827765Y22294622D01*
X10821714Y22259947D01*
X10797886Y22027391D01*
X10796780Y21992196D01*
X5800000Y21992196D01*
X5800000Y22890690D01*
X6900000Y22890690D01*
X6904563Y22858954D01*
X6918030Y22855000D01*
X8935872Y22855000D01*
X8966483Y22859401D01*
X8966483Y22875083D01*
X8956081Y22907290D01*
X8866139Y23129347D01*
X8850214Y23161710D01*
X8729164Y23368446D01*
X8708735Y23398172D01*
X8559105Y23585275D01*
X8534608Y23611730D01*
X8359535Y23775273D01*
X8331465Y23797923D01*
X8134618Y23934481D01*
X8103580Y23952836D01*
X7889073Y24059551D01*
X7855725Y24073229D01*
X7628065Y24147860D01*
X7593060Y24156587D01*
X7354236Y24198053D01*
X7323987Y24201420D01*
X7258277Y24204691D01*
X7245866Y24205000D01*
X6935690Y24205000D01*
X6903954Y24200437D01*
X6900000Y24186970D01*
X6900000Y22890690D01*
X5800000Y22890690D01*
X5800000Y24169310D01*
X5795437Y24201046D01*
X5781970Y24205000D01*
X5488994Y24205000D01*
X5470952Y24204346D01*
X5293014Y24191436D01*
X5257346Y24186232D01*
X5022079Y24134290D01*
X4880442Y24123720D01*
X4741565Y24153481D01*
X4616698Y24221162D01*
X4515957Y24321282D01*
X4447504Y24445727D01*
X4416884Y24584417D01*
X4415500Y24621556D01*
X4415500Y25406192D01*
X4435713Y25546777D01*
X4494714Y25675972D01*
X4587724Y25783311D01*
X4707208Y25860098D01*
X4843485Y25900113D01*
X4985515Y25900113D01*
X5047849Y25887044D01*
X5092381Y25874694D01*
X5248139Y25831498D01*
X5248141Y25831498D01*
X5267871Y25826026D01*
X5384002Y25813615D01*
X5456096Y25805910D01*
X5456101Y25805910D01*
X5469292Y25804500D01*
X7212554Y25804500D01*
X7395911Y25819575D01*
X7415772Y25824564D01*
X7415774Y25824564D01*
X7615351Y25874694D01*
X7615352Y25874694D01*
X7635217Y25879684D01*
X7653995Y25887849D01*
X7653998Y25887850D01*
X7842716Y25969907D01*
X7842721Y25969910D01*
X7861493Y25978072D01*
X8068661Y26112095D01*
X8251158Y26278154D01*
X8281676Y26316796D01*
X8391393Y26455722D01*
X8391397Y26455728D01*
X8404082Y26471790D01*
X8523327Y26687802D01*
X8535275Y26721540D01*
X8598855Y26901086D01*
X8605691Y26920390D01*
X8648961Y27163306D01*
X8650443Y27284598D01*
X8651725Y27389550D01*
X8651725Y27389552D01*
X8651975Y27410028D01*
X8646365Y27446694D01*
X8627990Y27566774D01*
X8614653Y27653930D01*
X8537997Y27888460D01*
X8424065Y28107321D01*
X8381965Y28163393D01*
X8313720Y28287953D01*
X8283333Y28426694D01*
X8293263Y28568377D01*
X8342709Y28701522D01*
X8427662Y28815344D01*
X8541242Y28900621D01*
X8674247Y28950445D01*
X8781010Y28962000D01*
X11645074Y28962000D01*
X11785659Y28941787D01*
X11896828Y28893837D01*
X12049433Y28804662D01*
X12068571Y28797354D01*
X12260803Y28723948D01*
X12260806Y28723947D01*
X12279939Y28716641D01*
X12300005Y28712558D01*
X12300010Y28712557D01*
X12489064Y28674093D01*
X12521726Y28667448D01*
X12542189Y28666698D01*
X12542195Y28666697D01*
X12747838Y28659157D01*
X12747841Y28659157D01*
X12768300Y28658407D01*
X12833014Y28666697D01*
X12992723Y28687156D01*
X12992725Y28687157D01*
X13013041Y28689759D01*
X13249374Y28760662D01*
X13271947Y28771720D01*
X13360994Y28815344D01*
X13470954Y28869213D01*
X13584837Y28950445D01*
X13655156Y29000603D01*
X13655158Y29000605D01*
X13671829Y29012496D01*
X13846605Y29186663D01*
X13925095Y29295894D01*
X13978640Y29370409D01*
X13978642Y29370412D01*
X13990588Y29387037D01*
X14010313Y29426946D01*
X14090839Y29589880D01*
X14090839Y29589881D01*
X14099911Y29608236D01*
X14171639Y29844320D01*
X14203845Y30088950D01*
X14205643Y30162500D01*
X14202650Y30198910D01*
X14187103Y30388002D01*
X14185425Y30408411D01*
X14172004Y30461845D01*
X14130306Y30627851D01*
X14130306Y30627852D01*
X14125316Y30647717D01*
X14110237Y30682396D01*
X14035093Y30855216D01*
X14035090Y30855221D01*
X14026928Y30873993D01*
X13892905Y31081161D01*
X13866635Y31110032D01*
X13740625Y31248515D01*
X13726846Y31263658D01*
X13705737Y31280329D01*
X13549278Y31403893D01*
X13549272Y31403897D01*
X13533210Y31416582D01*
X13317198Y31535827D01*
X13297903Y31542660D01*
X13297898Y31542662D01*
X13103914Y31611355D01*
X13103915Y31611355D01*
X13084610Y31618191D01*
X12841694Y31661461D01*
X12754951Y31662521D01*
X12615450Y31664225D01*
X12615448Y31664225D01*
X12594972Y31664475D01*
X12574735Y31661378D01*
X12574730Y31661378D01*
X12499285Y31649833D01*
X12351070Y31627153D01*
X12116540Y31550497D01*
X11897679Y31436565D01*
X11896132Y31435404D01*
X11776154Y31381940D01*
X11639980Y31363000D01*
X6724448Y31363000D01*
X6691813Y31364068D01*
X6658767Y31366234D01*
X6658766Y31366234D01*
X6635940Y31367730D01*
X6613217Y31365041D01*
X6591515Y31364472D01*
X6566550Y31363000D01*
X4819445Y31363000D01*
X4786809Y31364068D01*
X4771894Y31365046D01*
X4753764Y31366234D01*
X4753763Y31366234D01*
X4730939Y31367730D01*
X4708222Y31365041D01*
X4708217Y31365041D01*
X4643483Y31357379D01*
X4630493Y31356014D01*
X4565569Y31350048D01*
X4565560Y31350046D01*
X4542789Y31347954D01*
X4527551Y31343657D01*
X4511832Y31341796D01*
X4489982Y31335011D01*
X4489975Y31335010D01*
X4427730Y31315683D01*
X4415209Y31311974D01*
X4352449Y31294274D01*
X4352442Y31294271D01*
X4330436Y31288065D01*
X4316237Y31281063D01*
X4301120Y31276369D01*
X4223153Y31235349D01*
X4211551Y31229438D01*
X4153081Y31200604D01*
X4153075Y31200601D01*
X4132553Y31190480D01*
X4119868Y31181007D01*
X4105859Y31173637D01*
X4036697Y31119114D01*
X4026336Y31111164D01*
X3955767Y31058467D01*
X3940242Y31041672D01*
X3902046Y31000352D01*
X3888465Y30986228D01*
X2406387Y29504150D01*
X2382554Y29481828D01*
X2340457Y29444910D01*
X2285901Y29375706D01*
X2277707Y29365588D01*
X2221398Y29297883D01*
X2213663Y29284072D01*
X2203863Y29271640D01*
X2167901Y29203288D01*
X2162860Y29193706D01*
X2156627Y29182228D01*
X2124771Y29125346D01*
X2124767Y29125336D01*
X2113590Y29105379D01*
X2108502Y29090389D01*
X2101131Y29076380D01*
X2094346Y29054529D01*
X2094344Y29054524D01*
X2075014Y28992273D01*
X2070979Y28979853D01*
X2064919Y28962000D01*
X2042669Y28896452D01*
X2040397Y28880786D01*
X2035703Y28865667D01*
X2033015Y28842959D01*
X2033015Y28842957D01*
X2025355Y28778234D01*
X2023650Y28765279D01*
X2016598Y28716641D01*
X2011009Y28678098D01*
X2011907Y28655240D01*
X2011907Y28655238D01*
X2014115Y28599044D01*
X2014500Y28579454D01*
X2014500Y17820963D01*
X1994287Y17680378D01*
X1927722Y17539763D01*
X1917397Y17524628D01*
X1917389Y17524615D01*
X1905851Y17507700D01*
X1897229Y17489125D01*
X1897226Y17489120D01*
X1865791Y17421398D01*
X1801965Y17283896D01*
X1796493Y17264164D01*
X1796491Y17264159D01*
X1741498Y17065861D01*
X1736026Y17046129D01*
X1709806Y16800786D01*
X1710985Y16780340D01*
X1721666Y16595113D01*
X1724010Y16554455D01*
X1728511Y16534483D01*
X1728511Y16534482D01*
X1772079Y16341158D01*
X1778255Y16313751D01*
X1871084Y16085139D01*
X1881778Y16067689D01*
X1881781Y16067682D01*
X1940967Y15971101D01*
X1997188Y15840672D01*
X2014500Y15710373D01*
X2014500Y4825826D01*
X2002775Y4726765D01*
X2002669Y4726452D01*
X1999386Y4703808D01*
X1998875Y4701681D01*
X1990173Y4657935D01*
X1989831Y4655778D01*
X1984200Y4633604D01*
X1982704Y4610775D01*
X1981352Y4590151D01*
X1977256Y4551184D01*
X1971009Y4508098D01*
X1971907Y4485238D01*
X1971793Y4483058D01*
X1971209Y4438453D01*
X1971266Y4436268D01*
X1969770Y4413440D01*
X1972459Y4390723D01*
X1972459Y4390720D01*
X1974888Y4370198D01*
X1977962Y4331134D01*
X1979671Y4287632D01*
X1984720Y4265321D01*
X1985001Y4263184D01*
X1992557Y4219211D01*
X1993014Y4217061D01*
X1995704Y4194333D01*
X2002490Y4172477D01*
X2002491Y4172474D01*
X2008618Y4152739D01*
X2018755Y4114908D01*
X2028366Y4072435D01*
X2037395Y4051420D01*
X2038061Y4049369D01*
X2053516Y4007475D01*
X2054347Y4005469D01*
X2061131Y3983621D01*
X2071781Y3963378D01*
X2071783Y3963374D01*
X2081408Y3945080D01*
X2098273Y3909722D01*
X2100555Y3904412D01*
X2115461Y3869717D01*
X2128171Y3850695D01*
X2129206Y3848789D01*
X2152039Y3810410D01*
X2153211Y3808606D01*
X2163863Y3788359D01*
X2178025Y3770395D01*
X2178026Y3770393D01*
X2190832Y3754149D01*
X2213850Y3722467D01*
X2238040Y3686265D01*
X2269903Y3653557D01*
X2271405Y3651943D01*
X2275543Y3646693D01*
X2313690Y3608546D01*
X2318279Y3603897D01*
X2391998Y3528222D01*
X2398198Y3523840D01*
X2400814Y3521422D01*
X3075857Y2846379D01*
X3098179Y2822546D01*
X3135090Y2780457D01*
X3153055Y2766294D01*
X3153060Y2766290D01*
X3204263Y2725925D01*
X3214412Y2717707D01*
X3264528Y2676026D01*
X3264532Y2676024D01*
X3282117Y2661398D01*
X3295928Y2653663D01*
X3308360Y2643863D01*
X3386314Y2602849D01*
X3397772Y2596627D01*
X3454658Y2564769D01*
X3454666Y2564766D01*
X3474621Y2553590D01*
X3489611Y2548501D01*
X3503620Y2541131D01*
X3587762Y2515004D01*
X3600129Y2510985D01*
X3661874Y2490025D01*
X3661877Y2490024D01*
X3683548Y2482668D01*
X3699220Y2480396D01*
X3714333Y2475703D01*
X3787962Y2466989D01*
X3801757Y2465356D01*
X3814707Y2463651D01*
X3879258Y2454292D01*
X3879261Y2454292D01*
X3901902Y2451009D01*
X3924760Y2451907D01*
X3924762Y2451907D01*
X3980956Y2454115D01*
X4000546Y2454500D01*
X21358052Y2454500D01*
X21390688Y2453432D01*
X21423733Y2451266D01*
X21423734Y2451266D01*
X21446560Y2449770D01*
X21469275Y2452459D01*
X21490980Y2453027D01*
X21515951Y2454500D01*
X22361000Y2454500D01*
X22501585Y2434287D01*
X22630780Y2375286D01*
X22738119Y2282276D01*
X22814906Y2162792D01*
X22854921Y2026515D01*
X22860000Y1955500D01*
X22860000Y1199500D01*
X22839787Y1058915D01*
X22780786Y929720D01*
X22687776Y822381D01*
X22568292Y745594D01*
X22432015Y705579D01*
X22361000Y700500D01*
X1199500Y700500D01*
X1058915Y720713D01*
X929720Y779714D01*
X822381Y872724D01*
X745594Y992208D01*
X705579Y1128485D01*
X700500Y1199500D01*
X700500Y48800500D01*
X720713Y48941085D01*
X779714Y49070280D01*
X872724Y49177619D01*
X992208Y49254406D01*
X1128485Y49294421D01*
X1199500Y49299500D01*
X2198196Y49299500D01*
X2338781Y49279287D01*
G37*
%TD.AperFunction*%
%TA.AperFunction,Conductor*%
G36*
X48962582Y33531602D02*
G01*
X49088979Y33466821D01*
X49192004Y33369055D01*
X49263312Y33246222D01*
X49297126Y33108276D01*
X49299500Y33059659D01*
X49299500Y1199500D01*
X49279287Y1058915D01*
X49220286Y929720D01*
X49127276Y822381D01*
X49007792Y745594D01*
X48871515Y705579D01*
X48800500Y700500D01*
X28439000Y700500D01*
X28298415Y720713D01*
X28169220Y779714D01*
X28061881Y872724D01*
X27985094Y992208D01*
X27945079Y1128485D01*
X27940000Y1199500D01*
X27940000Y1955500D01*
X27960213Y2096085D01*
X28019214Y2225280D01*
X28112224Y2332619D01*
X28231708Y2409406D01*
X28367985Y2449421D01*
X28439000Y2454500D01*
X36917225Y2454500D01*
X36936263Y2454001D01*
X36956902Y2451009D01*
X36979761Y2451907D01*
X36979763Y2451907D01*
X37035956Y2454115D01*
X37055546Y2454500D01*
X45943052Y2454500D01*
X45975688Y2453432D01*
X46008733Y2451266D01*
X46008734Y2451266D01*
X46031560Y2449770D01*
X46054278Y2452459D01*
X46054284Y2452459D01*
X46119029Y2460122D01*
X46132013Y2461487D01*
X46196925Y2467452D01*
X46196926Y2467452D01*
X46219711Y2469546D01*
X46234949Y2473844D01*
X46250667Y2475704D01*
X46272519Y2482489D01*
X46272523Y2482490D01*
X46334735Y2501807D01*
X46347255Y2505516D01*
X46410035Y2523222D01*
X46410038Y2523223D01*
X46432064Y2529435D01*
X46446264Y2536438D01*
X46461379Y2541131D01*
X46487086Y2554656D01*
X46539316Y2582135D01*
X46550939Y2588058D01*
X46629947Y2627020D01*
X46642633Y2636493D01*
X46656641Y2643863D01*
X46725865Y2698434D01*
X46736177Y2706346D01*
X46788398Y2745341D01*
X46788401Y2745344D01*
X46806733Y2759033D01*
X46860442Y2817135D01*
X46874022Y2831258D01*
X47808621Y3765857D01*
X47832454Y3788179D01*
X47832723Y3788415D01*
X47874543Y3825090D01*
X47888706Y3843055D01*
X47888710Y3843060D01*
X47929075Y3894263D01*
X47937293Y3904412D01*
X47978974Y3954528D01*
X47978976Y3954532D01*
X47993602Y3972117D01*
X48001337Y3985928D01*
X48011137Y3998360D01*
X48052151Y4076314D01*
X48058373Y4087772D01*
X48090231Y4144658D01*
X48090234Y4144666D01*
X48101410Y4164621D01*
X48106499Y4179611D01*
X48113869Y4193620D01*
X48139996Y4277762D01*
X48144015Y4290129D01*
X48164975Y4351874D01*
X48164976Y4351877D01*
X48172332Y4373548D01*
X48174604Y4389220D01*
X48179297Y4404333D01*
X48189644Y4491757D01*
X48191349Y4504707D01*
X48200708Y4569258D01*
X48200708Y4569261D01*
X48203991Y4591902D01*
X48200885Y4670956D01*
X48200500Y4690546D01*
X48200500Y20768052D01*
X48201568Y20800687D01*
X48203734Y20833733D01*
X48203734Y20833734D01*
X48205230Y20856560D01*
X48202541Y20879283D01*
X48201972Y20900985D01*
X48200500Y20925950D01*
X48200500Y26768038D01*
X48201568Y26800676D01*
X48203735Y26833734D01*
X48203735Y26833736D01*
X48205231Y26856560D01*
X48197676Y26920390D01*
X48194876Y26944050D01*
X48193511Y26957040D01*
X48187549Y27021918D01*
X48187548Y27021925D01*
X48185454Y27044711D01*
X48181158Y27059943D01*
X48179297Y27075667D01*
X48153176Y27159792D01*
X48149484Y27172252D01*
X48125565Y27257064D01*
X48118565Y27271259D01*
X48113870Y27286379D01*
X48103221Y27306619D01*
X48103218Y27306627D01*
X48072846Y27364354D01*
X48066941Y27375944D01*
X48027980Y27454947D01*
X48018509Y27467630D01*
X48011138Y27481640D01*
X47956581Y27550845D01*
X47948686Y27561133D01*
X47895967Y27631733D01*
X47871955Y27653930D01*
X47837852Y27685454D01*
X47823728Y27699035D01*
X47409150Y28113613D01*
X47386828Y28137446D01*
X47386158Y28138210D01*
X47349910Y28179543D01*
X47280706Y28234099D01*
X47270588Y28242293D01*
X47220470Y28283975D01*
X47202883Y28298602D01*
X47189072Y28306337D01*
X47176640Y28316137D01*
X47098686Y28357151D01*
X47087228Y28363373D01*
X47030346Y28395229D01*
X47030336Y28395233D01*
X47010379Y28406410D01*
X46995389Y28411498D01*
X46981380Y28418869D01*
X46959529Y28425654D01*
X46959524Y28425656D01*
X46897273Y28444986D01*
X46884853Y28449021D01*
X46823108Y28469980D01*
X46823107Y28469980D01*
X46801452Y28477331D01*
X46785786Y28479603D01*
X46770667Y28484297D01*
X46747959Y28486985D01*
X46747957Y28486985D01*
X46683234Y28494645D01*
X46670279Y28496350D01*
X46605736Y28505709D01*
X46605731Y28505709D01*
X46583098Y28508991D01*
X46560240Y28508093D01*
X46560238Y28508093D01*
X46504044Y28505885D01*
X46484454Y28505500D01*
X45056963Y28505500D01*
X44916378Y28525713D01*
X44775763Y28592278D01*
X44760628Y28602603D01*
X44760615Y28602611D01*
X44743700Y28614149D01*
X44725125Y28622771D01*
X44725120Y28622774D01*
X44605933Y28678098D01*
X44519896Y28718035D01*
X44404255Y28750105D01*
X44274190Y28807150D01*
X44165461Y28898532D01*
X44086881Y29016844D01*
X44044817Y29152502D01*
X44042676Y29294516D01*
X44071706Y29400058D01*
X44073302Y29412915D01*
X44069282Y29421286D01*
X44061320Y29430974D01*
X43205237Y30287058D01*
X43179570Y30306272D01*
X43167250Y30299545D01*
X42306351Y29438645D01*
X42286569Y29412219D01*
X42296990Y29364316D01*
X42310596Y29327837D01*
X42320730Y29186169D01*
X42290541Y29047384D01*
X42222474Y28922727D01*
X42122045Y28822295D01*
X41997389Y28754226D01*
X41944573Y28737799D01*
X41914783Y28730316D01*
X41896005Y28722151D01*
X41896002Y28722150D01*
X41707284Y28640093D01*
X41707279Y28640090D01*
X41688507Y28631928D01*
X41481339Y28497905D01*
X41298842Y28331846D01*
X41286154Y28315780D01*
X41286153Y28315779D01*
X41158607Y28154278D01*
X41158603Y28154272D01*
X41145918Y28138210D01*
X41026673Y27922198D01*
X41019840Y27902903D01*
X41019838Y27902898D01*
X40998795Y27843474D01*
X40944309Y27689610D01*
X40901039Y27446694D01*
X40900789Y27426223D01*
X40898454Y27235053D01*
X40898025Y27199972D01*
X40901122Y27179735D01*
X40901122Y27179730D01*
X40906720Y27143149D01*
X40935347Y26956070D01*
X41012003Y26721540D01*
X41021455Y26703384D01*
X41021457Y26703378D01*
X41025865Y26694911D01*
X41072850Y26560877D01*
X41080171Y26419036D01*
X41047233Y26280878D01*
X40976706Y26157595D01*
X40874303Y26059177D01*
X40748320Y25993595D01*
X40608964Y25966163D01*
X40583246Y25965500D01*
X31197123Y25965500D01*
X31056538Y25985713D01*
X30927343Y26044714D01*
X30820004Y26137724D01*
X30743217Y26257208D01*
X30703202Y26393485D01*
X30703202Y26535515D01*
X30743217Y26671792D01*
X30820004Y26791276D01*
X30844893Y26817961D01*
X30977099Y26949706D01*
X30977108Y26949716D01*
X30991605Y26964163D01*
X31064981Y27066277D01*
X31123640Y27147909D01*
X31123642Y27147912D01*
X31135588Y27164537D01*
X31181583Y27257600D01*
X31235839Y27367380D01*
X31235839Y27367381D01*
X31244911Y27385736D01*
X31252292Y27410028D01*
X31262906Y27444966D01*
X31316639Y27621820D01*
X31348845Y27866450D01*
X31350643Y27940000D01*
X31336887Y28107321D01*
X31332103Y28165502D01*
X31330425Y28185911D01*
X31324884Y28207973D01*
X31275306Y28405351D01*
X31275306Y28405352D01*
X31270316Y28425217D01*
X31255237Y28459896D01*
X31180093Y28632716D01*
X31180090Y28632721D01*
X31171928Y28651493D01*
X31125528Y28723217D01*
X31066139Y28852229D01*
X31045500Y28994257D01*
X31045500Y30685500D01*
X31065713Y30826085D01*
X31124714Y30955280D01*
X31217724Y31062619D01*
X31337208Y31139406D01*
X31473485Y31179421D01*
X31544500Y31184500D01*
X36902828Y31184500D01*
X36935464Y31183432D01*
X36968509Y31181266D01*
X36968510Y31181266D01*
X36991336Y31179770D01*
X37014054Y31182459D01*
X37014060Y31182459D01*
X37078805Y31190122D01*
X37091789Y31191487D01*
X37156701Y31197452D01*
X37156702Y31197452D01*
X37179487Y31199546D01*
X37194725Y31203844D01*
X37210443Y31205704D01*
X37232295Y31212489D01*
X37232299Y31212490D01*
X37294511Y31231807D01*
X37307031Y31235516D01*
X37369811Y31253222D01*
X37369814Y31253223D01*
X37391840Y31259435D01*
X37406040Y31266438D01*
X37421155Y31271131D01*
X37441407Y31281786D01*
X37499092Y31312135D01*
X37510715Y31318058D01*
X37589723Y31357020D01*
X37602409Y31366493D01*
X37616417Y31373863D01*
X37685641Y31428434D01*
X37695953Y31436346D01*
X37748174Y31475341D01*
X37748177Y31475344D01*
X37766509Y31489033D01*
X37790590Y31515083D01*
X37820217Y31547134D01*
X37833798Y31561258D01*
X38515998Y32243458D01*
X38629699Y32328574D01*
X38762774Y32378208D01*
X38868844Y32389612D01*
X40915813Y32389612D01*
X41056398Y32369399D01*
X41185593Y32310398D01*
X41292932Y32217388D01*
X41369719Y32097904D01*
X41409734Y31961627D01*
X41409734Y31819597D01*
X41378315Y31703281D01*
X41375001Y31695098D01*
X41364124Y31661624D01*
X41307765Y31434734D01*
X41301714Y31400059D01*
X41277886Y31167503D01*
X41276780Y31132308D01*
X41285957Y30898714D01*
X41289819Y30863733D01*
X41331822Y30633744D01*
X41340575Y30599658D01*
X41414558Y30377901D01*
X41428034Y30345369D01*
X41488516Y30224325D01*
X41506136Y30198910D01*
X41513619Y30202649D01*
X41520291Y30208221D01*
X42827154Y31515083D01*
X42940855Y31600199D01*
X43073930Y31649833D01*
X43215598Y31659966D01*
X43354383Y31629775D01*
X43479040Y31561707D01*
X43532846Y31515083D01*
X44832718Y30215212D01*
X44857476Y30196678D01*
X44864804Y30204006D01*
X44870578Y30214911D01*
X44965106Y30428730D01*
X44977029Y30461845D01*
X45040487Y30686852D01*
X45047624Y30721317D01*
X45079398Y30957881D01*
X45081494Y30983233D01*
X45084453Y31077378D01*
X45083953Y31102822D01*
X45067096Y31340903D01*
X45062135Y31375762D01*
X45012932Y31604298D01*
X45003110Y31638104D01*
X44973672Y31717901D01*
X44943977Y31856793D01*
X44954616Y31998424D01*
X45004726Y32131321D01*
X45090247Y32244717D01*
X45204251Y32329426D01*
X45337503Y32378584D01*
X45441830Y32389612D01*
X46868164Y32389612D01*
X46900800Y32388544D01*
X46933845Y32386378D01*
X46933846Y32386378D01*
X46956672Y32384882D01*
X46979390Y32387571D01*
X46979396Y32387571D01*
X47044141Y32395234D01*
X47057125Y32396599D01*
X47122037Y32402564D01*
X47122038Y32402564D01*
X47144823Y32404658D01*
X47160061Y32408956D01*
X47175779Y32410816D01*
X47197631Y32417601D01*
X47197635Y32417602D01*
X47259847Y32436919D01*
X47272367Y32440628D01*
X47335147Y32458334D01*
X47335150Y32458335D01*
X47357176Y32464547D01*
X47371376Y32471550D01*
X47386491Y32476243D01*
X47406743Y32486898D01*
X47464428Y32517247D01*
X47476051Y32523170D01*
X47555059Y32562132D01*
X47567745Y32571605D01*
X47581753Y32578975D01*
X47650977Y32633546D01*
X47661289Y32641458D01*
X47713516Y32680458D01*
X47731845Y32694145D01*
X47785531Y32752222D01*
X47799110Y32766346D01*
X48353613Y33320850D01*
X48377447Y33343173D01*
X48419543Y33380090D01*
X48433704Y33398053D01*
X48438537Y33403146D01*
X48549970Y33491210D01*
X48681701Y33544311D01*
X48823055Y33558149D01*
X48962582Y33531602D01*
G37*
%TD.AperFunction*%
%TA.AperFunction,Conductor*%
G36*
X43351585Y12594787D02*
G01*
X43480780Y12535786D01*
X43588119Y12442776D01*
X43664906Y12323292D01*
X43704921Y12187015D01*
X43710000Y12116000D01*
X43710000Y10200690D01*
X43714563Y10168954D01*
X43728030Y10165000D01*
X44021006Y10165000D01*
X44039048Y10165654D01*
X44216986Y10178564D01*
X44252657Y10183768D01*
X44486601Y10235418D01*
X44521176Y10245726D01*
X44745193Y10330599D01*
X44777919Y10345789D01*
X44987346Y10462115D01*
X45027270Y10488240D01*
X45155975Y10548304D01*
X45296388Y10569675D01*
X45437134Y10550621D01*
X45566811Y10492687D01*
X45674913Y10400564D01*
X45752683Y10281718D01*
X45793819Y10145775D01*
X45799500Y10070692D01*
X45799500Y5358955D01*
X45779287Y5218370D01*
X45720286Y5089175D01*
X45653346Y5006109D01*
X45648891Y5001654D01*
X45535190Y4916538D01*
X45402115Y4866904D01*
X45296045Y4855500D01*
X38630429Y4855500D01*
X38489844Y4875713D01*
X38360649Y4934714D01*
X38253310Y5027724D01*
X38176523Y5147208D01*
X38136508Y5283485D01*
X38136508Y5425515D01*
X38177813Y5564595D01*
X38214592Y5643829D01*
X38243035Y5705104D01*
X38252653Y5739783D01*
X38303502Y5923139D01*
X38303502Y5923141D01*
X38308974Y5942871D01*
X38330500Y6144292D01*
X38330500Y7887554D01*
X38315425Y8070911D01*
X38255316Y8310217D01*
X38240237Y8344896D01*
X38165093Y8517716D01*
X38165090Y8517721D01*
X38156928Y8536493D01*
X38022905Y8743661D01*
X37996635Y8772532D01*
X37870625Y8911015D01*
X37856846Y8926158D01*
X37780484Y8986465D01*
X37679278Y9066393D01*
X37679272Y9066397D01*
X37663210Y9079082D01*
X37447198Y9198327D01*
X37427903Y9205160D01*
X37427898Y9205162D01*
X37233914Y9273855D01*
X37233915Y9273855D01*
X37214610Y9280691D01*
X36971694Y9323961D01*
X36884951Y9325021D01*
X36745450Y9326725D01*
X36745448Y9326725D01*
X36724972Y9326975D01*
X36704735Y9323878D01*
X36704730Y9323878D01*
X36603021Y9308314D01*
X36481070Y9289653D01*
X36246540Y9212997D01*
X36228384Y9203545D01*
X36228378Y9203543D01*
X36219911Y9199135D01*
X36085877Y9152150D01*
X35944036Y9144829D01*
X35805878Y9177767D01*
X35682595Y9248294D01*
X35584177Y9350697D01*
X35518595Y9476680D01*
X35491163Y9616036D01*
X35490500Y9641754D01*
X35490500Y10169000D01*
X35510713Y10309585D01*
X35569714Y10438780D01*
X35662724Y10546119D01*
X35782208Y10622906D01*
X35918485Y10662921D01*
X35989500Y10668000D01*
X40671672Y10668000D01*
X40671631Y10673126D01*
X40709184Y10678525D01*
X40770701Y10696588D01*
X40912731Y10696588D01*
X41049008Y10656574D01*
X41155075Y10591007D01*
X41178533Y10572079D01*
X41375382Y10435519D01*
X41406420Y10417164D01*
X41620927Y10310449D01*
X41654275Y10296771D01*
X41881935Y10222140D01*
X41916940Y10213413D01*
X42155764Y10171947D01*
X42186013Y10168580D01*
X42251723Y10165309D01*
X42264134Y10165000D01*
X42574310Y10165000D01*
X42606046Y10169563D01*
X42610000Y10183030D01*
X42610000Y12116000D01*
X42630213Y12256585D01*
X42689214Y12385780D01*
X42782224Y12493119D01*
X42901708Y12569906D01*
X43037985Y12609921D01*
X43109000Y12615000D01*
X43211000Y12615000D01*
X43351585Y12594787D01*
G37*
%TD.AperFunction*%
%TA.AperFunction,Conductor*%
G36*
X25746085Y38079787D02*
G01*
X25875280Y38020786D01*
X25982619Y37927776D01*
X26059406Y37808292D01*
X26099421Y37672015D01*
X26104500Y37601000D01*
X26104500Y21011948D01*
X26103432Y20979312D01*
X26103095Y20974163D01*
X26099770Y20923440D01*
X26102459Y20900722D01*
X26102459Y20900716D01*
X26110122Y20835971D01*
X26111487Y20822987D01*
X26119546Y20735289D01*
X26123844Y20720051D01*
X26125704Y20704333D01*
X26132489Y20682481D01*
X26132490Y20682477D01*
X26151807Y20620265D01*
X26155516Y20607745D01*
X26173222Y20544965D01*
X26179435Y20522936D01*
X26186438Y20508736D01*
X26191131Y20493621D01*
X26201786Y20473370D01*
X26201786Y20473369D01*
X26232135Y20415684D01*
X26238058Y20404061D01*
X26277020Y20325053D01*
X26286493Y20312367D01*
X26293863Y20298359D01*
X26348434Y20229135D01*
X26356346Y20218823D01*
X26395341Y20166602D01*
X26395344Y20166599D01*
X26409033Y20148267D01*
X26465854Y20095742D01*
X26467135Y20094558D01*
X26481259Y20080977D01*
X28251026Y18311210D01*
X28336142Y18197509D01*
X28384972Y18068066D01*
X28408255Y17964751D01*
X28501084Y17736139D01*
X28630006Y17525759D01*
X28643412Y17510282D01*
X28643414Y17510280D01*
X28755613Y17380754D01*
X28791557Y17339259D01*
X28806419Y17326920D01*
X28892312Y17214652D01*
X28943338Y17082104D01*
X28954953Y16940549D01*
X28953764Y16925035D01*
X28952938Y16916093D01*
X28959051Y16904326D01*
X28962180Y16900638D01*
X29819763Y16043054D01*
X29845430Y16023840D01*
X29857750Y16030567D01*
X30717152Y16889970D01*
X30737431Y16917059D01*
X30740498Y16959938D01*
X30736751Y17012317D01*
X30766939Y17151102D01*
X30835005Y17275760D01*
X30882250Y17330188D01*
X30977099Y17424706D01*
X30977108Y17424716D01*
X30991605Y17439163D01*
X31103467Y17594836D01*
X31123640Y17622909D01*
X31123642Y17622912D01*
X31135588Y17639537D01*
X31153723Y17676229D01*
X31235839Y17842380D01*
X31235839Y17842381D01*
X31244911Y17860736D01*
X31316639Y18096820D01*
X31348845Y18341450D01*
X31350643Y18415000D01*
X31349548Y18428326D01*
X31332103Y18640502D01*
X31330425Y18660911D01*
X31270316Y18900217D01*
X31240296Y18969259D01*
X31202352Y19056525D01*
X31164831Y19193509D01*
X31167422Y19335516D01*
X31209917Y19471040D01*
X31288871Y19589102D01*
X31397890Y19680138D01*
X31528140Y19736772D01*
X31659965Y19754500D01*
X32521000Y19754500D01*
X32661585Y19734287D01*
X32790780Y19675286D01*
X32898119Y19582276D01*
X32974906Y19462792D01*
X33014921Y19326515D01*
X33020000Y19255500D01*
X33020000Y15875000D01*
X33026720Y15875000D01*
X33042114Y15857235D01*
X33118902Y15737751D01*
X33158917Y15601474D01*
X33158917Y15459444D01*
X33118903Y15323167D01*
X33042116Y15203684D01*
X33017842Y15177612D01*
X32597875Y14757645D01*
X32484174Y14672529D01*
X32351099Y14622895D01*
X32209431Y14612762D01*
X32070646Y14642953D01*
X31945989Y14711021D01*
X31845559Y14811451D01*
X31777491Y14936108D01*
X31747300Y15074893D01*
X31746275Y15126168D01*
X31749453Y15227268D01*
X31748953Y15252710D01*
X31732096Y15490791D01*
X31727135Y15525650D01*
X31677932Y15754186D01*
X31668110Y15787995D01*
X31587199Y16007313D01*
X31572707Y16039410D01*
X31536917Y16105740D01*
X31518507Y16130592D01*
X31507656Y16124737D01*
X31506923Y16124105D01*
X29845000Y14462183D01*
X28971351Y13588533D01*
X28951072Y13561444D01*
X28947893Y13516991D01*
X28951417Y13467722D01*
X28921228Y13328938D01*
X28853161Y13204280D01*
X28814451Y13158568D01*
X28674896Y13012532D01*
X28663359Y12995620D01*
X28663357Y12995617D01*
X28581471Y12875576D01*
X28535851Y12808700D01*
X28431965Y12584896D01*
X28426493Y12565164D01*
X28426491Y12565159D01*
X28406513Y12493119D01*
X28366026Y12347129D01*
X28339806Y12101786D01*
X28354010Y11855455D01*
X28408255Y11614751D01*
X28501084Y11386139D01*
X28630006Y11175759D01*
X28643412Y11160282D01*
X28643414Y11160280D01*
X28655317Y11146539D01*
X28791557Y10989259D01*
X28981399Y10831649D01*
X29194433Y10707162D01*
X29213571Y10699854D01*
X29405803Y10626448D01*
X29405806Y10626447D01*
X29424939Y10619141D01*
X29512427Y10601341D01*
X29633484Y10576711D01*
X29767217Y10528875D01*
X29796570Y10507513D01*
X29797617Y10508325D01*
X29929801Y10560286D01*
X29980998Y10569579D01*
X30137724Y10589656D01*
X30137728Y10589657D01*
X30158041Y10592259D01*
X30394374Y10663162D01*
X30615954Y10771713D01*
X30644040Y10791746D01*
X30770225Y10856926D01*
X30909667Y10883916D01*
X30933806Y10884500D01*
X31566046Y10884500D01*
X31598682Y10883432D01*
X31631727Y10881266D01*
X31631728Y10881266D01*
X31654554Y10879770D01*
X31677272Y10882459D01*
X31677278Y10882459D01*
X31742023Y10890122D01*
X31755007Y10891487D01*
X31819919Y10897452D01*
X31819920Y10897452D01*
X31842705Y10899546D01*
X31857943Y10903844D01*
X31873661Y10905704D01*
X31895513Y10912489D01*
X31895517Y10912490D01*
X31957729Y10931807D01*
X31970249Y10935516D01*
X32033029Y10953222D01*
X32033032Y10953223D01*
X32055058Y10959435D01*
X32069258Y10966438D01*
X32084373Y10971131D01*
X32118829Y10989259D01*
X32162310Y11012135D01*
X32173933Y11018058D01*
X32252941Y11057020D01*
X32265627Y11066493D01*
X32279635Y11073863D01*
X32297606Y11088030D01*
X32316788Y11100487D01*
X32319012Y11097063D01*
X32404459Y11146539D01*
X32542444Y11180198D01*
X32684321Y11173618D01*
X32818598Y11127332D01*
X32934396Y11045092D01*
X33022333Y10933559D01*
X33075286Y10801769D01*
X33089500Y10683517D01*
X33089500Y10072472D01*
X33069287Y9931887D01*
X33010286Y9802692D01*
X32917276Y9695353D01*
X32797792Y9618566D01*
X32661515Y9578551D01*
X32519485Y9578551D01*
X32424341Y9601949D01*
X32333656Y9633973D01*
X32303324Y9640017D01*
X32301273Y9634209D01*
X32300000Y9621309D01*
X32300000Y6974000D01*
X32279787Y6833415D01*
X32220786Y6704220D01*
X32127776Y6596881D01*
X32008292Y6520094D01*
X31872015Y6480079D01*
X31801000Y6475000D01*
X29159000Y6475000D01*
X29018415Y6495213D01*
X28889220Y6554214D01*
X28781881Y6647224D01*
X28705094Y6766708D01*
X28665079Y6902985D01*
X28660000Y6974000D01*
X28660000Y7610690D01*
X29760000Y7610690D01*
X29764563Y7578954D01*
X29778030Y7575000D01*
X31164310Y7575000D01*
X31196046Y7579563D01*
X31200000Y7593030D01*
X31200000Y9610872D01*
X31195599Y9641483D01*
X31179917Y9641483D01*
X31147710Y9631081D01*
X30925653Y9541139D01*
X30893290Y9525214D01*
X30734821Y9432426D01*
X30603290Y9378834D01*
X30461988Y9364469D01*
X30322363Y9390496D01*
X30218997Y9439401D01*
X30200713Y9450782D01*
X29988697Y9562329D01*
X29955657Y9576763D01*
X29878246Y9604100D01*
X29780444Y9655299D01*
X29764292Y9642760D01*
X29761273Y9634209D01*
X29760000Y9621309D01*
X29760000Y7610690D01*
X28660000Y7610690D01*
X28660000Y9610872D01*
X28655599Y9641483D01*
X28639917Y9641483D01*
X28607710Y9631081D01*
X28385658Y9541141D01*
X28384289Y9540467D01*
X28382794Y9539981D01*
X28368895Y9534351D01*
X28368498Y9535330D01*
X28249226Y9496530D01*
X28107255Y9492425D01*
X27969878Y9528483D01*
X27959400Y9534009D01*
X27940000Y9539706D01*
X27940000Y9545000D01*
X23289500Y9545000D01*
X23148915Y9565213D01*
X23019720Y9624214D01*
X22912381Y9717224D01*
X22835594Y9836708D01*
X22795579Y9972985D01*
X22790500Y10044000D01*
X22790500Y10368163D01*
X22810713Y10508748D01*
X22869714Y10637943D01*
X22962724Y10745282D01*
X22999711Y10774393D01*
X23196829Y10914996D01*
X23371605Y11089163D01*
X23503059Y11272101D01*
X23503640Y11272909D01*
X23503642Y11272912D01*
X23515588Y11289537D01*
X23554705Y11368683D01*
X23615839Y11492380D01*
X23615839Y11492381D01*
X23624911Y11510736D01*
X23696639Y11746820D01*
X23728845Y11991450D01*
X23730643Y12065000D01*
X23726707Y12112883D01*
X23712103Y12290502D01*
X23710425Y12310911D01*
X23705402Y12330911D01*
X23655306Y12530351D01*
X23655306Y12530352D01*
X23650316Y12550217D01*
X23635237Y12584896D01*
X23560093Y12757716D01*
X23560090Y12757721D01*
X23551928Y12776493D01*
X23417905Y12983661D01*
X23391635Y13012532D01*
X23265625Y13151015D01*
X23251846Y13166158D01*
X23132660Y13260285D01*
X23034860Y13363279D01*
X22970038Y13489654D01*
X22943446Y13629173D01*
X22957238Y13770532D01*
X23010297Y13902279D01*
X23098324Y14013741D01*
X23152149Y14058126D01*
X23196829Y14089996D01*
X23371605Y14264163D01*
X23484270Y14420953D01*
X23503640Y14447909D01*
X23503642Y14447912D01*
X23515588Y14464537D01*
X23595758Y14626748D01*
X23615839Y14667380D01*
X23615839Y14667381D01*
X23624911Y14685736D01*
X23632292Y14710028D01*
X23670818Y14836834D01*
X23696639Y14921820D01*
X23728845Y15166450D01*
X23730643Y15240000D01*
X23727174Y15282196D01*
X27941780Y15282196D01*
X27950957Y15048602D01*
X27954819Y15013621D01*
X27996822Y14783632D01*
X28005575Y14749546D01*
X28079558Y14527789D01*
X28093034Y14495257D01*
X28153516Y14374213D01*
X28171136Y14348798D01*
X28178619Y14352537D01*
X28185291Y14358109D01*
X29041946Y15214763D01*
X29061160Y15240430D01*
X29054433Y15252750D01*
X28194450Y16112732D01*
X28169692Y16131266D01*
X28159257Y16120831D01*
X28143250Y16093274D01*
X28127767Y16061670D01*
X28039999Y15844980D01*
X28029124Y15811512D01*
X27972765Y15584622D01*
X27966714Y15549947D01*
X27942886Y15317391D01*
X27941780Y15282196D01*
X23727174Y15282196D01*
X23723806Y15323167D01*
X23712103Y15465502D01*
X23710425Y15485911D01*
X23700444Y15525650D01*
X23655306Y15705351D01*
X23655306Y15705352D01*
X23650316Y15725217D01*
X23637720Y15754186D01*
X23560093Y15932716D01*
X23560090Y15932721D01*
X23551928Y15951493D01*
X23417905Y16158661D01*
X23251846Y16341158D01*
X23132660Y16435285D01*
X23034860Y16538279D01*
X22970038Y16664654D01*
X22943446Y16804173D01*
X22957238Y16945532D01*
X23010297Y17077279D01*
X23098324Y17188741D01*
X23152149Y17233126D01*
X23196829Y17264996D01*
X23371605Y17439163D01*
X23483467Y17594836D01*
X23503640Y17622909D01*
X23503642Y17622912D01*
X23515588Y17639537D01*
X23533723Y17676229D01*
X23615839Y17842380D01*
X23615839Y17842381D01*
X23624911Y17860736D01*
X23696639Y18096820D01*
X23728845Y18341450D01*
X23730643Y18415000D01*
X23729548Y18428326D01*
X23712103Y18640502D01*
X23710425Y18660911D01*
X23650316Y18900217D01*
X23620296Y18969259D01*
X23560093Y19107716D01*
X23560090Y19107721D01*
X23551928Y19126493D01*
X23417905Y19333661D01*
X23251846Y19516158D01*
X23132660Y19610285D01*
X23034860Y19713279D01*
X22970038Y19839654D01*
X22943446Y19979173D01*
X22957238Y20120532D01*
X23010297Y20252279D01*
X23098324Y20363741D01*
X23152149Y20408126D01*
X23196829Y20439996D01*
X23371605Y20614163D01*
X23458643Y20735289D01*
X23503640Y20797909D01*
X23503642Y20797912D01*
X23515588Y20814537D01*
X23525076Y20833733D01*
X23615839Y21017380D01*
X23615839Y21017381D01*
X23624911Y21035736D01*
X23696639Y21271820D01*
X23728845Y21516450D01*
X23730643Y21590000D01*
X23725536Y21652126D01*
X23712103Y21815502D01*
X23710425Y21835911D01*
X23700243Y21876450D01*
X23655306Y22055351D01*
X23655306Y22055352D01*
X23650316Y22075217D01*
X23635237Y22109896D01*
X23560093Y22282716D01*
X23560090Y22282721D01*
X23551928Y22301493D01*
X23505528Y22373217D01*
X23446139Y22502229D01*
X23425500Y22644257D01*
X23425500Y23704478D01*
X23445713Y23845063D01*
X23496773Y23961481D01*
X23503640Y23972910D01*
X23515588Y23989537D01*
X23595758Y24151748D01*
X23615839Y24192380D01*
X23615839Y24192381D01*
X23624911Y24210736D01*
X23696639Y24446820D01*
X23728845Y24691450D01*
X23730643Y24765000D01*
X23710425Y25010911D01*
X23650316Y25250217D01*
X23551928Y25476493D01*
X23417905Y25683661D01*
X23391635Y25712532D01*
X23290342Y25823851D01*
X23251846Y25866158D01*
X23132660Y25960285D01*
X23034860Y26063279D01*
X22970038Y26189654D01*
X22943446Y26329173D01*
X22957238Y26470532D01*
X23010297Y26602279D01*
X23098324Y26713741D01*
X23152149Y26758126D01*
X23196829Y26789996D01*
X23371605Y26964163D01*
X23444981Y27066277D01*
X23503640Y27147909D01*
X23503642Y27147912D01*
X23515588Y27164537D01*
X23561583Y27257600D01*
X23615839Y27367380D01*
X23615839Y27367381D01*
X23624911Y27385736D01*
X23632292Y27410028D01*
X23642906Y27444966D01*
X23696639Y27621820D01*
X23728845Y27866450D01*
X23730643Y27940000D01*
X23716887Y28107321D01*
X23712103Y28165502D01*
X23710425Y28185911D01*
X23704884Y28207973D01*
X23655306Y28405351D01*
X23655306Y28405352D01*
X23650316Y28425217D01*
X23635237Y28459896D01*
X23560093Y28632716D01*
X23560090Y28632721D01*
X23551928Y28651493D01*
X23505528Y28723217D01*
X23446139Y28852229D01*
X23425500Y28994257D01*
X23425500Y29101978D01*
X23445713Y29242563D01*
X23496773Y29358981D01*
X23503640Y29370410D01*
X23515588Y29387037D01*
X23535313Y29426946D01*
X23615839Y29589880D01*
X23615839Y29589881D01*
X23624911Y29608236D01*
X23696639Y29844320D01*
X23728845Y30088950D01*
X23730643Y30162500D01*
X23727650Y30198910D01*
X23712103Y30388002D01*
X23710425Y30408411D01*
X23697004Y30461845D01*
X23655306Y30627851D01*
X23655306Y30627852D01*
X23650316Y30647717D01*
X23636026Y30680582D01*
X23598504Y30817562D01*
X23601094Y30959568D01*
X23643587Y31095093D01*
X23711662Y31200643D01*
X23754702Y31251845D01*
X23775397Y31280329D01*
X23899106Y31478690D01*
X23915579Y31509801D01*
X24010106Y31723618D01*
X24022029Y31756733D01*
X24085487Y31981740D01*
X24092624Y32016205D01*
X24124398Y32252769D01*
X24126494Y32278121D01*
X24129453Y32372266D01*
X24128953Y32397710D01*
X24112096Y32635791D01*
X24107135Y32670650D01*
X24057932Y32899186D01*
X24048110Y32932995D01*
X23967199Y33152313D01*
X23952707Y33184410D01*
X23916917Y33250740D01*
X23898507Y33275592D01*
X23887656Y33269737D01*
X23886923Y33269105D01*
X23002817Y32385000D01*
X22577846Y31960029D01*
X22464145Y31874913D01*
X22331070Y31825279D01*
X22189401Y31815146D01*
X22050617Y31845337D01*
X21925960Y31913405D01*
X21872154Y31960029D01*
X21447183Y32385000D01*
X20574450Y33257732D01*
X20547363Y33278009D01*
X20536855Y33278761D01*
X20398071Y33308952D01*
X20273414Y33377020D01*
X20172983Y33477450D01*
X20130846Y33544146D01*
X20122858Y33559328D01*
X20116946Y33570932D01*
X20088099Y33629428D01*
X20088099Y33629429D01*
X20077980Y33649947D01*
X20068505Y33662635D01*
X20061137Y33676640D01*
X20006616Y33745799D01*
X19998707Y33756106D01*
X19945967Y33826733D01*
X19887851Y33880455D01*
X19873728Y33894035D01*
X16677687Y37090076D01*
X16592571Y37203777D01*
X16542937Y37336852D01*
X16532804Y37478520D01*
X16562995Y37617305D01*
X16631063Y37741962D01*
X16731493Y37842392D01*
X16856150Y37910460D01*
X16994935Y37940651D01*
X17136603Y37930518D01*
X17146841Y37927920D01*
X17156739Y37924141D01*
X17176805Y37920058D01*
X17176810Y37920057D01*
X17305567Y37893861D01*
X17398526Y37874948D01*
X17418989Y37874198D01*
X17418995Y37874197D01*
X17624638Y37866657D01*
X17624641Y37866657D01*
X17645100Y37865907D01*
X17709814Y37874197D01*
X17869523Y37894656D01*
X17869525Y37894657D01*
X17889841Y37897259D01*
X17933843Y37910460D01*
X18106555Y37962276D01*
X18126174Y37968162D01*
X18141579Y37975709D01*
X18277978Y38007747D01*
X18419795Y37999955D01*
X18553671Y37952524D01*
X18668762Y37869297D01*
X18755742Y37757016D01*
X18807567Y37624779D01*
X18819960Y37539400D01*
X18829010Y37382455D01*
X18833511Y37362483D01*
X18833511Y37362482D01*
X18836091Y37351036D01*
X18883255Y37141751D01*
X18976084Y36913139D01*
X18986780Y36895684D01*
X18986781Y36895683D01*
X19015675Y36848533D01*
X19105006Y36702759D01*
X19266557Y36516259D01*
X19456399Y36358649D01*
X19669433Y36234162D01*
X19688571Y36226854D01*
X19880803Y36153448D01*
X19880806Y36153447D01*
X19899939Y36146141D01*
X19920012Y36142057D01*
X19963879Y36133132D01*
X20097611Y36085297D01*
X20217240Y35996996D01*
X20596700Y35617536D01*
X20681816Y35503835D01*
X20731450Y35370760D01*
X20733500Y35359292D01*
X20734010Y35350455D01*
X20738512Y35330476D01*
X20738513Y35330472D01*
X20783754Y35129722D01*
X20788255Y35109751D01*
X20881084Y34881139D01*
X21010006Y34670759D01*
X21023412Y34655282D01*
X21023414Y34655280D01*
X21124330Y34538779D01*
X21171557Y34484259D01*
X21186419Y34471920D01*
X21272312Y34359652D01*
X21323338Y34227104D01*
X21334953Y34085549D01*
X21333764Y34070035D01*
X21332938Y34061093D01*
X21339051Y34049326D01*
X21342180Y34045638D01*
X22199763Y33188054D01*
X22225430Y33168840D01*
X22237750Y33175567D01*
X23097152Y34034970D01*
X23117431Y34062059D01*
X23120498Y34104938D01*
X23116751Y34157317D01*
X23146939Y34296102D01*
X23215005Y34420760D01*
X23262250Y34475188D01*
X23357099Y34569706D01*
X23357108Y34569716D01*
X23371605Y34584163D01*
X23446375Y34688217D01*
X23503640Y34767909D01*
X23503642Y34767912D01*
X23515588Y34784537D01*
X23527952Y34809552D01*
X23615839Y34987380D01*
X23615839Y34987381D01*
X23624911Y35005736D01*
X23696639Y35241820D01*
X23728845Y35486450D01*
X23730643Y35560000D01*
X23710425Y35805911D01*
X23696372Y35861861D01*
X23655306Y36025351D01*
X23655306Y36025352D01*
X23650316Y36045217D01*
X23631428Y36088657D01*
X23560093Y36252716D01*
X23560090Y36252721D01*
X23551928Y36271493D01*
X23417905Y36478661D01*
X23391635Y36507532D01*
X23265625Y36646015D01*
X23251846Y36661158D01*
X23177064Y36720217D01*
X23074278Y36801393D01*
X23074272Y36801397D01*
X23058210Y36814082D01*
X22842198Y36933327D01*
X22691986Y36986520D01*
X22566213Y37052502D01*
X22505711Y37104052D01*
X22361609Y37248154D01*
X22276493Y37361855D01*
X22226859Y37494930D01*
X22216726Y37636598D01*
X22246917Y37775383D01*
X22314985Y37900040D01*
X22415415Y38000470D01*
X22540072Y38068538D01*
X22678857Y38098729D01*
X22714455Y38100000D01*
X25605500Y38100000D01*
X25746085Y38079787D01*
G37*
%TD.AperFunction*%
%TD*%
%TA.AperFunction,NonConductor*%
G36*
X11912629Y47674287D02*
G01*
X12041824Y47615286D01*
X12149163Y47522276D01*
X12225950Y47402792D01*
X12265965Y47266515D01*
X12265965Y47124485D01*
X12225950Y46988208D01*
X12149163Y46868724D01*
X12124890Y46842654D01*
X11560215Y46277979D01*
X11446514Y46192863D01*
X11313439Y46143229D01*
X11171771Y46133096D01*
X11032986Y46163287D01*
X10908329Y46231355D01*
X10807899Y46331785D01*
X10754390Y46421514D01*
X10748764Y46433689D01*
X10743773Y46446231D01*
X10579530Y46756432D01*
X10571955Y46767620D01*
X10571950Y46767629D01*
X10471670Y46915742D01*
X10409590Y47043486D01*
X10386015Y47183546D01*
X10402855Y47324575D01*
X10458744Y47455146D01*
X10549156Y47564683D01*
X10666766Y47644310D01*
X10802045Y47687578D01*
X10884872Y47694500D01*
X11772044Y47694500D01*
X11912629Y47674287D01*
G37*
%TD.AperFunction*%
%TA.AperFunction,NonConductor*%
G36*
X32558863Y49279287D02*
G01*
X32688058Y49220286D01*
X32795397Y49127276D01*
X32839244Y49059049D01*
X32926491Y49166685D01*
X33043389Y49247355D01*
X33178278Y49291823D01*
X33265474Y49299500D01*
X40894232Y49299500D01*
X41034817Y49279287D01*
X41164012Y49220286D01*
X41271351Y49127276D01*
X41348138Y49007792D01*
X41388153Y48871515D01*
X41388153Y48729485D01*
X41348138Y48593208D01*
X41271351Y48473724D01*
X41164012Y48380714D01*
X41093210Y48342888D01*
X41052286Y48325094D01*
X41052280Y48325091D01*
X41033507Y48316928D01*
X40826339Y48182905D01*
X40811196Y48169126D01*
X40737981Y48102506D01*
X40643842Y48016846D01*
X40631154Y48000780D01*
X40631153Y48000779D01*
X40503607Y47839278D01*
X40503603Y47839272D01*
X40490918Y47823210D01*
X40371673Y47607198D01*
X40364840Y47587903D01*
X40364838Y47587898D01*
X40320479Y47462632D01*
X40289309Y47374610D01*
X40246039Y47131694D01*
X40245182Y47061560D01*
X40243326Y46909575D01*
X40243025Y46884972D01*
X40246122Y46864735D01*
X40246122Y46864730D01*
X40249873Y46840217D01*
X40280347Y46641070D01*
X40357003Y46406540D01*
X40470935Y46187679D01*
X40619083Y45990364D01*
X40797468Y45819896D01*
X40814380Y45808359D01*
X40814383Y45808357D01*
X40984381Y45692392D01*
X40984384Y45692390D01*
X41001300Y45680851D01*
X41055596Y45655648D01*
X41174601Y45578125D01*
X41266945Y45470212D01*
X41325147Y45340655D01*
X41344500Y45203033D01*
X41344500Y44626185D01*
X41324287Y44485600D01*
X41265286Y44356405D01*
X41172276Y44249066D01*
X41052792Y44172279D01*
X40916515Y44132264D01*
X40774485Y44132264D01*
X40662693Y44164725D01*
X40662198Y44163327D01*
X40542137Y44205843D01*
X40429610Y44245691D01*
X40186694Y44288961D01*
X40099951Y44290021D01*
X39960450Y44291725D01*
X39960448Y44291725D01*
X39939972Y44291975D01*
X39919735Y44288878D01*
X39919730Y44288878D01*
X39818021Y44273314D01*
X39696070Y44254653D01*
X39461540Y44177997D01*
X39242679Y44064065D01*
X39093850Y43952321D01*
X38969295Y43884079D01*
X38830554Y43853690D01*
X38688871Y43863620D01*
X38555725Y43913064D01*
X38484975Y43959764D01*
X38394279Y44031392D01*
X38394275Y44031395D01*
X38378210Y44044082D01*
X38162198Y44163327D01*
X38142903Y44170160D01*
X38142898Y44170162D01*
X37948914Y44238855D01*
X37948915Y44238855D01*
X37929610Y44245691D01*
X37686694Y44288961D01*
X37599951Y44290021D01*
X37460450Y44291725D01*
X37460448Y44291725D01*
X37439972Y44291975D01*
X37419735Y44288878D01*
X37419730Y44288878D01*
X37318021Y44273314D01*
X37196070Y44254653D01*
X36961540Y44177997D01*
X36943379Y44168543D01*
X36769932Y44078252D01*
X36635899Y44031266D01*
X36494057Y44023945D01*
X36355899Y44056882D01*
X36232616Y44127409D01*
X36134197Y44229811D01*
X36068615Y44355794D01*
X36041182Y44495149D01*
X36047653Y44604947D01*
X36063678Y44698697D01*
X36065952Y44711999D01*
X36087380Y45062344D01*
X36087459Y45085000D01*
X36068477Y45435486D01*
X36033555Y45648746D01*
X36013939Y45768537D01*
X36013938Y45768543D01*
X36011755Y45781872D01*
X35917954Y46120106D01*
X35908753Y46143229D01*
X35793167Y46433682D01*
X35793166Y46433684D01*
X35788173Y46446231D01*
X35623930Y46756432D01*
X35427146Y47047081D01*
X35200123Y47314777D01*
X34945517Y47556389D01*
X34934778Y47564570D01*
X34934772Y47564575D01*
X34809416Y47660070D01*
X34666306Y47769091D01*
X34549956Y47839278D01*
X34377324Y47943417D01*
X34377315Y47943422D01*
X34365757Y47950394D01*
X34353509Y47956079D01*
X34353504Y47956082D01*
X34059635Y48092491D01*
X34059631Y48092493D01*
X34047385Y48098177D01*
X34034599Y48102505D01*
X34034596Y48102506D01*
X33727704Y48206383D01*
X33727701Y48206384D01*
X33714914Y48210712D01*
X33544566Y48248477D01*
X33385408Y48283762D01*
X33385401Y48283763D01*
X33372235Y48286682D01*
X33210716Y48304514D01*
X33073199Y48340032D01*
X32951258Y48412854D01*
X32854774Y48517081D01*
X32841031Y48544733D01*
X32795397Y48473724D01*
X32688058Y48380714D01*
X32558863Y48321713D01*
X32471303Y48304325D01*
X32336760Y48289947D01*
X32336755Y48289946D01*
X32323344Y48288513D01*
X31980402Y48213739D01*
X31967608Y48209458D01*
X31967600Y48209456D01*
X31820102Y48160104D01*
X31647540Y48102366D01*
X31635280Y48096727D01*
X31635275Y48096725D01*
X31626070Y48092491D01*
X31328655Y47955694D01*
X31317066Y47948758D01*
X31317060Y47948755D01*
X31055677Y47792321D01*
X31027474Y47775442D01*
X31016712Y47767303D01*
X31016705Y47767298D01*
X30891539Y47672635D01*
X30747523Y47563716D01*
X30737692Y47554451D01*
X30737690Y47554450D01*
X30729884Y47547094D01*
X30492075Y47322994D01*
X30483303Y47312723D01*
X30480682Y47309971D01*
X30369095Y47222103D01*
X30237272Y47169231D01*
X30095893Y47155640D01*
X29956413Y47182431D01*
X29830130Y47247432D01*
X29727275Y47345379D01*
X29662081Y47456689D01*
X29660565Y47462064D01*
X29653562Y47476264D01*
X29648869Y47491379D01*
X29607873Y47569300D01*
X29601946Y47580932D01*
X29573099Y47639428D01*
X29573099Y47639429D01*
X29562980Y47659947D01*
X29553505Y47672635D01*
X29546137Y47686640D01*
X29491616Y47755799D01*
X29483707Y47766106D01*
X29430967Y47836733D01*
X29372851Y47890455D01*
X29358728Y47904035D01*
X28815109Y48447654D01*
X28729993Y48561355D01*
X28680359Y48694430D01*
X28670226Y48836098D01*
X28700417Y48974883D01*
X28768485Y49099540D01*
X28868915Y49199970D01*
X28993572Y49268038D01*
X29132357Y49298229D01*
X29167955Y49299500D01*
X32418278Y49299500D01*
X32558863Y49279287D01*
G37*
%TD.AperFunction*%
%TA.AperFunction,NonConductor*%
G36*
X48941085Y49279287D02*
G01*
X49070280Y49220286D01*
X49177619Y49127276D01*
X49254406Y49007792D01*
X49294421Y48871515D01*
X49299500Y48800500D01*
X49299500Y44346428D01*
X49279287Y44205843D01*
X49220286Y44076648D01*
X49127276Y43969309D01*
X49007792Y43892522D01*
X48871515Y43852507D01*
X48729485Y43852507D01*
X48593208Y43892522D01*
X48491232Y43954824D01*
X48394284Y44031388D01*
X48394278Y44031392D01*
X48378210Y44044082D01*
X48162198Y44163327D01*
X48142903Y44170160D01*
X48142898Y44170162D01*
X47948914Y44238855D01*
X47948915Y44238855D01*
X47929610Y44245691D01*
X47686694Y44288961D01*
X47599951Y44290021D01*
X47460450Y44291725D01*
X47460448Y44291725D01*
X47439972Y44291975D01*
X47419735Y44288878D01*
X47419730Y44288878D01*
X47318021Y44273314D01*
X47196070Y44254653D01*
X46961540Y44177997D01*
X46742679Y44064065D01*
X46593850Y43952321D01*
X46469295Y43884079D01*
X46330554Y43853690D01*
X46188871Y43863620D01*
X46055725Y43913064D01*
X45984975Y43959764D01*
X45894279Y44031392D01*
X45894275Y44031395D01*
X45878210Y44044082D01*
X45662198Y44163327D01*
X45642903Y44170160D01*
X45642898Y44170162D01*
X45448914Y44238855D01*
X45448915Y44238855D01*
X45429610Y44245691D01*
X45186694Y44288961D01*
X45099951Y44290021D01*
X44960450Y44291725D01*
X44960448Y44291725D01*
X44939972Y44291975D01*
X44919735Y44288878D01*
X44919730Y44288878D01*
X44818021Y44273314D01*
X44696070Y44254653D01*
X44668651Y44245691D01*
X44481007Y44184360D01*
X44481005Y44184359D01*
X44461540Y44177997D01*
X44443373Y44168540D01*
X44437871Y44166227D01*
X44300439Y44130381D01*
X44158474Y44134707D01*
X44023479Y44178854D01*
X43906390Y44259245D01*
X43816692Y44369367D01*
X43761653Y44500299D01*
X43745500Y44626236D01*
X43745500Y45200690D01*
X43765713Y45341275D01*
X43824714Y45470470D01*
X43917724Y45577809D01*
X44020953Y45642824D01*
X44019664Y45645228D01*
X44037715Y45654907D01*
X44056493Y45663072D01*
X44263661Y45797095D01*
X44446158Y45963154D01*
X44504336Y46036820D01*
X44586393Y46140722D01*
X44586397Y46140728D01*
X44599082Y46156790D01*
X44718327Y46372802D01*
X44730275Y46406540D01*
X44793855Y46586086D01*
X44800691Y46605390D01*
X44843961Y46848306D01*
X44846566Y47061560D01*
X44846725Y47074550D01*
X44846725Y47074552D01*
X44846975Y47095028D01*
X44842468Y47124485D01*
X44818568Y47280667D01*
X44809653Y47338930D01*
X44732997Y47573460D01*
X44619065Y47792321D01*
X44606766Y47808702D01*
X44483212Y47973261D01*
X44483210Y47973263D01*
X44470917Y47989636D01*
X44292532Y48160104D01*
X44275620Y48171641D01*
X44275617Y48171643D01*
X44105619Y48287608D01*
X44105616Y48287610D01*
X44088700Y48299149D01*
X44070125Y48307771D01*
X44070120Y48307774D01*
X43983707Y48347885D01*
X43864701Y48425410D01*
X43772356Y48533323D01*
X43714155Y48662880D01*
X43694813Y48803587D01*
X43715895Y48944044D01*
X43775695Y49072872D01*
X43869367Y49179634D01*
X43989323Y49255680D01*
X44125845Y49294851D01*
X44193803Y49299500D01*
X48800500Y49299500D01*
X48941085Y49279287D01*
G37*
%TD.AperFunction*%
%TA.AperFunction,NonConductor*%
G36*
X10555289Y42827831D02*
G01*
X10677620Y42755667D01*
X10774666Y42651962D01*
X10838563Y42525116D01*
X10864135Y42385407D01*
X10864500Y42366332D01*
X10864500Y41037955D01*
X10844287Y40897370D01*
X10785286Y40768175D01*
X10692276Y40660836D01*
X10572792Y40584049D01*
X10436515Y40544034D01*
X10294485Y40544034D01*
X10158208Y40584049D01*
X10038724Y40660836D01*
X10012654Y40685109D01*
X9889150Y40808613D01*
X9866828Y40832446D01*
X9866752Y40832532D01*
X9829910Y40874543D01*
X9760706Y40929099D01*
X9750588Y40937293D01*
X9700470Y40978975D01*
X9682883Y40993602D01*
X9669072Y41001337D01*
X9656640Y41011137D01*
X9578686Y41052151D01*
X9567228Y41058373D01*
X9510346Y41090229D01*
X9510336Y41090233D01*
X9490379Y41101410D01*
X9475389Y41106498D01*
X9461380Y41113869D01*
X9439529Y41120654D01*
X9439524Y41120656D01*
X9377273Y41139986D01*
X9364853Y41144021D01*
X9303108Y41164980D01*
X9303107Y41164980D01*
X9281452Y41172331D01*
X9265786Y41174603D01*
X9250667Y41179297D01*
X9227954Y41181985D01*
X9221339Y41183391D01*
X9088028Y41232386D01*
X8973920Y41316956D01*
X8888260Y41430247D01*
X8837988Y41563083D01*
X8827176Y41704701D01*
X8856701Y41843629D01*
X8924170Y41968610D01*
X9024118Y42069521D01*
X9118138Y42125561D01*
X9289038Y42203444D01*
X9289047Y42203449D01*
X9301316Y42209040D01*
X9318450Y42219213D01*
X9472879Y42310907D01*
X9603123Y42388240D01*
X9613920Y42396347D01*
X9613928Y42396352D01*
X9797176Y42533939D01*
X9883812Y42598987D01*
X10024547Y42730684D01*
X10141008Y42811982D01*
X10275656Y42857177D01*
X10417582Y42862607D01*
X10555289Y42827831D01*
G37*
%TD.AperFunction*%
%TA.AperFunction,NonConductor*%
G36*
X13971792Y42577689D02*
G01*
X14016249Y42554623D01*
X14183033Y42457162D01*
X14202171Y42449854D01*
X14394403Y42376448D01*
X14394406Y42376447D01*
X14413539Y42369141D01*
X14433605Y42365058D01*
X14433610Y42365057D01*
X14622664Y42326593D01*
X14655326Y42319948D01*
X14675789Y42319198D01*
X14675795Y42319197D01*
X14881438Y42311657D01*
X14881441Y42311657D01*
X14901900Y42310907D01*
X14966614Y42319197D01*
X15126323Y42339656D01*
X15126325Y42339657D01*
X15146641Y42342259D01*
X15382974Y42413162D01*
X15604554Y42521713D01*
X15621232Y42533609D01*
X15621785Y42533939D01*
X15752891Y42588564D01*
X15894076Y42604039D01*
X16033901Y42579111D01*
X16161040Y42515800D01*
X16265192Y42419234D01*
X16337919Y42297236D01*
X16373329Y42159691D01*
X16376300Y42105321D01*
X16376300Y40426963D01*
X16356087Y40286378D01*
X16289522Y40145763D01*
X16279197Y40130628D01*
X16279192Y40130619D01*
X16267651Y40113700D01*
X16259029Y40095125D01*
X16259026Y40095120D01*
X16217194Y40005000D01*
X16163765Y39889896D01*
X16158293Y39870164D01*
X16158291Y39870159D01*
X16108731Y39691452D01*
X16097826Y39652129D01*
X16071606Y39406786D01*
X16085810Y39160455D01*
X16090311Y39140483D01*
X16090311Y39140482D01*
X16137104Y38932846D01*
X16148292Y38791258D01*
X16119137Y38652252D01*
X16052001Y38527091D01*
X15952322Y38425914D01*
X15828177Y38356919D01*
X15689621Y38325694D01*
X15547881Y38334769D01*
X15414440Y38383410D01*
X15297466Y38470297D01*
X13411654Y40356109D01*
X13326538Y40469810D01*
X13276904Y40602885D01*
X13265500Y40708955D01*
X13265500Y42123783D01*
X13285713Y42264368D01*
X13344714Y42393563D01*
X13437724Y42500902D01*
X13557208Y42577689D01*
X13693485Y42617704D01*
X13835515Y42617704D01*
X13971792Y42577689D01*
G37*
%TD.AperFunction*%
%TA.AperFunction,NonConductor*%
G36*
X36443028Y40115474D02*
G01*
X36568402Y40048736D01*
X36582888Y40037718D01*
X36711790Y39935918D01*
X36927802Y39816673D01*
X36947097Y39809840D01*
X36947102Y39809838D01*
X37115984Y39750034D01*
X37160390Y39734309D01*
X37403306Y39691039D01*
X37490049Y39689979D01*
X37629550Y39688275D01*
X37629552Y39688275D01*
X37650028Y39688025D01*
X37670265Y39691122D01*
X37670270Y39691122D01*
X37771979Y39706686D01*
X37893930Y39725347D01*
X38128460Y39802003D01*
X38347321Y39915935D01*
X38496150Y40027679D01*
X38620705Y40095921D01*
X38759446Y40126310D01*
X38901129Y40116380D01*
X39034275Y40066936D01*
X39105025Y40020236D01*
X39195721Y39948608D01*
X39195723Y39948607D01*
X39211790Y39935918D01*
X39427802Y39816673D01*
X39447097Y39809840D01*
X39447102Y39809838D01*
X39615984Y39750034D01*
X39660390Y39734309D01*
X39903306Y39691039D01*
X39990049Y39689979D01*
X40129550Y39688275D01*
X40129552Y39688275D01*
X40150028Y39688025D01*
X40170265Y39691122D01*
X40170270Y39691122D01*
X40271979Y39706686D01*
X40393930Y39725347D01*
X40564299Y39781032D01*
X40608993Y39795640D01*
X40608998Y39795642D01*
X40628460Y39802003D01*
X40646627Y39811460D01*
X40652129Y39813773D01*
X40789561Y39849619D01*
X40931526Y39845293D01*
X41066521Y39801146D01*
X41183610Y39720755D01*
X41273308Y39610633D01*
X41328347Y39479701D01*
X41344500Y39353764D01*
X41344500Y38648963D01*
X41324287Y38508378D01*
X41257722Y38367763D01*
X41247397Y38352628D01*
X41247389Y38352615D01*
X41235851Y38335700D01*
X41227229Y38317125D01*
X41227226Y38317120D01*
X41212185Y38284716D01*
X41131965Y38111896D01*
X41126493Y38092164D01*
X41126491Y38092159D01*
X41071498Y37893861D01*
X41066026Y37874129D01*
X41039806Y37628786D01*
X41054010Y37382455D01*
X41058511Y37362483D01*
X41058511Y37362482D01*
X41061091Y37351036D01*
X41108255Y37141751D01*
X41201084Y36913139D01*
X41211780Y36895684D01*
X41211781Y36895683D01*
X41240675Y36848533D01*
X41330006Y36702759D01*
X41491557Y36516259D01*
X41681399Y36358649D01*
X41894433Y36234162D01*
X41913571Y36226854D01*
X42105803Y36153448D01*
X42105806Y36153447D01*
X42124939Y36146141D01*
X42145005Y36142058D01*
X42145010Y36142057D01*
X42334064Y36103593D01*
X42366726Y36096948D01*
X42387189Y36096198D01*
X42387195Y36096197D01*
X42592838Y36088657D01*
X42592841Y36088657D01*
X42613300Y36087907D01*
X42678014Y36096197D01*
X42837723Y36116656D01*
X42837725Y36116657D01*
X42858041Y36119259D01*
X43094374Y36190162D01*
X43315954Y36298713D01*
X43516829Y36441996D01*
X43691605Y36616163D01*
X43835588Y36816537D01*
X43874705Y36895683D01*
X43935839Y37019380D01*
X43935839Y37019381D01*
X43944911Y37037736D01*
X43951335Y37058878D01*
X44008841Y37248154D01*
X44016639Y37273820D01*
X44048845Y37518450D01*
X44050643Y37592000D01*
X44046977Y37636598D01*
X44032103Y37817502D01*
X44030425Y37837911D01*
X44022740Y37868509D01*
X43975306Y38057351D01*
X43975306Y38057352D01*
X43970316Y38077217D01*
X43962150Y38095998D01*
X43880093Y38284716D01*
X43880090Y38284721D01*
X43871928Y38303493D01*
X43825528Y38375217D01*
X43766139Y38504229D01*
X43745500Y38646257D01*
X43745500Y39353815D01*
X43765713Y39494400D01*
X43824714Y39623595D01*
X43917724Y39730934D01*
X44037208Y39807721D01*
X44173485Y39847736D01*
X44315515Y39847736D01*
X44427307Y39815275D01*
X44427802Y39816673D01*
X44660390Y39734309D01*
X44903306Y39691039D01*
X44990049Y39689979D01*
X45129550Y39688275D01*
X45129552Y39688275D01*
X45150028Y39688025D01*
X45170265Y39691122D01*
X45170270Y39691122D01*
X45271979Y39706686D01*
X45393930Y39725347D01*
X45564299Y39781032D01*
X45608993Y39795640D01*
X45608998Y39795642D01*
X45628460Y39802003D01*
X45646627Y39811460D01*
X45652129Y39813773D01*
X45789561Y39849619D01*
X45931526Y39845293D01*
X46066521Y39801146D01*
X46183610Y39720755D01*
X46273308Y39610633D01*
X46328347Y39479701D01*
X46344500Y39353764D01*
X46344500Y35289612D01*
X46324287Y35149027D01*
X46265286Y35019832D01*
X46172276Y34912493D01*
X46052792Y34835706D01*
X45916515Y34795691D01*
X45845500Y34790612D01*
X44238860Y34790612D01*
X44098275Y34810825D01*
X43997702Y34852755D01*
X43946284Y34881139D01*
X43797198Y34963439D01*
X43777903Y34970272D01*
X43777898Y34970274D01*
X43583914Y35038967D01*
X43583915Y35038967D01*
X43564610Y35045803D01*
X43321694Y35089073D01*
X43234951Y35090133D01*
X43095450Y35091837D01*
X43095448Y35091837D01*
X43074972Y35092087D01*
X43054735Y35088990D01*
X43054730Y35088990D01*
X42953021Y35073426D01*
X42831070Y35054765D01*
X42596540Y34978109D01*
X42377679Y34864177D01*
X42376132Y34863016D01*
X42256154Y34809552D01*
X42119980Y34790612D01*
X38221836Y34790612D01*
X38189201Y34791680D01*
X38156155Y34793846D01*
X38156154Y34793846D01*
X38133328Y34795342D01*
X38110610Y34792653D01*
X38110607Y34792653D01*
X38045872Y34784991D01*
X38032881Y34783625D01*
X37967962Y34777660D01*
X37967958Y34777659D01*
X37945177Y34775566D01*
X37929944Y34771270D01*
X37914221Y34769409D01*
X37892372Y34762625D01*
X37892368Y34762624D01*
X37830104Y34743291D01*
X37817584Y34739583D01*
X37754844Y34721888D01*
X37754838Y34721886D01*
X37732824Y34715677D01*
X37718624Y34708674D01*
X37703509Y34703981D01*
X37683257Y34693326D01*
X37625594Y34662988D01*
X37613963Y34657061D01*
X37534941Y34618092D01*
X37522253Y34608617D01*
X37508248Y34601249D01*
X37490281Y34587085D01*
X37490278Y34587083D01*
X37439096Y34546734D01*
X37428782Y34538819D01*
X37358155Y34486079D01*
X37342626Y34469280D01*
X37342625Y34469279D01*
X37304434Y34427964D01*
X37290853Y34413840D01*
X36608667Y33731654D01*
X36494966Y33646538D01*
X36361891Y33596904D01*
X36255821Y33585500D01*
X35642123Y33585500D01*
X35501538Y33605713D01*
X35372343Y33664714D01*
X35265004Y33757724D01*
X35188217Y33877208D01*
X35148202Y34013485D01*
X35148202Y34155515D01*
X35188217Y34291792D01*
X35265004Y34411276D01*
X35289893Y34437961D01*
X35422099Y34569706D01*
X35422108Y34569716D01*
X35436605Y34584163D01*
X35511375Y34688217D01*
X35568640Y34767909D01*
X35568642Y34767912D01*
X35580588Y34784537D01*
X35592952Y34809552D01*
X35680839Y34987380D01*
X35680839Y34987381D01*
X35689911Y35005736D01*
X35761639Y35241820D01*
X35793845Y35486450D01*
X35795643Y35560000D01*
X35775425Y35805911D01*
X35761372Y35861861D01*
X35720306Y36025351D01*
X35720306Y36025352D01*
X35715316Y36045217D01*
X35696428Y36088657D01*
X35625093Y36252716D01*
X35625090Y36252721D01*
X35616928Y36271493D01*
X35570528Y36343217D01*
X35511139Y36472229D01*
X35490500Y36614257D01*
X35490500Y38309478D01*
X35510713Y38450063D01*
X35561773Y38566481D01*
X35568640Y38577910D01*
X35580588Y38594537D01*
X35609113Y38652252D01*
X35680839Y38797380D01*
X35680839Y38797381D01*
X35689911Y38815736D01*
X35761639Y39051820D01*
X35793845Y39296450D01*
X35795643Y39370000D01*
X35785778Y39489996D01*
X35776304Y39605221D01*
X35784930Y39746989D01*
X35833146Y39880584D01*
X35917048Y39995184D01*
X36029838Y40081504D01*
X36162378Y40132550D01*
X36303931Y40144188D01*
X36443028Y40115474D01*
G37*
%TD.AperFunction*%
%TA.AperFunction,NonConductor*%
G36*
X35710051Y42966458D02*
G01*
X35836106Y42901016D01*
X35938619Y42802712D01*
X36009283Y42679508D01*
X36042374Y42541386D01*
X36044500Y42495370D01*
X36044500Y41127446D01*
X36045616Y41113869D01*
X36058696Y40954779D01*
X36050070Y40813011D01*
X36001854Y40679415D01*
X35917952Y40564816D01*
X35805162Y40478496D01*
X35672622Y40427450D01*
X35531069Y40415812D01*
X35391972Y40444526D01*
X35266598Y40511264D01*
X35252105Y40522287D01*
X35224569Y40544034D01*
X35123210Y40624082D01*
X34907198Y40743327D01*
X34887903Y40750160D01*
X34887898Y40750162D01*
X34693914Y40818855D01*
X34693915Y40818855D01*
X34674610Y40825691D01*
X34431694Y40868961D01*
X34344951Y40870021D01*
X34205450Y40871725D01*
X34205448Y40871725D01*
X34184972Y40871975D01*
X34164735Y40868878D01*
X34164730Y40868878D01*
X34063021Y40853314D01*
X33941070Y40834653D01*
X33706540Y40757997D01*
X33487679Y40644065D01*
X33471299Y40631767D01*
X33471298Y40631766D01*
X33325486Y40522287D01*
X33290364Y40495917D01*
X33119896Y40317532D01*
X33108359Y40300620D01*
X33108357Y40300617D01*
X32992399Y40130628D01*
X32980851Y40113700D01*
X32972229Y40095125D01*
X32972226Y40095120D01*
X32930394Y40005000D01*
X32876965Y39889896D01*
X32871493Y39870164D01*
X32871491Y39870159D01*
X32821931Y39691452D01*
X32811026Y39652129D01*
X32784806Y39406786D01*
X32799010Y39160455D01*
X32803511Y39140483D01*
X32803511Y39140482D01*
X32836185Y38995498D01*
X32853255Y38919751D01*
X32946084Y38691139D01*
X32956778Y38673689D01*
X32956781Y38673682D01*
X33015967Y38577101D01*
X33072188Y38446672D01*
X33089500Y38316373D01*
X33089500Y36616963D01*
X33069287Y36476378D01*
X33002722Y36335763D01*
X32992397Y36320628D01*
X32992389Y36320615D01*
X32980851Y36303700D01*
X32972229Y36285125D01*
X32972226Y36285120D01*
X32945180Y36226854D01*
X32876965Y36079896D01*
X32871493Y36060164D01*
X32871491Y36060159D01*
X32816498Y35861861D01*
X32811026Y35842129D01*
X32784806Y35596786D01*
X32799010Y35350455D01*
X32803511Y35330483D01*
X32803511Y35330482D01*
X32844404Y35149027D01*
X32853255Y35109751D01*
X32946084Y34881139D01*
X33075006Y34670759D01*
X33088412Y34655282D01*
X33088414Y34655280D01*
X33120627Y34618092D01*
X33236557Y34484259D01*
X33252318Y34471174D01*
X33252319Y34471173D01*
X33255624Y34468429D01*
X33259511Y34464130D01*
X33266944Y34456851D01*
X33266501Y34456399D01*
X33350878Y34363076D01*
X33412592Y34235155D01*
X33435767Y34095028D01*
X33418524Y33954048D01*
X33362262Y33823637D01*
X33271537Y33714359D01*
X33153700Y33635068D01*
X33018298Y33592187D01*
X32936878Y33585500D01*
X31544500Y33585500D01*
X31403915Y33605713D01*
X31274720Y33664714D01*
X31167381Y33757724D01*
X31090594Y33877208D01*
X31050579Y34013485D01*
X31045500Y34084500D01*
X31045500Y34499478D01*
X31065713Y34640063D01*
X31116773Y34756481D01*
X31123640Y34767910D01*
X31135588Y34784537D01*
X31147952Y34809552D01*
X31235839Y34987380D01*
X31235839Y34987381D01*
X31244911Y35005736D01*
X31316639Y35241820D01*
X31348845Y35486450D01*
X31350643Y35560000D01*
X31330425Y35805911D01*
X31316372Y35861861D01*
X31275306Y36025351D01*
X31275306Y36025352D01*
X31270316Y36045217D01*
X31251428Y36088657D01*
X31180093Y36252716D01*
X31180090Y36252721D01*
X31171928Y36271493D01*
X31037905Y36478661D01*
X31011635Y36507532D01*
X30885625Y36646015D01*
X30871846Y36661158D01*
X30797064Y36720217D01*
X30694278Y36801393D01*
X30694272Y36801397D01*
X30678210Y36814082D01*
X30462198Y36933327D01*
X30442903Y36940160D01*
X30442898Y36940162D01*
X30248914Y37008855D01*
X30248915Y37008855D01*
X30229610Y37015691D01*
X29986694Y37058961D01*
X29899951Y37060021D01*
X29760450Y37061725D01*
X29760448Y37061725D01*
X29739972Y37061975D01*
X29719735Y37058878D01*
X29719730Y37058878D01*
X29618021Y37043314D01*
X29496070Y37024653D01*
X29261540Y36947997D01*
X29243384Y36938545D01*
X29243378Y36938543D01*
X29234911Y36934135D01*
X29100877Y36887150D01*
X28959036Y36879829D01*
X28820878Y36912767D01*
X28697595Y36983294D01*
X28599177Y37085697D01*
X28533595Y37211680D01*
X28506163Y37351036D01*
X28505500Y37376754D01*
X28505500Y38687831D01*
X28525713Y38828416D01*
X28584714Y38957611D01*
X28677724Y39064950D01*
X28797208Y39141737D01*
X28868623Y39165320D01*
X28868041Y39167259D01*
X28909959Y39179835D01*
X29104374Y39238162D01*
X29325954Y39346713D01*
X29526829Y39489996D01*
X29701605Y39664163D01*
X29807446Y39811457D01*
X29833640Y39847909D01*
X29833642Y39847912D01*
X29845588Y39864537D01*
X29858122Y39889896D01*
X29945839Y40067380D01*
X29945839Y40067381D01*
X29954911Y40085736D01*
X30026639Y40321820D01*
X30058845Y40566450D01*
X30060643Y40640000D01*
X30059532Y40653523D01*
X30042103Y40865502D01*
X30040425Y40885911D01*
X30013554Y40992892D01*
X29985306Y41105351D01*
X29985306Y41105352D01*
X29980316Y41125217D01*
X29972140Y41144021D01*
X29890093Y41332716D01*
X29890090Y41332721D01*
X29881928Y41351493D01*
X29815529Y41454131D01*
X29756139Y41583146D01*
X29735500Y41725173D01*
X29735500Y42404524D01*
X29755713Y42545109D01*
X29814714Y42674304D01*
X29907724Y42781643D01*
X30027208Y42858430D01*
X30163485Y42898445D01*
X30305515Y42898445D01*
X30441792Y42858430D01*
X30561276Y42781643D01*
X30579250Y42765284D01*
X30720501Y42630301D01*
X30720516Y42630288D01*
X30730269Y42620968D01*
X31008736Y42407293D01*
X31308650Y42224942D01*
X31320874Y42219216D01*
X31320880Y42219213D01*
X31524602Y42123783D01*
X31626505Y42076048D01*
X31639275Y42071676D01*
X31639282Y42071673D01*
X31945800Y41966728D01*
X31945810Y41966725D01*
X31958580Y41962353D01*
X32075899Y41935914D01*
X32287820Y41888155D01*
X32287828Y41888154D01*
X32300992Y41885187D01*
X32361369Y41878308D01*
X32636305Y41846983D01*
X32636308Y41846983D01*
X32649735Y41845453D01*
X32663246Y41845382D01*
X32663250Y41845382D01*
X32819842Y41844562D01*
X33000730Y41843615D01*
X33014158Y41845003D01*
X33014165Y41845003D01*
X33336443Y41878308D01*
X33336451Y41878309D01*
X33349870Y41879696D01*
X33363065Y41882525D01*
X33363073Y41882526D01*
X33679872Y41950442D01*
X33679875Y41950443D01*
X33693072Y41953272D01*
X33790915Y41985630D01*
X34013504Y42059244D01*
X34013513Y42059247D01*
X34026320Y42063483D01*
X34038592Y42069076D01*
X34038598Y42069078D01*
X34333438Y42203444D01*
X34333447Y42203449D01*
X34345716Y42209040D01*
X34362850Y42219213D01*
X34517279Y42310907D01*
X34647523Y42388240D01*
X34658320Y42396347D01*
X34658328Y42396352D01*
X34841576Y42533939D01*
X34928212Y42598987D01*
X35184499Y42838816D01*
X35187846Y42842707D01*
X35297233Y42928226D01*
X35429240Y42980637D01*
X35570665Y42993735D01*
X35710051Y42966458D01*
G37*
%TD.AperFunction*%
%TA.AperFunction,NonConductor*%
G36*
X45496714Y23703685D02*
G01*
X45618026Y23629820D01*
X45713614Y23524770D01*
X45775734Y23397045D01*
X45799500Y23244881D01*
X45799500Y22654500D01*
X45779287Y22513915D01*
X45720286Y22384720D01*
X45627276Y22277381D01*
X45507792Y22200594D01*
X45371515Y22160579D01*
X45300500Y22155500D01*
X45056963Y22155500D01*
X44916378Y22175713D01*
X44775763Y22242278D01*
X44760628Y22252603D01*
X44760615Y22252611D01*
X44743700Y22264149D01*
X44725125Y22272771D01*
X44725120Y22272774D01*
X44606739Y22327724D01*
X44519896Y22368035D01*
X44500162Y22373508D01*
X44500156Y22373510D01*
X44483226Y22378205D01*
X44353157Y22435253D01*
X44244428Y22526636D01*
X44165850Y22644949D01*
X44123787Y22780607D01*
X44121647Y22922622D01*
X44159604Y23059486D01*
X44234583Y23180112D01*
X44340509Y23274729D01*
X44455776Y23331434D01*
X44465358Y23334696D01*
X44485217Y23339684D01*
X44503985Y23347845D01*
X44503992Y23347847D01*
X44692716Y23429907D01*
X44692721Y23429910D01*
X44711493Y23438072D01*
X44918661Y23572095D01*
X44964668Y23613958D01*
X45082252Y23693623D01*
X45217518Y23736933D01*
X45359506Y23740380D01*
X45496714Y23703685D01*
G37*
%TD.AperFunction*%
%TA.AperFunction,NonConductor*%
G36*
X41483622Y23544287D02*
G01*
X41624237Y23477722D01*
X41639372Y23467397D01*
X41639385Y23467389D01*
X41656300Y23455851D01*
X41674875Y23447229D01*
X41674880Y23447226D01*
X41737100Y23418345D01*
X41880104Y23351965D01*
X41899838Y23346492D01*
X41899844Y23346490D01*
X41916774Y23341795D01*
X42046843Y23284747D01*
X42155572Y23193364D01*
X42234150Y23075051D01*
X42276213Y22939393D01*
X42278353Y22797378D01*
X42240396Y22660514D01*
X42165417Y22539888D01*
X42059491Y22445271D01*
X41944224Y22388566D01*
X41934642Y22385304D01*
X41914783Y22380316D01*
X41896015Y22372155D01*
X41896008Y22372153D01*
X41707284Y22290093D01*
X41707279Y22290090D01*
X41688507Y22281928D01*
X41481339Y22147905D01*
X41298842Y21981846D01*
X41286154Y21965780D01*
X41286153Y21965779D01*
X41158607Y21804278D01*
X41158603Y21804272D01*
X41145918Y21788210D01*
X41136025Y21770289D01*
X41124688Y21753225D01*
X41122092Y21754950D01*
X41056704Y21668448D01*
X40942606Y21583866D01*
X40809300Y21534855D01*
X40667586Y21525385D01*
X40528944Y21556225D01*
X40404607Y21624876D01*
X40352667Y21670096D01*
X40259150Y21763613D01*
X40236828Y21787446D01*
X40236158Y21788210D01*
X40199910Y21829543D01*
X40130706Y21884099D01*
X40120588Y21892293D01*
X40094004Y21914402D01*
X40052883Y21948602D01*
X40039072Y21956337D01*
X40026640Y21966137D01*
X39948686Y22007151D01*
X39937228Y22013373D01*
X39880346Y22045229D01*
X39880336Y22045233D01*
X39860379Y22056410D01*
X39845389Y22061498D01*
X39831380Y22068869D01*
X39809529Y22075654D01*
X39809524Y22075656D01*
X39747273Y22094986D01*
X39734853Y22099021D01*
X39673108Y22119980D01*
X39673107Y22119980D01*
X39651452Y22127331D01*
X39635786Y22129603D01*
X39620667Y22134297D01*
X39597959Y22136985D01*
X39597957Y22136985D01*
X39533234Y22144645D01*
X39520279Y22146350D01*
X39455736Y22155709D01*
X39455731Y22155709D01*
X39433098Y22158991D01*
X39410240Y22158093D01*
X39410238Y22158093D01*
X39354044Y22155885D01*
X39334454Y22155500D01*
X31537874Y22155500D01*
X31397289Y22175713D01*
X31268094Y22234714D01*
X31160755Y22327724D01*
X31118904Y22383455D01*
X31049023Y22491475D01*
X31037905Y22508661D01*
X30871846Y22691158D01*
X30858194Y22701939D01*
X30770277Y22811215D01*
X30716029Y22942477D01*
X30700958Y23083705D01*
X30726287Y23223459D01*
X30789962Y23350415D01*
X30886827Y23454290D01*
X31009032Y23526667D01*
X31146678Y23561683D01*
X31199626Y23564500D01*
X41343037Y23564500D01*
X41483622Y23544287D01*
G37*
%TD.AperFunction*%
%TA.AperFunction,NonConductor*%
G36*
X20666085Y23544287D02*
G01*
X20795280Y23485286D01*
X20902619Y23392276D01*
X20979406Y23272792D01*
X21019421Y23136515D01*
X21024500Y23065500D01*
X21024500Y22646963D01*
X21004287Y22506378D01*
X20937722Y22365763D01*
X20927397Y22350628D01*
X20927389Y22350615D01*
X20915851Y22333700D01*
X20907229Y22315125D01*
X20907226Y22315120D01*
X20881616Y22259947D01*
X20811965Y22109896D01*
X20806493Y22090164D01*
X20806491Y22090159D01*
X20760623Y21924763D01*
X20746026Y21872129D01*
X20719806Y21626786D01*
X20734010Y21380455D01*
X20738511Y21360483D01*
X20738511Y21360482D01*
X20780416Y21174537D01*
X20788255Y21139751D01*
X20881084Y20911139D01*
X21010006Y20700759D01*
X21023412Y20685282D01*
X21023414Y20685280D01*
X21048160Y20656713D01*
X21171557Y20514259D01*
X21187318Y20501174D01*
X21187319Y20501173D01*
X21190624Y20498429D01*
X21194511Y20494130D01*
X21201944Y20486851D01*
X21201501Y20486399D01*
X21285878Y20393076D01*
X21347592Y20265155D01*
X21370767Y20125028D01*
X21353524Y19984048D01*
X21297262Y19853637D01*
X21206537Y19744359D01*
X21088700Y19665068D01*
X20953298Y19622187D01*
X20871878Y19615500D01*
X16303957Y19615500D01*
X16163372Y19635713D01*
X16034177Y19694714D01*
X15951113Y19761652D01*
X15863797Y19848967D01*
X15778681Y19962667D01*
X15729045Y20095742D01*
X15718912Y20237410D01*
X15749102Y20376195D01*
X15817169Y20500852D01*
X15917599Y20601283D01*
X15975332Y20636607D01*
X15974970Y20637215D01*
X15992568Y20647706D01*
X16010954Y20656713D01*
X16079857Y20705861D01*
X16195156Y20788103D01*
X16195158Y20788105D01*
X16211829Y20799996D01*
X16386605Y20974163D01*
X16465684Y21084213D01*
X16518640Y21157909D01*
X16518642Y21157912D01*
X16530588Y21174537D01*
X16622488Y21360482D01*
X16630839Y21377380D01*
X16630839Y21377381D01*
X16639911Y21395736D01*
X16711639Y21631820D01*
X16743845Y21876450D01*
X16745643Y21950000D01*
X16744317Y21966137D01*
X16727103Y22175502D01*
X16725425Y22195911D01*
X16715679Y22234714D01*
X16670306Y22415351D01*
X16670306Y22415352D01*
X16665316Y22435217D01*
X16566928Y22661493D01*
X16569239Y22662498D01*
X16530698Y22768296D01*
X16521649Y22910038D01*
X16552901Y23048587D01*
X16621920Y23172720D01*
X16666244Y23223479D01*
X16861109Y23418345D01*
X16974810Y23503461D01*
X17107885Y23553096D01*
X17213956Y23564500D01*
X20525500Y23564500D01*
X20666085Y23544287D01*
G37*
%TD.AperFunction*%
%TA.AperFunction,NonConductor*%
G36*
X40076292Y18506451D02*
G01*
X40195776Y18429664D01*
X40221846Y18405391D01*
X41020850Y17606387D01*
X41043172Y17582554D01*
X41080090Y17540457D01*
X41145211Y17489120D01*
X41149258Y17485930D01*
X41159408Y17477710D01*
X41209522Y17436031D01*
X41209527Y17436027D01*
X41227116Y17421399D01*
X41240927Y17413664D01*
X41253360Y17403863D01*
X41273609Y17393209D01*
X41292789Y17380754D01*
X41291407Y17378626D01*
X41376786Y17317218D01*
X41437657Y17259049D01*
X41437661Y17259045D01*
X41452468Y17244896D01*
X41469380Y17233359D01*
X41469383Y17233357D01*
X41639381Y17117392D01*
X41639384Y17117390D01*
X41656300Y17105851D01*
X41674875Y17097229D01*
X41674880Y17097226D01*
X41742451Y17065861D01*
X41880104Y17001965D01*
X41899842Y16996491D01*
X41919055Y16989422D01*
X41918434Y16987735D01*
X42026187Y16940472D01*
X42134913Y16849087D01*
X42213489Y16730772D01*
X42255549Y16595113D01*
X42257685Y16453098D01*
X42219725Y16316235D01*
X42144744Y16195610D01*
X42038816Y16100996D01*
X41910523Y16040058D01*
X41899671Y16037015D01*
X41894654Y16035307D01*
X41874783Y16030316D01*
X41856005Y16022151D01*
X41856002Y16022150D01*
X41667284Y15940093D01*
X41667279Y15940090D01*
X41648507Y15931928D01*
X41576783Y15885528D01*
X41447771Y15826139D01*
X41305743Y15805500D01*
X39869000Y15805500D01*
X39728415Y15825713D01*
X39599220Y15884714D01*
X39491881Y15977724D01*
X39415094Y16097208D01*
X39375079Y16233485D01*
X39370000Y16304500D01*
X39370000Y18052545D01*
X39390213Y18193130D01*
X39449214Y18322325D01*
X39542224Y18429664D01*
X39661708Y18506451D01*
X39797985Y18546466D01*
X39940015Y18546466D01*
X40076292Y18506451D01*
G37*
%TD.AperFunction*%
%TA.AperFunction,NonConductor*%
G36*
X45496714Y17353685D02*
G01*
X45618026Y17279820D01*
X45713614Y17174770D01*
X45775734Y17047045D01*
X45799500Y16894881D01*
X45799500Y16089787D01*
X45779287Y15949202D01*
X45720286Y15820007D01*
X45627276Y15712668D01*
X45507792Y15635881D01*
X45371515Y15595866D01*
X45229485Y15595866D01*
X45093208Y15635881D01*
X44973724Y15712668D01*
X44955750Y15729026D01*
X44922336Y15760957D01*
X44907532Y15775104D01*
X44890620Y15786641D01*
X44890617Y15786643D01*
X44720619Y15902608D01*
X44720616Y15902610D01*
X44703700Y15914149D01*
X44685125Y15922771D01*
X44685120Y15922774D01*
X44543444Y15988537D01*
X44479896Y16018035D01*
X44460158Y16023509D01*
X44440945Y16030578D01*
X44441566Y16032265D01*
X44333813Y16079528D01*
X44225087Y16170913D01*
X44146511Y16289228D01*
X44104451Y16424887D01*
X44102315Y16566902D01*
X44140275Y16703765D01*
X44215256Y16824390D01*
X44321184Y16919004D01*
X44449477Y16979942D01*
X44460329Y16982985D01*
X44465346Y16984693D01*
X44485217Y16989684D01*
X44503995Y16997849D01*
X44503998Y16997850D01*
X44692716Y17079907D01*
X44692721Y17079910D01*
X44711493Y17088072D01*
X44918661Y17222095D01*
X44964668Y17263958D01*
X45082252Y17343623D01*
X45217518Y17386933D01*
X45359506Y17390380D01*
X45496714Y17353685D01*
G37*
%TD.AperFunction*%
M02*
