%TF.GenerationSoftware,KiCad,Pcbnew,(6.0.6)*%
%TF.CreationDate,2022-08-24T11:57:53-03:00*%
%TF.ProjectId,hub_exterior,6875625f-6578-4746-9572-696f722e6b69,rev?*%
%TF.SameCoordinates,Original*%
%TF.FileFunction,Legend,Top*%
%TF.FilePolarity,Positive*%
%FSLAX46Y46*%
G04 Gerber Fmt 4.6, Leading zero omitted, Abs format (unit mm)*
G04 Created by KiCad (PCBNEW (6.0.6)) date 2022-08-24 11:57:53*
%MOMM*%
%LPD*%
G01*
G04 APERTURE LIST*
%ADD10C,0.150000*%
%ADD11C,0.127000*%
%ADD12C,0.120000*%
%ADD13C,0.100000*%
%ADD14C,0.152400*%
G04 APERTURE END LIST*
D10*
%TO.C,LV*%
X47732380Y13215952D02*
X47732380Y12739761D01*
X46732380Y12739761D01*
X46732380Y13406428D02*
X47732380Y13739761D01*
X46732380Y14073095D01*
%TO.C,LLUVIA*%
X31305714Y2452619D02*
X30829523Y2452619D01*
X30829523Y3452619D01*
X32115238Y2452619D02*
X31639047Y2452619D01*
X31639047Y3452619D01*
X32448571Y3452619D02*
X32448571Y2643095D01*
X32496190Y2547857D01*
X32543809Y2500238D01*
X32639047Y2452619D01*
X32829523Y2452619D01*
X32924761Y2500238D01*
X32972380Y2547857D01*
X33020000Y2643095D01*
X33020000Y3452619D01*
X33353333Y3452619D02*
X33686666Y2452619D01*
X34020000Y3452619D01*
X34353333Y2452619D02*
X34353333Y3452619D01*
X34781904Y2738333D02*
X35258095Y2738333D01*
X34686666Y2452619D02*
X35020000Y3452619D01*
X35353333Y2452619D01*
%TO.C,LR*%
X47772380Y19494523D02*
X47772380Y19018333D01*
X46772380Y19018333D01*
X47772380Y20399285D02*
X47296190Y20065952D01*
X47772380Y19827857D02*
X46772380Y19827857D01*
X46772380Y20208809D01*
X46820000Y20304047D01*
X46867619Y20351666D01*
X46962857Y20399285D01*
X47105714Y20399285D01*
X47200952Y20351666D01*
X47248571Y20304047D01*
X47296190Y20208809D01*
X47296190Y19827857D01*
%TO.C,DC*%
X11862380Y24043095D02*
X10862380Y24043095D01*
X10862380Y24281190D01*
X10910000Y24424047D01*
X11005238Y24519285D01*
X11100476Y24566904D01*
X11290952Y24614523D01*
X11433809Y24614523D01*
X11624285Y24566904D01*
X11719523Y24519285D01*
X11814761Y24424047D01*
X11862380Y24281190D01*
X11862380Y24043095D01*
X11767142Y25614523D02*
X11814761Y25566904D01*
X11862380Y25424047D01*
X11862380Y25328809D01*
X11814761Y25185952D01*
X11719523Y25090714D01*
X11624285Y25043095D01*
X11433809Y24995476D01*
X11290952Y24995476D01*
X11100476Y25043095D01*
X11005238Y25090714D01*
X10910000Y25185952D01*
X10862380Y25328809D01*
X10862380Y25424047D01*
X10910000Y25566904D01*
X10957619Y25614523D01*
%TO.C,B*%
X47248571Y26106428D02*
X47296190Y26249285D01*
X47343809Y26296904D01*
X47439047Y26344523D01*
X47581904Y26344523D01*
X47677142Y26296904D01*
X47724761Y26249285D01*
X47772380Y26154047D01*
X47772380Y25773095D01*
X46772380Y25773095D01*
X46772380Y26106428D01*
X46820000Y26201666D01*
X46867619Y26249285D01*
X46962857Y26296904D01*
X47058095Y26296904D01*
X47153333Y26249285D01*
X47200952Y26201666D01*
X47248571Y26106428D01*
X47248571Y25773095D01*
%TO.C,GPS*%
X17065714Y3385000D02*
X16970476Y3432619D01*
X16827619Y3432619D01*
X16684761Y3385000D01*
X16589523Y3289761D01*
X16541904Y3194523D01*
X16494285Y3004047D01*
X16494285Y2861190D01*
X16541904Y2670714D01*
X16589523Y2575476D01*
X16684761Y2480238D01*
X16827619Y2432619D01*
X16922857Y2432619D01*
X17065714Y2480238D01*
X17113333Y2527857D01*
X17113333Y2861190D01*
X16922857Y2861190D01*
X17541904Y2432619D02*
X17541904Y3432619D01*
X17922857Y3432619D01*
X18018095Y3385000D01*
X18065714Y3337380D01*
X18113333Y3242142D01*
X18113333Y3099285D01*
X18065714Y3004047D01*
X18018095Y2956428D01*
X17922857Y2908809D01*
X17541904Y2908809D01*
X18494285Y2480238D02*
X18637142Y2432619D01*
X18875238Y2432619D01*
X18970476Y2480238D01*
X19018095Y2527857D01*
X19065714Y2623095D01*
X19065714Y2718333D01*
X19018095Y2813571D01*
X18970476Y2861190D01*
X18875238Y2908809D01*
X18684761Y2956428D01*
X18589523Y3004047D01*
X18541904Y3051666D01*
X18494285Y3146904D01*
X18494285Y3242142D01*
X18541904Y3337380D01*
X18589523Y3385000D01*
X18684761Y3432619D01*
X18922857Y3432619D01*
X19065714Y3385000D01*
D11*
%TO.C,X1*%
X13653407Y43234428D02*
X13000264Y43234428D01*
X13326835Y43234428D02*
X13326835Y44377428D01*
X13217978Y44214142D01*
X13109121Y44105285D01*
X13000264Y44050857D01*
X27714121Y45774428D02*
X27931835Y45774428D01*
X28040692Y45828857D01*
X28095121Y45883285D01*
X28203978Y46046571D01*
X28258407Y46264285D01*
X28258407Y46699714D01*
X28203978Y46808571D01*
X28149550Y46863000D01*
X28040692Y46917428D01*
X27822978Y46917428D01*
X27714121Y46863000D01*
X27659692Y46808571D01*
X27605264Y46699714D01*
X27605264Y46427571D01*
X27659692Y46318714D01*
X27714121Y46264285D01*
X27822978Y46209857D01*
X28040692Y46209857D01*
X28149550Y46264285D01*
X28203978Y46318714D01*
X28258407Y46427571D01*
X28203978Y44377428D02*
X27659692Y44377428D01*
X27605264Y43833142D01*
X27659692Y43887571D01*
X27768550Y43942000D01*
X28040692Y43942000D01*
X28149550Y43887571D01*
X28203978Y43833142D01*
X28258407Y43724285D01*
X28258407Y43452142D01*
X28203978Y43343285D01*
X28149550Y43288857D01*
X28040692Y43234428D01*
X27768550Y43234428D01*
X27659692Y43288857D01*
X27605264Y43343285D01*
X13544550Y46917428D02*
X13326835Y46917428D01*
X13217978Y46863000D01*
X13163550Y46808571D01*
X13054692Y46645285D01*
X13000264Y46427571D01*
X13000264Y45992142D01*
X13054692Y45883285D01*
X13109121Y45828857D01*
X13217978Y45774428D01*
X13435692Y45774428D01*
X13544550Y45828857D01*
X13598978Y45883285D01*
X13653407Y45992142D01*
X13653407Y46264285D01*
X13598978Y46373142D01*
X13544550Y46427571D01*
X13435692Y46482000D01*
X13217978Y46482000D01*
X13109121Y46427571D01*
X13054692Y46373142D01*
X13000264Y46264285D01*
D12*
%TO.C,R8*%
X22765000Y26900000D02*
X22765000Y26570000D01*
X29305000Y29310000D02*
X29305000Y28980000D01*
X22765000Y26570000D02*
X29305000Y26570000D01*
X29305000Y26570000D02*
X29305000Y26900000D01*
X22765000Y28980000D02*
X22765000Y29310000D01*
X22765000Y29310000D02*
X29305000Y29310000D01*
%TO.C,LV*%
X41700000Y14355000D02*
X41700000Y12315000D01*
X46190000Y15985000D02*
X40170000Y15985000D01*
X45590000Y15405000D02*
X45590000Y13805000D01*
X40170000Y14605000D02*
X41170000Y14605000D01*
X46190000Y10685000D02*
X46190000Y15985000D01*
X40170000Y12315000D02*
X41170000Y12315000D01*
X41170000Y14605000D02*
X41170000Y12065000D01*
X45590000Y13805000D02*
X46190000Y13805000D01*
X46190000Y12865000D02*
X45590000Y12865000D01*
X41170000Y14605000D02*
X41700000Y14355000D01*
X45590000Y12865000D02*
X45590000Y11265000D01*
X41170000Y12065000D02*
X40170000Y12065000D01*
X45160000Y16275000D02*
X41160000Y16275000D01*
X40170000Y14355000D02*
X41170000Y14355000D01*
X40170000Y10685000D02*
X46190000Y10685000D01*
X45590000Y11265000D02*
X46190000Y11265000D01*
X46190000Y15405000D02*
X45590000Y15405000D01*
X41700000Y12315000D02*
X41170000Y12065000D01*
X40170000Y15985000D02*
X40170000Y10685000D01*
%TO.C,R6*%
X19050000Y13125000D02*
X19050000Y16435000D01*
X17680000Y16435000D02*
X20420000Y16435000D01*
X20420000Y16435000D02*
X20420000Y22975000D01*
X20420000Y22975000D02*
X17680000Y22975000D01*
X17680000Y22975000D02*
X17680000Y16435000D01*
X19050000Y26285000D02*
X19050000Y22975000D01*
%TO.C,R7*%
X29305000Y36600000D02*
X29305000Y36930000D01*
X29305000Y34190000D02*
X22765000Y34190000D01*
X29305000Y34520000D02*
X29305000Y34190000D01*
X22765000Y34190000D02*
X22765000Y34520000D01*
X29305000Y36930000D02*
X22765000Y36930000D01*
X22765000Y36930000D02*
X22765000Y36600000D01*
%TO.C,C2*%
X1845000Y15394000D02*
X9585000Y15394000D01*
X1845000Y18134000D02*
X9585000Y18134000D01*
X1845000Y18134000D02*
X1845000Y15394000D01*
X9585000Y18134000D02*
X9585000Y15394000D01*
%TO.C,LLUVIA*%
X36830000Y9015000D02*
X36580000Y8485000D01*
X28410000Y4595000D02*
X28410000Y3995000D01*
X37630000Y4595000D02*
X36030000Y4595000D01*
X27830000Y3995000D02*
X38210000Y3995000D01*
X30950000Y4595000D02*
X30950000Y3995000D01*
X35090000Y4595000D02*
X33490000Y4595000D01*
X36830000Y9015000D02*
X29210000Y9015000D01*
X29210000Y9015000D02*
X29210000Y10015000D01*
X33490000Y4595000D02*
X33490000Y3995000D01*
X38500000Y5025000D02*
X38500000Y9025000D01*
X36580000Y10015000D02*
X36580000Y9015000D01*
X36580000Y8485000D02*
X29460000Y8485000D01*
X38210000Y3995000D02*
X38210000Y10015000D01*
X32550000Y3995000D02*
X32550000Y4595000D01*
X27830000Y10015000D02*
X27830000Y3995000D01*
X36830000Y10015000D02*
X36830000Y9015000D01*
X37630000Y3995000D02*
X37630000Y4595000D01*
X32550000Y4595000D02*
X30950000Y4595000D01*
X30010000Y3995000D02*
X30010000Y4595000D01*
X38210000Y10015000D02*
X27830000Y10015000D01*
X35090000Y3995000D02*
X35090000Y4595000D01*
X30010000Y4595000D02*
X28410000Y4595000D01*
X29460000Y8485000D02*
X29210000Y9015000D01*
X29460000Y10015000D02*
X29460000Y9015000D01*
X36030000Y4595000D02*
X36030000Y3995000D01*
%TO.C,LR*%
X45630000Y21755000D02*
X45630000Y20155000D01*
X46230000Y17035000D02*
X46230000Y22335000D01*
X41210000Y18415000D02*
X40210000Y18415000D01*
X40210000Y22335000D02*
X40210000Y17035000D01*
X45630000Y20155000D02*
X46230000Y20155000D01*
X46230000Y21755000D02*
X45630000Y21755000D01*
X40210000Y20705000D02*
X41210000Y20705000D01*
X45630000Y17615000D02*
X46230000Y17615000D01*
X45200000Y22625000D02*
X41200000Y22625000D01*
X40210000Y18665000D02*
X41210000Y18665000D01*
X46230000Y22335000D02*
X40210000Y22335000D01*
X41740000Y20705000D02*
X41740000Y18665000D01*
X41210000Y20955000D02*
X41740000Y20705000D01*
X40210000Y20955000D02*
X41210000Y20955000D01*
X46230000Y19215000D02*
X45630000Y19215000D01*
X41740000Y18665000D02*
X41210000Y18415000D01*
X40210000Y17035000D02*
X46230000Y17035000D01*
X45630000Y19215000D02*
X45630000Y17615000D01*
X41210000Y20955000D02*
X41210000Y18415000D01*
%TO.C,DC*%
X8004000Y25917000D02*
X7897000Y26024000D01*
X10410000Y29865000D02*
X10410000Y19745000D01*
X10410000Y19745000D02*
X1290000Y19745000D01*
X7738000Y20651000D02*
X7342000Y21046000D01*
X1290000Y29865000D02*
X1290000Y19745000D01*
X4803000Y28587000D02*
X4696000Y28693000D01*
X5076000Y23312000D02*
X4696000Y23692000D01*
X7738000Y25651000D02*
X7631000Y25758000D01*
X5069000Y28853000D02*
X4962000Y28959000D01*
X2850000Y29865000D02*
X2850000Y19745000D01*
X5358000Y23563000D02*
X4962000Y23958000D01*
X1050000Y30105000D02*
X1050000Y29705000D01*
X1750000Y29865000D02*
X1750000Y19745000D01*
X8004000Y20917000D02*
X7624000Y21297000D01*
X10410000Y29865000D02*
X1290000Y29865000D01*
X1690000Y30105000D02*
X1050000Y30105000D01*
X8530000Y27305000D02*
G75*
G03*
X8530000Y27305000I-2180000J0D01*
G01*
X8530000Y22305000D02*
G75*
G03*
X8530000Y22305000I-2180000J0D01*
G01*
%TO.C,R2*%
X29305000Y20220000D02*
X29305000Y20550000D01*
X22765000Y20220000D02*
X29305000Y20220000D01*
X22765000Y22960000D02*
X29305000Y22960000D01*
X22765000Y22630000D02*
X22765000Y22960000D01*
X29305000Y22960000D02*
X29305000Y22630000D01*
X22765000Y20550000D02*
X22765000Y20220000D01*
%TO.C,Q1*%
X15770000Y23800000D02*
X12170000Y23800000D01*
X12131522Y23788478D02*
G75*
G03*
X13970000Y19350000I1838478J-1838478D01*
G01*
X13970000Y19349999D02*
G75*
G03*
X15808478Y23788478I0J2600001D01*
G01*
%TO.C,C1*%
X29925000Y42010000D02*
X22185000Y42010000D01*
X29925000Y39270000D02*
X29925000Y42010000D01*
X22185000Y39270000D02*
X22185000Y42010000D01*
X29925000Y39270000D02*
X22185000Y39270000D01*
%TO.C,R4*%
X29305000Y13435000D02*
X29305000Y13105000D01*
X22765000Y13435000D02*
X29305000Y13435000D01*
X22765000Y10695000D02*
X29305000Y10695000D01*
X22765000Y11025000D02*
X22765000Y10695000D01*
X29305000Y10695000D02*
X29305000Y11025000D01*
X22765000Y13105000D02*
X22765000Y13435000D01*
%TO.C,B*%
X41210000Y24765000D02*
X40210000Y24765000D01*
X40210000Y25015000D02*
X41210000Y25015000D01*
X40210000Y27055000D02*
X41210000Y27055000D01*
X45630000Y23965000D02*
X46230000Y23965000D01*
X46230000Y28685000D02*
X40210000Y28685000D01*
X41740000Y27055000D02*
X41740000Y25015000D01*
X45630000Y28105000D02*
X45630000Y26505000D01*
X41210000Y27305000D02*
X41210000Y24765000D01*
X45200000Y28975000D02*
X41200000Y28975000D01*
X40210000Y23385000D02*
X46230000Y23385000D01*
X40210000Y28685000D02*
X40210000Y23385000D01*
X40210000Y27305000D02*
X41210000Y27305000D01*
X46230000Y23385000D02*
X46230000Y28685000D01*
X41210000Y27305000D02*
X41740000Y27055000D01*
X45630000Y25565000D02*
X45630000Y23965000D01*
X46230000Y25565000D02*
X45630000Y25565000D01*
X46230000Y28105000D02*
X45630000Y28105000D01*
X41740000Y25015000D02*
X41210000Y24765000D01*
X45630000Y26505000D02*
X46230000Y26505000D01*
%TO.C,GPS*%
X15710000Y4575000D02*
X15710000Y3975000D01*
X21590000Y8995000D02*
X13970000Y8995000D01*
X19850000Y4575000D02*
X18250000Y4575000D01*
X13170000Y4575000D02*
X13170000Y3975000D01*
X12590000Y3975000D02*
X22970000Y3975000D01*
X18250000Y4575000D02*
X18250000Y3975000D01*
X14770000Y3975000D02*
X14770000Y4575000D01*
X21590000Y9995000D02*
X21590000Y8995000D01*
X22970000Y3975000D02*
X22970000Y9995000D01*
X22390000Y4575000D02*
X20790000Y4575000D01*
X21340000Y8465000D02*
X14220000Y8465000D01*
X17310000Y4575000D02*
X15710000Y4575000D01*
X22390000Y3975000D02*
X22390000Y4575000D01*
X21590000Y8995000D02*
X21340000Y8465000D01*
X14220000Y9995000D02*
X14220000Y8995000D01*
X13970000Y8995000D02*
X13970000Y9995000D01*
X14770000Y4575000D02*
X13170000Y4575000D01*
X20790000Y4575000D02*
X20790000Y3975000D01*
X14220000Y8465000D02*
X13970000Y8995000D01*
X12590000Y9995000D02*
X12590000Y3975000D01*
X21340000Y9995000D02*
X21340000Y8995000D01*
X22970000Y9995000D02*
X12590000Y9995000D01*
X17310000Y3975000D02*
X17310000Y4575000D01*
X23260000Y5005000D02*
X23260000Y9005000D01*
X19850000Y3975000D02*
X19850000Y4575000D01*
%TO.C,R5*%
X22765000Y16610000D02*
X29305000Y16610000D01*
X29305000Y16610000D02*
X29305000Y16280000D01*
X22765000Y13870000D02*
X29305000Y13870000D01*
X22765000Y14200000D02*
X22765000Y13870000D01*
X29305000Y13870000D02*
X29305000Y14200000D01*
X22765000Y16280000D02*
X22765000Y16610000D01*
%TO.C,C3*%
X45660000Y31619112D02*
X44220000Y31619112D01*
X45329000Y30899112D02*
X44220000Y30899112D01*
X45215000Y30739112D02*
X44220000Y30739112D01*
X44680000Y30219112D02*
X44220000Y30219112D01*
X42140000Y30899112D02*
X41031000Y30899112D01*
X42140000Y31660112D02*
X40689000Y31660112D01*
X43698000Y29779112D02*
X42662000Y29779112D01*
X42140000Y30139112D02*
X41797000Y30139112D01*
X45184000Y30699112D02*
X44220000Y30699112D01*
X42140000Y31940112D02*
X40630000Y31940112D01*
X45044000Y30539112D02*
X44220000Y30539112D01*
X44278000Y29979112D02*
X42082000Y29979112D01*
X45528000Y31259112D02*
X44220000Y31259112D01*
X42140000Y31259112D02*
X40832000Y31259112D01*
X45736000Y31980112D02*
X44220000Y31980112D01*
X42140000Y30179112D02*
X41737000Y30179112D01*
X45275000Y30819112D02*
X44220000Y30819112D01*
X42140000Y31539112D02*
X40725000Y31539112D01*
X42140000Y31219112D02*
X40851000Y31219112D01*
X45756000Y32180112D02*
X40604000Y32180112D01*
X45302000Y30859112D02*
X44220000Y30859112D01*
X45151000Y30659112D02*
X44220000Y30659112D01*
X45741000Y32020112D02*
X44220000Y32020112D01*
X44623000Y30179112D02*
X44220000Y30179112D01*
X45081000Y30579112D02*
X44220000Y30579112D01*
X42140000Y30259112D02*
X41626000Y30259112D01*
X45355000Y30939112D02*
X44220000Y30939112D01*
X42140000Y31820112D02*
X40652000Y31820112D01*
X42140000Y30859112D02*
X41058000Y30859112D01*
X42140000Y31059112D02*
X40933000Y31059112D01*
X42140000Y30699112D02*
X41176000Y30699112D01*
X42140000Y30619112D02*
X41243000Y30619112D01*
X45608000Y31459112D02*
X44220000Y31459112D01*
X44965000Y30459112D02*
X44220000Y30459112D01*
X45490000Y31179112D02*
X44220000Y31179112D01*
X45562000Y31339112D02*
X44220000Y31339112D01*
X45427000Y31059112D02*
X44220000Y31059112D01*
X45006000Y30499112D02*
X44220000Y30499112D01*
X42140000Y31980112D02*
X40624000Y31980112D01*
X42140000Y31459112D02*
X40752000Y31459112D01*
X43985000Y29859112D02*
X42375000Y29859112D01*
X45730000Y31940112D02*
X44220000Y31940112D01*
X42140000Y32100112D02*
X40611000Y32100112D01*
X42140000Y31339112D02*
X40798000Y31339112D01*
X45117000Y30619112D02*
X44220000Y30619112D01*
X44879000Y30379112D02*
X44220000Y30379112D01*
X45759000Y32260112D02*
X40601000Y32260112D01*
X42140000Y32060112D02*
X40615000Y32060112D01*
X45760000Y32340112D02*
X40600000Y32340112D01*
X42140000Y30459112D02*
X41395000Y30459112D01*
X45594000Y31419112D02*
X44220000Y31419112D01*
X45723000Y31900112D02*
X44220000Y31900112D01*
X45745000Y32060112D02*
X44220000Y32060112D01*
X45509000Y31219112D02*
X44220000Y31219112D01*
X42140000Y31299112D02*
X40815000Y31299112D01*
X44191000Y29939112D02*
X42169000Y29939112D01*
X42140000Y31379112D02*
X40782000Y31379112D01*
X45760000Y32300112D02*
X40600000Y32300112D01*
X42140000Y31700112D02*
X40679000Y31700112D01*
X45245000Y30779112D02*
X44220000Y30779112D01*
X42140000Y31780112D02*
X40660000Y31780112D01*
X42140000Y31099112D02*
X40912000Y31099112D01*
X42140000Y30059112D02*
X41929000Y30059112D01*
X45671000Y31660112D02*
X44220000Y31660112D01*
X42140000Y31579112D02*
X40712000Y31579112D01*
X42140000Y30779112D02*
X41115000Y30779112D01*
X42140000Y30219112D02*
X41680000Y30219112D01*
X42140000Y30579112D02*
X41279000Y30579112D01*
X42140000Y31019112D02*
X40956000Y31019112D01*
X45635000Y31539112D02*
X44220000Y31539112D01*
X45380000Y30979112D02*
X44220000Y30979112D01*
X44431000Y30059112D02*
X44220000Y30059112D01*
X42140000Y30939112D02*
X41005000Y30939112D01*
X43464000Y29739112D02*
X42896000Y29739112D01*
X42140000Y30499112D02*
X41354000Y30499112D01*
X42140000Y30539112D02*
X41316000Y30539112D01*
X42140000Y31900112D02*
X40637000Y31900112D01*
X42140000Y31179112D02*
X40870000Y31179112D01*
X44785000Y30299112D02*
X44220000Y30299112D01*
X44655000Y35144887D02*
X44655000Y34644887D01*
X44499000Y30099112D02*
X44220000Y30099112D01*
X45545000Y31299112D02*
X44220000Y31299112D01*
X45758000Y32220112D02*
X40602000Y32220112D01*
X42140000Y30819112D02*
X41085000Y30819112D01*
X43857000Y29819112D02*
X42503000Y29819112D01*
X45681000Y31700112D02*
X44220000Y31700112D01*
X42140000Y31740112D02*
X40669000Y31740112D01*
X42140000Y31499112D02*
X40738000Y31499112D01*
X44905000Y34894887D02*
X44405000Y34894887D01*
X42140000Y30739112D02*
X41145000Y30739112D01*
X45708000Y31820112D02*
X44220000Y31820112D01*
X44734000Y30259112D02*
X44220000Y30259112D01*
X44358000Y30019112D02*
X42002000Y30019112D01*
X42140000Y30099112D02*
X41861000Y30099112D01*
X44095000Y29899112D02*
X42265000Y29899112D01*
X42140000Y32020112D02*
X40619000Y32020112D01*
X42140000Y30659112D02*
X41209000Y30659112D01*
X42140000Y30419112D02*
X41437000Y30419112D01*
X45648000Y31579112D02*
X44220000Y31579112D01*
X45470000Y31139112D02*
X44220000Y31139112D01*
X45749000Y32100112D02*
X44220000Y32100112D01*
X42140000Y31419112D02*
X40766000Y31419112D01*
X42140000Y31860112D02*
X40644000Y31860112D01*
X42140000Y30979112D02*
X40980000Y30979112D01*
X44833000Y30339112D02*
X44220000Y30339112D01*
X42140000Y30299112D02*
X41575000Y30299112D01*
X42140000Y31619112D02*
X40700000Y31619112D01*
X45448000Y31099112D02*
X44220000Y31099112D01*
X44923000Y30419112D02*
X44220000Y30419112D01*
X45716000Y31860112D02*
X44220000Y31860112D01*
X44563000Y30139112D02*
X44220000Y30139112D01*
X45691000Y31740112D02*
X44220000Y31740112D01*
X45622000Y31499112D02*
X44220000Y31499112D01*
X42140000Y30379112D02*
X41481000Y30379112D01*
X45753000Y32140112D02*
X40607000Y32140112D01*
X45404000Y31019112D02*
X44220000Y31019112D01*
X45578000Y31379112D02*
X44220000Y31379112D01*
X45700000Y31780112D02*
X44220000Y31780112D01*
X42140000Y31139112D02*
X40890000Y31139112D01*
X42140000Y30339112D02*
X41527000Y30339112D01*
X45800000Y32340112D02*
G75*
G03*
X45800000Y32340112I-2620000J0D01*
G01*
%TO.C,R3*%
X29305000Y26135000D02*
X29305000Y25805000D01*
X22765000Y23725000D02*
X22765000Y23395000D01*
X22765000Y23395000D02*
X29305000Y23395000D01*
X22765000Y25805000D02*
X22765000Y26135000D01*
X22765000Y26135000D02*
X29305000Y26135000D01*
X29305000Y23395000D02*
X29305000Y23725000D01*
D13*
%TO.C,U$1*%
X45045000Y51990000D02*
X45045000Y50990000D01*
X47045000Y49990000D02*
X47045000Y50990000D01*
X45545000Y52990000D02*
X39545000Y52990000D01*
X45545000Y52990000D02*
X45545000Y51990000D01*
X45545000Y51990000D02*
X45045000Y51990000D01*
X38045000Y49990000D02*
X38045000Y50990000D01*
X38045000Y50990000D02*
X39545000Y50990000D01*
X48545000Y49990000D02*
X47045000Y49990000D01*
X40045000Y50990000D02*
X40045000Y51990000D01*
X36545000Y49990000D02*
X36545000Y38990000D01*
X36545000Y49990000D02*
X38045000Y49990000D01*
X48545000Y38990000D02*
X36545000Y38990000D01*
X48545000Y49990000D02*
X48545000Y38990000D01*
X45045000Y50990000D02*
X45545000Y50990000D01*
X47045000Y50990000D02*
X45545000Y50990000D01*
X39545000Y52990000D02*
X39545000Y51990000D01*
X39545000Y50990000D02*
X40045000Y50990000D01*
X40045000Y51990000D02*
X39545000Y51990000D01*
D12*
%TO.C,R1*%
X22765000Y17375000D02*
X22765000Y17045000D01*
X22765000Y19785000D02*
X29305000Y19785000D01*
X29305000Y17045000D02*
X29305000Y17375000D01*
X22765000Y19455000D02*
X22765000Y19785000D01*
X22765000Y17045000D02*
X29305000Y17045000D01*
X29305000Y19785000D02*
X29305000Y19455000D01*
D14*
%TO.C,X1*%
X9906000Y55753000D02*
X10033000Y55753000D01*
X29845000Y42418000D02*
X29845000Y52705000D01*
X11049000Y51943000D02*
X29591000Y51943000D01*
X9906000Y56261000D02*
X30734000Y56261000D01*
X4826000Y42545000D02*
X4826000Y52578000D01*
X4826000Y56261000D02*
X7366000Y56261000D01*
X10033000Y53340000D02*
X10033000Y55753000D01*
X33274000Y56261000D02*
X35814000Y56261000D01*
X4826000Y56261000D02*
X4826000Y56769000D01*
X35814000Y42418000D02*
X35814000Y52578000D01*
X29845000Y52705000D02*
X30734000Y52705000D01*
X35814000Y52705000D02*
X35814000Y52578000D01*
X9906000Y52705000D02*
X10795000Y52705000D01*
X35814000Y56769000D02*
X35814000Y56261000D01*
X4826000Y52705000D02*
X4826000Y55753000D01*
X10287000Y41910000D02*
X5461000Y41910000D01*
X27686000Y62992000D02*
X27940000Y62992000D01*
X12573000Y56769000D02*
X28067000Y56769000D01*
X30353000Y41910000D02*
X35306000Y41910000D01*
X11049000Y52705000D02*
X11049000Y51943000D01*
X12954000Y62992000D02*
X27686000Y62992000D01*
X4826000Y52705000D02*
X9906000Y52705000D01*
X7366000Y56261000D02*
X9906000Y56261000D01*
X5461000Y41910000D02*
X4826000Y42545000D01*
X35814000Y56261000D02*
X35814000Y55753000D01*
X11049000Y52705000D02*
X29591000Y52705000D01*
X29591000Y52705000D02*
X29845000Y52705000D01*
X4826000Y55753000D02*
X4826000Y56261000D01*
X35306000Y41910000D02*
X35814000Y42418000D01*
X12192000Y57404000D02*
X12192000Y62484000D01*
X10287000Y41910000D02*
X10795000Y42418000D01*
X35814000Y55753000D02*
X35814000Y52705000D01*
X29845000Y42418000D02*
X30353000Y41910000D01*
X30734000Y55753000D02*
X30734000Y56261000D01*
X4826000Y56769000D02*
X12573000Y56769000D01*
X9906000Y55753000D02*
X9906000Y56261000D01*
X30734000Y56261000D02*
X33274000Y56261000D01*
X30607000Y53340000D02*
X30607000Y55753000D01*
X29591000Y52705000D02*
X29591000Y51943000D01*
X28067000Y56769000D02*
X35814000Y56769000D01*
X10795000Y42418000D02*
X10795000Y52705000D01*
X12700000Y62992000D02*
X12954000Y62992000D01*
X30607000Y55753000D02*
X30734000Y55753000D01*
X28448000Y57404000D02*
X28448000Y62484000D01*
X30734000Y52705000D02*
X35814000Y52705000D01*
X10795000Y52705000D02*
X11049000Y52705000D01*
X4826000Y52705000D02*
X4826000Y52578000D01*
X28448000Y62484000D02*
G75*
G03*
X27940000Y62992000I-508000J0D01*
G01*
X12700000Y62992000D02*
G75*
G03*
X12192000Y62484000I1J-508001D01*
G01*
X28448000Y57404000D02*
G75*
G03*
X29083000Y56769000I635000J0D01*
G01*
X29972000Y52705000D02*
G75*
G03*
X30607000Y53340000I0J635000D01*
G01*
X11557000Y56769000D02*
G75*
G03*
X12192000Y57404000I1J634999D01*
G01*
X10033000Y53340000D02*
G75*
G03*
X10668000Y52705000I634999J-1D01*
G01*
X9448800Y45085000D02*
G75*
G03*
X9448800Y45085000I-1651000J0D01*
G01*
X34493200Y45085000D02*
G75*
G03*
X34493200Y45085000I-1651000J0D01*
G01*
G36*
X15240000Y44704000D02*
G01*
X14427200Y44704000D01*
X14427200Y51943000D01*
X15240000Y51943000D01*
X15240000Y44704000D01*
G37*
G36*
X26212800Y44704000D02*
G01*
X25400000Y44704000D01*
X25400000Y51943000D01*
X26212800Y51943000D01*
X26212800Y44704000D01*
G37*
G36*
X17983200Y44704000D02*
G01*
X17170400Y44704000D01*
X17170400Y51943000D01*
X17983200Y51943000D01*
X17983200Y44704000D01*
G37*
G36*
X20701000Y44704000D02*
G01*
X19888200Y44704000D01*
X19888200Y51943000D01*
X20701000Y51943000D01*
X20701000Y44704000D01*
G37*
G36*
X16611600Y47244000D02*
G01*
X15798800Y47244000D01*
X15798800Y51943000D01*
X16611600Y51943000D01*
X16611600Y47244000D01*
G37*
G36*
X29591000Y51943000D02*
G01*
X11049000Y51943000D01*
X11049000Y52705000D01*
X29591000Y52705000D01*
X29591000Y51943000D01*
G37*
G36*
X19354800Y47244000D02*
G01*
X18542000Y47244000D01*
X18542000Y51943000D01*
X19354800Y51943000D01*
X19354800Y47244000D01*
G37*
G36*
X22072600Y47244000D02*
G01*
X21259800Y47244000D01*
X21259800Y51943000D01*
X22072600Y51943000D01*
X22072600Y47244000D01*
G37*
G36*
X35814000Y56261000D02*
G01*
X4826000Y56261000D01*
X4826000Y56769000D01*
X35814000Y56769000D01*
X35814000Y56261000D01*
G37*
G36*
X24841200Y47244000D02*
G01*
X24028400Y47244000D01*
X24028400Y51943000D01*
X24841200Y51943000D01*
X24841200Y47244000D01*
G37*
G36*
X23469600Y44704000D02*
G01*
X22656800Y44704000D01*
X22656800Y51943000D01*
X23469600Y51943000D01*
X23469600Y44704000D01*
G37*
D12*
%TO.C,R9*%
X29305000Y33425000D02*
X29305000Y33755000D01*
X29305000Y33755000D02*
X22765000Y33755000D01*
X29305000Y31015000D02*
X22765000Y31015000D01*
X22765000Y31015000D02*
X22765000Y31345000D01*
X22765000Y33755000D02*
X22765000Y33425000D01*
X29305000Y31345000D02*
X29305000Y31015000D01*
%TD*%
M02*
