M48
; DRILL file {KiCad (6.0.6)} date Wed Aug 24 17:59:30 2022
; FORMAT={-:-/ absolute / metric / decimal}
; #@! TF.CreationDate,2022-08-24T17:59:30-03:00
; #@! TF.GenerationSoftware,Kicad,Pcbnew,(6.0.6)
; #@! TF.FileFunction,MixedPlating,1,2
FMAT,2
METRIC
; #@! TA.AperFunction,Plated,PTH,ViaDrill
T1C0.800
; #@! TA.AperFunction,Plated,PTH,ComponentDrill
T2C0.800
%
G90
G05
T1
X4.445Y32.385
X15.875Y27.305
X16.451Y12.065
X17.577Y39.37
X17.78Y32.385
X20.32Y37.592
X25.4Y6.985
X25.4Y1.925
X34.29Y39.37
X34.29Y34.925
X34.29Y12.065
X38.1Y18.415
X38.1Y12.065
X42.545Y37.592
T2
X5.628Y16.764
X6.35Y27.305
X6.35Y22.305
X7.798Y45.085
X10.628Y16.764
X12.7Y21.95
X13.97Y20.045
X13.97Y7.005
X14.834Y43.815
X15.24Y21.95
X16.205Y46.355
X16.51Y7.005
X17.577Y43.815
X18.948Y46.355
X19.05Y27.325
X19.05Y12.085
X19.05Y7.005
X20.32Y43.815
X21.59Y7.005
X21.692Y46.355
X22.225Y34.29
X22.225Y31.115
X22.225Y27.94
X22.225Y24.765
X22.225Y21.59
X22.225Y18.415
X22.225Y15.24
X22.225Y12.065
X23.063Y43.815
X23.555Y40.64
X24.435Y46.355
X25.806Y43.815
X28.555Y40.64
X29.21Y7.025
X29.845Y34.29
X29.845Y31.115
X29.845Y27.94
X29.845Y24.765
X29.845Y21.59
X29.845Y18.415
X29.845Y15.24
X29.845Y12.065
X31.75Y7.025
X32.842Y45.085
X34.29Y7.025
X36.83Y7.025
X37.545Y41.99
X40.045Y41.99
X42.545Y46.99
X43.16Y14.605
X43.16Y12.065
X43.18Y33.59
X43.18Y31.09
X43.2Y27.305
X43.2Y24.765
X43.2Y20.955
X43.2Y18.415
X45.045Y41.99
X47.545Y41.99
T0
M30
