M48
; DRILL file {KiCad (6.0.6)} date Wed Aug 24 11:44:24 2022
; FORMAT={-:-/ absolute / metric / decimal}
; #@! TF.CreationDate,2022-08-24T11:44:24-03:00
; #@! TF.GenerationSoftware,Kicad,Pcbnew,(6.0.6)
; #@! TF.FileFunction,MixedPlating,1,2
FMAT,2
METRIC
; #@! TA.AperFunction,Plated,PTH,ViaDrill
T1C0.800
; #@! TA.AperFunction,Plated,PTH,ComponentDrill
T2C0.800
%
G90
G05
T1
X5.588Y17.526
X7.62Y30.988
X10.414Y21.844
X17.272Y21.844
X19.05Y17.526
X23.368Y30.988
T2
X7.62Y8.275
X7.66Y38.1
X10.16Y8.275
X12.243Y45.085
X12.66Y38.1
X12.7Y8.275
X15.24Y8.275
X17.272Y26.67
X19.279Y43.815
X19.685Y38.1
X20.65Y46.355
X22.022Y43.815
X23.368Y8.128
X23.393Y46.355
X24.685Y38.1
X24.765Y43.815
X24.892Y26.67
X25.908Y8.128
X26.137Y46.355
X26.322Y20.955
X27.508Y43.815
X28.322Y22.225
X28.322Y19.685
X28.448Y8.128
X28.88Y46.355
X30.251Y43.815
X31.75Y32.385
X31.75Y26.035
X31.75Y19.685
X31.79Y38.1
X35.56Y8.255
X36.79Y38.1
X37.287Y45.085
X38.1Y8.255
X39.37Y32.385
X39.37Y26.035
X39.37Y19.685
X40.64Y8.255
X43.18Y8.255
X44.45Y35.052
X44.45Y32.512
X44.45Y27.432
X44.45Y24.892
X44.45Y19.558
X44.45Y17.018
T0
M30
