%TF.GenerationSoftware,KiCad,Pcbnew,(6.0.6)*%
%TF.CreationDate,2022-08-24T17:57:08-03:00*%
%TF.ProjectId,hub_interior,6875625f-696e-4746-9572-696f722e6b69,rev?*%
%TF.SameCoordinates,Original*%
%TF.FileFunction,Soldermask,Top*%
%TF.FilePolarity,Negative*%
%FSLAX46Y46*%
G04 Gerber Fmt 4.6, Leading zero omitted, Abs format (unit mm)*
G04 Created by KiCad (PCBNEW (6.0.6)) date 2022-08-24 17:57:08*
%MOMM*%
%LPD*%
G01*
G04 APERTURE LIST*
%ADD10O,3.800000X1.900000*%
%ADD11O,1.900000X3.800000*%
%ADD12C,2.000000*%
%ADD13C,1.600000*%
%ADD14C,5.283200*%
G04 APERTURE END LIST*
D10*
%TO.C,LR*%
X44450000Y24892000D03*
X44450000Y27432000D03*
%TD*%
D11*
%TO.C,VOLTAGE*%
X6985000Y8275000D03*
X9525000Y8275000D03*
X12065000Y8275000D03*
X14605000Y8275000D03*
%TD*%
%TO.C,TEMP*%
X27925000Y8255000D03*
X25385000Y8255000D03*
X22845000Y8255000D03*
%TD*%
D12*
%TO.C,R4*%
X31750000Y32385000D03*
X39370000Y32385000D03*
%TD*%
D10*
%TO.C,LV*%
X44450000Y32512000D03*
X44450000Y35052000D03*
%TD*%
D12*
%TO.C,C1*%
X19685000Y38100000D03*
X24685000Y38100000D03*
%TD*%
%TO.C,C4*%
X7660000Y38100000D03*
X12660000Y38100000D03*
%TD*%
%TO.C,R3*%
X31750000Y26035000D03*
X39370000Y26035000D03*
%TD*%
D10*
%TO.C,B*%
X44450000Y17018000D03*
X44450000Y19558000D03*
%TD*%
D12*
%TO.C,R2*%
X31750000Y19685000D03*
X39370000Y19685000D03*
%TD*%
%TO.C,R1*%
X24892000Y26035000D03*
X17272000Y26035000D03*
%TD*%
D11*
%TO.C,RELE*%
X36195000Y8255000D03*
X38735000Y8255000D03*
X41275000Y8255000D03*
X43815000Y8255000D03*
%TD*%
D13*
%TO.C,Q1*%
X27052500Y22225000D03*
X25052500Y20955000D03*
X27052500Y19685000D03*
%TD*%
D12*
%TO.C,X1*%
X19278600Y43815000D03*
X22021800Y43815000D03*
X24765000Y43815000D03*
X27508200Y43815000D03*
X30251400Y43815000D03*
X20650200Y46355000D03*
X23393400Y46355000D03*
X26136600Y46355000D03*
X28879800Y46355000D03*
D14*
X12242800Y45085000D03*
X37287200Y45085000D03*
%TD*%
D12*
%TO.C,C2*%
X31790000Y38100000D03*
X36790000Y38100000D03*
%TD*%
M02*
