%TF.GenerationSoftware,KiCad,Pcbnew,(6.0.6)*%
%TF.CreationDate,2022-08-24T11:44:13-03:00*%
%TF.ProjectId,hub_interior,6875625f-696e-4746-9572-696f722e6b69,rev?*%
%TF.SameCoordinates,Original*%
%TF.FileFunction,Copper,L1,Top*%
%TF.FilePolarity,Positive*%
%FSLAX46Y46*%
G04 Gerber Fmt 4.6, Leading zero omitted, Abs format (unit mm)*
G04 Created by KiCad (PCBNEW (6.0.6)) date 2022-08-24 11:44:13*
%MOMM*%
%LPD*%
G01*
G04 APERTURE LIST*
%TA.AperFunction,ComponentPad*%
%ADD10O,3.200000X1.600000*%
%TD*%
%TA.AperFunction,ComponentPad*%
%ADD11O,1.600000X3.200000*%
%TD*%
%TA.AperFunction,ComponentPad*%
%ADD12C,1.600000*%
%TD*%
%TA.AperFunction,ComponentPad*%
%ADD13C,5.080000*%
%TD*%
%TA.AperFunction,ViaPad*%
%ADD14C,1.600000*%
%TD*%
%TA.AperFunction,Conductor*%
%ADD15C,0.600000*%
%TD*%
G04 APERTURE END LIST*
D10*
%TO.P,LR,1,S*%
%TO.N,+5V*%
X44450000Y24892000D03*
%TO.P,LR,2,S*%
%TO.N,Net-(R3-Pad2)*%
X44450000Y27432000D03*
%TD*%
D11*
%TO.P,VOLTAGE,1,S*%
%TO.N,GND*%
X7620000Y8275000D03*
%TO.P,VOLTAGE,2,S*%
%TO.N,Net-(VOLTAGE0-Pad2)*%
X10160000Y8275000D03*
%TO.P,VOLTAGE,3,S*%
%TO.N,GND*%
X12700000Y8275000D03*
%TO.P,VOLTAGE,4,S*%
%TO.N,+5V*%
X15240000Y8275000D03*
%TD*%
%TO.P,TEMP,1,1*%
%TO.N,Net-(JP1-Pad1)*%
X28448000Y8128000D03*
%TO.P,TEMP,2,2*%
%TO.N,+5V*%
X25908000Y8128000D03*
%TO.P,TEMP,3,3*%
%TO.N,GND*%
X23368000Y8128000D03*
%TD*%
D12*
%TO.P,R4,1,1*%
%TO.N,+5V*%
X31750000Y32385000D03*
%TO.P,R4,2,2*%
%TO.N,Net-(LED0-Pad1)*%
X39370000Y32385000D03*
%TD*%
D10*
%TO.P,LV,1,S*%
%TO.N,Net-(LED0-Pad1)*%
X44450000Y32512000D03*
%TO.P,LV,2,S*%
%TO.N,GND*%
X44450000Y35052000D03*
%TD*%
D12*
%TO.P,C1,1,1*%
%TO.N,Net-(C1-Pad1)*%
X19685000Y38100000D03*
%TO.P,C1,2,2*%
%TO.N,GND*%
X24685000Y38100000D03*
%TD*%
%TO.P,C4,1,1*%
%TO.N,Net-(C4-Pad1)*%
X7660000Y38100000D03*
%TO.P,C4,2,2*%
%TO.N,GND*%
X12660000Y38100000D03*
%TD*%
%TO.P,R3,1,1*%
%TO.N,Net-(Q1-Pad3)*%
X31750000Y26035000D03*
%TO.P,R3,2,2*%
%TO.N,Net-(R3-Pad2)*%
X39370000Y26035000D03*
%TD*%
D10*
%TO.P,B,1,S*%
%TO.N,+5V*%
X44450000Y17018000D03*
%TO.P,B,2,S*%
%TO.N,Net-(R2-Pad2)*%
X44450000Y19558000D03*
%TD*%
D12*
%TO.P,R2,1,1*%
%TO.N,Net-(Q1-Pad3)*%
X31750000Y19685000D03*
%TO.P,R2,2,2*%
%TO.N,Net-(R2-Pad2)*%
X39370000Y19685000D03*
%TD*%
%TO.P,R1,1,1*%
%TO.N,Net-(Q1-Pad2)*%
X24892000Y26670000D03*
%TO.P,R1,2,2*%
%TO.N,Net-(C1-Pad1)*%
X17272000Y26670000D03*
%TD*%
D11*
%TO.P,RELE,1,S*%
%TO.N,GND*%
X35560000Y8255000D03*
%TO.P,RELE,2,S*%
%TO.N,Net-(C4-Pad1)*%
X38100000Y8255000D03*
%TO.P,RELE,3,S*%
%TO.N,GND*%
X40640000Y8255000D03*
%TO.P,RELE,4,S*%
%TO.N,+5V*%
X43180000Y8255000D03*
%TD*%
D12*
%TO.P,Q1,1,E*%
%TO.N,GND*%
X28322500Y22225000D03*
%TO.P,Q1,2,B*%
%TO.N,Net-(Q1-Pad2)*%
X26322500Y20955000D03*
%TO.P,Q1,3,C*%
%TO.N,Net-(Q1-Pad3)*%
X28322500Y19685000D03*
%TD*%
%TO.P,X1,1,1*%
%TO.N,unconnected-(X1-Pad1)*%
X19278600Y43815000D03*
%TO.P,X1,2,2*%
%TO.N,Net-(C1-Pad1)*%
X22021800Y43815000D03*
%TO.P,X1,3,3*%
%TO.N,unconnected-(X1-Pad3)*%
X24765000Y43815000D03*
%TO.P,X1,4,4*%
%TO.N,Net-(VOLTAGE0-Pad2)*%
X27508200Y43815000D03*
%TO.P,X1,5,5*%
%TO.N,unconnected-(X1-Pad5)*%
X30251400Y43815000D03*
%TO.P,X1,6,6*%
%TO.N,Net-(JP1-Pad1)*%
X20650200Y46355000D03*
%TO.P,X1,7,7*%
%TO.N,Net-(C4-Pad1)*%
X23393400Y46355000D03*
%TO.P,X1,8,8*%
%TO.N,unconnected-(X1-Pad8)*%
X26136600Y46355000D03*
%TO.P,X1,9,9*%
%TO.N,+5V*%
X28879800Y46355000D03*
D13*
%TO.P,X1,G1,G1*%
%TO.N,unconnected-(X1-PadG1)*%
X12242800Y45085000D03*
%TO.P,X1,G2,G2*%
%TO.N,unconnected-(X1-PadG2)*%
X37287200Y45085000D03*
%TD*%
D12*
%TO.P,C2,1,1*%
%TO.N,+5V*%
X31790000Y38100000D03*
%TO.P,C2,2,2*%
%TO.N,GND*%
X36790000Y38100000D03*
%TD*%
D14*
%TO.N,GND*%
X17272000Y21844000D03*
X10414000Y21844000D03*
%TO.N,Net-(C4-Pad1)*%
X19050000Y17526000D03*
X5588000Y17526000D03*
%TO.N,Net-(VOLTAGE0-Pad2)*%
X23368000Y30988000D03*
X7620000Y30988000D03*
%TD*%
D15*
%TO.N,GND*%
X10414000Y21844000D02*
X17272000Y21844000D01*
%TO.N,Net-(C4-Pad1)*%
X5588000Y17526000D02*
X19050000Y17526000D01*
%TO.N,Net-(VOLTAGE0-Pad2)*%
X23368000Y30988000D02*
X7620000Y30988000D01*
%TD*%
M02*
