M48
; DRILL file {KiCad (6.0.6)} date Wed Aug 24 17:57:12 2022
; FORMAT={-:-/ absolute / metric / decimal}
; #@! TF.CreationDate,2022-08-24T17:57:12-03:00
; #@! TF.GenerationSoftware,Kicad,Pcbnew,(6.0.6)
; #@! TF.FileFunction,MixedPlating,1,2
FMAT,2
METRIC
; #@! TA.AperFunction,Plated,PTH,ViaDrill
T1C0.800
; #@! TA.AperFunction,Plated,PTH,ComponentDrill
T2C0.800
%
G90
G05
T1
X5.08Y15.875
X7.62Y32.385
X11.43Y22.86
X17.145Y22.86
X23.495Y32.385
X31.75Y15.875
T2
X6.985Y8.275
X7.66Y38.1
X9.525Y8.275
X12.065Y8.275
X12.243Y45.085
X12.66Y38.1
X14.605Y8.275
X17.272Y26.035
X19.279Y43.815
X19.685Y38.1
X20.65Y46.355
X22.022Y43.815
X22.845Y8.255
X23.393Y46.355
X24.685Y38.1
X24.765Y43.815
X24.892Y26.035
X25.052Y20.955
X25.385Y8.255
X26.137Y46.355
X27.052Y22.225
X27.052Y19.685
X27.508Y43.815
X27.925Y8.255
X28.88Y46.355
X30.251Y43.815
X31.75Y32.385
X31.75Y26.035
X31.75Y19.685
X31.79Y38.1
X36.195Y8.255
X36.79Y38.1
X37.287Y45.085
X38.735Y8.255
X39.37Y32.385
X39.37Y26.035
X39.37Y19.685
X41.275Y8.255
X43.815Y8.255
X44.45Y35.052
X44.45Y32.512
X44.45Y27.432
X44.45Y24.892
X44.45Y19.558
X44.45Y17.018
T0
M30
