%TF.GenerationSoftware,KiCad,Pcbnew,(6.0.6)*%
%TF.CreationDate,2022-08-24T11:44:13-03:00*%
%TF.ProjectId,hub_interior,6875625f-696e-4746-9572-696f722e6b69,rev?*%
%TF.SameCoordinates,Original*%
%TF.FileFunction,Copper,L2,Bot*%
%TF.FilePolarity,Positive*%
%FSLAX46Y46*%
G04 Gerber Fmt 4.6, Leading zero omitted, Abs format (unit mm)*
G04 Created by KiCad (PCBNEW (6.0.6)) date 2022-08-24 11:44:13*
%MOMM*%
%LPD*%
G01*
G04 APERTURE LIST*
%TA.AperFunction,ComponentPad*%
%ADD10O,3.200000X1.600000*%
%TD*%
%TA.AperFunction,ComponentPad*%
%ADD11O,1.600000X3.200000*%
%TD*%
%TA.AperFunction,ComponentPad*%
%ADD12C,1.600000*%
%TD*%
%TA.AperFunction,ComponentPad*%
%ADD13C,5.080000*%
%TD*%
%TA.AperFunction,ViaPad*%
%ADD14C,1.600000*%
%TD*%
%TA.AperFunction,Conductor*%
%ADD15C,1.000000*%
%TD*%
%TA.AperFunction,Conductor*%
%ADD16C,0.600000*%
%TD*%
G04 APERTURE END LIST*
D10*
%TO.P,LR,1,S*%
%TO.N,+5V*%
X44450000Y24892000D03*
%TO.P,LR,2,S*%
%TO.N,Net-(R3-Pad2)*%
X44450000Y27432000D03*
%TD*%
D11*
%TO.P,VOLTAGE,1,S*%
%TO.N,GND*%
X7620000Y8275000D03*
%TO.P,VOLTAGE,2,S*%
%TO.N,Net-(VOLTAGE0-Pad2)*%
X10160000Y8275000D03*
%TO.P,VOLTAGE,3,S*%
%TO.N,GND*%
X12700000Y8275000D03*
%TO.P,VOLTAGE,4,S*%
%TO.N,+5V*%
X15240000Y8275000D03*
%TD*%
%TO.P,TEMP,1,1*%
%TO.N,Net-(JP1-Pad1)*%
X28448000Y8128000D03*
%TO.P,TEMP,2,2*%
%TO.N,+5V*%
X25908000Y8128000D03*
%TO.P,TEMP,3,3*%
%TO.N,GND*%
X23368000Y8128000D03*
%TD*%
D12*
%TO.P,R4,1,1*%
%TO.N,+5V*%
X31750000Y32385000D03*
%TO.P,R4,2,2*%
%TO.N,Net-(LED0-Pad1)*%
X39370000Y32385000D03*
%TD*%
D10*
%TO.P,LV,1,S*%
%TO.N,Net-(LED0-Pad1)*%
X44450000Y32512000D03*
%TO.P,LV,2,S*%
%TO.N,GND*%
X44450000Y35052000D03*
%TD*%
D12*
%TO.P,C1,1,1*%
%TO.N,Net-(C1-Pad1)*%
X19685000Y38100000D03*
%TO.P,C1,2,2*%
%TO.N,GND*%
X24685000Y38100000D03*
%TD*%
%TO.P,C4,1,1*%
%TO.N,Net-(C4-Pad1)*%
X7660000Y38100000D03*
%TO.P,C4,2,2*%
%TO.N,GND*%
X12660000Y38100000D03*
%TD*%
%TO.P,R3,1,1*%
%TO.N,Net-(Q1-Pad3)*%
X31750000Y26035000D03*
%TO.P,R3,2,2*%
%TO.N,Net-(R3-Pad2)*%
X39370000Y26035000D03*
%TD*%
D10*
%TO.P,B,1,S*%
%TO.N,+5V*%
X44450000Y17018000D03*
%TO.P,B,2,S*%
%TO.N,Net-(R2-Pad2)*%
X44450000Y19558000D03*
%TD*%
D12*
%TO.P,R2,1,1*%
%TO.N,Net-(Q1-Pad3)*%
X31750000Y19685000D03*
%TO.P,R2,2,2*%
%TO.N,Net-(R2-Pad2)*%
X39370000Y19685000D03*
%TD*%
%TO.P,R1,1,1*%
%TO.N,Net-(Q1-Pad2)*%
X24892000Y26670000D03*
%TO.P,R1,2,2*%
%TO.N,Net-(C1-Pad1)*%
X17272000Y26670000D03*
%TD*%
D11*
%TO.P,RELE,1,S*%
%TO.N,GND*%
X35560000Y8255000D03*
%TO.P,RELE,2,S*%
%TO.N,Net-(C4-Pad1)*%
X38100000Y8255000D03*
%TO.P,RELE,3,S*%
%TO.N,GND*%
X40640000Y8255000D03*
%TO.P,RELE,4,S*%
%TO.N,+5V*%
X43180000Y8255000D03*
%TD*%
D12*
%TO.P,Q1,1,E*%
%TO.N,GND*%
X28322500Y22225000D03*
%TO.P,Q1,2,B*%
%TO.N,Net-(Q1-Pad2)*%
X26322500Y20955000D03*
%TO.P,Q1,3,C*%
%TO.N,Net-(Q1-Pad3)*%
X28322500Y19685000D03*
%TD*%
%TO.P,X1,1,1*%
%TO.N,unconnected-(X1-Pad1)*%
X19278600Y43815000D03*
%TO.P,X1,2,2*%
%TO.N,Net-(C1-Pad1)*%
X22021800Y43815000D03*
%TO.P,X1,3,3*%
%TO.N,unconnected-(X1-Pad3)*%
X24765000Y43815000D03*
%TO.P,X1,4,4*%
%TO.N,Net-(VOLTAGE0-Pad2)*%
X27508200Y43815000D03*
%TO.P,X1,5,5*%
%TO.N,unconnected-(X1-Pad5)*%
X30251400Y43815000D03*
%TO.P,X1,6,6*%
%TO.N,Net-(JP1-Pad1)*%
X20650200Y46355000D03*
%TO.P,X1,7,7*%
%TO.N,Net-(C4-Pad1)*%
X23393400Y46355000D03*
%TO.P,X1,8,8*%
%TO.N,unconnected-(X1-Pad8)*%
X26136600Y46355000D03*
%TO.P,X1,9,9*%
%TO.N,+5V*%
X28879800Y46355000D03*
D13*
%TO.P,X1,G1,G1*%
%TO.N,unconnected-(X1-PadG1)*%
X12242800Y45085000D03*
%TO.P,X1,G2,G2*%
%TO.N,unconnected-(X1-PadG2)*%
X37287200Y45085000D03*
%TD*%
D12*
%TO.P,C2,1,1*%
%TO.N,+5V*%
X31790000Y38100000D03*
%TO.P,C2,2,2*%
%TO.N,GND*%
X36790000Y38100000D03*
%TD*%
D14*
%TO.N,GND*%
X17272000Y21844000D03*
X10414000Y21844000D03*
%TO.N,Net-(C4-Pad1)*%
X19050000Y17526000D03*
X5588000Y17526000D03*
%TO.N,Net-(VOLTAGE0-Pad2)*%
X23368000Y30988000D03*
X7620000Y30988000D03*
%TD*%
D15*
%TO.N,Net-(C1-Pad1)*%
X22021800Y43815000D02*
X22021800Y40436800D01*
X22021800Y40436800D02*
X19685000Y38100000D01*
X17272000Y26670000D02*
X17272000Y35687000D01*
X17272000Y35687000D02*
X19685000Y38100000D01*
D16*
%TO.N,GND*%
X28322500Y22226500D02*
X28322500Y22225000D01*
X17272000Y21844000D02*
X21082000Y21844000D01*
X10414000Y21844000D02*
X10414000Y24638000D01*
X10414000Y24638000D02*
X10414000Y18288000D01*
D15*
%TO.N,+5V*%
X44450000Y17018000D02*
X38227000Y17018000D01*
X44450000Y24892000D02*
X41402000Y24892000D01*
X41402000Y24892000D02*
X40005000Y23495000D01*
X43180000Y12065000D02*
X38100000Y17145000D01*
X38227000Y17018000D02*
X38100000Y17145000D01*
X25893000Y8103000D02*
X25893000Y4841000D01*
X40005000Y23495000D02*
X35560000Y23495000D01*
X25908000Y4826000D02*
X42418000Y4826000D01*
X31790000Y41362000D02*
X33020000Y42592000D01*
X33020000Y45720000D02*
X32385000Y46355000D01*
X25893000Y4841000D02*
X25908000Y4826000D01*
X31790000Y32425000D02*
X31750000Y32385000D01*
X33020000Y42592000D02*
X33020000Y45720000D01*
X35560000Y28575000D02*
X35560000Y23495000D01*
X15240000Y8275000D02*
X15240000Y5588000D01*
X38100000Y17145000D02*
X35560000Y19685000D01*
X43180000Y8255000D02*
X43180000Y12065000D01*
X31750000Y32385000D02*
X35560000Y28575000D01*
X16002000Y4826000D02*
X25908000Y4826000D01*
X43180000Y5588000D02*
X43180000Y8255000D01*
X42418000Y4826000D02*
X43180000Y5588000D01*
X32385000Y46355000D02*
X28879800Y46355000D01*
X35560000Y23495000D02*
X35560000Y19685000D01*
X15240000Y5588000D02*
X16002000Y4826000D01*
X31790000Y38100000D02*
X31790000Y32425000D01*
X31790000Y38100000D02*
X31790000Y41362000D01*
%TO.N,Net-(C4-Pad1)*%
X33020000Y16002000D02*
X38100000Y10922000D01*
X38100000Y10922000D02*
X38100000Y8255000D01*
X9398000Y48768000D02*
X22606000Y48768000D01*
X23393400Y47980600D02*
X23393400Y46355000D01*
X19050000Y17526000D02*
X20574000Y16002000D01*
X22606000Y48768000D02*
X23393400Y47980600D01*
X20574000Y16002000D02*
X33020000Y16002000D01*
X7660000Y38100000D02*
X7660000Y47030000D01*
X7660000Y47030000D02*
X9398000Y48768000D01*
X5588000Y36028000D02*
X7660000Y38100000D01*
X5588000Y17526000D02*
X5588000Y36028000D01*
%TO.N,Net-(JP1-Pad1)*%
X17145000Y39370000D02*
X17145000Y45593000D01*
X17780000Y12065000D02*
X13335000Y16510000D01*
X13335000Y35560000D02*
X17145000Y39370000D01*
X13335000Y16510000D02*
X13335000Y35560000D01*
X17145000Y45593000D02*
X17907000Y46355000D01*
X17907000Y46355000D02*
X20650200Y46355000D01*
X28448000Y11176000D02*
X28448000Y8128000D01*
X17780000Y12065000D02*
X27559000Y12065000D01*
X27559000Y12065000D02*
X28448000Y11176000D01*
%TO.N,Net-(LED0-Pad1)*%
X39370000Y32385000D02*
X44323000Y32385000D01*
X44323000Y32385000D02*
X44450000Y32512000D01*
%TO.N,Net-(Q1-Pad2)*%
X24892000Y22385500D02*
X26322500Y20955000D01*
X24892000Y26035000D02*
X24892000Y22385500D01*
%TO.N,Net-(Q1-Pad3)*%
X31750000Y22225000D02*
X31750000Y26035000D01*
X28322500Y19685000D02*
X31750000Y19685000D01*
X31750000Y19685000D02*
X31750000Y22225000D01*
%TO.N,Net-(R2-Pad2)*%
X44323000Y19685000D02*
X44450000Y19558000D01*
X39370000Y19685000D02*
X44323000Y19685000D01*
%TO.N,Net-(R3-Pad2)*%
X40767000Y27432000D02*
X44450000Y27432000D01*
X39370000Y26035000D02*
X40767000Y27432000D01*
%TO.N,Net-(VOLTAGE0-Pad2)*%
X27508200Y35128200D02*
X27508200Y43815000D01*
X10160000Y8275000D02*
X10160000Y10414000D01*
X10160000Y10414000D02*
X7620000Y12954000D01*
X23368000Y30988000D02*
X27508200Y35128200D01*
X7620000Y12954000D02*
X7620000Y30988000D01*
%TD*%
%TA.AperFunction,Conductor*%
%TO.N,GND*%
G36*
X7167630Y49279287D02*
G01*
X7296825Y49220286D01*
X7404164Y49127276D01*
X7480951Y49007792D01*
X7520966Y48871515D01*
X7520966Y48729485D01*
X7480951Y48593208D01*
X7404164Y48473724D01*
X7379891Y48447654D01*
X6851387Y47919150D01*
X6827554Y47896828D01*
X6785457Y47859910D01*
X6730901Y47790706D01*
X6722707Y47780588D01*
X6666398Y47712883D01*
X6658663Y47699072D01*
X6648863Y47686640D01*
X6607860Y47608706D01*
X6601627Y47597228D01*
X6569771Y47540346D01*
X6569767Y47540336D01*
X6558590Y47520379D01*
X6553502Y47505389D01*
X6546131Y47491380D01*
X6539346Y47469529D01*
X6539344Y47469524D01*
X6520014Y47407273D01*
X6515979Y47394853D01*
X6498363Y47342956D01*
X6487669Y47311452D01*
X6485397Y47295786D01*
X6480703Y47280667D01*
X6470869Y47197573D01*
X6470355Y47193234D01*
X6468650Y47180279D01*
X6466234Y47163613D01*
X6456009Y47093098D01*
X6456907Y47070240D01*
X6456907Y47070238D01*
X6459115Y47014044D01*
X6459500Y46994454D01*
X6459500Y39156963D01*
X6439287Y39016378D01*
X6372722Y38875763D01*
X6362397Y38860628D01*
X6362389Y38860615D01*
X6350851Y38843700D01*
X6342229Y38825125D01*
X6342226Y38825120D01*
X6304552Y38743957D01*
X6246965Y38619896D01*
X6241492Y38600162D01*
X6241490Y38600156D01*
X6191828Y38421080D01*
X6134781Y38291010D01*
X6063823Y38201586D01*
X4779387Y36917150D01*
X4755554Y36894828D01*
X4713457Y36857910D01*
X4658901Y36788706D01*
X4650707Y36778588D01*
X4594398Y36710883D01*
X4586663Y36697072D01*
X4576863Y36684640D01*
X4535860Y36606706D01*
X4529627Y36595228D01*
X4497771Y36538346D01*
X4497767Y36538336D01*
X4486590Y36518379D01*
X4481502Y36503389D01*
X4474131Y36489380D01*
X4467346Y36467529D01*
X4467344Y36467524D01*
X4448014Y36405273D01*
X4443979Y36392853D01*
X4437501Y36373768D01*
X4415669Y36309452D01*
X4413397Y36293786D01*
X4408703Y36278667D01*
X4406015Y36255959D01*
X4406015Y36255957D01*
X4398355Y36191234D01*
X4396650Y36178279D01*
X4391850Y36145172D01*
X4384009Y36091098D01*
X4384907Y36068240D01*
X4384907Y36068238D01*
X4387115Y36012044D01*
X4387500Y35992454D01*
X4387500Y18582963D01*
X4367287Y18442378D01*
X4300722Y18301763D01*
X4290397Y18286628D01*
X4290392Y18286619D01*
X4278851Y18269700D01*
X4270229Y18251125D01*
X4270226Y18251120D01*
X4237635Y18180907D01*
X4174965Y18045896D01*
X4169493Y18026164D01*
X4169491Y18026159D01*
X4123644Y17860839D01*
X4109026Y17808129D01*
X4082806Y17562786D01*
X4097010Y17316455D01*
X4101511Y17296483D01*
X4101511Y17296482D01*
X4145216Y17102550D01*
X4151255Y17075751D01*
X4244084Y16847139D01*
X4373006Y16636759D01*
X4534557Y16450259D01*
X4724399Y16292649D01*
X4937433Y16168162D01*
X4956571Y16160854D01*
X5148803Y16087448D01*
X5148806Y16087447D01*
X5167939Y16080141D01*
X5188005Y16076058D01*
X5188010Y16076057D01*
X5377064Y16037593D01*
X5409726Y16030948D01*
X5430189Y16030198D01*
X5430195Y16030197D01*
X5635838Y16022657D01*
X5635841Y16022657D01*
X5656300Y16021907D01*
X5676611Y16024509D01*
X5676614Y16024509D01*
X5857096Y16047629D01*
X5999109Y16045443D01*
X6134754Y16003336D01*
X6253041Y15924719D01*
X6344388Y15815960D01*
X6401394Y15685872D01*
X6419500Y15552674D01*
X6419500Y13010948D01*
X6418432Y12978312D01*
X6414770Y12922440D01*
X6417459Y12899722D01*
X6417459Y12899716D01*
X6425122Y12834971D01*
X6426487Y12821987D01*
X6428881Y12795932D01*
X6434546Y12734289D01*
X6438844Y12719051D01*
X6440704Y12703333D01*
X6447489Y12681481D01*
X6447490Y12681477D01*
X6466807Y12619265D01*
X6470516Y12606745D01*
X6487470Y12546631D01*
X6494435Y12521936D01*
X6501438Y12507736D01*
X6506131Y12492621D01*
X6516786Y12472370D01*
X6516786Y12472369D01*
X6547135Y12414684D01*
X6553058Y12403061D01*
X6592020Y12324053D01*
X6601493Y12311367D01*
X6608863Y12297359D01*
X6663434Y12228135D01*
X6671346Y12217823D01*
X6710341Y12165602D01*
X6710344Y12165599D01*
X6724033Y12147267D01*
X6782135Y12093558D01*
X6796233Y12080003D01*
X7180798Y11695438D01*
X7265909Y11581744D01*
X7315543Y11448669D01*
X7325676Y11307000D01*
X7295485Y11168216D01*
X7227417Y11043559D01*
X7126987Y10943128D01*
X7015279Y10880096D01*
X6795653Y10791139D01*
X6763290Y10775214D01*
X6556554Y10654164D01*
X6526828Y10633735D01*
X6339725Y10484105D01*
X6313270Y10459608D01*
X6149727Y10284535D01*
X6127077Y10256465D01*
X5990519Y10059618D01*
X5972164Y10028580D01*
X5865449Y9814073D01*
X5851771Y9780725D01*
X5777140Y9553065D01*
X5768413Y9518060D01*
X5726947Y9279236D01*
X5723580Y9248987D01*
X5720309Y9183277D01*
X5720000Y9170866D01*
X5720000Y8860690D01*
X5724563Y8828954D01*
X5738030Y8825000D01*
X7671000Y8825000D01*
X7811585Y8804787D01*
X7940780Y8745786D01*
X8048119Y8652776D01*
X8124906Y8533292D01*
X8164921Y8397015D01*
X8170000Y8326000D01*
X8170000Y5689128D01*
X8174401Y5658517D01*
X8190083Y5658517D01*
X8222290Y5668919D01*
X8444347Y5758861D01*
X8476710Y5774786D01*
X8683446Y5895836D01*
X8713172Y5916265D01*
X8914391Y6077184D01*
X8915231Y6076134D01*
X9016799Y6146247D01*
X9151682Y6190735D01*
X9293635Y6195419D01*
X9431158Y6159922D01*
X9480108Y6136282D01*
X9524878Y6111567D01*
X9524884Y6111564D01*
X9542802Y6101673D01*
X9562097Y6094840D01*
X9562102Y6094838D01*
X9721318Y6038457D01*
X9775390Y6019309D01*
X10018306Y5976039D01*
X10105049Y5974979D01*
X10244550Y5973275D01*
X10244552Y5973275D01*
X10265028Y5973025D01*
X10285265Y5976122D01*
X10285270Y5976122D01*
X10386979Y5991686D01*
X10508930Y6010347D01*
X10743460Y6087003D01*
X10852290Y6143656D01*
X10986323Y6190641D01*
X11128164Y6197962D01*
X11266322Y6165024D01*
X11389605Y6094497D01*
X11431522Y6057863D01*
X11457424Y6032542D01*
X11484967Y6009267D01*
X11678668Y5868276D01*
X11709278Y5849223D01*
X11921303Y5737671D01*
X11954347Y5723235D01*
X12116346Y5666026D01*
X12146676Y5659983D01*
X12148727Y5665791D01*
X12150000Y5678691D01*
X12150000Y10860872D01*
X12145599Y10891483D01*
X12129917Y10891483D01*
X12097710Y10881081D01*
X11875644Y10791135D01*
X11869927Y10788322D01*
X11863693Y10786294D01*
X11858895Y10784351D01*
X11858758Y10784689D01*
X11734861Y10744391D01*
X11592890Y10740291D01*
X11455515Y10776356D01*
X11333865Y10849663D01*
X11237796Y10954273D01*
X11202081Y11015354D01*
X11198104Y11023419D01*
X11198101Y11023425D01*
X11187980Y11043947D01*
X11178507Y11056632D01*
X11171137Y11070641D01*
X11116613Y11139804D01*
X11108664Y11150164D01*
X11069653Y11202405D01*
X11055967Y11220733D01*
X10997851Y11274455D01*
X10983728Y11288035D01*
X8966654Y13305109D01*
X8881538Y13418810D01*
X8831904Y13551885D01*
X8820500Y13657955D01*
X8820500Y19567000D01*
X8840713Y19707585D01*
X8899714Y19836780D01*
X8992724Y19944119D01*
X9112208Y20020906D01*
X9248485Y20060921D01*
X9319500Y20066000D01*
X11635500Y20066000D01*
X11776085Y20045787D01*
X11905280Y19986786D01*
X12012619Y19893776D01*
X12089406Y19774292D01*
X12129421Y19638015D01*
X12134500Y19567000D01*
X12134500Y16566950D01*
X12133432Y16534318D01*
X12129770Y16478440D01*
X12132459Y16455722D01*
X12132459Y16455716D01*
X12140122Y16390971D01*
X12141487Y16377987D01*
X12149546Y16290289D01*
X12153844Y16275051D01*
X12155704Y16259333D01*
X12162489Y16237481D01*
X12162490Y16237477D01*
X12181807Y16175265D01*
X12185516Y16162745D01*
X12190956Y16143457D01*
X12209435Y16077936D01*
X12216438Y16063736D01*
X12221131Y16048621D01*
X12231786Y16028370D01*
X12231786Y16028369D01*
X12262135Y15970684D01*
X12268058Y15959061D01*
X12307020Y15880053D01*
X12316493Y15867367D01*
X12323863Y15853359D01*
X12378434Y15784135D01*
X12386346Y15773823D01*
X12425341Y15721602D01*
X12425344Y15721599D01*
X12439033Y15703267D01*
X12497135Y15649558D01*
X12511259Y15635977D01*
X16890850Y11256387D01*
X16913172Y11232554D01*
X16950090Y11190457D01*
X17011925Y11141711D01*
X17019258Y11135930D01*
X17029408Y11127710D01*
X17079517Y11086035D01*
X17079523Y11086031D01*
X17097116Y11071399D01*
X17110927Y11063665D01*
X17123360Y11053863D01*
X17201350Y11012830D01*
X17212740Y11006646D01*
X17289621Y10963590D01*
X17304611Y10958502D01*
X17318620Y10951131D01*
X17340471Y10944346D01*
X17340476Y10944344D01*
X17402727Y10925014D01*
X17415147Y10920979D01*
X17476892Y10900020D01*
X17498548Y10892669D01*
X17514214Y10890397D01*
X17529333Y10885703D01*
X17552041Y10883015D01*
X17552043Y10883015D01*
X17604537Y10876802D01*
X17616555Y10875380D01*
X17616766Y10875355D01*
X17629721Y10873650D01*
X17694265Y10864291D01*
X17694268Y10864291D01*
X17716902Y10861009D01*
X17739759Y10861907D01*
X17739761Y10861907D01*
X17795947Y10864115D01*
X17815540Y10864500D01*
X21445377Y10864500D01*
X21585962Y10844287D01*
X21715157Y10785286D01*
X21822496Y10692276D01*
X21899283Y10572792D01*
X21939298Y10436515D01*
X21939298Y10294485D01*
X21899283Y10158208D01*
X21855379Y10081072D01*
X21738523Y9912625D01*
X21720164Y9881580D01*
X21613449Y9667073D01*
X21599771Y9633725D01*
X21525140Y9406065D01*
X21516413Y9371060D01*
X21474947Y9132236D01*
X21471580Y9101987D01*
X21468309Y9036277D01*
X21468000Y9023866D01*
X21468000Y8713690D01*
X21472563Y8681954D01*
X21486030Y8678000D01*
X23419000Y8678000D01*
X23559585Y8657787D01*
X23688780Y8598786D01*
X23796119Y8505776D01*
X23872906Y8386292D01*
X23912921Y8250015D01*
X23918000Y8179000D01*
X23918000Y8077000D01*
X23897787Y7936415D01*
X23838786Y7807220D01*
X23745776Y7699881D01*
X23626292Y7623094D01*
X23490015Y7583079D01*
X23419000Y7578000D01*
X21503690Y7578000D01*
X21471954Y7573437D01*
X21468000Y7559970D01*
X21468000Y7266994D01*
X21468654Y7248952D01*
X21481564Y7071014D01*
X21486768Y7035343D01*
X21538418Y6801399D01*
X21548724Y6766831D01*
X21573176Y6702290D01*
X21604082Y6563663D01*
X21594679Y6421944D01*
X21545732Y6288615D01*
X21461203Y6174477D01*
X21347942Y6088777D01*
X21215125Y6038457D01*
X21106543Y6026500D01*
X17003758Y6026500D01*
X16863173Y6046713D01*
X16733978Y6105714D01*
X16626639Y6198724D01*
X16549852Y6318208D01*
X16509837Y6454485D01*
X16509837Y6596515D01*
X16551143Y6735596D01*
X16565642Y6766831D01*
X16653035Y6955104D01*
X16662653Y6989783D01*
X16713502Y7173139D01*
X16713502Y7173141D01*
X16718974Y7192871D01*
X16731385Y7309002D01*
X16739090Y7381096D01*
X16739090Y7381101D01*
X16740500Y7394292D01*
X16740500Y9137554D01*
X16725425Y9320911D01*
X16707230Y9393351D01*
X16670306Y9540351D01*
X16670306Y9540352D01*
X16665316Y9560217D01*
X16616842Y9671700D01*
X16575093Y9767716D01*
X16575090Y9767721D01*
X16566928Y9786493D01*
X16432905Y9993661D01*
X16406635Y10022532D01*
X16280625Y10161015D01*
X16266846Y10176158D01*
X16190484Y10236465D01*
X16089278Y10316393D01*
X16089272Y10316397D01*
X16073210Y10329082D01*
X15857198Y10448327D01*
X15837903Y10455160D01*
X15837898Y10455162D01*
X15643914Y10523855D01*
X15643915Y10523855D01*
X15624610Y10530691D01*
X15381694Y10573961D01*
X15294951Y10575021D01*
X15155450Y10576725D01*
X15155448Y10576725D01*
X15134972Y10576975D01*
X15114735Y10573878D01*
X15114730Y10573878D01*
X15013021Y10558314D01*
X14891070Y10539653D01*
X14656540Y10462997D01*
X14547711Y10406344D01*
X14413677Y10359359D01*
X14271836Y10352038D01*
X14133678Y10384976D01*
X14010395Y10455503D01*
X13968478Y10492137D01*
X13942576Y10517458D01*
X13915033Y10540733D01*
X13721332Y10681724D01*
X13690722Y10700777D01*
X13478697Y10812329D01*
X13445653Y10826765D01*
X13283654Y10883974D01*
X13253324Y10890017D01*
X13251273Y10884209D01*
X13250000Y10871309D01*
X13250000Y5689128D01*
X13254401Y5658517D01*
X13270083Y5658517D01*
X13302291Y5668920D01*
X13385591Y5702660D01*
X13523481Y5736703D01*
X13665377Y5730520D01*
X13799782Y5684610D01*
X13915809Y5602694D01*
X14004058Y5491407D01*
X14053983Y5368150D01*
X14054540Y5368307D01*
X14055965Y5363257D01*
X14058778Y5353284D01*
X14058863Y5352893D01*
X14060704Y5337333D01*
X14067489Y5315481D01*
X14067490Y5315477D01*
X14086807Y5253265D01*
X14090516Y5240745D01*
X14097228Y5216948D01*
X14114435Y5155936D01*
X14121438Y5141736D01*
X14126131Y5126621D01*
X14136786Y5106370D01*
X14136786Y5106369D01*
X14167135Y5048684D01*
X14173058Y5037061D01*
X14212020Y4958053D01*
X14221493Y4945367D01*
X14228863Y4931359D01*
X14283434Y4862135D01*
X14291346Y4851823D01*
X14330341Y4799602D01*
X14330344Y4799599D01*
X14344033Y4781267D01*
X14360832Y4765738D01*
X14360833Y4765737D01*
X14402134Y4727559D01*
X14416258Y4713978D01*
X15112857Y4017379D01*
X15135179Y3993546D01*
X15172090Y3951457D01*
X15190055Y3937294D01*
X15190060Y3937290D01*
X15241263Y3896925D01*
X15251412Y3888707D01*
X15301528Y3847026D01*
X15301532Y3847024D01*
X15319117Y3832398D01*
X15332928Y3824663D01*
X15345360Y3814863D01*
X15423314Y3773849D01*
X15434772Y3767627D01*
X15491658Y3735769D01*
X15491666Y3735766D01*
X15511621Y3724590D01*
X15526611Y3719501D01*
X15540620Y3712131D01*
X15624762Y3686004D01*
X15637129Y3681985D01*
X15698874Y3661025D01*
X15698877Y3661024D01*
X15720548Y3653668D01*
X15736220Y3651396D01*
X15751333Y3646703D01*
X15824962Y3637989D01*
X15838757Y3636356D01*
X15851707Y3634651D01*
X15916258Y3625292D01*
X15916261Y3625292D01*
X15938902Y3622009D01*
X15961760Y3622907D01*
X15961762Y3622907D01*
X16017956Y3625115D01*
X16037546Y3625500D01*
X25805223Y3625500D01*
X25824265Y3625001D01*
X25844902Y3622009D01*
X25867760Y3622907D01*
X25867762Y3622907D01*
X25923956Y3625115D01*
X25943546Y3625500D01*
X42361052Y3625500D01*
X42393688Y3624432D01*
X42426733Y3622266D01*
X42426734Y3622266D01*
X42449560Y3620770D01*
X42472278Y3623459D01*
X42472284Y3623459D01*
X42537029Y3631122D01*
X42550013Y3632487D01*
X42614925Y3638452D01*
X42614926Y3638452D01*
X42637711Y3640546D01*
X42652949Y3644844D01*
X42668667Y3646704D01*
X42690519Y3653489D01*
X42690523Y3653490D01*
X42752735Y3672807D01*
X42765255Y3676516D01*
X42828035Y3694222D01*
X42828038Y3694223D01*
X42850064Y3700435D01*
X42864264Y3707438D01*
X42879379Y3712131D01*
X42905086Y3725656D01*
X42957316Y3753135D01*
X42968939Y3759058D01*
X43047947Y3798020D01*
X43060633Y3807493D01*
X43074641Y3814863D01*
X43143865Y3869434D01*
X43154177Y3877346D01*
X43206398Y3916341D01*
X43206401Y3916344D01*
X43224733Y3930033D01*
X43278442Y3988135D01*
X43292022Y4002258D01*
X43988621Y4698857D01*
X44012454Y4721179D01*
X44019729Y4727559D01*
X44054543Y4758090D01*
X44068706Y4776055D01*
X44068710Y4776060D01*
X44109075Y4827263D01*
X44117293Y4837412D01*
X44158974Y4887528D01*
X44158976Y4887532D01*
X44173602Y4905117D01*
X44181337Y4918928D01*
X44191137Y4931360D01*
X44232151Y5009314D01*
X44238373Y5020772D01*
X44270231Y5077658D01*
X44270234Y5077666D01*
X44281410Y5097621D01*
X44286499Y5112611D01*
X44293869Y5126620D01*
X44319996Y5210762D01*
X44324015Y5223129D01*
X44344975Y5284874D01*
X44344976Y5284877D01*
X44352332Y5306548D01*
X44354604Y5322220D01*
X44359297Y5337333D01*
X44369644Y5424757D01*
X44371349Y5437707D01*
X44380708Y5502258D01*
X44380708Y5502261D01*
X44383991Y5524902D01*
X44380885Y5603956D01*
X44380500Y5623546D01*
X44380500Y6398037D01*
X44400713Y6538622D01*
X44467278Y6679237D01*
X44477603Y6694372D01*
X44477611Y6694385D01*
X44489149Y6711300D01*
X44530972Y6801399D01*
X44584411Y6916526D01*
X44593035Y6935104D01*
X44602653Y6969783D01*
X44653502Y7153139D01*
X44653502Y7153141D01*
X44658974Y7172871D01*
X44680500Y7374292D01*
X44680500Y9117554D01*
X44665425Y9300911D01*
X44660402Y9320911D01*
X44610306Y9520351D01*
X44610306Y9520352D01*
X44605316Y9540217D01*
X44590237Y9574896D01*
X44515093Y9747716D01*
X44515090Y9747721D01*
X44506928Y9766493D01*
X44460528Y9838217D01*
X44401139Y9967229D01*
X44380500Y10109257D01*
X44380500Y12008052D01*
X44381568Y12040687D01*
X44383734Y12073733D01*
X44383734Y12073734D01*
X44385230Y12096560D01*
X44382541Y12119278D01*
X44382541Y12119284D01*
X44374878Y12184029D01*
X44373513Y12197013D01*
X44367548Y12261925D01*
X44367548Y12261926D01*
X44365454Y12284711D01*
X44361156Y12299949D01*
X44359296Y12315667D01*
X44352510Y12337523D01*
X44333193Y12399735D01*
X44329484Y12412255D01*
X44311778Y12475035D01*
X44311777Y12475038D01*
X44305565Y12497064D01*
X44298562Y12511264D01*
X44293869Y12526379D01*
X44252873Y12604300D01*
X44246946Y12615932D01*
X44218099Y12674428D01*
X44218099Y12674429D01*
X44207980Y12694947D01*
X44198505Y12707635D01*
X44191137Y12721640D01*
X44136565Y12790865D01*
X44128696Y12801121D01*
X44075967Y12871733D01*
X44017849Y12925456D01*
X44003750Y12939013D01*
X41977109Y14965654D01*
X41891993Y15079355D01*
X41842359Y15212430D01*
X41832226Y15354098D01*
X41862417Y15492883D01*
X41930485Y15617540D01*
X42030915Y15717970D01*
X42155572Y15786038D01*
X42294357Y15816229D01*
X42329955Y15817500D01*
X42593037Y15817500D01*
X42733622Y15797287D01*
X42874237Y15730722D01*
X42889372Y15720397D01*
X42889385Y15720389D01*
X42906300Y15708851D01*
X42924875Y15700229D01*
X42924880Y15700226D01*
X43025714Y15653421D01*
X43130104Y15604965D01*
X43149836Y15599493D01*
X43149841Y15599491D01*
X43348139Y15544498D01*
X43348141Y15544498D01*
X43367871Y15539026D01*
X43484002Y15526615D01*
X43556096Y15518910D01*
X43556101Y15518910D01*
X43569292Y15517500D01*
X45312554Y15517500D01*
X45495911Y15532575D01*
X45515772Y15537564D01*
X45515774Y15537564D01*
X45715351Y15587694D01*
X45715352Y15587694D01*
X45735217Y15592684D01*
X45753995Y15600849D01*
X45753998Y15600850D01*
X45942716Y15682907D01*
X45942721Y15682910D01*
X45961493Y15691072D01*
X46168661Y15825095D01*
X46351158Y15991154D01*
X46375445Y16021907D01*
X46491393Y16168722D01*
X46491397Y16168728D01*
X46504082Y16184790D01*
X46623327Y16400802D01*
X46636208Y16437175D01*
X46698855Y16614086D01*
X46705691Y16633390D01*
X46748961Y16876306D01*
X46750763Y17023785D01*
X46751725Y17102550D01*
X46751725Y17102552D01*
X46751975Y17123028D01*
X46745250Y17166980D01*
X46725433Y17296482D01*
X46714653Y17366930D01*
X46637997Y17601460D01*
X46524065Y17820321D01*
X46396929Y17989651D01*
X46328683Y18114211D01*
X46298295Y18252952D01*
X46308225Y18394635D01*
X46357670Y18527781D01*
X46404367Y18598528D01*
X46491393Y18708723D01*
X46504082Y18724790D01*
X46623327Y18940802D01*
X46639079Y18985282D01*
X46698855Y19154086D01*
X46705691Y19173390D01*
X46748961Y19416306D01*
X46751580Y19630716D01*
X46751725Y19642550D01*
X46751725Y19642552D01*
X46751975Y19663028D01*
X46746588Y19698238D01*
X46717750Y19886688D01*
X46714653Y19906930D01*
X46637997Y20141460D01*
X46524065Y20360321D01*
X46511766Y20376702D01*
X46388212Y20541261D01*
X46388210Y20541263D01*
X46375917Y20557636D01*
X46197532Y20728104D01*
X46180620Y20739641D01*
X46180617Y20739643D01*
X46010619Y20855608D01*
X46010616Y20855610D01*
X45993700Y20867149D01*
X45975125Y20875771D01*
X45975120Y20875774D01*
X45822179Y20946766D01*
X45769896Y20971035D01*
X45750164Y20976507D01*
X45750159Y20976509D01*
X45551861Y21031502D01*
X45551859Y21031502D01*
X45532129Y21036974D01*
X45415998Y21049385D01*
X45343904Y21057090D01*
X45343899Y21057090D01*
X45330708Y21058500D01*
X43587446Y21058500D01*
X43404089Y21043425D01*
X43384228Y21038436D01*
X43384226Y21038436D01*
X43184651Y20988307D01*
X43184645Y20988305D01*
X43164783Y20983316D01*
X43035006Y20926887D01*
X42898022Y20889366D01*
X42836029Y20885500D01*
X40428860Y20885500D01*
X40288275Y20905713D01*
X40187702Y20947643D01*
X40035791Y21031502D01*
X39987198Y21058327D01*
X39967903Y21065160D01*
X39967898Y21065162D01*
X39773914Y21133855D01*
X39773915Y21133855D01*
X39754610Y21140691D01*
X39511694Y21183961D01*
X39424951Y21185021D01*
X39285450Y21186725D01*
X39285448Y21186725D01*
X39264972Y21186975D01*
X39244735Y21183878D01*
X39244730Y21183878D01*
X39143021Y21168314D01*
X39021070Y21149653D01*
X38786540Y21072997D01*
X38567679Y20959065D01*
X38551299Y20946767D01*
X38551298Y20946766D01*
X38456746Y20875774D01*
X38370364Y20810917D01*
X38199896Y20632532D01*
X38188359Y20615620D01*
X38188357Y20615617D01*
X38112730Y20504751D01*
X38060851Y20428700D01*
X38052229Y20410125D01*
X38052226Y20410120D01*
X38020676Y20342151D01*
X37956965Y20204896D01*
X37951492Y20185162D01*
X37951490Y20185156D01*
X37920944Y20075010D01*
X37863897Y19944940D01*
X37772515Y19836211D01*
X37654203Y19757631D01*
X37518544Y19715568D01*
X37376530Y19713427D01*
X37239666Y19751383D01*
X37119038Y19826361D01*
X37087247Y19855516D01*
X36906654Y20036109D01*
X36821538Y20149810D01*
X36771904Y20282885D01*
X36760500Y20388955D01*
X36760500Y21795500D01*
X36780713Y21936085D01*
X36839714Y22065280D01*
X36932724Y22172619D01*
X37052208Y22249406D01*
X37188485Y22289421D01*
X37259500Y22294500D01*
X39948052Y22294500D01*
X39980688Y22293432D01*
X40013733Y22291266D01*
X40013734Y22291266D01*
X40036560Y22289770D01*
X40059278Y22292459D01*
X40059284Y22292459D01*
X40124029Y22300122D01*
X40137013Y22301487D01*
X40201925Y22307452D01*
X40201926Y22307452D01*
X40224711Y22309546D01*
X40239949Y22313844D01*
X40255667Y22315704D01*
X40277519Y22322489D01*
X40277523Y22322490D01*
X40339735Y22341807D01*
X40352255Y22345516D01*
X40415035Y22363222D01*
X40415038Y22363223D01*
X40437064Y22369435D01*
X40451264Y22376438D01*
X40466379Y22381131D01*
X40486631Y22391786D01*
X40544316Y22422135D01*
X40555939Y22428058D01*
X40634947Y22467020D01*
X40647633Y22476493D01*
X40661641Y22483863D01*
X40730865Y22538434D01*
X40741177Y22546346D01*
X40793398Y22585341D01*
X40793401Y22585344D01*
X40811733Y22599033D01*
X40865442Y22657135D01*
X40879023Y22671259D01*
X41753110Y23545346D01*
X41866810Y23630462D01*
X41999885Y23680096D01*
X42105955Y23691500D01*
X42593037Y23691500D01*
X42733622Y23671287D01*
X42874237Y23604722D01*
X42889372Y23594397D01*
X42889385Y23594389D01*
X42906300Y23582851D01*
X42924875Y23574229D01*
X42924880Y23574226D01*
X43025714Y23527421D01*
X43130104Y23478965D01*
X43149836Y23473493D01*
X43149841Y23473491D01*
X43348139Y23418498D01*
X43348141Y23418498D01*
X43367871Y23413026D01*
X43484002Y23400615D01*
X43556096Y23392910D01*
X43556101Y23392910D01*
X43569292Y23391500D01*
X45312554Y23391500D01*
X45495911Y23406575D01*
X45515772Y23411564D01*
X45515774Y23411564D01*
X45715351Y23461694D01*
X45715352Y23461694D01*
X45735217Y23466684D01*
X45753995Y23474849D01*
X45753998Y23474850D01*
X45942716Y23556907D01*
X45942721Y23556910D01*
X45961493Y23565072D01*
X46168661Y23699095D01*
X46351158Y23865154D01*
X46370248Y23889326D01*
X46491393Y24042722D01*
X46491397Y24042728D01*
X46504082Y24058790D01*
X46623327Y24274802D01*
X46705691Y24507390D01*
X46748961Y24750306D01*
X46751975Y24997028D01*
X46714653Y25240930D01*
X46637997Y25475460D01*
X46524065Y25694321D01*
X46482213Y25750063D01*
X46396929Y25863651D01*
X46328683Y25988211D01*
X46298295Y26126952D01*
X46308225Y26268635D01*
X46357670Y26401781D01*
X46404367Y26472528D01*
X46491393Y26582723D01*
X46504082Y26598790D01*
X46623327Y26814802D01*
X46651905Y26895502D01*
X46698855Y27028086D01*
X46705691Y27047390D01*
X46748961Y27290306D01*
X46750403Y27408327D01*
X46751725Y27516550D01*
X46751725Y27516552D01*
X46751975Y27537028D01*
X46745059Y27582229D01*
X46722911Y27726963D01*
X46714653Y27780930D01*
X46637997Y28015460D01*
X46524065Y28234321D01*
X46511766Y28250702D01*
X46388212Y28415261D01*
X46388210Y28415263D01*
X46375917Y28431636D01*
X46197532Y28602104D01*
X46180620Y28613641D01*
X46180617Y28613643D01*
X46010619Y28729608D01*
X46010616Y28729610D01*
X45993700Y28741149D01*
X45975125Y28749771D01*
X45975120Y28749774D01*
X45859486Y28803449D01*
X45769896Y28845035D01*
X45750164Y28850507D01*
X45750159Y28850509D01*
X45551861Y28905502D01*
X45551859Y28905502D01*
X45532129Y28910974D01*
X45415998Y28923385D01*
X45343904Y28931090D01*
X45343899Y28931090D01*
X45330708Y28932500D01*
X43587446Y28932500D01*
X43404089Y28917425D01*
X43384228Y28912436D01*
X43384226Y28912436D01*
X43184649Y28862306D01*
X43164783Y28857316D01*
X43146005Y28849151D01*
X43146002Y28849150D01*
X42957284Y28767093D01*
X42957279Y28767090D01*
X42938507Y28758928D01*
X42866783Y28712528D01*
X42737771Y28653139D01*
X42595743Y28632500D01*
X40823945Y28632500D01*
X40791309Y28633568D01*
X40776394Y28634546D01*
X40758264Y28635734D01*
X40758263Y28635734D01*
X40735439Y28637230D01*
X40712723Y28634541D01*
X40712715Y28634541D01*
X40647979Y28626878D01*
X40634991Y28625512D01*
X40605344Y28622788D01*
X40570076Y28619548D01*
X40570074Y28619548D01*
X40547289Y28617454D01*
X40532051Y28613156D01*
X40516333Y28611296D01*
X40494482Y28604511D01*
X40494481Y28604511D01*
X40432239Y28585185D01*
X40419716Y28581476D01*
X40356951Y28563774D01*
X40356949Y28563773D01*
X40334936Y28557565D01*
X40320737Y28550563D01*
X40305620Y28545869D01*
X40227653Y28504849D01*
X40216051Y28498938D01*
X40157581Y28470104D01*
X40157575Y28470101D01*
X40137053Y28459980D01*
X40124368Y28450507D01*
X40110359Y28443137D01*
X40041135Y28388566D01*
X40030823Y28380654D01*
X39978602Y28341659D01*
X39978599Y28341656D01*
X39960267Y28327967D01*
X39906558Y28269865D01*
X39892977Y28255741D01*
X39270691Y27633455D01*
X39156990Y27548339D01*
X39036372Y27501995D01*
X39021070Y27499653D01*
X39001603Y27493290D01*
X39001602Y27493290D01*
X38972736Y27483855D01*
X38786540Y27422997D01*
X38567679Y27309065D01*
X38551299Y27296767D01*
X38551298Y27296766D01*
X38515848Y27270149D01*
X38370364Y27160917D01*
X38199896Y26982532D01*
X38188359Y26965620D01*
X38188357Y26965617D01*
X38098644Y26834102D01*
X38060851Y26778700D01*
X38052229Y26760125D01*
X38052226Y26760120D01*
X38027470Y26706786D01*
X37956965Y26554896D01*
X37951493Y26535164D01*
X37951491Y26535159D01*
X37914502Y26401781D01*
X37891026Y26317129D01*
X37864806Y26071786D01*
X37865985Y26051340D01*
X37876808Y25863651D01*
X37879010Y25825455D01*
X37883511Y25805483D01*
X37883511Y25805482D01*
X37927683Y25609478D01*
X37933255Y25584751D01*
X38012901Y25388605D01*
X38015488Y25382235D01*
X38049651Y25244375D01*
X38043591Y25102474D01*
X37997798Y24968029D01*
X37915982Y24851931D01*
X37804772Y24763586D01*
X37673177Y24710150D01*
X37553150Y24695500D01*
X37259500Y24695500D01*
X37118915Y24715713D01*
X36989720Y24774714D01*
X36882381Y24867724D01*
X36805594Y24987208D01*
X36765579Y25123485D01*
X36760500Y25194500D01*
X36760500Y28518038D01*
X36761568Y28550676D01*
X36763735Y28583734D01*
X36763735Y28583736D01*
X36765231Y28606560D01*
X36762161Y28632500D01*
X36754876Y28694050D01*
X36753511Y28707040D01*
X36747549Y28771918D01*
X36747548Y28771925D01*
X36745454Y28794711D01*
X36741158Y28809943D01*
X36739297Y28825667D01*
X36732515Y28847508D01*
X36732514Y28847514D01*
X36713179Y28909784D01*
X36709471Y28922304D01*
X36691776Y28985044D01*
X36691774Y28985050D01*
X36685565Y29007064D01*
X36678562Y29021264D01*
X36673869Y29036379D01*
X36632873Y29114300D01*
X36626946Y29125932D01*
X36598099Y29184428D01*
X36598099Y29184429D01*
X36587980Y29204947D01*
X36578505Y29217635D01*
X36571137Y29231640D01*
X36516616Y29300799D01*
X36508707Y29311106D01*
X36455967Y29381733D01*
X36397851Y29435455D01*
X36383728Y29449035D01*
X33410977Y32421786D01*
X37864806Y32421786D01*
X37865985Y32401340D01*
X37873471Y32271523D01*
X37879010Y32175455D01*
X37933255Y31934751D01*
X38026084Y31706139D01*
X38155006Y31495759D01*
X38316557Y31309259D01*
X38506399Y31151649D01*
X38719433Y31027162D01*
X38738571Y31019854D01*
X38930803Y30946448D01*
X38930806Y30946447D01*
X38949939Y30939141D01*
X38970005Y30935058D01*
X38970010Y30935057D01*
X39159064Y30896593D01*
X39191726Y30889948D01*
X39212189Y30889198D01*
X39212195Y30889197D01*
X39417838Y30881657D01*
X39417841Y30881657D01*
X39438300Y30880907D01*
X39503014Y30889197D01*
X39662723Y30909656D01*
X39662725Y30909657D01*
X39683041Y30912259D01*
X39919374Y30983162D01*
X40140954Y31091713D01*
X40157624Y31103604D01*
X40175215Y31114090D01*
X40177354Y31110501D01*
X40266877Y31156818D01*
X40406301Y31183900D01*
X40430768Y31184500D01*
X42835666Y31184500D01*
X42976251Y31164287D01*
X43045762Y31138115D01*
X43130104Y31098965D01*
X43149836Y31093493D01*
X43149841Y31093491D01*
X43348139Y31038498D01*
X43348141Y31038498D01*
X43367871Y31033026D01*
X43484002Y31020615D01*
X43556096Y31012910D01*
X43556101Y31012910D01*
X43569292Y31011500D01*
X45312554Y31011500D01*
X45414164Y31019854D01*
X45475502Y31024897D01*
X45495911Y31026575D01*
X45515772Y31031564D01*
X45515774Y31031564D01*
X45715351Y31081694D01*
X45715352Y31081694D01*
X45735217Y31086684D01*
X45753995Y31094849D01*
X45753998Y31094850D01*
X45942716Y31176907D01*
X45942721Y31176910D01*
X45961493Y31185072D01*
X46168661Y31319095D01*
X46351158Y31485154D01*
X46363847Y31501221D01*
X46491393Y31662722D01*
X46491397Y31662728D01*
X46504082Y31678790D01*
X46623327Y31894802D01*
X46630757Y31915781D01*
X46698855Y32108086D01*
X46705691Y32127390D01*
X46748961Y32370306D01*
X46751975Y32617028D01*
X46747424Y32646774D01*
X46733314Y32738979D01*
X46714653Y32860930D01*
X46637997Y33095460D01*
X46581344Y33204290D01*
X46534359Y33338323D01*
X46527038Y33480164D01*
X46559976Y33618322D01*
X46630503Y33741605D01*
X46667137Y33783522D01*
X46692458Y33809424D01*
X46715733Y33836967D01*
X46856724Y34030668D01*
X46875777Y34061278D01*
X46987329Y34273303D01*
X47001765Y34306347D01*
X47058974Y34468346D01*
X47065017Y34498676D01*
X47059209Y34500727D01*
X47046309Y34502000D01*
X41864128Y34502000D01*
X41833517Y34497599D01*
X41833517Y34481917D01*
X41843921Y34449705D01*
X41915967Y34271831D01*
X41950010Y34133941D01*
X41943825Y33992046D01*
X41897915Y33857640D01*
X41815998Y33741614D01*
X41704711Y33653366D01*
X41573069Y33600046D01*
X41453465Y33585500D01*
X40428860Y33585500D01*
X40288275Y33605713D01*
X40187702Y33647643D01*
X40125276Y33682104D01*
X39987198Y33758327D01*
X39967903Y33765160D01*
X39967898Y33765162D01*
X39773914Y33833855D01*
X39773915Y33833855D01*
X39754610Y33840691D01*
X39511694Y33883961D01*
X39424951Y33885021D01*
X39285450Y33886725D01*
X39285448Y33886725D01*
X39264972Y33886975D01*
X39244735Y33883878D01*
X39244730Y33883878D01*
X39143021Y33868314D01*
X39021070Y33849653D01*
X38786540Y33772997D01*
X38567679Y33659065D01*
X38551299Y33646767D01*
X38551298Y33646766D01*
X38496621Y33605713D01*
X38370364Y33510917D01*
X38199896Y33332532D01*
X38188359Y33315620D01*
X38188357Y33315617D01*
X38122724Y33219402D01*
X38060851Y33128700D01*
X38052229Y33110125D01*
X38052226Y33110120D01*
X38037181Y33077708D01*
X37956965Y32904896D01*
X37951493Y32885164D01*
X37951491Y32885159D01*
X37939158Y32840688D01*
X37891026Y32667129D01*
X37864806Y32421786D01*
X33410977Y32421786D01*
X33344208Y32488555D01*
X33259092Y32602256D01*
X33213090Y32719832D01*
X33175316Y32870217D01*
X33076928Y33096493D01*
X33065802Y33113691D01*
X33056127Y33131735D01*
X33058318Y33132910D01*
X33011138Y33235405D01*
X32990500Y33377428D01*
X32990500Y35605324D01*
X41834983Y35605324D01*
X41840791Y35603273D01*
X41853691Y35602000D01*
X43864310Y35602000D01*
X43896046Y35606563D01*
X43900000Y35620030D01*
X43900000Y35637690D01*
X45000000Y35637690D01*
X45004563Y35605954D01*
X45018030Y35602000D01*
X47035872Y35602000D01*
X47066483Y35606401D01*
X47066483Y35622083D01*
X47056081Y35654290D01*
X46966139Y35876347D01*
X46950214Y35908710D01*
X46829164Y36115446D01*
X46808735Y36145172D01*
X46659105Y36332275D01*
X46634608Y36358730D01*
X46459535Y36522273D01*
X46431465Y36544923D01*
X46234618Y36681481D01*
X46203580Y36699836D01*
X45989073Y36806551D01*
X45955725Y36820229D01*
X45728065Y36894860D01*
X45693060Y36903587D01*
X45454236Y36945053D01*
X45423987Y36948420D01*
X45358277Y36951691D01*
X45345866Y36952000D01*
X45035690Y36952000D01*
X45003954Y36947437D01*
X45000000Y36933970D01*
X45000000Y35637690D01*
X43900000Y35637690D01*
X43900000Y36916310D01*
X43895437Y36948046D01*
X43881970Y36952000D01*
X43588994Y36952000D01*
X43570952Y36951346D01*
X43393014Y36938436D01*
X43357343Y36933232D01*
X43123399Y36881582D01*
X43088824Y36871274D01*
X42864807Y36786401D01*
X42832081Y36771211D01*
X42622651Y36654883D01*
X42592478Y36635139D01*
X42402021Y36489787D01*
X42375019Y36465897D01*
X42207542Y36294577D01*
X42184267Y36267033D01*
X42043276Y36073332D01*
X42024223Y36042722D01*
X41912671Y35830697D01*
X41898235Y35797653D01*
X41841026Y35635654D01*
X41834983Y35605324D01*
X32990500Y35605324D01*
X32990500Y36423775D01*
X35897817Y36423775D01*
X35909164Y36412427D01*
X35910097Y36411866D01*
X35941463Y36395884D01*
X36156729Y36304730D01*
X36190044Y36293323D01*
X36416022Y36233406D01*
X36450582Y36226814D01*
X36682744Y36199336D01*
X36717906Y36197678D01*
X36951628Y36203185D01*
X36986669Y36206498D01*
X37217279Y36244882D01*
X37251495Y36253096D01*
X37474405Y36323593D01*
X37507124Y36336548D01*
X37656355Y36408208D01*
X37682043Y36425425D01*
X37679282Y36431174D01*
X37671320Y36440862D01*
X36815237Y37296946D01*
X36789570Y37316160D01*
X36777250Y37309433D01*
X35916351Y36448533D01*
X35897817Y36423775D01*
X32990500Y36423775D01*
X32990500Y37039478D01*
X33010713Y37180063D01*
X33061773Y37296481D01*
X33068640Y37307910D01*
X33080588Y37324537D01*
X33189911Y37545736D01*
X33261639Y37781820D01*
X33293845Y38026450D01*
X33295643Y38100000D01*
X33292174Y38142196D01*
X34886780Y38142196D01*
X34895957Y37908602D01*
X34899819Y37873621D01*
X34941822Y37643632D01*
X34950575Y37609546D01*
X35024558Y37387789D01*
X35038034Y37355257D01*
X35098516Y37234213D01*
X35116136Y37208798D01*
X35123619Y37212537D01*
X35130291Y37218109D01*
X35986946Y38074763D01*
X36005516Y38099570D01*
X37573840Y38099570D01*
X37580567Y38087250D01*
X38442718Y37225100D01*
X38467476Y37206566D01*
X38474804Y37213894D01*
X38480578Y37224799D01*
X38575106Y37438618D01*
X38587029Y37471733D01*
X38650487Y37696740D01*
X38657624Y37731205D01*
X38689398Y37967769D01*
X38691494Y37993121D01*
X38694453Y38087266D01*
X38693953Y38112710D01*
X38677096Y38350791D01*
X38672135Y38385650D01*
X38622932Y38614186D01*
X38613110Y38647995D01*
X38532199Y38867313D01*
X38517707Y38899410D01*
X38481917Y38965740D01*
X38463507Y38990592D01*
X38452656Y38984737D01*
X38451923Y38984105D01*
X37593054Y38125237D01*
X37573840Y38099570D01*
X36005516Y38099570D01*
X36006160Y38100430D01*
X35999433Y38112750D01*
X35139450Y38972732D01*
X35114692Y38991266D01*
X35104257Y38980831D01*
X35088250Y38953274D01*
X35072767Y38921670D01*
X34984999Y38704980D01*
X34974124Y38671512D01*
X34917765Y38444622D01*
X34911714Y38409947D01*
X34887886Y38177391D01*
X34886780Y38142196D01*
X33292174Y38142196D01*
X33286923Y38206070D01*
X33277103Y38325502D01*
X33275425Y38345911D01*
X33265444Y38385650D01*
X33220306Y38565351D01*
X33220306Y38565352D01*
X33215316Y38585217D01*
X33191642Y38639663D01*
X33125093Y38792716D01*
X33125090Y38792721D01*
X33116928Y38811493D01*
X33070528Y38883217D01*
X33011139Y39012229D01*
X32990500Y39154257D01*
X32990500Y39773512D01*
X35899279Y39773512D01*
X35904051Y39764326D01*
X35907180Y39760638D01*
X36764763Y38903054D01*
X36790430Y38883840D01*
X36802750Y38890567D01*
X37662152Y39749970D01*
X37680686Y39774728D01*
X37671062Y39784352D01*
X37616448Y39814938D01*
X37584586Y39829931D01*
X37366566Y39914277D01*
X37332907Y39924631D01*
X37105180Y39977415D01*
X37070404Y39982924D01*
X36837491Y40003096D01*
X36802309Y40003649D01*
X36568882Y39990803D01*
X36533951Y39986390D01*
X36304664Y39940782D01*
X36270715Y39931494D01*
X36050138Y39854034D01*
X36017838Y39840056D01*
X35924409Y39791524D01*
X35899279Y39773512D01*
X32990500Y39773512D01*
X32990500Y40658044D01*
X33010713Y40798629D01*
X33069714Y40927824D01*
X33136654Y41010890D01*
X33828621Y41702857D01*
X33852454Y41725179D01*
X33856505Y41728732D01*
X33894543Y41762090D01*
X33908706Y41780055D01*
X33908710Y41780060D01*
X33949075Y41831263D01*
X33957293Y41841412D01*
X33998974Y41891528D01*
X33998976Y41891532D01*
X34013602Y41909117D01*
X34021337Y41922928D01*
X34031137Y41935360D01*
X34072151Y42013314D01*
X34078373Y42024772D01*
X34110231Y42081658D01*
X34110234Y42081666D01*
X34121410Y42101621D01*
X34126499Y42116611D01*
X34133869Y42130620D01*
X34159996Y42214762D01*
X34164015Y42227129D01*
X34164113Y42227416D01*
X34192332Y42310548D01*
X34194604Y42326220D01*
X34199297Y42341333D01*
X34209644Y42428757D01*
X34211347Y42441696D01*
X34212604Y42450367D01*
X34252777Y42586597D01*
X34329703Y42705991D01*
X34437151Y42798876D01*
X34566415Y42857727D01*
X34707023Y42877777D01*
X34847583Y42857400D01*
X34976710Y42798248D01*
X35051191Y42739538D01*
X35165501Y42630301D01*
X35165516Y42630288D01*
X35175269Y42620968D01*
X35453736Y42407293D01*
X35753650Y42224942D01*
X35765879Y42219213D01*
X35765880Y42219213D01*
X35955188Y42130535D01*
X36071505Y42076048D01*
X36084275Y42071676D01*
X36084282Y42071673D01*
X36390800Y41966728D01*
X36390810Y41966725D01*
X36403580Y41962353D01*
X36520899Y41935914D01*
X36732820Y41888155D01*
X36732828Y41888154D01*
X36745992Y41885187D01*
X36806369Y41878308D01*
X37081305Y41846983D01*
X37081308Y41846983D01*
X37094735Y41845453D01*
X37108246Y41845382D01*
X37108250Y41845382D01*
X37264842Y41844562D01*
X37445730Y41843615D01*
X37459158Y41845003D01*
X37459165Y41845003D01*
X37781443Y41878308D01*
X37781451Y41878309D01*
X37794870Y41879696D01*
X37808065Y41882525D01*
X37808073Y41882526D01*
X38124872Y41950442D01*
X38124875Y41950443D01*
X38138072Y41953272D01*
X38235915Y41985630D01*
X38458504Y42059244D01*
X38458513Y42059247D01*
X38471320Y42063483D01*
X38483592Y42069076D01*
X38483598Y42069078D01*
X38778438Y42203444D01*
X38778447Y42203449D01*
X38790716Y42209040D01*
X38807850Y42219213D01*
X38962279Y42310907D01*
X39092523Y42388240D01*
X39103320Y42396347D01*
X39103328Y42396352D01*
X39294349Y42539775D01*
X39373212Y42598987D01*
X39629499Y42838816D01*
X39858385Y43104921D01*
X39926372Y43203843D01*
X40049543Y43383058D01*
X40049544Y43383059D01*
X40057193Y43394189D01*
X40063934Y43406708D01*
X40217200Y43691353D01*
X40217202Y43691358D01*
X40223598Y43703236D01*
X40355653Y44028447D01*
X40451812Y44366018D01*
X40510952Y44711999D01*
X40532380Y45062344D01*
X40532459Y45085000D01*
X40513477Y45435486D01*
X40474069Y45676139D01*
X40458939Y45768537D01*
X40458938Y45768543D01*
X40456755Y45781872D01*
X40362954Y46120106D01*
X40350237Y46152064D01*
X40238167Y46433682D01*
X40238166Y46433684D01*
X40233173Y46446231D01*
X40190550Y46526733D01*
X40102710Y46692633D01*
X40068930Y46756432D01*
X39872146Y47047081D01*
X39645123Y47314777D01*
X39418744Y47529603D01*
X39400312Y47547094D01*
X39400311Y47547095D01*
X39390517Y47556389D01*
X39379778Y47564570D01*
X39379772Y47564575D01*
X39219538Y47686640D01*
X39111306Y47769091D01*
X38990533Y47841946D01*
X38822324Y47943417D01*
X38822315Y47943422D01*
X38810757Y47950394D01*
X38798509Y47956079D01*
X38798504Y47956082D01*
X38504635Y48092491D01*
X38504631Y48092493D01*
X38492385Y48098177D01*
X38479599Y48102505D01*
X38479596Y48102506D01*
X38172704Y48206383D01*
X38172701Y48206384D01*
X38159914Y48210712D01*
X37968624Y48253120D01*
X37830408Y48283762D01*
X37830401Y48283763D01*
X37817235Y48286682D01*
X37655716Y48304514D01*
X37518199Y48340032D01*
X37396258Y48412854D01*
X37299774Y48517081D01*
X37286031Y48544733D01*
X37240397Y48473724D01*
X37133058Y48380714D01*
X37003863Y48321713D01*
X36916303Y48304325D01*
X36781760Y48289947D01*
X36781755Y48289946D01*
X36768344Y48288513D01*
X36425402Y48213739D01*
X36412608Y48209458D01*
X36412600Y48209456D01*
X36167485Y48127442D01*
X36092540Y48102366D01*
X36080280Y48096727D01*
X36080275Y48096725D01*
X36071070Y48092491D01*
X35773655Y47955694D01*
X35762066Y47948758D01*
X35762060Y47948755D01*
X35537371Y47814282D01*
X35472474Y47775442D01*
X35461712Y47767303D01*
X35461705Y47767298D01*
X35378278Y47704202D01*
X35192523Y47563716D01*
X35182692Y47554451D01*
X35182690Y47554450D01*
X34946903Y47332256D01*
X34946898Y47332251D01*
X34937075Y47322994D01*
X34928309Y47312730D01*
X34928303Y47312724D01*
X34780369Y47139515D01*
X34709119Y47056092D01*
X34701519Y47044951D01*
X34701513Y47044943D01*
X34511321Y46766132D01*
X34508988Y46767724D01*
X34434718Y46677232D01*
X34317331Y46597278D01*
X34182172Y46553634D01*
X34040193Y46549836D01*
X33902895Y46586192D01*
X33781401Y46659757D01*
X33745130Y46692633D01*
X33274150Y47163613D01*
X33251828Y47187446D01*
X33229997Y47212339D01*
X33214910Y47229543D01*
X33145706Y47284099D01*
X33135588Y47292293D01*
X33111022Y47312724D01*
X33067883Y47348602D01*
X33054072Y47356337D01*
X33041640Y47366137D01*
X32963686Y47407151D01*
X32952228Y47413373D01*
X32895346Y47445229D01*
X32895336Y47445233D01*
X32875379Y47456410D01*
X32860389Y47461498D01*
X32846380Y47468869D01*
X32824529Y47475654D01*
X32824524Y47475656D01*
X32762273Y47494986D01*
X32749853Y47499021D01*
X32688108Y47519980D01*
X32688107Y47519980D01*
X32666452Y47527331D01*
X32650786Y47529603D01*
X32635667Y47534297D01*
X32612959Y47536985D01*
X32612957Y47536985D01*
X32548234Y47544645D01*
X32535279Y47546350D01*
X32470736Y47555709D01*
X32470731Y47555709D01*
X32448098Y47558991D01*
X32425240Y47558093D01*
X32425238Y47558093D01*
X32369044Y47555885D01*
X32349454Y47555500D01*
X29938660Y47555500D01*
X29798075Y47575713D01*
X29697502Y47617643D01*
X29641816Y47648383D01*
X29496998Y47728327D01*
X29477703Y47735160D01*
X29477698Y47735162D01*
X29283714Y47803855D01*
X29283715Y47803855D01*
X29264410Y47810691D01*
X29021494Y47853961D01*
X28934751Y47855021D01*
X28795250Y47856725D01*
X28795248Y47856725D01*
X28774772Y47856975D01*
X28754535Y47853878D01*
X28754530Y47853878D01*
X28676556Y47841946D01*
X28530870Y47819653D01*
X28296340Y47742997D01*
X28077479Y47629065D01*
X28061099Y47616767D01*
X28061098Y47616766D01*
X27912758Y47505389D01*
X27880164Y47480917D01*
X27866019Y47466115D01*
X27850701Y47452515D01*
X27849420Y47453958D01*
X27757584Y47381904D01*
X27625669Y47329264D01*
X27484267Y47315921D01*
X27344834Y47342956D01*
X27218665Y47408180D01*
X27173557Y47445046D01*
X27163446Y47456158D01*
X27146522Y47469524D01*
X26985878Y47596393D01*
X26985872Y47596397D01*
X26969810Y47609082D01*
X26753798Y47728327D01*
X26734503Y47735160D01*
X26734498Y47735162D01*
X26540514Y47803855D01*
X26540515Y47803855D01*
X26521210Y47810691D01*
X26278294Y47853961D01*
X26191551Y47855021D01*
X26052050Y47856725D01*
X26052048Y47856725D01*
X26031572Y47856975D01*
X26011335Y47853878D01*
X26011330Y47853878D01*
X25933356Y47841946D01*
X25787670Y47819653D01*
X25553140Y47742997D01*
X25334279Y47629065D01*
X25333099Y47631331D01*
X25230469Y47585600D01*
X25089704Y47566684D01*
X24949312Y47588193D01*
X24820667Y47648383D01*
X24714190Y47742379D01*
X24638507Y47862565D01*
X24599751Y47999206D01*
X24598713Y48012171D01*
X24598630Y48012161D01*
X24588279Y48099616D01*
X24586913Y48112607D01*
X24580948Y48177526D01*
X24580947Y48177530D01*
X24578854Y48200311D01*
X24574558Y48215544D01*
X24572697Y48231267D01*
X24565912Y48253120D01*
X24546579Y48315384D01*
X24542871Y48327904D01*
X24525176Y48390644D01*
X24525174Y48390650D01*
X24518965Y48412664D01*
X24511962Y48426864D01*
X24507269Y48441979D01*
X24466273Y48519900D01*
X24460347Y48531530D01*
X24436545Y48579795D01*
X24392494Y48714822D01*
X24388268Y48856789D01*
X24424210Y48994196D01*
X24497409Y49115911D01*
X24601934Y49212073D01*
X24729316Y49274893D01*
X24869237Y49299279D01*
X24884083Y49299500D01*
X36863278Y49299500D01*
X37003863Y49279287D01*
X37133058Y49220286D01*
X37240397Y49127276D01*
X37284244Y49059049D01*
X37371491Y49166685D01*
X37488389Y49247355D01*
X37623278Y49291823D01*
X37710474Y49299500D01*
X48800500Y49299500D01*
X48941085Y49279287D01*
X49070280Y49220286D01*
X49177619Y49127276D01*
X49254406Y49007792D01*
X49294421Y48871515D01*
X49299500Y48800500D01*
X49299500Y1199500D01*
X49279287Y1058915D01*
X49220286Y929720D01*
X49127276Y822381D01*
X49007792Y745594D01*
X48871515Y705579D01*
X48800500Y700500D01*
X1199500Y700500D01*
X1058915Y720713D01*
X929720Y779714D01*
X822381Y872724D01*
X745594Y992208D01*
X705579Y1128485D01*
X700500Y1199500D01*
X700500Y7413994D01*
X5720000Y7413994D01*
X5720654Y7395952D01*
X5733564Y7218014D01*
X5738768Y7182343D01*
X5790418Y6948399D01*
X5800726Y6913824D01*
X5885599Y6689807D01*
X5900789Y6657081D01*
X6017117Y6447651D01*
X6036861Y6417478D01*
X6182213Y6227021D01*
X6206103Y6200019D01*
X6377423Y6032542D01*
X6404967Y6009267D01*
X6598668Y5868276D01*
X6629278Y5849223D01*
X6841303Y5737671D01*
X6874347Y5723235D01*
X7036346Y5666026D01*
X7066676Y5659983D01*
X7068727Y5665791D01*
X7070000Y5678691D01*
X7070000Y7689310D01*
X7065437Y7721046D01*
X7051970Y7725000D01*
X5755690Y7725000D01*
X5723954Y7720437D01*
X5720000Y7706970D01*
X5720000Y7413994D01*
X700500Y7413994D01*
X700500Y48800500D01*
X720713Y48941085D01*
X779714Y49070280D01*
X872724Y49177619D01*
X992208Y49254406D01*
X1128485Y49294421D01*
X1199500Y49299500D01*
X7027045Y49299500D01*
X7167630Y49279287D01*
G37*
%TD.AperFunction*%
%TA.AperFunction,Conductor*%
G36*
X29414992Y42562846D02*
G01*
X29459448Y42539781D01*
X29600833Y42457162D01*
X29619971Y42449854D01*
X29812203Y42376448D01*
X29812206Y42376447D01*
X29831339Y42369141D01*
X29851405Y42365058D01*
X29851410Y42365057D01*
X30010670Y42332655D01*
X30073126Y42319948D01*
X30093589Y42319198D01*
X30093595Y42319197D01*
X30168170Y42316463D01*
X30307919Y42291112D01*
X30434866Y42227416D01*
X30538725Y42130535D01*
X30611082Y42008318D01*
X30646076Y41870667D01*
X30640872Y41728732D01*
X30630171Y41687401D01*
X30630361Y41687355D01*
X30625019Y41665104D01*
X30617669Y41643452D01*
X30615397Y41627786D01*
X30610703Y41612667D01*
X30608015Y41589959D01*
X30608015Y41589957D01*
X30600355Y41525234D01*
X30598650Y41512279D01*
X30586009Y41425098D01*
X30586907Y41402242D01*
X30586907Y41402239D01*
X30589115Y41346055D01*
X30589500Y41326462D01*
X30589500Y39156963D01*
X30569287Y39016378D01*
X30502722Y38875763D01*
X30492397Y38860628D01*
X30492389Y38860615D01*
X30480851Y38843700D01*
X30472229Y38825125D01*
X30472226Y38825120D01*
X30434552Y38743957D01*
X30376965Y38619896D01*
X30371493Y38600164D01*
X30371491Y38600159D01*
X30316498Y38401861D01*
X30311026Y38382129D01*
X30284806Y38136786D01*
X30299010Y37890455D01*
X30303511Y37870483D01*
X30303511Y37870482D01*
X30342666Y37696740D01*
X30353255Y37649751D01*
X30446084Y37421139D01*
X30456778Y37403689D01*
X30456781Y37403682D01*
X30515967Y37307101D01*
X30572188Y37176672D01*
X30589500Y37046373D01*
X30589500Y33500601D01*
X30569287Y33360016D01*
X30502723Y33219402D01*
X30492414Y33204289D01*
X30440851Y33128700D01*
X30432229Y33110125D01*
X30432226Y33110120D01*
X30417181Y33077708D01*
X30336965Y32904896D01*
X30331493Y32885164D01*
X30331491Y32885159D01*
X30319158Y32840688D01*
X30271026Y32667129D01*
X30244806Y32421786D01*
X30245985Y32401340D01*
X30253471Y32271523D01*
X30259010Y32175455D01*
X30313255Y31934751D01*
X30406084Y31706139D01*
X30535006Y31495759D01*
X30696557Y31309259D01*
X30886399Y31151649D01*
X31099433Y31027162D01*
X31118571Y31019854D01*
X31310803Y30946448D01*
X31310806Y30946447D01*
X31329939Y30939141D01*
X31350012Y30935057D01*
X31393879Y30926132D01*
X31527611Y30878297D01*
X31647240Y30789996D01*
X34213346Y28223890D01*
X34298462Y28110189D01*
X34348096Y27977114D01*
X34359500Y27871044D01*
X34359500Y23512587D01*
X34359457Y23506055D01*
X34358074Y23400406D01*
X34359360Y23392920D01*
X34359500Y23389364D01*
X34359500Y19741948D01*
X34358432Y19709312D01*
X34356839Y19685000D01*
X34354770Y19653440D01*
X34357459Y19630722D01*
X34357459Y19630716D01*
X34365122Y19565971D01*
X34366487Y19552987D01*
X34372452Y19488075D01*
X34374546Y19465289D01*
X34378844Y19450051D01*
X34380704Y19434333D01*
X34387489Y19412481D01*
X34387490Y19412477D01*
X34406807Y19350265D01*
X34410516Y19337745D01*
X34413047Y19328772D01*
X34434435Y19252936D01*
X34441438Y19238736D01*
X34446131Y19223621D01*
X34456786Y19203370D01*
X34456786Y19203369D01*
X34487135Y19145684D01*
X34493058Y19134061D01*
X34532020Y19055053D01*
X34541493Y19042367D01*
X34548863Y19028359D01*
X34603434Y18959135D01*
X34611346Y18948823D01*
X34648307Y18899327D01*
X34664033Y18878267D01*
X34722135Y18824558D01*
X34736259Y18810977D01*
X37200539Y16346698D01*
X37200543Y16346693D01*
X37337857Y16209379D01*
X37360179Y16185546D01*
X37397090Y16143457D01*
X37415063Y16129289D01*
X37430811Y16114344D01*
X37449500Y16097736D01*
X41833346Y11713890D01*
X41918462Y11600189D01*
X41968096Y11467114D01*
X41979500Y11361044D01*
X41979500Y11302472D01*
X41959287Y11161887D01*
X41900286Y11032692D01*
X41807276Y10925353D01*
X41687792Y10848566D01*
X41551515Y10808551D01*
X41409485Y10808551D01*
X41314341Y10831949D01*
X41223656Y10863973D01*
X41193324Y10870017D01*
X41191273Y10864209D01*
X41190000Y10851309D01*
X41190000Y8204000D01*
X41169787Y8063415D01*
X41110786Y7934220D01*
X41017776Y7826881D01*
X40898292Y7750094D01*
X40762015Y7710079D01*
X40691000Y7705000D01*
X40589000Y7705000D01*
X40448415Y7725213D01*
X40319220Y7784214D01*
X40211881Y7877224D01*
X40135094Y7996708D01*
X40095079Y8132985D01*
X40090000Y8204000D01*
X40090000Y10840872D01*
X40085599Y10871483D01*
X40069917Y10871483D01*
X40037710Y10861081D01*
X39950100Y10825595D01*
X39812210Y10791552D01*
X39670314Y10797737D01*
X39535909Y10843647D01*
X39419882Y10925564D01*
X39331634Y11036851D01*
X39280399Y11163345D01*
X39279296Y11172667D01*
X39259551Y11236258D01*
X39253193Y11256735D01*
X39249484Y11269255D01*
X39231778Y11332035D01*
X39231777Y11332038D01*
X39225565Y11354064D01*
X39218562Y11368264D01*
X39213869Y11383379D01*
X39172873Y11461300D01*
X39166946Y11472932D01*
X39138099Y11531428D01*
X39138099Y11531429D01*
X39127980Y11551947D01*
X39118505Y11564635D01*
X39111137Y11578640D01*
X39056565Y11647865D01*
X39048696Y11658121D01*
X38995967Y11728733D01*
X38937849Y11782456D01*
X38923750Y11796013D01*
X33909150Y16810613D01*
X33886828Y16834446D01*
X33886752Y16834532D01*
X33849910Y16876543D01*
X33780706Y16931099D01*
X33770588Y16939293D01*
X33720470Y16980975D01*
X33702883Y16995602D01*
X33689072Y17003337D01*
X33676640Y17013137D01*
X33598686Y17054151D01*
X33587228Y17060373D01*
X33530346Y17092229D01*
X33530336Y17092233D01*
X33510379Y17103410D01*
X33495389Y17108498D01*
X33481380Y17115869D01*
X33459529Y17122654D01*
X33459524Y17122656D01*
X33397273Y17141986D01*
X33384853Y17146021D01*
X33323108Y17166980D01*
X33323107Y17166980D01*
X33301452Y17174331D01*
X33285786Y17176603D01*
X33270667Y17181297D01*
X33247959Y17183985D01*
X33247957Y17183985D01*
X33183234Y17191645D01*
X33170279Y17193350D01*
X33105736Y17202709D01*
X33105731Y17202709D01*
X33083098Y17205991D01*
X33060240Y17205093D01*
X33060238Y17205093D01*
X33004044Y17202885D01*
X32984454Y17202500D01*
X32003076Y17202500D01*
X31862491Y17222713D01*
X31733296Y17281714D01*
X31732294Y17282582D01*
X31650285Y17236356D01*
X31511921Y17204297D01*
X31469615Y17202500D01*
X28575576Y17202500D01*
X28434991Y17222713D01*
X28305796Y17281714D01*
X28304794Y17282582D01*
X28222785Y17236356D01*
X28084421Y17204297D01*
X28042115Y17202500D01*
X21277955Y17202500D01*
X21137370Y17222713D01*
X21008175Y17281714D01*
X20925109Y17348654D01*
X20644208Y17629555D01*
X20559092Y17743256D01*
X20513090Y17860832D01*
X20475316Y18011217D01*
X20427648Y18120846D01*
X20385093Y18218716D01*
X20385090Y18218721D01*
X20376928Y18237493D01*
X20242905Y18444661D01*
X20216635Y18473532D01*
X20090625Y18612015D01*
X20076846Y18627158D01*
X20045496Y18651917D01*
X19899278Y18767393D01*
X19899272Y18767397D01*
X19883210Y18780082D01*
X19667198Y18899327D01*
X19647903Y18906160D01*
X19647898Y18906162D01*
X19453914Y18974855D01*
X19453915Y18974855D01*
X19434610Y18981691D01*
X19191694Y19024961D01*
X19104951Y19026021D01*
X18965450Y19027725D01*
X18965448Y19027725D01*
X18944972Y19027975D01*
X18924735Y19024878D01*
X18924730Y19024878D01*
X18830072Y19010393D01*
X18701070Y18990653D01*
X18466540Y18913997D01*
X18247679Y18800065D01*
X18231299Y18787767D01*
X18231298Y18787766D01*
X18126023Y18708723D01*
X18050364Y18651917D01*
X17879896Y18473532D01*
X17868359Y18456620D01*
X17868357Y18456617D01*
X17752399Y18286628D01*
X17740851Y18269700D01*
X17732229Y18251125D01*
X17732226Y18251120D01*
X17699635Y18180907D01*
X17636965Y18045896D01*
X17631493Y18026164D01*
X17631491Y18026159D01*
X17585644Y17860839D01*
X17571026Y17808129D01*
X17544806Y17562786D01*
X17559010Y17316455D01*
X17563511Y17296483D01*
X17563511Y17296482D01*
X17607216Y17102550D01*
X17613255Y17075751D01*
X17706084Y16847139D01*
X17835006Y16636759D01*
X17996557Y16450259D01*
X18186399Y16292649D01*
X18399433Y16168162D01*
X18418571Y16160854D01*
X18610803Y16087448D01*
X18610806Y16087447D01*
X18629939Y16080141D01*
X18693885Y16067131D01*
X18827611Y16019298D01*
X18947241Y15930996D01*
X19684850Y15193387D01*
X19707172Y15169554D01*
X19744090Y15127457D01*
X19762060Y15113291D01*
X19813258Y15072930D01*
X19823408Y15064710D01*
X19873522Y15023031D01*
X19873527Y15023027D01*
X19891116Y15008399D01*
X19904927Y15000664D01*
X19917360Y14990863D01*
X19937606Y14980211D01*
X19937609Y14980209D01*
X19995301Y14949856D01*
X20006744Y14943643D01*
X20083620Y14900590D01*
X20098612Y14895501D01*
X20112620Y14888131D01*
X20196754Y14862007D01*
X20209143Y14857981D01*
X20250788Y14843844D01*
X20292548Y14829669D01*
X20308214Y14827398D01*
X20323333Y14822703D01*
X20346057Y14820013D01*
X20346059Y14820013D01*
X20410829Y14812347D01*
X20423762Y14810644D01*
X20510902Y14798010D01*
X20533761Y14798908D01*
X20533763Y14798908D01*
X20589931Y14801115D01*
X20609521Y14801500D01*
X32316044Y14801500D01*
X32456629Y14781287D01*
X32585824Y14722286D01*
X32668890Y14655346D01*
X35979875Y11344361D01*
X36064991Y11230660D01*
X36114625Y11097585D01*
X36124758Y10955917D01*
X36116329Y10915468D01*
X36110000Y10851309D01*
X36110000Y8204000D01*
X36089787Y8063415D01*
X36030786Y7934220D01*
X35937776Y7826881D01*
X35818292Y7750094D01*
X35682015Y7710079D01*
X35611000Y7705000D01*
X33695690Y7705000D01*
X33663954Y7700437D01*
X33660000Y7686970D01*
X33660000Y7393994D01*
X33660654Y7375952D01*
X33673564Y7198014D01*
X33678768Y7162343D01*
X33730418Y6928399D01*
X33740722Y6893836D01*
X33813292Y6702291D01*
X33844197Y6563664D01*
X33834796Y6421945D01*
X33785848Y6288616D01*
X33701320Y6174478D01*
X33588059Y6088777D01*
X33455241Y6038457D01*
X33346659Y6026500D01*
X30279993Y6026500D01*
X30139408Y6046713D01*
X30010213Y6105714D01*
X29902874Y6198724D01*
X29826087Y6318208D01*
X29786072Y6454485D01*
X29786072Y6596515D01*
X29827378Y6735596D01*
X29852411Y6789526D01*
X29861035Y6808104D01*
X29870653Y6842783D01*
X29921502Y7026139D01*
X29921502Y7026141D01*
X29926974Y7045871D01*
X29944417Y7209089D01*
X29947090Y7234096D01*
X29947090Y7234101D01*
X29948500Y7247292D01*
X29948500Y8840690D01*
X33660000Y8840690D01*
X33664563Y8808954D01*
X33678030Y8805000D01*
X34974310Y8805000D01*
X35006046Y8809563D01*
X35010000Y8823030D01*
X35010000Y10840872D01*
X35005599Y10871483D01*
X34989917Y10871483D01*
X34957710Y10861081D01*
X34735653Y10771139D01*
X34703290Y10755214D01*
X34496554Y10634164D01*
X34466828Y10613735D01*
X34279725Y10464105D01*
X34253270Y10439608D01*
X34089727Y10264535D01*
X34067077Y10236465D01*
X33930519Y10039618D01*
X33912164Y10008580D01*
X33805449Y9794073D01*
X33791771Y9760725D01*
X33717140Y9533065D01*
X33708413Y9498060D01*
X33666947Y9259236D01*
X33663580Y9228987D01*
X33660309Y9163277D01*
X33660000Y9150866D01*
X33660000Y8840690D01*
X29948500Y8840690D01*
X29948500Y8990554D01*
X29938899Y9107327D01*
X29935103Y9153502D01*
X29933425Y9173911D01*
X29914568Y9248987D01*
X29878306Y9393351D01*
X29878306Y9393352D01*
X29873316Y9413217D01*
X29826733Y9520351D01*
X29783093Y9620716D01*
X29783090Y9620721D01*
X29774928Y9639493D01*
X29728528Y9711217D01*
X29669139Y9840229D01*
X29648500Y9982257D01*
X29648500Y11119052D01*
X29649568Y11151687D01*
X29651734Y11184733D01*
X29651734Y11184734D01*
X29653230Y11207560D01*
X29649834Y11236258D01*
X29642879Y11295016D01*
X29641513Y11308007D01*
X29635548Y11372926D01*
X29635547Y11372930D01*
X29633454Y11395711D01*
X29629158Y11410944D01*
X29627297Y11426667D01*
X29620512Y11448520D01*
X29601179Y11510784D01*
X29597471Y11523304D01*
X29579776Y11586044D01*
X29579774Y11586050D01*
X29573565Y11608064D01*
X29566562Y11622264D01*
X29561869Y11637379D01*
X29520873Y11715300D01*
X29514946Y11726932D01*
X29486099Y11785428D01*
X29486099Y11785429D01*
X29475980Y11805947D01*
X29466505Y11818635D01*
X29459137Y11832640D01*
X29404616Y11901799D01*
X29396707Y11912106D01*
X29343967Y11982733D01*
X29285851Y12036455D01*
X29271728Y12050035D01*
X28448150Y12873613D01*
X28425828Y12897446D01*
X28403997Y12922339D01*
X28388910Y12939543D01*
X28319706Y12994099D01*
X28309588Y13002293D01*
X28259470Y13043975D01*
X28241883Y13058602D01*
X28228072Y13066337D01*
X28215640Y13076137D01*
X28137686Y13117151D01*
X28126228Y13123373D01*
X28069346Y13155229D01*
X28069336Y13155233D01*
X28049379Y13166410D01*
X28034389Y13171498D01*
X28020380Y13178869D01*
X27998529Y13185654D01*
X27998524Y13185656D01*
X27936273Y13204986D01*
X27923853Y13209021D01*
X27862108Y13229980D01*
X27862107Y13229980D01*
X27840452Y13237331D01*
X27824786Y13239603D01*
X27809667Y13244297D01*
X27786959Y13246985D01*
X27786957Y13246985D01*
X27722234Y13254645D01*
X27709279Y13256350D01*
X27644736Y13265709D01*
X27644731Y13265709D01*
X27622098Y13268991D01*
X27599240Y13268093D01*
X27599238Y13268093D01*
X27543044Y13265885D01*
X27523454Y13265500D01*
X18483956Y13265500D01*
X18343371Y13285713D01*
X18214176Y13344714D01*
X18131110Y13411654D01*
X14681654Y16861109D01*
X14596538Y16974810D01*
X14546904Y17107885D01*
X14535500Y17213955D01*
X14535500Y19567000D01*
X14555713Y19707585D01*
X14614714Y19836780D01*
X14707724Y19944119D01*
X14827208Y20020906D01*
X14963485Y20060921D01*
X15034500Y20066000D01*
X20066000Y20066000D01*
X20066000Y23622000D01*
X15034500Y23622000D01*
X14893915Y23642213D01*
X14764720Y23701214D01*
X14657381Y23794224D01*
X14580594Y23913708D01*
X14540579Y24049985D01*
X14535500Y24121000D01*
X14535500Y34856044D01*
X14555713Y34996629D01*
X14614714Y35125824D01*
X14681654Y35208890D01*
X15219654Y35746890D01*
X15333355Y35832006D01*
X15466430Y35881640D01*
X15608098Y35891773D01*
X15746883Y35861582D01*
X15871540Y35793514D01*
X15971970Y35693084D01*
X16040038Y35568427D01*
X16070229Y35429642D01*
X16071500Y35394044D01*
X16071500Y27726963D01*
X16051287Y27586378D01*
X15984722Y27445763D01*
X15974397Y27430628D01*
X15974392Y27430619D01*
X15962851Y27413700D01*
X15858965Y27189896D01*
X15853493Y27170164D01*
X15853491Y27170159D01*
X15798498Y26971861D01*
X15793026Y26952129D01*
X15766806Y26706786D01*
X15767985Y26686340D01*
X15778710Y26500351D01*
X15781010Y26460455D01*
X15785511Y26440483D01*
X15785511Y26440482D01*
X15824239Y26268635D01*
X15835255Y26219751D01*
X15928084Y25991139D01*
X15938780Y25973684D01*
X15938781Y25973683D01*
X15954354Y25948271D01*
X16057006Y25780759D01*
X16070412Y25765282D01*
X16070414Y25765280D01*
X16086533Y25746672D01*
X16218557Y25594259D01*
X16408399Y25436649D01*
X16621433Y25312162D01*
X16640571Y25304854D01*
X16832803Y25231448D01*
X16832806Y25231447D01*
X16851939Y25224141D01*
X16872005Y25220058D01*
X16872010Y25220057D01*
X17061064Y25181593D01*
X17093726Y25174948D01*
X17114189Y25174198D01*
X17114195Y25174197D01*
X17319838Y25166657D01*
X17319841Y25166657D01*
X17340300Y25165907D01*
X17405014Y25174197D01*
X17564723Y25194656D01*
X17564725Y25194657D01*
X17585041Y25197259D01*
X17821374Y25268162D01*
X17841240Y25277894D01*
X18024568Y25367706D01*
X18042954Y25376713D01*
X18154106Y25455997D01*
X18227156Y25508103D01*
X18227158Y25508105D01*
X18243829Y25519996D01*
X18418605Y25694163D01*
X18527638Y25845899D01*
X18550640Y25877909D01*
X18550642Y25877912D01*
X18562588Y25894537D01*
X18595659Y25961450D01*
X18662839Y26097380D01*
X18662839Y26097381D01*
X18671911Y26115736D01*
X18743639Y26351820D01*
X18775845Y26596450D01*
X18777643Y26670000D01*
X18774619Y26706786D01*
X23386806Y26706786D01*
X23387985Y26686340D01*
X23398710Y26500351D01*
X23401010Y26460455D01*
X23405511Y26440483D01*
X23405511Y26440482D01*
X23444239Y26268635D01*
X23455255Y26219751D01*
X23548084Y25991139D01*
X23558778Y25973689D01*
X23558781Y25973682D01*
X23617967Y25877101D01*
X23674188Y25746672D01*
X23691500Y25616373D01*
X23691500Y22442448D01*
X23690432Y22409812D01*
X23689251Y22391786D01*
X23686770Y22353940D01*
X23689459Y22331222D01*
X23689459Y22331216D01*
X23697122Y22266471D01*
X23698487Y22253487D01*
X23706546Y22165789D01*
X23710844Y22150551D01*
X23712704Y22134833D01*
X23719489Y22112981D01*
X23719490Y22112977D01*
X23738807Y22050765D01*
X23742516Y22038245D01*
X23760222Y21975465D01*
X23766435Y21953436D01*
X23773438Y21939236D01*
X23778131Y21924121D01*
X23788786Y21903870D01*
X23788786Y21903869D01*
X23819135Y21846184D01*
X23825058Y21834561D01*
X23864020Y21755553D01*
X23873493Y21742867D01*
X23880863Y21728859D01*
X23935434Y21659635D01*
X23943346Y21649323D01*
X23982341Y21597102D01*
X23982344Y21597099D01*
X23996033Y21578767D01*
X24012832Y21563238D01*
X24012833Y21563237D01*
X24054134Y21525059D01*
X24068258Y21511478D01*
X24728526Y20851210D01*
X24813642Y20737509D01*
X24862472Y20608066D01*
X24885755Y20504751D01*
X24978584Y20276139D01*
X25107506Y20065759D01*
X25120912Y20050282D01*
X25120914Y20050280D01*
X25146359Y20020906D01*
X25269057Y19879259D01*
X25458899Y19721649D01*
X25671933Y19597162D01*
X25691071Y19589854D01*
X25883303Y19516448D01*
X25883306Y19516447D01*
X25902439Y19509141D01*
X25922505Y19505058D01*
X25922510Y19505057D01*
X26065855Y19475893D01*
X26144226Y19459948D01*
X26164689Y19459198D01*
X26164695Y19459197D01*
X26370338Y19451657D01*
X26370341Y19451657D01*
X26390800Y19450907D01*
X26411111Y19453509D01*
X26431566Y19454438D01*
X26431717Y19451119D01*
X26538666Y19449480D01*
X26674313Y19407382D01*
X26792606Y19328772D01*
X26883959Y19220020D01*
X26922423Y19144448D01*
X26978584Y19006139D01*
X27107506Y18795759D01*
X27269057Y18609259D01*
X27458899Y18451649D01*
X27671933Y18327162D01*
X27691071Y18319854D01*
X27883303Y18246448D01*
X27883306Y18246447D01*
X27902439Y18239141D01*
X27922505Y18235058D01*
X27922510Y18235057D01*
X28141601Y18190482D01*
X28275334Y18142646D01*
X28305288Y18120846D01*
X28305796Y18121286D01*
X28434991Y18180287D01*
X28512171Y18196455D01*
X28615223Y18209656D01*
X28615225Y18209657D01*
X28635541Y18212259D01*
X28656344Y18218500D01*
X28711531Y18235057D01*
X28871874Y18283162D01*
X28909844Y18301763D01*
X29075068Y18382706D01*
X29093454Y18391713D01*
X29110126Y18403605D01*
X29127715Y18414090D01*
X29129854Y18410501D01*
X29219377Y18456818D01*
X29358801Y18483900D01*
X29383268Y18484500D01*
X30695074Y18484500D01*
X30835659Y18464287D01*
X30946828Y18416337D01*
X31099433Y18327162D01*
X31118571Y18319854D01*
X31310803Y18246448D01*
X31310806Y18246447D01*
X31329939Y18239141D01*
X31350005Y18235058D01*
X31350010Y18235057D01*
X31569101Y18190482D01*
X31702834Y18142646D01*
X31732788Y18120846D01*
X31733296Y18121286D01*
X31862491Y18180287D01*
X31939671Y18196455D01*
X32042723Y18209656D01*
X32042725Y18209657D01*
X32063041Y18212259D01*
X32083844Y18218500D01*
X32139031Y18235057D01*
X32299374Y18283162D01*
X32337344Y18301763D01*
X32502568Y18382706D01*
X32520954Y18391713D01*
X32650195Y18483900D01*
X32705156Y18523103D01*
X32705158Y18523105D01*
X32721829Y18534996D01*
X32896605Y18709163D01*
X33006959Y18862737D01*
X33028640Y18892909D01*
X33028642Y18892912D01*
X33040588Y18909537D01*
X33060005Y18948823D01*
X33140839Y19112380D01*
X33140839Y19112381D01*
X33149911Y19130736D01*
X33221639Y19366820D01*
X33253845Y19611450D01*
X33255643Y19685000D01*
X33253787Y19707585D01*
X33237103Y19910502D01*
X33235425Y19930911D01*
X33206571Y20045787D01*
X33180306Y20150351D01*
X33180306Y20150352D01*
X33175316Y20170217D01*
X33129260Y20276139D01*
X33085093Y20377716D01*
X33085090Y20377721D01*
X33076928Y20396493D01*
X33030528Y20468217D01*
X32971139Y20597229D01*
X32950500Y20739257D01*
X32950500Y24974478D01*
X32970713Y25115063D01*
X33021773Y25231481D01*
X33028640Y25242910D01*
X33040588Y25259537D01*
X33071706Y25322498D01*
X33140839Y25462380D01*
X33140839Y25462381D01*
X33149911Y25480736D01*
X33221639Y25716820D01*
X33253845Y25961450D01*
X33255643Y26035000D01*
X33254410Y26050007D01*
X33237103Y26260502D01*
X33235425Y26280911D01*
X33221372Y26336861D01*
X33180306Y26500351D01*
X33180306Y26500352D01*
X33175316Y26520217D01*
X33148138Y26582723D01*
X33085093Y26727716D01*
X33085090Y26727721D01*
X33076928Y26746493D01*
X32942905Y26953661D01*
X32916635Y26982532D01*
X32790625Y27121015D01*
X32776846Y27136158D01*
X32733793Y27170159D01*
X32599278Y27276393D01*
X32599272Y27276397D01*
X32583210Y27289082D01*
X32367198Y27408327D01*
X32347903Y27415160D01*
X32347898Y27415162D01*
X32153914Y27483855D01*
X32153915Y27483855D01*
X32134610Y27490691D01*
X31891694Y27533961D01*
X31804951Y27535021D01*
X31665450Y27536725D01*
X31665448Y27536725D01*
X31644972Y27536975D01*
X31624735Y27533878D01*
X31624730Y27533878D01*
X31537816Y27520578D01*
X31401070Y27499653D01*
X31166540Y27422997D01*
X30947679Y27309065D01*
X30931299Y27296767D01*
X30931298Y27296766D01*
X30895848Y27270149D01*
X30750364Y27160917D01*
X30579896Y26982532D01*
X30568359Y26965620D01*
X30568357Y26965617D01*
X30478644Y26834102D01*
X30440851Y26778700D01*
X30432229Y26760125D01*
X30432226Y26760120D01*
X30407470Y26706786D01*
X30336965Y26554896D01*
X30331493Y26535164D01*
X30331491Y26535159D01*
X30294502Y26401781D01*
X30271026Y26317129D01*
X30244806Y26071786D01*
X30245985Y26051340D01*
X30256808Y25863651D01*
X30259010Y25825455D01*
X30263511Y25805483D01*
X30263511Y25805482D01*
X30307683Y25609478D01*
X30313255Y25584751D01*
X30406084Y25356139D01*
X30416778Y25338689D01*
X30416781Y25338682D01*
X30475967Y25242101D01*
X30532188Y25111672D01*
X30549500Y24981373D01*
X30549500Y23613457D01*
X30529287Y23472872D01*
X30470286Y23343677D01*
X30377276Y23236338D01*
X30257792Y23159551D01*
X30121515Y23119536D01*
X30012406Y23115913D01*
X29998566Y23116973D01*
X29985156Y23109737D01*
X29984423Y23109105D01*
X29100317Y22225000D01*
X28675346Y21800029D01*
X28561645Y21714913D01*
X28428570Y21665279D01*
X28286901Y21655146D01*
X28148117Y21685337D01*
X28023460Y21753405D01*
X27969654Y21800029D01*
X27544683Y22225000D01*
X26671950Y23097732D01*
X26644861Y23118011D01*
X26595543Y23121538D01*
X26555907Y23118703D01*
X26417123Y23148892D01*
X26292465Y23216958D01*
X26192033Y23317388D01*
X26123964Y23442044D01*
X26093772Y23580828D01*
X26092500Y23616432D01*
X26092500Y23898512D01*
X27431779Y23898512D01*
X27436551Y23889326D01*
X27439680Y23885638D01*
X28297263Y23028054D01*
X28322930Y23008840D01*
X28335250Y23015567D01*
X29194652Y23874970D01*
X29213186Y23899728D01*
X29203562Y23909352D01*
X29148948Y23939938D01*
X29117086Y23954931D01*
X28899066Y24039277D01*
X28865407Y24049631D01*
X28637680Y24102415D01*
X28602904Y24107924D01*
X28369991Y24128096D01*
X28334809Y24128649D01*
X28101382Y24115803D01*
X28066451Y24111390D01*
X27837164Y24065782D01*
X27803215Y24056494D01*
X27582638Y23979034D01*
X27550338Y23965056D01*
X27456909Y23916524D01*
X27431779Y23898512D01*
X26092500Y23898512D01*
X26092500Y25609478D01*
X26112713Y25750063D01*
X26163773Y25866481D01*
X26170640Y25877910D01*
X26182588Y25894537D01*
X26215659Y25961450D01*
X26282839Y26097380D01*
X26282839Y26097381D01*
X26291911Y26115736D01*
X26363639Y26351820D01*
X26395845Y26596450D01*
X26397643Y26670000D01*
X26389941Y26763686D01*
X26379103Y26895502D01*
X26377425Y26915911D01*
X26363372Y26971861D01*
X26322306Y27135351D01*
X26322306Y27135352D01*
X26317316Y27155217D01*
X26259110Y27289082D01*
X26227093Y27362716D01*
X26227090Y27362721D01*
X26218928Y27381493D01*
X26084905Y27588661D01*
X26058635Y27617532D01*
X25932625Y27756015D01*
X25918846Y27771158D01*
X25881819Y27800400D01*
X25741278Y27911393D01*
X25741272Y27911397D01*
X25725210Y27924082D01*
X25509198Y28043327D01*
X25489903Y28050160D01*
X25489898Y28050162D01*
X25295914Y28118855D01*
X25295915Y28118855D01*
X25276610Y28125691D01*
X25033694Y28168961D01*
X24946951Y28170021D01*
X24807450Y28171725D01*
X24807448Y28171725D01*
X24786972Y28171975D01*
X24766735Y28168878D01*
X24766730Y28168878D01*
X24665021Y28153314D01*
X24543070Y28134653D01*
X24308540Y28057997D01*
X24089679Y27944065D01*
X23892364Y27795917D01*
X23721896Y27617532D01*
X23710359Y27600620D01*
X23710357Y27600617D01*
X23594399Y27430628D01*
X23582851Y27413700D01*
X23478965Y27189896D01*
X23473493Y27170164D01*
X23473491Y27170159D01*
X23418498Y26971861D01*
X23413026Y26952129D01*
X23386806Y26706786D01*
X18774619Y26706786D01*
X18769941Y26763686D01*
X18759103Y26895502D01*
X18757425Y26915911D01*
X18743372Y26971861D01*
X18702306Y27135351D01*
X18702306Y27135352D01*
X18697316Y27155217D01*
X18639110Y27289082D01*
X18607093Y27362716D01*
X18607090Y27362721D01*
X18598928Y27381493D01*
X18552528Y27453217D01*
X18493139Y27582229D01*
X18472500Y27724257D01*
X18472500Y34983044D01*
X18492713Y35123629D01*
X18551714Y35252824D01*
X18618654Y35335890D01*
X19783923Y36501160D01*
X19897624Y36586276D01*
X19999069Y36623834D01*
X19998041Y36627259D01*
X20234374Y36698162D01*
X20275410Y36718265D01*
X20398544Y36778588D01*
X20455954Y36806713D01*
X20502545Y36839946D01*
X20640156Y36938103D01*
X20640158Y36938105D01*
X20656829Y36949996D01*
X20831605Y37124163D01*
X20903919Y37224799D01*
X20963640Y37307909D01*
X20963642Y37307912D01*
X20975588Y37324537D01*
X21084911Y37545736D01*
X21156639Y37781820D01*
X21159044Y37781089D01*
X21198274Y37886674D01*
X21283687Y38000923D01*
X21941609Y38658846D01*
X22055304Y38743957D01*
X22188380Y38793591D01*
X22330048Y38803724D01*
X22468832Y38773533D01*
X22593489Y38705465D01*
X22693920Y38605035D01*
X22761988Y38480378D01*
X22792179Y38341594D01*
X22790851Y38255137D01*
X22782886Y38177397D01*
X22781780Y38142196D01*
X22790957Y37908602D01*
X22794819Y37873621D01*
X22836822Y37643632D01*
X22845575Y37609546D01*
X22919558Y37387789D01*
X22933034Y37355257D01*
X22993516Y37234213D01*
X23011136Y37208798D01*
X23018619Y37212537D01*
X23025291Y37218109D01*
X24332154Y38524971D01*
X24445855Y38610087D01*
X24578930Y38659721D01*
X24720598Y38669854D01*
X24859383Y38639663D01*
X24984040Y38571595D01*
X25037846Y38524971D01*
X25109971Y38452846D01*
X25195087Y38339145D01*
X25244721Y38206070D01*
X25254854Y38064402D01*
X25224663Y37925617D01*
X25156595Y37800960D01*
X25109971Y37747154D01*
X23811351Y36448533D01*
X23792817Y36423775D01*
X23804164Y36412427D01*
X23805097Y36411866D01*
X23836463Y36395884D01*
X24051729Y36304730D01*
X24085044Y36293323D01*
X24311022Y36233406D01*
X24345582Y36226814D01*
X24577744Y36199336D01*
X24612906Y36197678D01*
X24846628Y36203185D01*
X24881669Y36206498D01*
X25112279Y36244882D01*
X25146495Y36253096D01*
X25369405Y36323593D01*
X25402130Y36336550D01*
X25592695Y36428059D01*
X25728175Y36470694D01*
X25870179Y36473432D01*
X26007202Y36436053D01*
X26128144Y36361583D01*
X26223206Y36256058D01*
X26284687Y36128024D01*
X26307700Y35978234D01*
X26307700Y35832156D01*
X26287487Y35691571D01*
X26228486Y35562376D01*
X26161546Y35479310D01*
X23268692Y32586455D01*
X23154991Y32501339D01*
X23034375Y32454995D01*
X23019070Y32452653D01*
X22999599Y32446289D01*
X22999595Y32446288D01*
X22924632Y32421786D01*
X22784540Y32375997D01*
X22565679Y32262065D01*
X22549299Y32249767D01*
X22549298Y32249766D01*
X22413162Y32147552D01*
X22368364Y32113917D01*
X22197896Y31935532D01*
X22186359Y31918620D01*
X22186357Y31918617D01*
X22166475Y31889470D01*
X22058851Y31731700D01*
X22050229Y31713125D01*
X22050226Y31713120D01*
X22003421Y31612286D01*
X21954965Y31507896D01*
X21949493Y31488164D01*
X21949491Y31488159D01*
X21899878Y31309259D01*
X21889026Y31270129D01*
X21862806Y31024786D01*
X21877010Y30778455D01*
X21881511Y30758483D01*
X21881511Y30758482D01*
X21901657Y30669089D01*
X21931255Y30537751D01*
X22024084Y30309139D01*
X22153006Y30098759D01*
X22166412Y30083282D01*
X22166414Y30083280D01*
X22204364Y30039470D01*
X22314557Y29912259D01*
X22504399Y29754649D01*
X22717433Y29630162D01*
X22736571Y29622854D01*
X22928803Y29549448D01*
X22928806Y29549447D01*
X22947939Y29542141D01*
X22968005Y29538058D01*
X22968010Y29538057D01*
X23157064Y29499593D01*
X23189726Y29492948D01*
X23210189Y29492198D01*
X23210195Y29492197D01*
X23415838Y29484657D01*
X23415841Y29484657D01*
X23436300Y29483907D01*
X23501014Y29492197D01*
X23660723Y29512656D01*
X23660725Y29512657D01*
X23681041Y29515259D01*
X23917374Y29586162D01*
X24138954Y29694713D01*
X24339829Y29837996D01*
X24514605Y30012163D01*
X24658588Y30212537D01*
X24697705Y30291683D01*
X24758839Y30415380D01*
X24758839Y30415381D01*
X24767911Y30433736D01*
X24839639Y30669820D01*
X24842044Y30669089D01*
X24881274Y30774674D01*
X24966691Y30888927D01*
X28316813Y34239050D01*
X28340646Y34261372D01*
X28352572Y34271831D01*
X28382743Y34298290D01*
X28437299Y34367494D01*
X28445493Y34377612D01*
X28487175Y34427730D01*
X28501802Y34445317D01*
X28509537Y34459128D01*
X28519337Y34471560D01*
X28560351Y34549514D01*
X28566573Y34560972D01*
X28598429Y34617854D01*
X28598433Y34617864D01*
X28609610Y34637821D01*
X28614698Y34652811D01*
X28622069Y34666820D01*
X28628856Y34688676D01*
X28648186Y34750927D01*
X28652221Y34763347D01*
X28673180Y34825092D01*
X28673180Y34825093D01*
X28680531Y34846748D01*
X28682803Y34862414D01*
X28687497Y34877533D01*
X28697845Y34964969D01*
X28699550Y34977921D01*
X28708909Y35042464D01*
X28708909Y35042469D01*
X28712191Y35065102D01*
X28709892Y35123629D01*
X28709085Y35144156D01*
X28708700Y35163746D01*
X28708700Y42108940D01*
X28728913Y42249525D01*
X28787914Y42378720D01*
X28880924Y42486059D01*
X29000408Y42562846D01*
X29136685Y42602861D01*
X29278715Y42602861D01*
X29414992Y42562846D01*
G37*
%TD.AperFunction*%
%TA.AperFunction,Conductor*%
G36*
X15642224Y43605309D02*
G01*
X15763454Y43531309D01*
X15858925Y43426153D01*
X15920903Y43298359D01*
X15944500Y43146723D01*
X15944500Y40073955D01*
X15924287Y39933370D01*
X15865286Y39804175D01*
X15798346Y39721109D01*
X15055273Y38978036D01*
X14941572Y38892920D01*
X14808497Y38843286D01*
X14666829Y38833153D01*
X14528044Y38863344D01*
X14403387Y38931412D01*
X14372743Y38962209D01*
X14334508Y38991132D01*
X14322656Y38984737D01*
X14321923Y38984105D01*
X13437817Y38100000D01*
X12660000Y37322183D01*
X11786351Y36448533D01*
X11767817Y36423775D01*
X11779164Y36412428D01*
X11780097Y36411866D01*
X11811453Y36395889D01*
X11863694Y36373768D01*
X11985269Y36300338D01*
X12081232Y36195630D01*
X12143808Y36068128D01*
X12167928Y35928161D01*
X12158930Y35841971D01*
X12162665Y35841429D01*
X12161319Y35832151D01*
X12159891Y35824157D01*
X12155703Y35810667D01*
X12153015Y35787959D01*
X12153015Y35787957D01*
X12145355Y35723234D01*
X12143650Y35710279D01*
X12135532Y35654290D01*
X12131009Y35623098D01*
X12131907Y35600240D01*
X12131907Y35600238D01*
X12134115Y35544044D01*
X12134500Y35524454D01*
X12134500Y24121000D01*
X12114287Y23980415D01*
X12055286Y23851220D01*
X11962276Y23743881D01*
X11842792Y23667094D01*
X11706515Y23627079D01*
X11635500Y23622000D01*
X9319500Y23622000D01*
X9178915Y23642213D01*
X9049720Y23701214D01*
X8942381Y23794224D01*
X8865594Y23913708D01*
X8825579Y24049985D01*
X8820500Y24121000D01*
X8820500Y29927478D01*
X8840713Y30068063D01*
X8891773Y30184481D01*
X8898640Y30195910D01*
X8910588Y30212537D01*
X8949705Y30291683D01*
X9010839Y30415380D01*
X9010839Y30415381D01*
X9019911Y30433736D01*
X9091639Y30669820D01*
X9123845Y30914450D01*
X9125643Y30988000D01*
X9122610Y31024897D01*
X9107103Y31213502D01*
X9105425Y31233911D01*
X9091372Y31289861D01*
X9050306Y31453351D01*
X9050306Y31453352D01*
X9045316Y31473217D01*
X9037150Y31491998D01*
X8955093Y31680716D01*
X8955090Y31680721D01*
X8946928Y31699493D01*
X8812905Y31906661D01*
X8786635Y31935532D01*
X8660625Y32074015D01*
X8646846Y32089158D01*
X8615496Y32113917D01*
X8469278Y32229393D01*
X8469272Y32229397D01*
X8453210Y32242082D01*
X8237198Y32361327D01*
X8217903Y32368160D01*
X8217898Y32368162D01*
X8023914Y32436855D01*
X8023915Y32436855D01*
X8004610Y32443691D01*
X7761694Y32486961D01*
X7674951Y32488021D01*
X7535450Y32489725D01*
X7535448Y32489725D01*
X7514972Y32489975D01*
X7494735Y32486878D01*
X7494730Y32486878D01*
X7362979Y32466717D01*
X7220954Y32465433D01*
X7084321Y32504214D01*
X6964148Y32579917D01*
X6870171Y32686411D01*
X6810004Y32815068D01*
X6788500Y32959976D01*
X6788500Y35324044D01*
X6808713Y35464629D01*
X6867714Y35593824D01*
X6934654Y35676890D01*
X7758924Y36501160D01*
X7872625Y36586276D01*
X7974068Y36623836D01*
X7973041Y36627259D01*
X8209374Y36698162D01*
X8250410Y36718265D01*
X8373544Y36778588D01*
X8430954Y36806713D01*
X8477545Y36839946D01*
X8615156Y36938103D01*
X8615158Y36938105D01*
X8631829Y36949996D01*
X8806605Y37124163D01*
X8878919Y37224799D01*
X8938640Y37307909D01*
X8938642Y37307912D01*
X8950588Y37324537D01*
X9059911Y37545736D01*
X9131639Y37781820D01*
X9163845Y38026450D01*
X9165643Y38100000D01*
X9162174Y38142196D01*
X10756780Y38142196D01*
X10765957Y37908602D01*
X10769819Y37873621D01*
X10811822Y37643632D01*
X10820575Y37609546D01*
X10894558Y37387789D01*
X10908034Y37355257D01*
X10968516Y37234213D01*
X10986136Y37208798D01*
X10993619Y37212537D01*
X11000291Y37218109D01*
X11856946Y38074763D01*
X11876160Y38100430D01*
X11869433Y38112750D01*
X11009450Y38972732D01*
X10984692Y38991266D01*
X10974257Y38980831D01*
X10958250Y38953274D01*
X10942767Y38921670D01*
X10854999Y38704980D01*
X10844124Y38671512D01*
X10787765Y38444622D01*
X10781714Y38409947D01*
X10757886Y38177391D01*
X10756780Y38142196D01*
X9162174Y38142196D01*
X9156923Y38206070D01*
X9147103Y38325502D01*
X9145425Y38345911D01*
X9135444Y38385650D01*
X9090306Y38565351D01*
X9090306Y38565352D01*
X9085316Y38585217D01*
X9061642Y38639663D01*
X8995093Y38792716D01*
X8995090Y38792721D01*
X8986928Y38811493D01*
X8940528Y38883217D01*
X8881139Y39012229D01*
X8860500Y39154257D01*
X8860500Y39773512D01*
X11769279Y39773512D01*
X11774051Y39764326D01*
X11777180Y39760638D01*
X12634763Y38903054D01*
X12660430Y38883840D01*
X12672750Y38890567D01*
X13532152Y39749970D01*
X13550686Y39774728D01*
X13541062Y39784352D01*
X13486448Y39814938D01*
X13454586Y39829931D01*
X13236566Y39914277D01*
X13202907Y39924631D01*
X12975180Y39977415D01*
X12940404Y39982924D01*
X12707491Y40003096D01*
X12672309Y40003649D01*
X12438882Y39990803D01*
X12403951Y39986390D01*
X12174664Y39940782D01*
X12140715Y39931494D01*
X11920138Y39854034D01*
X11887838Y39840056D01*
X11794409Y39791524D01*
X11769279Y39773512D01*
X8860500Y39773512D01*
X8860500Y42703450D01*
X8880713Y42844035D01*
X8939714Y42973230D01*
X9032724Y43080569D01*
X9152208Y43157356D01*
X9288485Y43197371D01*
X9430515Y43197371D01*
X9566792Y43157356D01*
X9686276Y43080569D01*
X9741196Y43024867D01*
X9868410Y42873795D01*
X9868420Y42873785D01*
X9877108Y42863467D01*
X10130869Y42620968D01*
X10409336Y42407293D01*
X10709250Y42224942D01*
X10721479Y42219213D01*
X10721480Y42219213D01*
X10910788Y42130535D01*
X11027105Y42076048D01*
X11039875Y42071676D01*
X11039882Y42071673D01*
X11346400Y41966728D01*
X11346410Y41966725D01*
X11359180Y41962353D01*
X11476499Y41935914D01*
X11688420Y41888155D01*
X11688428Y41888154D01*
X11701592Y41885187D01*
X11761969Y41878308D01*
X12036905Y41846983D01*
X12036908Y41846983D01*
X12050335Y41845453D01*
X12063846Y41845382D01*
X12063850Y41845382D01*
X12220442Y41844562D01*
X12401330Y41843615D01*
X12414758Y41845003D01*
X12414765Y41845003D01*
X12737043Y41878308D01*
X12737051Y41878309D01*
X12750470Y41879696D01*
X12763665Y41882525D01*
X12763673Y41882526D01*
X13080472Y41950442D01*
X13080475Y41950443D01*
X13093672Y41953272D01*
X13191515Y41985630D01*
X13414104Y42059244D01*
X13414113Y42059247D01*
X13426920Y42063483D01*
X13439192Y42069076D01*
X13439198Y42069078D01*
X13734038Y42203444D01*
X13734047Y42203449D01*
X13746316Y42209040D01*
X13763450Y42219213D01*
X13917879Y42310907D01*
X14048123Y42388240D01*
X14058920Y42396347D01*
X14058928Y42396352D01*
X14249949Y42539775D01*
X14328812Y42598987D01*
X14585099Y42838816D01*
X14813985Y43104921D01*
X14881972Y43203843D01*
X15005143Y43383058D01*
X15005144Y43383059D01*
X15012793Y43394189D01*
X15019196Y43406080D01*
X15019579Y43406708D01*
X15110078Y43516173D01*
X15227751Y43595707D01*
X15363065Y43638867D01*
X15505057Y43642156D01*
X15642224Y43605309D01*
G37*
%TD.AperFunction*%
%TD*%
%TA.AperFunction,NonConductor*%
G36*
X16357630Y47547287D02*
G01*
X16486825Y47488286D01*
X16594164Y47395276D01*
X16670951Y47275792D01*
X16710966Y47139515D01*
X16710966Y46997485D01*
X16670951Y46861208D01*
X16594164Y46741724D01*
X16569891Y46715654D01*
X16336387Y46482150D01*
X16312554Y46459828D01*
X16270457Y46422910D01*
X16215901Y46353706D01*
X16207707Y46343588D01*
X16151398Y46275883D01*
X16143663Y46262072D01*
X16133863Y46249640D01*
X16123214Y46229399D01*
X16122748Y46228682D01*
X16029228Y46121787D01*
X15909380Y46045570D01*
X15772914Y46006205D01*
X15630885Y46006882D01*
X15494801Y46047545D01*
X15375684Y46124901D01*
X15283187Y46232682D01*
X15240616Y46315956D01*
X15193770Y46433676D01*
X15193765Y46433688D01*
X15188773Y46446231D01*
X15146150Y46526733D01*
X15058310Y46692633D01*
X15024530Y46756432D01*
X15016955Y46767620D01*
X15016953Y46767624D01*
X15002656Y46788740D01*
X14940576Y46916484D01*
X14917000Y47056544D01*
X14933839Y47197573D01*
X14989728Y47328144D01*
X15080140Y47437681D01*
X15197749Y47517309D01*
X15333028Y47560578D01*
X15415857Y47567500D01*
X16217045Y47567500D01*
X16357630Y47547287D01*
G37*
%TD.AperFunction*%
%TA.AperFunction,NonConductor*%
G36*
X25965301Y42579111D02*
G01*
X26092440Y42515800D01*
X26196592Y42419234D01*
X26269319Y42297236D01*
X26304729Y42159691D01*
X26307700Y42105321D01*
X26307700Y40220391D01*
X26287487Y40079806D01*
X26228486Y39950611D01*
X26135476Y39843272D01*
X26015992Y39766485D01*
X25879715Y39726470D01*
X25737685Y39726470D01*
X25601408Y39766485D01*
X25564876Y39785016D01*
X25511433Y39814946D01*
X25479592Y39829929D01*
X25261566Y39914277D01*
X25227907Y39924631D01*
X25000180Y39977415D01*
X24965404Y39982924D01*
X24732491Y40003096D01*
X24697309Y40003649D01*
X24463882Y39990803D01*
X24428951Y39986390D01*
X24199664Y39940782D01*
X24165715Y39931494D01*
X23945136Y39854033D01*
X23917508Y39842077D01*
X23780459Y39804794D01*
X23638457Y39807632D01*
X23503007Y39850362D01*
X23385082Y39929521D01*
X23294235Y40038698D01*
X23237827Y40169046D01*
X23220428Y40310007D01*
X23221921Y40328178D01*
X23221311Y40328210D01*
X23222509Y40351066D01*
X23225791Y40373702D01*
X23222685Y40452747D01*
X23222300Y40472340D01*
X23222300Y42108940D01*
X23242513Y42249525D01*
X23301514Y42378720D01*
X23394524Y42486059D01*
X23514008Y42562846D01*
X23650285Y42602861D01*
X23792315Y42602861D01*
X23928592Y42562846D01*
X23973048Y42539781D01*
X24114433Y42457162D01*
X24133571Y42449854D01*
X24325803Y42376448D01*
X24325806Y42376447D01*
X24344939Y42369141D01*
X24365005Y42365058D01*
X24365010Y42365057D01*
X24524270Y42332655D01*
X24586726Y42319948D01*
X24607189Y42319198D01*
X24607195Y42319197D01*
X24812838Y42311657D01*
X24812841Y42311657D01*
X24833300Y42310907D01*
X24853612Y42313509D01*
X25057723Y42339656D01*
X25057725Y42339657D01*
X25078041Y42342259D01*
X25314374Y42413162D01*
X25346208Y42428757D01*
X25517562Y42512703D01*
X25535954Y42521713D01*
X25552632Y42533609D01*
X25553185Y42533939D01*
X25684291Y42588564D01*
X25825476Y42604039D01*
X25965301Y42579111D01*
G37*
%TD.AperFunction*%
%TA.AperFunction,NonConductor*%
G36*
X20478901Y42579111D02*
G01*
X20606040Y42515800D01*
X20710192Y42419234D01*
X20782919Y42297236D01*
X20818329Y42159691D01*
X20821300Y42105321D01*
X20821300Y41140756D01*
X20801087Y41000171D01*
X20742086Y40870976D01*
X20675146Y40787910D01*
X19585691Y39698455D01*
X19471990Y39613339D01*
X19351372Y39566995D01*
X19336070Y39564653D01*
X19101540Y39487997D01*
X19083384Y39478545D01*
X19083378Y39478543D01*
X19074911Y39474135D01*
X18940877Y39427150D01*
X18799036Y39419829D01*
X18660878Y39452767D01*
X18537595Y39523294D01*
X18439177Y39625697D01*
X18373595Y39751680D01*
X18346163Y39891036D01*
X18345500Y39916754D01*
X18345500Y41862774D01*
X18365713Y42003359D01*
X18424714Y42132554D01*
X18517724Y42239893D01*
X18637208Y42316680D01*
X18773485Y42356695D01*
X18915515Y42356695D01*
X18943985Y42351756D01*
X19080250Y42324032D01*
X19080257Y42324031D01*
X19100326Y42319948D01*
X19120789Y42319198D01*
X19120795Y42319197D01*
X19326438Y42311657D01*
X19326441Y42311657D01*
X19346900Y42310907D01*
X19367212Y42313509D01*
X19571323Y42339656D01*
X19571325Y42339657D01*
X19591641Y42342259D01*
X19827974Y42413162D01*
X19859808Y42428757D01*
X20031162Y42512703D01*
X20049554Y42521713D01*
X20066232Y42533609D01*
X20066785Y42533939D01*
X20197891Y42588564D01*
X20339076Y42604039D01*
X20478901Y42579111D01*
G37*
%TD.AperFunction*%
M02*
