%TF.GenerationSoftware,KiCad,Pcbnew,(6.0.6)*%
%TF.CreationDate,2022-08-24T11:44:13-03:00*%
%TF.ProjectId,hub_interior,6875625f-696e-4746-9572-696f722e6b69,rev?*%
%TF.SameCoordinates,Original*%
%TF.FileFunction,Legend,Top*%
%TF.FilePolarity,Positive*%
%FSLAX46Y46*%
G04 Gerber Fmt 4.6, Leading zero omitted, Abs format (unit mm)*
G04 Created by KiCad (PCBNEW (6.0.6)) date 2022-08-24 11:44:13*
%MOMM*%
%LPD*%
G01*
G04 APERTURE LIST*
%ADD10C,0.150000*%
%ADD11C,0.127000*%
%ADD12C,0.120000*%
%ADD13C,0.152400*%
G04 APERTURE END LIST*
D10*
%TO.C,LR*%
X49022380Y25971523D02*
X49022380Y25495333D01*
X48022380Y25495333D01*
X49022380Y26876285D02*
X48546190Y26542952D01*
X49022380Y26304857D02*
X48022380Y26304857D01*
X48022380Y26685809D01*
X48070000Y26781047D01*
X48117619Y26828666D01*
X48212857Y26876285D01*
X48355714Y26876285D01*
X48450952Y26828666D01*
X48498571Y26781047D01*
X48546190Y26685809D01*
X48546190Y26304857D01*
%TO.C,VOLTAGE*%
X8406190Y4702619D02*
X8739523Y3702619D01*
X9072857Y4702619D01*
X9596666Y4702619D02*
X9787142Y4702619D01*
X9882380Y4655000D01*
X9977619Y4559761D01*
X10025238Y4369285D01*
X10025238Y4035952D01*
X9977619Y3845476D01*
X9882380Y3750238D01*
X9787142Y3702619D01*
X9596666Y3702619D01*
X9501428Y3750238D01*
X9406190Y3845476D01*
X9358571Y4035952D01*
X9358571Y4369285D01*
X9406190Y4559761D01*
X9501428Y4655000D01*
X9596666Y4702619D01*
X10930000Y3702619D02*
X10453809Y3702619D01*
X10453809Y4702619D01*
X11120476Y4702619D02*
X11691904Y4702619D01*
X11406190Y3702619D02*
X11406190Y4702619D01*
X11977619Y3988333D02*
X12453809Y3988333D01*
X11882380Y3702619D02*
X12215714Y4702619D01*
X12549047Y3702619D01*
X13406190Y4655000D02*
X13310952Y4702619D01*
X13168095Y4702619D01*
X13025238Y4655000D01*
X12930000Y4559761D01*
X12882380Y4464523D01*
X12834761Y4274047D01*
X12834761Y4131190D01*
X12882380Y3940714D01*
X12930000Y3845476D01*
X13025238Y3750238D01*
X13168095Y3702619D01*
X13263333Y3702619D01*
X13406190Y3750238D01*
X13453809Y3797857D01*
X13453809Y4131190D01*
X13263333Y4131190D01*
X13882380Y4226428D02*
X14215714Y4226428D01*
X14358571Y3702619D02*
X13882380Y3702619D01*
X13882380Y4702619D01*
X14358571Y4702619D01*
%TO.C,TEMP*%
X30670380Y6318476D02*
X30670380Y6889904D01*
X31670380Y6604190D02*
X30670380Y6604190D01*
X31146571Y7223238D02*
X31146571Y7556571D01*
X31670380Y7699428D02*
X31670380Y7223238D01*
X30670380Y7223238D01*
X30670380Y7699428D01*
X31670380Y8128000D02*
X30670380Y8128000D01*
X31384666Y8461333D01*
X30670380Y8794666D01*
X31670380Y8794666D01*
X31670380Y9270857D02*
X30670380Y9270857D01*
X30670380Y9651809D01*
X30718000Y9747047D01*
X30765619Y9794666D01*
X30860857Y9842285D01*
X31003714Y9842285D01*
X31098952Y9794666D01*
X31146571Y9747047D01*
X31194190Y9651809D01*
X31194190Y9270857D01*
%TO.C,LV*%
X49022380Y33662952D02*
X49022380Y33186761D01*
X48022380Y33186761D01*
X48022380Y33853428D02*
X49022380Y34186761D01*
X48022380Y34520095D01*
%TO.C,B*%
X48498571Y18359428D02*
X48546190Y18502285D01*
X48593809Y18549904D01*
X48689047Y18597523D01*
X48831904Y18597523D01*
X48927142Y18549904D01*
X48974761Y18502285D01*
X49022380Y18407047D01*
X49022380Y18026095D01*
X48022380Y18026095D01*
X48022380Y18359428D01*
X48070000Y18454666D01*
X48117619Y18502285D01*
X48212857Y18549904D01*
X48308095Y18549904D01*
X48403333Y18502285D01*
X48450952Y18454666D01*
X48498571Y18359428D01*
X48498571Y18026095D01*
%TO.C,RELE*%
X38370000Y3682619D02*
X38036666Y4158809D01*
X37798571Y3682619D02*
X37798571Y4682619D01*
X38179523Y4682619D01*
X38274761Y4635000D01*
X38322380Y4587380D01*
X38370000Y4492142D01*
X38370000Y4349285D01*
X38322380Y4254047D01*
X38274761Y4206428D01*
X38179523Y4158809D01*
X37798571Y4158809D01*
X38798571Y4206428D02*
X39131904Y4206428D01*
X39274761Y3682619D02*
X38798571Y3682619D01*
X38798571Y4682619D01*
X39274761Y4682619D01*
X40179523Y3682619D02*
X39703333Y3682619D01*
X39703333Y4682619D01*
X40512857Y4206428D02*
X40846190Y4206428D01*
X40989047Y3682619D02*
X40512857Y3682619D01*
X40512857Y4682619D01*
X40989047Y4682619D01*
D11*
%TO.C,X1*%
X32159121Y45774428D02*
X32376835Y45774428D01*
X32485692Y45828857D01*
X32540121Y45883285D01*
X32648978Y46046571D01*
X32703407Y46264285D01*
X32703407Y46699714D01*
X32648978Y46808571D01*
X32594550Y46863000D01*
X32485692Y46917428D01*
X32267978Y46917428D01*
X32159121Y46863000D01*
X32104692Y46808571D01*
X32050264Y46699714D01*
X32050264Y46427571D01*
X32104692Y46318714D01*
X32159121Y46264285D01*
X32267978Y46209857D01*
X32485692Y46209857D01*
X32594550Y46264285D01*
X32648978Y46318714D01*
X32703407Y46427571D01*
X18098407Y43234428D02*
X17445264Y43234428D01*
X17771835Y43234428D02*
X17771835Y44377428D01*
X17662978Y44214142D01*
X17554121Y44105285D01*
X17445264Y44050857D01*
X17989550Y46917428D02*
X17771835Y46917428D01*
X17662978Y46863000D01*
X17608550Y46808571D01*
X17499692Y46645285D01*
X17445264Y46427571D01*
X17445264Y45992142D01*
X17499692Y45883285D01*
X17554121Y45828857D01*
X17662978Y45774428D01*
X17880692Y45774428D01*
X17989550Y45828857D01*
X18043978Y45883285D01*
X18098407Y45992142D01*
X18098407Y46264285D01*
X18043978Y46373142D01*
X17989550Y46427571D01*
X17880692Y46482000D01*
X17662978Y46482000D01*
X17554121Y46427571D01*
X17499692Y46373142D01*
X17445264Y46264285D01*
X32648978Y44377428D02*
X32104692Y44377428D01*
X32050264Y43833142D01*
X32104692Y43887571D01*
X32213550Y43942000D01*
X32485692Y43942000D01*
X32594550Y43887571D01*
X32648978Y43833142D01*
X32703407Y43724285D01*
X32703407Y43452142D01*
X32648978Y43343285D01*
X32594550Y43288857D01*
X32485692Y43234428D01*
X32213550Y43234428D01*
X32104692Y43288857D01*
X32050264Y43343285D01*
D12*
%TO.C,LR*%
X46880000Y28232000D02*
X46880000Y26632000D01*
X47480000Y23512000D02*
X47480000Y28812000D01*
X47480000Y25692000D02*
X46880000Y25692000D01*
X41460000Y23512000D02*
X47480000Y23512000D01*
X42990000Y27182000D02*
X42990000Y25142000D01*
X46880000Y26632000D02*
X47480000Y26632000D01*
X47480000Y28232000D02*
X46880000Y28232000D01*
X47480000Y28812000D02*
X41460000Y28812000D01*
X41460000Y25142000D02*
X42460000Y25142000D01*
X46450000Y29102000D02*
X42450000Y29102000D01*
X41460000Y27432000D02*
X42460000Y27432000D01*
X42990000Y25142000D02*
X42460000Y24892000D01*
X46880000Y25692000D02*
X46880000Y24092000D01*
X46880000Y24092000D02*
X47480000Y24092000D01*
X41460000Y28812000D02*
X41460000Y23512000D01*
X42460000Y24892000D02*
X41460000Y24892000D01*
X42460000Y27432000D02*
X42990000Y27182000D01*
X42460000Y27432000D02*
X42460000Y24892000D01*
X41460000Y27182000D02*
X42460000Y27182000D01*
%TO.C,VOLTAGE*%
X7870000Y9735000D02*
X7620000Y10265000D01*
X16620000Y5245000D02*
X16620000Y11265000D01*
X13500000Y5845000D02*
X11900000Y5845000D01*
X7870000Y11265000D02*
X7870000Y10265000D01*
X11900000Y5845000D02*
X11900000Y5245000D01*
X15240000Y10265000D02*
X14990000Y9735000D01*
X13500000Y5245000D02*
X13500000Y5845000D01*
X15240000Y11265000D02*
X15240000Y10265000D01*
X16620000Y11265000D02*
X6240000Y11265000D01*
X15240000Y10265000D02*
X7620000Y10265000D01*
X16040000Y5245000D02*
X16040000Y5845000D01*
X8420000Y5845000D02*
X6820000Y5845000D01*
X6240000Y11265000D02*
X6240000Y5245000D01*
X16910000Y6275000D02*
X16910000Y10275000D01*
X10960000Y5845000D02*
X9360000Y5845000D01*
X14990000Y9735000D02*
X7870000Y9735000D01*
X14440000Y5845000D02*
X14440000Y5245000D01*
X16040000Y5845000D02*
X14440000Y5845000D01*
X9360000Y5845000D02*
X9360000Y5245000D01*
X6820000Y5845000D02*
X6820000Y5245000D01*
X10960000Y5245000D02*
X10960000Y5845000D01*
X6240000Y5245000D02*
X16620000Y5245000D01*
X8420000Y5245000D02*
X8420000Y5845000D01*
X7620000Y10265000D02*
X7620000Y11265000D01*
X14990000Y11265000D02*
X14990000Y10265000D01*
%TO.C,TEMP*%
X22038000Y9458000D02*
X22038000Y6798000D01*
X27178000Y9458000D02*
X27178000Y6798000D01*
X29778000Y6798000D02*
X28448000Y6798000D01*
X27178000Y6798000D02*
X22038000Y6798000D01*
X27178000Y9458000D02*
X22038000Y9458000D01*
X29778000Y8128000D02*
X29778000Y6798000D01*
%TO.C,R4*%
X32290000Y31015000D02*
X38830000Y31015000D01*
X32290000Y33755000D02*
X38830000Y33755000D01*
X38830000Y31015000D02*
X38830000Y31345000D01*
X38830000Y33755000D02*
X38830000Y33425000D01*
X32290000Y31345000D02*
X32290000Y31015000D01*
X32290000Y33425000D02*
X32290000Y33755000D01*
%TO.C,LV*%
X41460000Y32762000D02*
X42460000Y32762000D01*
X41460000Y35052000D02*
X42460000Y35052000D01*
X42990000Y32762000D02*
X42460000Y32512000D01*
X47480000Y35852000D02*
X46880000Y35852000D01*
X42990000Y34802000D02*
X42990000Y32762000D01*
X46880000Y34252000D02*
X47480000Y34252000D01*
X46450000Y36722000D02*
X42450000Y36722000D01*
X46880000Y33312000D02*
X46880000Y31712000D01*
X47480000Y36432000D02*
X41460000Y36432000D01*
X47480000Y33312000D02*
X46880000Y33312000D01*
X42460000Y35052000D02*
X42460000Y32512000D01*
X46880000Y35852000D02*
X46880000Y34252000D01*
X42460000Y35052000D02*
X42990000Y34802000D01*
X41460000Y31132000D02*
X47480000Y31132000D01*
X41460000Y36432000D02*
X41460000Y31132000D01*
X46880000Y31712000D02*
X47480000Y31712000D01*
X47480000Y31132000D02*
X47480000Y36432000D01*
X42460000Y32512000D02*
X41460000Y32512000D01*
X41460000Y34802000D02*
X42460000Y34802000D01*
%TO.C,C1*%
X18315000Y39470000D02*
X26055000Y39470000D01*
X26055000Y39470000D02*
X26055000Y36730000D01*
X18315000Y39470000D02*
X18315000Y36730000D01*
X18315000Y36730000D02*
X26055000Y36730000D01*
%TO.C,C4*%
X6290000Y39470000D02*
X6290000Y36730000D01*
X14030000Y39470000D02*
X14030000Y36730000D01*
X6290000Y36730000D02*
X14030000Y36730000D01*
X6290000Y39470000D02*
X14030000Y39470000D01*
%TO.C,R3*%
X32290000Y24665000D02*
X38830000Y24665000D01*
X32290000Y27405000D02*
X38830000Y27405000D01*
X38830000Y24665000D02*
X38830000Y24995000D01*
X32290000Y24995000D02*
X32290000Y24665000D01*
X32290000Y27075000D02*
X32290000Y27405000D01*
X38830000Y27405000D02*
X38830000Y27075000D01*
%TO.C,B*%
X41460000Y19308000D02*
X42460000Y19308000D01*
X46880000Y17818000D02*
X46880000Y16218000D01*
X41460000Y20938000D02*
X41460000Y15638000D01*
X46880000Y18758000D02*
X47480000Y18758000D01*
X42460000Y19558000D02*
X42990000Y19308000D01*
X41460000Y17268000D02*
X42460000Y17268000D01*
X46880000Y16218000D02*
X47480000Y16218000D01*
X47480000Y20938000D02*
X41460000Y20938000D01*
X47480000Y17818000D02*
X46880000Y17818000D01*
X47480000Y20358000D02*
X46880000Y20358000D01*
X47480000Y15638000D02*
X47480000Y20938000D01*
X46880000Y20358000D02*
X46880000Y18758000D01*
X46450000Y21228000D02*
X42450000Y21228000D01*
X42990000Y19308000D02*
X42990000Y17268000D01*
X42990000Y17268000D02*
X42460000Y17018000D01*
X42460000Y19558000D02*
X42460000Y17018000D01*
X41460000Y15638000D02*
X47480000Y15638000D01*
X42460000Y17018000D02*
X41460000Y17018000D01*
X41460000Y19558000D02*
X42460000Y19558000D01*
%TO.C,R2*%
X32290000Y18645000D02*
X32290000Y18315000D01*
X38830000Y21055000D02*
X38830000Y20725000D01*
X32290000Y18315000D02*
X38830000Y18315000D01*
X38830000Y18315000D02*
X38830000Y18645000D01*
X32290000Y21055000D02*
X38830000Y21055000D01*
X32290000Y20725000D02*
X32290000Y21055000D01*
%TO.C,R1*%
X24352000Y25630000D02*
X24352000Y25300000D01*
X17812000Y25300000D02*
X17812000Y25630000D01*
X24352000Y28040000D02*
X17812000Y28040000D01*
X24352000Y27710000D02*
X24352000Y28040000D01*
X17812000Y28040000D02*
X17812000Y27710000D01*
X24352000Y25300000D02*
X17812000Y25300000D01*
%TO.C,RELE*%
X43180000Y10245000D02*
X35560000Y10245000D01*
X35560000Y10245000D02*
X35560000Y11245000D01*
X44560000Y11245000D02*
X34180000Y11245000D01*
X34760000Y5825000D02*
X34760000Y5225000D01*
X35810000Y9715000D02*
X35560000Y10245000D01*
X41440000Y5825000D02*
X39840000Y5825000D01*
X41440000Y5225000D02*
X41440000Y5825000D01*
X43180000Y11245000D02*
X43180000Y10245000D01*
X44850000Y6255000D02*
X44850000Y10255000D01*
X36360000Y5225000D02*
X36360000Y5825000D01*
X43980000Y5825000D02*
X42380000Y5825000D01*
X44560000Y5225000D02*
X44560000Y11245000D01*
X39840000Y5825000D02*
X39840000Y5225000D01*
X36360000Y5825000D02*
X34760000Y5825000D01*
X42930000Y11245000D02*
X42930000Y10245000D01*
X35810000Y11245000D02*
X35810000Y10245000D01*
X38900000Y5825000D02*
X37300000Y5825000D01*
X42930000Y9715000D02*
X35810000Y9715000D01*
X42380000Y5825000D02*
X42380000Y5225000D01*
X43180000Y10245000D02*
X42930000Y9715000D01*
X34180000Y5225000D02*
X44560000Y5225000D01*
X43980000Y5225000D02*
X43980000Y5825000D01*
X38900000Y5225000D02*
X38900000Y5825000D01*
X34180000Y11245000D02*
X34180000Y5225000D01*
X37300000Y5825000D02*
X37300000Y5225000D01*
%TO.C,Q1*%
X30172500Y19155000D02*
X30172500Y22755000D01*
X30160978Y22793478D02*
G75*
G03*
X25722500Y20955000I-1838478J-1838478D01*
G01*
X25722499Y20955000D02*
G75*
G03*
X30160978Y19116522I2600001J0D01*
G01*
D13*
%TO.C,X1*%
X9271000Y52705000D02*
X9271000Y52578000D01*
X9271000Y56261000D02*
X9271000Y56769000D01*
X17145000Y62992000D02*
X17399000Y62992000D01*
X14351000Y55753000D02*
X14478000Y55753000D01*
X39751000Y41910000D02*
X40259000Y42418000D01*
X34290000Y42418000D02*
X34290000Y52705000D01*
X15494000Y52705000D02*
X34036000Y52705000D01*
X15494000Y52705000D02*
X15494000Y51943000D01*
X32131000Y62992000D02*
X32385000Y62992000D01*
X9271000Y52705000D02*
X9271000Y55753000D01*
X17018000Y56769000D02*
X32512000Y56769000D01*
X32512000Y56769000D02*
X40259000Y56769000D01*
X32893000Y57404000D02*
X32893000Y62484000D01*
X34798000Y41910000D02*
X39751000Y41910000D01*
X9271000Y52705000D02*
X14351000Y52705000D01*
X40259000Y52705000D02*
X40259000Y52578000D01*
X40259000Y55753000D02*
X40259000Y52705000D01*
X9271000Y42545000D02*
X9271000Y52578000D01*
X34290000Y42418000D02*
X34798000Y41910000D01*
X17399000Y62992000D02*
X32131000Y62992000D01*
X14351000Y56261000D02*
X35179000Y56261000D01*
X9271000Y56261000D02*
X11811000Y56261000D01*
X15494000Y51943000D02*
X34036000Y51943000D01*
X14351000Y52705000D02*
X15240000Y52705000D01*
X14732000Y41910000D02*
X15240000Y42418000D01*
X14351000Y55753000D02*
X14351000Y56261000D01*
X35179000Y52705000D02*
X40259000Y52705000D01*
X14478000Y53340000D02*
X14478000Y55753000D01*
X15240000Y42418000D02*
X15240000Y52705000D01*
X35179000Y56261000D02*
X37719000Y56261000D01*
X11811000Y56261000D02*
X14351000Y56261000D01*
X9906000Y41910000D02*
X9271000Y42545000D01*
X35052000Y53340000D02*
X35052000Y55753000D01*
X34036000Y52705000D02*
X34036000Y51943000D01*
X16637000Y57404000D02*
X16637000Y62484000D01*
X35052000Y55753000D02*
X35179000Y55753000D01*
X9271000Y55753000D02*
X9271000Y56261000D01*
X34290000Y52705000D02*
X35179000Y52705000D01*
X37719000Y56261000D02*
X40259000Y56261000D01*
X35179000Y55753000D02*
X35179000Y56261000D01*
X40259000Y56769000D02*
X40259000Y56261000D01*
X40259000Y42418000D02*
X40259000Y52578000D01*
X40259000Y56261000D02*
X40259000Y55753000D01*
X14732000Y41910000D02*
X9906000Y41910000D01*
X15240000Y52705000D02*
X15494000Y52705000D01*
X34036000Y52705000D02*
X34290000Y52705000D01*
X9271000Y56769000D02*
X17018000Y56769000D01*
X14478000Y53340000D02*
G75*
G03*
X15113000Y52705000I634999J-1D01*
G01*
X32893000Y57404000D02*
G75*
G03*
X33528000Y56769000I635000J0D01*
G01*
X17145000Y62992000D02*
G75*
G03*
X16637000Y62484000I1J-508001D01*
G01*
X34417000Y52705000D02*
G75*
G03*
X35052000Y53340000I0J635000D01*
G01*
X16002000Y56769000D02*
G75*
G03*
X16637000Y57404000I1J634999D01*
G01*
X32893000Y62484000D02*
G75*
G03*
X32385000Y62992000I-508000J0D01*
G01*
X38938200Y45085000D02*
G75*
G03*
X38938200Y45085000I-1651000J0D01*
G01*
X13893800Y45085000D02*
G75*
G03*
X13893800Y45085000I-1651000J0D01*
G01*
G36*
X27914600Y44704000D02*
G01*
X27101800Y44704000D01*
X27101800Y51943000D01*
X27914600Y51943000D01*
X27914600Y44704000D01*
G37*
G36*
X29286200Y47244000D02*
G01*
X28473400Y47244000D01*
X28473400Y51943000D01*
X29286200Y51943000D01*
X29286200Y47244000D01*
G37*
G36*
X23799800Y47244000D02*
G01*
X22987000Y47244000D01*
X22987000Y51943000D01*
X23799800Y51943000D01*
X23799800Y47244000D01*
G37*
G36*
X40259000Y56261000D02*
G01*
X9271000Y56261000D01*
X9271000Y56769000D01*
X40259000Y56769000D01*
X40259000Y56261000D01*
G37*
G36*
X34036000Y51943000D02*
G01*
X15494000Y51943000D01*
X15494000Y52705000D01*
X34036000Y52705000D01*
X34036000Y51943000D01*
G37*
G36*
X22428200Y44704000D02*
G01*
X21615400Y44704000D01*
X21615400Y51943000D01*
X22428200Y51943000D01*
X22428200Y44704000D01*
G37*
G36*
X30657800Y44704000D02*
G01*
X29845000Y44704000D01*
X29845000Y51943000D01*
X30657800Y51943000D01*
X30657800Y44704000D01*
G37*
G36*
X26517600Y47244000D02*
G01*
X25704800Y47244000D01*
X25704800Y51943000D01*
X26517600Y51943000D01*
X26517600Y47244000D01*
G37*
G36*
X25146000Y44704000D02*
G01*
X24333200Y44704000D01*
X24333200Y51943000D01*
X25146000Y51943000D01*
X25146000Y44704000D01*
G37*
G36*
X19685000Y44704000D02*
G01*
X18872200Y44704000D01*
X18872200Y51943000D01*
X19685000Y51943000D01*
X19685000Y44704000D01*
G37*
G36*
X21056600Y47244000D02*
G01*
X20243800Y47244000D01*
X20243800Y51943000D01*
X21056600Y51943000D01*
X21056600Y47244000D01*
G37*
D12*
%TO.C,C2*%
X30420000Y39470000D02*
X30420000Y36730000D01*
X38160000Y39470000D02*
X38160000Y36730000D01*
X30420000Y36730000D02*
X38160000Y36730000D01*
X30420000Y39470000D02*
X38160000Y39470000D01*
%TD*%
M02*
