%TF.GenerationSoftware,KiCad,Pcbnew,(6.0.6)*%
%TF.CreationDate,2022-08-24T17:57:08-03:00*%
%TF.ProjectId,hub_interior,6875625f-696e-4746-9572-696f722e6b69,rev?*%
%TF.SameCoordinates,Original*%
%TF.FileFunction,Copper,L2,Bot*%
%TF.FilePolarity,Positive*%
%FSLAX46Y46*%
G04 Gerber Fmt 4.6, Leading zero omitted, Abs format (unit mm)*
G04 Created by KiCad (PCBNEW (6.0.6)) date 2022-08-24 17:57:08*
%MOMM*%
%LPD*%
G01*
G04 APERTURE LIST*
%TA.AperFunction,ComponentPad*%
%ADD10O,3.800000X1.900000*%
%TD*%
%TA.AperFunction,ComponentPad*%
%ADD11O,1.900000X3.800000*%
%TD*%
%TA.AperFunction,ComponentPad*%
%ADD12C,2.000000*%
%TD*%
%TA.AperFunction,ComponentPad*%
%ADD13C,1.600000*%
%TD*%
%TA.AperFunction,ComponentPad*%
%ADD14C,5.080000*%
%TD*%
%TA.AperFunction,ViaPad*%
%ADD15C,2.000000*%
%TD*%
%TA.AperFunction,Conductor*%
%ADD16C,1.000000*%
%TD*%
%TA.AperFunction,Conductor*%
%ADD17C,0.600000*%
%TD*%
G04 APERTURE END LIST*
D10*
%TO.P,LR,1,S*%
%TO.N,+5V*%
X44450000Y24892000D03*
%TO.P,LR,2,S*%
%TO.N,Net-(R3-Pad2)*%
X44450000Y27432000D03*
%TD*%
D11*
%TO.P,VOLTAGE,1,S*%
%TO.N,GND*%
X6985000Y8275000D03*
%TO.P,VOLTAGE,2,S*%
%TO.N,Net-(VOLTAGE0-Pad2)*%
X9525000Y8275000D03*
%TO.P,VOLTAGE,3,S*%
%TO.N,GND*%
X12065000Y8275000D03*
%TO.P,VOLTAGE,4,S*%
%TO.N,+5V*%
X14605000Y8275000D03*
%TD*%
%TO.P,TEMP,1,1*%
%TO.N,Net-(JP1-Pad1)*%
X27925000Y8255000D03*
%TO.P,TEMP,2,2*%
%TO.N,+5V*%
X25385000Y8255000D03*
%TO.P,TEMP,3,3*%
%TO.N,GND*%
X22845000Y8255000D03*
%TD*%
D12*
%TO.P,R4,1,1*%
%TO.N,+5V*%
X31750000Y32385000D03*
%TO.P,R4,2,2*%
%TO.N,Net-(LED0-Pad1)*%
X39370000Y32385000D03*
%TD*%
D10*
%TO.P,LV,1,S*%
%TO.N,Net-(LED0-Pad1)*%
X44450000Y32512000D03*
%TO.P,LV,2,S*%
%TO.N,GND*%
X44450000Y35052000D03*
%TD*%
D12*
%TO.P,C1,1,1*%
%TO.N,Net-(C1-Pad1)*%
X19685000Y38100000D03*
%TO.P,C1,2,2*%
%TO.N,GND*%
X24685000Y38100000D03*
%TD*%
%TO.P,C4,1,1*%
%TO.N,Net-(C4-Pad1)*%
X7660000Y38100000D03*
%TO.P,C4,2,2*%
%TO.N,GND*%
X12660000Y38100000D03*
%TD*%
%TO.P,R3,1,1*%
%TO.N,Net-(Q1-Pad3)*%
X31750000Y26035000D03*
%TO.P,R3,2,2*%
%TO.N,Net-(R3-Pad2)*%
X39370000Y26035000D03*
%TD*%
D10*
%TO.P,B,1,S*%
%TO.N,+5V*%
X44450000Y17018000D03*
%TO.P,B,2,S*%
%TO.N,Net-(R2-Pad2)*%
X44450000Y19558000D03*
%TD*%
D12*
%TO.P,R2,1,1*%
%TO.N,Net-(Q1-Pad3)*%
X31750000Y19685000D03*
%TO.P,R2,2,2*%
%TO.N,Net-(R2-Pad2)*%
X39370000Y19685000D03*
%TD*%
%TO.P,R1,1,1*%
%TO.N,Net-(Q1-Pad2)*%
X24892000Y26035000D03*
%TO.P,R1,2,2*%
%TO.N,Net-(C1-Pad1)*%
X17272000Y26035000D03*
%TD*%
D11*
%TO.P,RELE,1,S*%
%TO.N,GND*%
X36195000Y8255000D03*
%TO.P,RELE,2,S*%
%TO.N,Net-(C4-Pad1)*%
X38735000Y8255000D03*
%TO.P,RELE,3,S*%
%TO.N,GND*%
X41275000Y8255000D03*
%TO.P,RELE,4,S*%
%TO.N,+5V*%
X43815000Y8255000D03*
%TD*%
D13*
%TO.P,Q1,1,E*%
%TO.N,GND*%
X27052500Y22225000D03*
%TO.P,Q1,2,B*%
%TO.N,Net-(Q1-Pad2)*%
X25052500Y20955000D03*
%TO.P,Q1,3,C*%
%TO.N,Net-(Q1-Pad3)*%
X27052500Y19685000D03*
%TD*%
D12*
%TO.P,X1,1,1*%
%TO.N,unconnected-(X1-Pad1)*%
X19278600Y43815000D03*
%TO.P,X1,2,2*%
%TO.N,Net-(C1-Pad1)*%
X22021800Y43815000D03*
%TO.P,X1,3,3*%
%TO.N,unconnected-(X1-Pad3)*%
X24765000Y43815000D03*
%TO.P,X1,4,4*%
%TO.N,Net-(VOLTAGE0-Pad2)*%
X27508200Y43815000D03*
%TO.P,X1,5,5*%
%TO.N,unconnected-(X1-Pad5)*%
X30251400Y43815000D03*
%TO.P,X1,6,6*%
%TO.N,Net-(JP1-Pad1)*%
X20650200Y46355000D03*
%TO.P,X1,7,7*%
%TO.N,Net-(C4-Pad1)*%
X23393400Y46355000D03*
%TO.P,X1,8,8*%
%TO.N,unconnected-(X1-Pad8)*%
X26136600Y46355000D03*
%TO.P,X1,9,9*%
%TO.N,+5V*%
X28879800Y46355000D03*
D14*
%TO.P,X1,G1,G1*%
%TO.N,unconnected-(X1-PadG1)*%
X12242800Y45085000D03*
%TO.P,X1,G2,G2*%
%TO.N,unconnected-(X1-PadG2)*%
X37287200Y45085000D03*
%TD*%
D12*
%TO.P,C2,1,1*%
%TO.N,+5V*%
X31790000Y38100000D03*
%TO.P,C2,2,2*%
%TO.N,GND*%
X36790000Y38100000D03*
%TD*%
D15*
%TO.N,GND*%
X17145000Y22860000D03*
X11430000Y22860000D03*
%TO.N,Net-(C4-Pad1)*%
X31750000Y15875000D03*
X5080000Y15875000D03*
%TO.N,Net-(VOLTAGE0-Pad2)*%
X23495000Y32385000D03*
X7620000Y32385000D03*
%TD*%
D16*
%TO.N,+5V*%
X31790000Y41362000D02*
X33020000Y42592000D01*
X31790000Y38100000D02*
X31790000Y41362000D01*
X31790000Y38100000D02*
X31790000Y32425000D01*
X31750000Y32385000D02*
X35560000Y32385000D01*
X32385000Y46355000D02*
X28879800Y46355000D01*
X33020000Y45720000D02*
X32385000Y46355000D01*
X33020000Y42592000D02*
X33020000Y45720000D01*
X37084000Y30861000D02*
X37084000Y22352000D01*
X35560000Y32385000D02*
X37084000Y30861000D01*
X25385000Y8255000D02*
X25385000Y4460000D01*
X25400000Y4445000D02*
X15240000Y4445000D01*
X43180000Y4445000D02*
X25400000Y4445000D01*
X25385000Y4460000D02*
X25400000Y4445000D01*
%TO.N,Net-(JP1-Pad1)*%
X26670000Y12065000D02*
X17780000Y12065000D01*
X27925000Y10810000D02*
X26670000Y12065000D01*
X27925000Y8255000D02*
X27925000Y10810000D01*
%TO.N,Net-(C1-Pad1)*%
X22021800Y43815000D02*
X22021800Y40436800D01*
X17272000Y35687000D02*
X19685000Y38100000D01*
X22021800Y40436800D02*
X19685000Y38100000D01*
X17272000Y26035000D02*
X17272000Y35687000D01*
D17*
%TO.N,GND*%
X11430000Y22860000D02*
X11430000Y25654000D01*
X17145000Y22860000D02*
X21590000Y22860000D01*
X11430000Y22860000D02*
X11430000Y20955000D01*
D16*
%TO.N,+5V*%
X38227000Y17018000D02*
X37084000Y18161000D01*
X44450000Y17018000D02*
X38227000Y17018000D01*
X43815000Y5080000D02*
X43180000Y4445000D01*
X38862000Y22352000D02*
X37084000Y22352000D01*
X43815000Y8255000D02*
X43815000Y5080000D01*
X31790000Y32425000D02*
X31750000Y32385000D01*
X38227000Y17018000D02*
X43815000Y11430000D01*
X14605000Y5080000D02*
X14605000Y8275000D01*
X15240000Y4445000D02*
X14605000Y5080000D01*
X37084000Y18161000D02*
X37084000Y22352000D01*
X44450000Y24892000D02*
X41402000Y24892000D01*
X41402000Y24892000D02*
X38862000Y22352000D01*
X43815000Y11430000D02*
X43815000Y8255000D01*
%TO.N,Net-(C4-Pad1)*%
X34290000Y15875000D02*
X38735000Y11430000D01*
X9398000Y48768000D02*
X22606000Y48768000D01*
X5080000Y35520000D02*
X7660000Y38100000D01*
X23393400Y47980600D02*
X23393400Y46355000D01*
X38735000Y11430000D02*
X38735000Y8255000D01*
X22606000Y48768000D02*
X23393400Y47980600D01*
X31750000Y15875000D02*
X34290000Y15875000D01*
X5080000Y15875000D02*
X5080000Y35520000D01*
X7660000Y38100000D02*
X7660000Y47030000D01*
X7660000Y47030000D02*
X9398000Y48768000D01*
%TO.N,Net-(JP1-Pad1)*%
X16510000Y44958000D02*
X17907000Y46355000D01*
X17780000Y12065000D02*
X14605000Y15240000D01*
X14605000Y36195000D02*
X16510000Y38100000D01*
X17907000Y46355000D02*
X20650200Y46355000D01*
X14605000Y15240000D02*
X14605000Y36195000D01*
X16510000Y38100000D02*
X16510000Y44958000D01*
%TO.N,Net-(LED0-Pad1)*%
X39370000Y32385000D02*
X44323000Y32385000D01*
X44323000Y32385000D02*
X44450000Y32512000D01*
%TO.N,Net-(Q1-Pad2)*%
X24892000Y26035000D02*
X24892000Y21115500D01*
X24892000Y21115500D02*
X25052500Y20955000D01*
%TO.N,Net-(Q1-Pad3)*%
X31750000Y22225000D02*
X31750000Y26035000D01*
X27052500Y19685000D02*
X31750000Y19685000D01*
X31750000Y19685000D02*
X31750000Y22225000D01*
%TO.N,Net-(R2-Pad2)*%
X44323000Y19685000D02*
X44450000Y19558000D01*
X39370000Y19685000D02*
X44323000Y19685000D01*
%TO.N,Net-(R3-Pad2)*%
X40767000Y27432000D02*
X44450000Y27432000D01*
X39370000Y26035000D02*
X40767000Y27432000D01*
%TO.N,Net-(VOLTAGE0-Pad2)*%
X9525000Y11049000D02*
X9525000Y8275000D01*
X23495000Y32385000D02*
X23749000Y32385000D01*
X27508200Y36144200D02*
X27508200Y43815000D01*
X23749000Y32385000D02*
X27508200Y36144200D01*
X7620000Y12954000D02*
X9525000Y11049000D01*
X7620000Y32385000D02*
X7620000Y12954000D01*
%TD*%
%TA.AperFunction,Conductor*%
%TO.N,GND*%
G36*
X7376476Y49179309D02*
G01*
X7469900Y49121464D01*
X7536119Y49033776D01*
X7566190Y48928088D01*
X7556051Y48818675D01*
X7507072Y48720312D01*
X7479890Y48689075D01*
X6820864Y48030049D01*
X6820861Y48030047D01*
X6659953Y47869139D01*
X6652468Y47858449D01*
X6652467Y47858448D01*
X6634750Y47833145D01*
X6618872Y47812453D01*
X6599021Y47788796D01*
X6599014Y47788786D01*
X6590623Y47778786D01*
X6568640Y47740711D01*
X6554639Y47718733D01*
X6529432Y47682734D01*
X6523918Y47670909D01*
X6523916Y47670906D01*
X6510860Y47642909D01*
X6498822Y47619783D01*
X6476844Y47581715D01*
X6472381Y47569454D01*
X6472380Y47569451D01*
X6461813Y47540419D01*
X6451834Y47516327D01*
X6438779Y47488331D01*
X6438776Y47488324D01*
X6433261Y47476496D01*
X6425184Y47446350D01*
X6421888Y47434051D01*
X6414046Y47409181D01*
X6403480Y47380150D01*
X6403478Y47380142D01*
X6399015Y47367880D01*
X6396749Y47355027D01*
X6396748Y47355025D01*
X6391384Y47324605D01*
X6385742Y47299150D01*
X6374365Y47256692D01*
X6373227Y47243682D01*
X6370536Y47212925D01*
X6367131Y47187063D01*
X6359499Y47143779D01*
X6359499Y46916233D01*
X6359500Y46916209D01*
X6359500Y39460289D01*
X6339309Y39352278D01*
X6290384Y39269097D01*
X6190075Y39148488D01*
X6051244Y38919702D01*
X6046958Y38909480D01*
X6046954Y38909473D01*
X5975246Y38738467D01*
X5947755Y38672909D01*
X5945025Y38662161D01*
X5945023Y38662154D01*
X5933572Y38617065D01*
X5881881Y38413530D01*
X5880770Y38402497D01*
X5880770Y38402496D01*
X5864295Y38238879D01*
X5833384Y38133434D01*
X5778224Y38057409D01*
X4240864Y36520049D01*
X4240861Y36520047D01*
X4079953Y36359139D01*
X4072468Y36348449D01*
X4072467Y36348448D01*
X4054750Y36323145D01*
X4038872Y36302453D01*
X4019021Y36278796D01*
X4019014Y36278786D01*
X4010623Y36268786D01*
X3988640Y36230711D01*
X3974639Y36208733D01*
X3949432Y36172734D01*
X3943918Y36160909D01*
X3943916Y36160906D01*
X3930860Y36132909D01*
X3918822Y36109783D01*
X3896844Y36071715D01*
X3892381Y36059454D01*
X3892380Y36059451D01*
X3881813Y36030419D01*
X3871834Y36006327D01*
X3858779Y35978331D01*
X3858776Y35978324D01*
X3853261Y35966496D01*
X3843699Y35930808D01*
X3841888Y35924051D01*
X3834046Y35899181D01*
X3823480Y35870150D01*
X3823478Y35870142D01*
X3819015Y35857880D01*
X3816749Y35845027D01*
X3816748Y35845025D01*
X3811384Y35814605D01*
X3805742Y35789150D01*
X3794365Y35746692D01*
X3792232Y35722314D01*
X3790536Y35702925D01*
X3787131Y35677063D01*
X3779499Y35633779D01*
X3779499Y35406233D01*
X3779500Y35406209D01*
X3779500Y17235289D01*
X3759309Y17127278D01*
X3710384Y17044097D01*
X3610075Y16923488D01*
X3471244Y16694702D01*
X3466958Y16684480D01*
X3466954Y16684473D01*
X3434974Y16608208D01*
X3367755Y16447909D01*
X3365025Y16437161D01*
X3365023Y16437154D01*
X3304611Y16199280D01*
X3301881Y16188530D01*
X3275070Y15922264D01*
X3275602Y15911185D01*
X3275602Y15911181D01*
X3286720Y15679713D01*
X3287909Y15654959D01*
X3340118Y15392488D01*
X3343865Y15382052D01*
X3343866Y15382048D01*
X3384724Y15268251D01*
X3430549Y15140617D01*
X3557215Y14904879D01*
X3563849Y14895994D01*
X3563851Y14895992D01*
X3710696Y14699343D01*
X3710700Y14699339D01*
X3717335Y14690453D01*
X3725211Y14682646D01*
X3725214Y14682642D01*
X3899509Y14509862D01*
X3899513Y14509859D01*
X3907390Y14502050D01*
X4123205Y14343808D01*
X4360039Y14219203D01*
X4612690Y14130974D01*
X4731885Y14108344D01*
X4864707Y14083126D01*
X4864711Y14083126D01*
X4875606Y14081057D01*
X4977163Y14077067D01*
X5131929Y14070986D01*
X5131935Y14070986D01*
X5143013Y14070551D01*
X5282918Y14085873D01*
X5398015Y14098478D01*
X5398017Y14098478D01*
X5409035Y14099685D01*
X5419751Y14102506D01*
X5419755Y14102507D01*
X5657104Y14164996D01*
X5657108Y14164997D01*
X5667829Y14167820D01*
X5902473Y14268630D01*
X6009682Y14292715D01*
X6118353Y14276445D01*
X6213809Y14222018D01*
X6283157Y14136783D01*
X6317031Y14032253D01*
X6319500Y13993911D01*
X6319500Y13067785D01*
X6319499Y13067779D01*
X6319499Y12840221D01*
X6321766Y12827365D01*
X6321766Y12827364D01*
X6327131Y12796940D01*
X6330536Y12771075D01*
X6334365Y12727308D01*
X6345742Y12684850D01*
X6351384Y12659395D01*
X6359015Y12616120D01*
X6363478Y12603858D01*
X6363480Y12603850D01*
X6374046Y12574819D01*
X6381886Y12549955D01*
X6393261Y12507504D01*
X6398776Y12495676D01*
X6398779Y12495669D01*
X6411834Y12467673D01*
X6421813Y12443581D01*
X6432380Y12414549D01*
X6436844Y12402285D01*
X6458820Y12364221D01*
X6470860Y12341091D01*
X6483916Y12313094D01*
X6489432Y12301266D01*
X6514639Y12265267D01*
X6528640Y12243289D01*
X6550623Y12205214D01*
X6559014Y12195214D01*
X6559021Y12195204D01*
X6578872Y12171547D01*
X6594750Y12150855D01*
X6609755Y12129426D01*
X6619953Y12114861D01*
X6780861Y11953953D01*
X6780863Y11953952D01*
X6957285Y11777530D01*
X7019383Y11686877D01*
X7044541Y11579914D01*
X7029360Y11471085D01*
X6975891Y11375090D01*
X6891355Y11304892D01*
X6777109Y11268742D01*
X6759907Y11266934D01*
X6498133Y11220777D01*
X6477918Y11215737D01*
X6225112Y11133595D01*
X6205791Y11125788D01*
X5966885Y11009266D01*
X5948841Y10998849D01*
X5728463Y10850202D01*
X5712055Y10837383D01*
X5514512Y10659514D01*
X5500039Y10644526D01*
X5329185Y10440910D01*
X5316926Y10424038D01*
X5176070Y10198621D01*
X5166291Y10180230D01*
X5058175Y9937397D01*
X5051047Y9917811D01*
X4977779Y9662298D01*
X4973448Y9641919D01*
X4936454Y9378697D01*
X4935000Y9357902D01*
X4935000Y8852708D01*
X4939425Y8829034D01*
X4953603Y8825000D01*
X7236000Y8825000D01*
X7344011Y8804809D01*
X7437435Y8746964D01*
X7503654Y8659276D01*
X7533725Y8553588D01*
X7535000Y8526000D01*
X7535000Y5375916D01*
X7539152Y5353705D01*
X7557011Y5355360D01*
X7744888Y5416405D01*
X7764209Y5424212D01*
X8003115Y5540734D01*
X8021159Y5551151D01*
X8241537Y5699798D01*
X8257945Y5712617D01*
X8312129Y5761405D01*
X8405907Y5818674D01*
X8514041Y5838199D01*
X8621925Y5817344D01*
X8644443Y5807370D01*
X8674619Y5792489D01*
X8867413Y5697414D01*
X8991311Y5657754D01*
X9104642Y5621476D01*
X9104645Y5621475D01*
X9115208Y5618094D01*
X9126156Y5616311D01*
X9361061Y5578054D01*
X9361068Y5578053D01*
X9372006Y5576272D01*
X9468919Y5575003D01*
X9621062Y5573011D01*
X9621067Y5573011D01*
X9632165Y5572866D01*
X9695547Y5581492D01*
X9878980Y5606456D01*
X9878984Y5606457D01*
X9889970Y5607952D01*
X9973612Y5632331D01*
X10129105Y5677653D01*
X10129108Y5677654D01*
X10139757Y5680758D01*
X10168551Y5694032D01*
X10332656Y5769686D01*
X10376039Y5789686D01*
X10385319Y5795770D01*
X10391961Y5799452D01*
X10496218Y5834158D01*
X10605973Y5828860D01*
X10706401Y5784271D01*
X10721005Y5773557D01*
X10907625Y5627753D01*
X10924898Y5616102D01*
X11155100Y5483195D01*
X11173829Y5474060D01*
X11420287Y5374484D01*
X11440103Y5368046D01*
X11488115Y5356075D01*
X11511613Y5354674D01*
X11515000Y5374602D01*
X11515000Y11174084D01*
X11510848Y11196295D01*
X11492989Y11194640D01*
X11305112Y11133595D01*
X11285796Y11125790D01*
X11227085Y11097155D01*
X11121154Y11067954D01*
X11011828Y11078991D01*
X10913871Y11128776D01*
X10840514Y11210585D01*
X10807202Y11288504D01*
X10801937Y11308153D01*
X10799259Y11318148D01*
X10793616Y11343605D01*
X10788252Y11374025D01*
X10788251Y11374027D01*
X10785985Y11386880D01*
X10781522Y11399142D01*
X10781520Y11399150D01*
X10770954Y11428181D01*
X10763112Y11453051D01*
X10760518Y11462734D01*
X10751739Y11495496D01*
X10746224Y11507324D01*
X10746221Y11507331D01*
X10733166Y11535327D01*
X10723187Y11559419D01*
X10712620Y11588451D01*
X10712619Y11588454D01*
X10708156Y11600715D01*
X10686178Y11638783D01*
X10674140Y11661909D01*
X10661084Y11689906D01*
X10661082Y11689909D01*
X10655568Y11701734D01*
X10630361Y11737733D01*
X10616360Y11759711D01*
X10594377Y11797786D01*
X10585986Y11807786D01*
X10585979Y11807796D01*
X10566128Y11831453D01*
X10550250Y11852145D01*
X10532533Y11877448D01*
X10532532Y11877449D01*
X10525047Y11888139D01*
X10364139Y12049047D01*
X10364136Y12049049D01*
X9008075Y13405110D01*
X8945977Y13495763D01*
X8920819Y13602726D01*
X8920500Y13616535D01*
X8920500Y21037000D01*
X8940691Y21145011D01*
X8998536Y21238435D01*
X9086224Y21304654D01*
X9191912Y21334725D01*
X9219500Y21336000D01*
X13005500Y21336000D01*
X13113511Y21315809D01*
X13206935Y21257964D01*
X13273154Y21170276D01*
X13303225Y21064588D01*
X13304500Y21037000D01*
X13304500Y15353785D01*
X13304499Y15353779D01*
X13304499Y15126221D01*
X13306766Y15113365D01*
X13306766Y15113364D01*
X13312131Y15082940D01*
X13315536Y15057075D01*
X13319365Y15013308D01*
X13330742Y14970850D01*
X13336384Y14945395D01*
X13344015Y14902120D01*
X13348478Y14889858D01*
X13348480Y14889850D01*
X13359046Y14860819D01*
X13366886Y14835955D01*
X13378261Y14793504D01*
X13383776Y14781676D01*
X13383779Y14781669D01*
X13396834Y14753673D01*
X13406813Y14729581D01*
X13421844Y14688285D01*
X13443820Y14650221D01*
X13455860Y14627091D01*
X13468916Y14599094D01*
X13474432Y14587266D01*
X13499639Y14551267D01*
X13513640Y14529289D01*
X13535623Y14491214D01*
X13544014Y14481214D01*
X13544021Y14481204D01*
X13563872Y14457547D01*
X13579750Y14436855D01*
X13604953Y14400861D01*
X13765861Y14239953D01*
X13765864Y14239951D01*
X16779951Y11225864D01*
X16779953Y11225861D01*
X16940861Y11064953D01*
X16951551Y11057468D01*
X16951552Y11057467D01*
X16976855Y11039750D01*
X16997547Y11023872D01*
X17021204Y11004021D01*
X17021214Y11004014D01*
X17031214Y10995623D01*
X17069289Y10973640D01*
X17091267Y10959639D01*
X17127266Y10934432D01*
X17139091Y10928918D01*
X17139094Y10928916D01*
X17167091Y10915860D01*
X17190217Y10903822D01*
X17228285Y10881844D01*
X17240546Y10877381D01*
X17240549Y10877380D01*
X17269581Y10866813D01*
X17293673Y10856834D01*
X17321669Y10843779D01*
X17321676Y10843776D01*
X17333504Y10838261D01*
X17375955Y10826886D01*
X17400819Y10819046D01*
X17429850Y10808480D01*
X17429858Y10808478D01*
X17442120Y10804015D01*
X17454973Y10801749D01*
X17454975Y10801748D01*
X17485395Y10796384D01*
X17510850Y10790742D01*
X17553308Y10779365D01*
X17586708Y10776443D01*
X17597075Y10775536D01*
X17622937Y10772131D01*
X17638152Y10769449D01*
X17653364Y10766766D01*
X17653365Y10766766D01*
X17666221Y10764499D01*
X17893779Y10764499D01*
X17893783Y10764500D01*
X20862758Y10764500D01*
X20970769Y10744309D01*
X21064193Y10686464D01*
X21130412Y10598776D01*
X21160483Y10493088D01*
X21150344Y10383675D01*
X21116324Y10307053D01*
X21036066Y10178614D01*
X21026291Y10160230D01*
X20918175Y9917397D01*
X20911047Y9897811D01*
X20837779Y9642298D01*
X20833448Y9621919D01*
X20796454Y9358697D01*
X20795000Y9337902D01*
X20795000Y8832708D01*
X20799425Y8809034D01*
X20813603Y8805000D01*
X23096000Y8805000D01*
X23204011Y8784809D01*
X23297435Y8726964D01*
X23363654Y8639276D01*
X23393725Y8533588D01*
X23395000Y8506000D01*
X23395000Y8004000D01*
X23374809Y7895989D01*
X23316964Y7802565D01*
X23229276Y7736346D01*
X23123588Y7706275D01*
X23096000Y7705000D01*
X20822708Y7705000D01*
X20799034Y7700575D01*
X20795000Y7686397D01*
X20795000Y7238626D01*
X20795363Y7228212D01*
X20809265Y7029415D01*
X20812165Y7008781D01*
X20867429Y6748781D01*
X20873173Y6728751D01*
X20964090Y6478960D01*
X20972557Y6459943D01*
X21097357Y6225226D01*
X21111277Y6202951D01*
X21151394Y6100654D01*
X21151847Y5990773D01*
X21112577Y5888148D01*
X21038885Y5806639D01*
X20940726Y5757254D01*
X20857714Y5745500D01*
X16205823Y5745500D01*
X16097812Y5765691D01*
X16004388Y5823536D01*
X15938169Y5911224D01*
X15908098Y6016912D01*
X15918237Y6126325D01*
X15967216Y6224688D01*
X15975939Y6235692D01*
X15983865Y6245222D01*
X16034105Y6305629D01*
X16039856Y6315107D01*
X16039860Y6315112D01*
X16127745Y6459943D01*
X16169080Y6528061D01*
X16269695Y6768001D01*
X16302289Y6896340D01*
X16331008Y7009422D01*
X16331009Y7009427D01*
X16333739Y7020177D01*
X16355500Y7236286D01*
X16355500Y9291044D01*
X16341126Y9484466D01*
X16283705Y9738232D01*
X16206254Y9937397D01*
X16193428Y9970379D01*
X16193426Y9970384D01*
X16189405Y9980723D01*
X16060299Y10206612D01*
X15899223Y10410936D01*
X15891140Y10418540D01*
X15717797Y10581605D01*
X15717792Y10581609D01*
X15709714Y10589208D01*
X15569521Y10686464D01*
X15505055Y10731186D01*
X15505051Y10731188D01*
X15495937Y10737511D01*
X15485986Y10742418D01*
X15485983Y10742420D01*
X15333972Y10817383D01*
X15262587Y10852586D01*
X15138689Y10892246D01*
X15025358Y10928524D01*
X15025355Y10928525D01*
X15014792Y10931906D01*
X14994437Y10935221D01*
X14768939Y10971946D01*
X14768932Y10971947D01*
X14757994Y10973728D01*
X14661081Y10974997D01*
X14508938Y10976989D01*
X14508933Y10976989D01*
X14497835Y10977134D01*
X14459715Y10971946D01*
X14251020Y10943544D01*
X14251016Y10943543D01*
X14240030Y10942048D01*
X14205234Y10931906D01*
X14000895Y10872347D01*
X14000892Y10872346D01*
X13990243Y10869242D01*
X13980171Y10864599D01*
X13980169Y10864598D01*
X13923040Y10838261D01*
X13753961Y10760314D01*
X13744681Y10754230D01*
X13738039Y10750548D01*
X13633782Y10715842D01*
X13524027Y10721140D01*
X13423599Y10765729D01*
X13408995Y10776443D01*
X13222375Y10922247D01*
X13205102Y10933898D01*
X12974900Y11066805D01*
X12956171Y11075940D01*
X12709713Y11175516D01*
X12689897Y11181954D01*
X12641885Y11193925D01*
X12618387Y11195326D01*
X12615000Y11175398D01*
X12615000Y5375916D01*
X12619152Y5353705D01*
X12637011Y5355360D01*
X12824888Y5416405D01*
X12844209Y5424212D01*
X12874424Y5438949D01*
X12980355Y5468152D01*
X13089681Y5457116D01*
X13187639Y5407332D01*
X13260997Y5325523D01*
X13299849Y5222739D01*
X13304499Y5170211D01*
X13304499Y4966221D01*
X13306766Y4953365D01*
X13306766Y4953364D01*
X13312131Y4922940D01*
X13315536Y4897075D01*
X13319365Y4853308D01*
X13330742Y4810850D01*
X13336384Y4785395D01*
X13341748Y4754978D01*
X13344015Y4742120D01*
X13348478Y4729858D01*
X13348480Y4729850D01*
X13359046Y4700819D01*
X13366884Y4675963D01*
X13378261Y4633504D01*
X13383776Y4621676D01*
X13383779Y4621669D01*
X13396834Y4593673D01*
X13406813Y4569581D01*
X13421844Y4528285D01*
X13443820Y4490221D01*
X13455860Y4467091D01*
X13468916Y4439094D01*
X13474432Y4427266D01*
X13499639Y4391267D01*
X13513640Y4369289D01*
X13535623Y4331214D01*
X13544014Y4321214D01*
X13544021Y4321204D01*
X13563872Y4297547D01*
X13579750Y4276855D01*
X13604953Y4240861D01*
X13765861Y4079953D01*
X13765864Y4079951D01*
X14239951Y3605864D01*
X14239953Y3605861D01*
X14400861Y3444953D01*
X14411551Y3437468D01*
X14411552Y3437467D01*
X14436855Y3419750D01*
X14457547Y3403872D01*
X14481204Y3384021D01*
X14481214Y3384014D01*
X14491214Y3375623D01*
X14529289Y3353640D01*
X14551267Y3339639D01*
X14587266Y3314432D01*
X14599091Y3308918D01*
X14599094Y3308916D01*
X14627091Y3295860D01*
X14650217Y3283822D01*
X14688285Y3261844D01*
X14700546Y3257381D01*
X14700549Y3257380D01*
X14729581Y3246813D01*
X14753673Y3236834D01*
X14775610Y3226605D01*
X14793504Y3218261D01*
X14835967Y3206883D01*
X14860830Y3199043D01*
X14902121Y3184015D01*
X14914978Y3181748D01*
X14945404Y3176383D01*
X14970865Y3170738D01*
X15013308Y3159365D01*
X15026310Y3158228D01*
X15026313Y3158227D01*
X15057075Y3155536D01*
X15082935Y3152131D01*
X15113358Y3146767D01*
X15113360Y3146767D01*
X15126221Y3144499D01*
X15353779Y3144499D01*
X15353783Y3144500D01*
X25286217Y3144500D01*
X25286221Y3144499D01*
X25513779Y3144499D01*
X25513783Y3144500D01*
X43066217Y3144500D01*
X43066221Y3144499D01*
X43293779Y3144499D01*
X43306635Y3146766D01*
X43306636Y3146766D01*
X43321848Y3149448D01*
X43337063Y3152131D01*
X43362925Y3155536D01*
X43365026Y3155720D01*
X43406692Y3159365D01*
X43449150Y3170742D01*
X43474605Y3176384D01*
X43505025Y3181748D01*
X43505027Y3181749D01*
X43517880Y3184015D01*
X43530142Y3188478D01*
X43530150Y3188480D01*
X43559181Y3199046D01*
X43584045Y3206886D01*
X43626496Y3218261D01*
X43638324Y3223776D01*
X43638331Y3223779D01*
X43666327Y3236834D01*
X43690419Y3246813D01*
X43719451Y3257380D01*
X43719454Y3257381D01*
X43731715Y3261844D01*
X43769783Y3283822D01*
X43792909Y3295860D01*
X43820906Y3308916D01*
X43820909Y3308918D01*
X43832734Y3314432D01*
X43868733Y3339639D01*
X43890711Y3353640D01*
X43928786Y3375623D01*
X43938786Y3384014D01*
X43938796Y3384021D01*
X43962453Y3403872D01*
X43983145Y3419750D01*
X44008448Y3437467D01*
X44008449Y3437468D01*
X44019139Y3444953D01*
X44180047Y3605861D01*
X44180049Y3605864D01*
X44654136Y4079951D01*
X44654139Y4079953D01*
X44815047Y4240861D01*
X44840250Y4276855D01*
X44856128Y4297547D01*
X44875979Y4321204D01*
X44875986Y4321214D01*
X44884377Y4331214D01*
X44906360Y4369289D01*
X44920361Y4391267D01*
X44945568Y4427266D01*
X44951084Y4439094D01*
X44964140Y4467091D01*
X44976180Y4490221D01*
X44998156Y4528285D01*
X45013187Y4569581D01*
X45023166Y4593673D01*
X45036222Y4621673D01*
X45041739Y4633504D01*
X45053117Y4675967D01*
X45060957Y4700830D01*
X45071519Y4729851D01*
X45075985Y4742121D01*
X45083617Y4785404D01*
X45089264Y4810873D01*
X45097256Y4840699D01*
X45100635Y4853308D01*
X45104464Y4897075D01*
X45107869Y4922935D01*
X45113233Y4953358D01*
X45113234Y4953364D01*
X45115501Y4966221D01*
X45115501Y5193779D01*
X45115500Y5193786D01*
X45115500Y6022909D01*
X45135691Y6130920D01*
X45184616Y6214101D01*
X45210499Y6245222D01*
X45244105Y6285629D01*
X45249856Y6295107D01*
X45249860Y6295112D01*
X45361421Y6478960D01*
X45379080Y6508061D01*
X45479695Y6748001D01*
X45543739Y7000177D01*
X45565500Y7216286D01*
X45565500Y9271044D01*
X45551126Y9464466D01*
X45546601Y9484466D01*
X45515498Y9621919D01*
X45493705Y9718232D01*
X45399405Y9960723D01*
X45270299Y10186612D01*
X45179690Y10301550D01*
X45128677Y10398872D01*
X45115500Y10486658D01*
X45115500Y11316209D01*
X45115501Y11316233D01*
X45115501Y11543779D01*
X45107869Y11587063D01*
X45104464Y11612925D01*
X45101773Y11643682D01*
X45100635Y11656692D01*
X45089258Y11699150D01*
X45083616Y11724605D01*
X45078252Y11755025D01*
X45078251Y11755027D01*
X45075985Y11767880D01*
X45071522Y11780142D01*
X45071520Y11780150D01*
X45060954Y11809181D01*
X45053112Y11834051D01*
X45045118Y11863885D01*
X45041739Y11876496D01*
X45036224Y11888324D01*
X45036221Y11888331D01*
X45023166Y11916327D01*
X45013187Y11940419D01*
X45002622Y11969445D01*
X45002622Y11969446D01*
X44998156Y11981715D01*
X44976171Y12019794D01*
X44964151Y12042883D01*
X44945568Y12082734D01*
X44920355Y12118743D01*
X44906348Y12140730D01*
X44884376Y12178786D01*
X44856132Y12212446D01*
X44840255Y12233138D01*
X44833158Y12243274D01*
X44815047Y12269139D01*
X44654139Y12430047D01*
X44654134Y12430050D01*
X44654126Y12430058D01*
X41877110Y15207075D01*
X41815012Y15297728D01*
X41789854Y15404691D01*
X41805035Y15513520D01*
X41858504Y15609515D01*
X41943040Y15679713D01*
X42047226Y15714633D01*
X42088535Y15717500D01*
X42217909Y15717500D01*
X42325920Y15697309D01*
X42409101Y15648384D01*
X42480629Y15588895D01*
X42490107Y15583144D01*
X42490112Y15583140D01*
X42594940Y15519529D01*
X42703061Y15453920D01*
X42943001Y15353305D01*
X43071340Y15320711D01*
X43184422Y15291992D01*
X43184427Y15291991D01*
X43195177Y15289261D01*
X43276701Y15281052D01*
X43403824Y15268251D01*
X43403832Y15268251D01*
X43411286Y15267500D01*
X45466044Y15267500D01*
X45659466Y15281874D01*
X45670287Y15284323D01*
X45670290Y15284323D01*
X45735341Y15299043D01*
X45913232Y15339295D01*
X46081397Y15404691D01*
X46145379Y15429572D01*
X46145384Y15429574D01*
X46155723Y15433595D01*
X46381612Y15562701D01*
X46585936Y15723777D01*
X46593540Y15731860D01*
X46756605Y15905203D01*
X46756609Y15905208D01*
X46764208Y15913286D01*
X46912511Y16127063D01*
X47027586Y16360413D01*
X47106906Y16608208D01*
X47108689Y16619156D01*
X47146946Y16854061D01*
X47146947Y16854068D01*
X47148728Y16865006D01*
X47150568Y17005568D01*
X47151989Y17114062D01*
X47151989Y17114067D01*
X47152134Y17125165D01*
X47126621Y17312632D01*
X47118544Y17371980D01*
X47118543Y17371984D01*
X47117048Y17382970D01*
X47054376Y17597988D01*
X47047347Y17622105D01*
X47047346Y17622108D01*
X47044242Y17632757D01*
X47024919Y17674673D01*
X46939958Y17858965D01*
X46935314Y17869039D01*
X46927767Y17880551D01*
X46821125Y18043207D01*
X46792659Y18086625D01*
X46785273Y18094901D01*
X46778517Y18103705D01*
X46780641Y18105334D01*
X46733617Y18183114D01*
X46714575Y18291334D01*
X46735912Y18399124D01*
X46767886Y18458588D01*
X46906186Y18657945D01*
X46906188Y18657949D01*
X46912511Y18667063D01*
X46944737Y18732410D01*
X47022679Y18890463D01*
X47027586Y18900413D01*
X47106906Y19148208D01*
X47133964Y19314350D01*
X47146946Y19394061D01*
X47146947Y19394068D01*
X47148728Y19405006D01*
X47152134Y19665165D01*
X47117048Y19922970D01*
X47044242Y20172757D01*
X46935314Y20409039D01*
X46792659Y20626625D01*
X46619409Y20820735D01*
X46419371Y20987105D01*
X46409893Y20992856D01*
X46409888Y20992860D01*
X46305060Y21056471D01*
X46196939Y21122080D01*
X45956999Y21222695D01*
X45818126Y21257964D01*
X45715578Y21284008D01*
X45715573Y21284009D01*
X45704823Y21286739D01*
X45612923Y21295993D01*
X45496176Y21307749D01*
X45496168Y21307749D01*
X45488714Y21308500D01*
X43433956Y21308500D01*
X43240534Y21294126D01*
X43229713Y21291677D01*
X43229710Y21291677D01*
X43164659Y21276957D01*
X42986768Y21236705D01*
X42908191Y21206148D01*
X42754621Y21146428D01*
X42754616Y21146426D01*
X42744277Y21142405D01*
X42734649Y21136902D01*
X42734636Y21136896D01*
X42538700Y21024909D01*
X42434906Y20988841D01*
X42390331Y20985500D01*
X40733948Y20985500D01*
X40625937Y21005691D01*
X40529080Y21066717D01*
X40506269Y21088175D01*
X40286385Y21240714D01*
X40194151Y21286199D01*
X40106210Y21352079D01*
X40048006Y21445280D01*
X40027399Y21553212D01*
X40047174Y21661301D01*
X40104660Y21754946D01*
X40114955Y21765770D01*
X41853109Y23503925D01*
X41943762Y23566023D01*
X42050725Y23591181D01*
X42064534Y23591500D01*
X42217909Y23591500D01*
X42325920Y23571309D01*
X42409101Y23522384D01*
X42480629Y23462895D01*
X42490107Y23457144D01*
X42490112Y23457140D01*
X42594940Y23393529D01*
X42703061Y23327920D01*
X42943001Y23227305D01*
X43071340Y23194711D01*
X43184422Y23165992D01*
X43184427Y23165991D01*
X43195177Y23163261D01*
X43276701Y23155052D01*
X43403824Y23142251D01*
X43403832Y23142251D01*
X43411286Y23141500D01*
X45466044Y23141500D01*
X45659466Y23155874D01*
X45670287Y23158323D01*
X45670290Y23158323D01*
X45735341Y23173043D01*
X45913232Y23213295D01*
X46026635Y23257395D01*
X46145379Y23303572D01*
X46145384Y23303574D01*
X46155723Y23307595D01*
X46381612Y23436701D01*
X46585936Y23597777D01*
X46593540Y23605860D01*
X46756605Y23779203D01*
X46756609Y23779208D01*
X46764208Y23787286D01*
X46912511Y24001063D01*
X46932616Y24041831D01*
X47022679Y24224463D01*
X47027586Y24234413D01*
X47075877Y24385275D01*
X47103524Y24471642D01*
X47103525Y24471645D01*
X47106906Y24482208D01*
X47110424Y24503808D01*
X47146946Y24728061D01*
X47146947Y24728068D01*
X47148728Y24739006D01*
X47151360Y24940056D01*
X47151989Y24988062D01*
X47151989Y24988067D01*
X47152134Y24999165D01*
X47129682Y25164137D01*
X47118544Y25245980D01*
X47118543Y25245984D01*
X47117048Y25256970D01*
X47044242Y25506757D01*
X46935314Y25743039D01*
X46792659Y25960625D01*
X46785273Y25968901D01*
X46778517Y25977705D01*
X46780641Y25979334D01*
X46733617Y26057114D01*
X46714575Y26165334D01*
X46735912Y26273124D01*
X46767886Y26332588D01*
X46778946Y26348530D01*
X46912511Y26541063D01*
X46923276Y26562891D01*
X47022679Y26764463D01*
X47027586Y26774413D01*
X47106906Y27022208D01*
X47111981Y27053368D01*
X47146946Y27268061D01*
X47146947Y27268068D01*
X47148728Y27279006D01*
X47152134Y27539165D01*
X47126984Y27723962D01*
X47118544Y27785980D01*
X47118543Y27785984D01*
X47117048Y27796970D01*
X47044242Y28046757D01*
X46935314Y28283039D01*
X46792659Y28500625D01*
X46619409Y28694735D01*
X46419371Y28861105D01*
X46409893Y28866856D01*
X46409888Y28866860D01*
X46305060Y28930471D01*
X46196939Y28996080D01*
X45956999Y29096695D01*
X45828660Y29129289D01*
X45715578Y29158008D01*
X45715573Y29158009D01*
X45704823Y29160739D01*
X45612923Y29169993D01*
X45496176Y29181749D01*
X45496168Y29181749D01*
X45488714Y29182500D01*
X43433956Y29182500D01*
X43240534Y29168126D01*
X43229713Y29165677D01*
X43229710Y29165677D01*
X43164659Y29150957D01*
X42986768Y29110705D01*
X42873365Y29066605D01*
X42754621Y29020428D01*
X42754616Y29020426D01*
X42744277Y29016405D01*
X42518388Y28887299D01*
X42403451Y28796690D01*
X42306128Y28745677D01*
X42218342Y28732500D01*
X40880783Y28732500D01*
X40880779Y28732501D01*
X40653221Y28732501D01*
X40640365Y28730234D01*
X40640364Y28730234D01*
X40625152Y28727551D01*
X40609937Y28724869D01*
X40584075Y28721464D01*
X40540308Y28717635D01*
X40497850Y28706258D01*
X40472395Y28700616D01*
X40441975Y28695252D01*
X40441973Y28695251D01*
X40429120Y28692985D01*
X40416858Y28688522D01*
X40416850Y28688520D01*
X40387819Y28677954D01*
X40362955Y28670114D01*
X40320504Y28658739D01*
X40308676Y28653224D01*
X40308669Y28653221D01*
X40280673Y28640166D01*
X40256581Y28630187D01*
X40227555Y28619622D01*
X40215285Y28615156D01*
X40177206Y28593171D01*
X40154117Y28581151D01*
X40114266Y28562568D01*
X40103575Y28555082D01*
X40078260Y28537357D01*
X40056277Y28523352D01*
X40018214Y28501376D01*
X39989527Y28477305D01*
X39984554Y28473132D01*
X39963862Y28457255D01*
X39927861Y28432047D01*
X39766953Y28271139D01*
X39766950Y28271135D01*
X39766944Y28271128D01*
X39415786Y27919971D01*
X39325133Y27857872D01*
X39244681Y27835127D01*
X39005603Y27802590D01*
X39005600Y27802589D01*
X38994605Y27801093D01*
X38983950Y27797988D01*
X38983948Y27797987D01*
X38767168Y27734802D01*
X38657822Y27723962D01*
X38551943Y27753354D01*
X38463833Y27819009D01*
X38405389Y27912060D01*
X38384500Y28021857D01*
X38384500Y30400811D01*
X38404691Y30508822D01*
X38462536Y30602246D01*
X38550224Y30668465D01*
X38655912Y30698536D01*
X38765325Y30688397D01*
X38782056Y30683101D01*
X38902690Y30640974D01*
X39021885Y30618344D01*
X39154707Y30593126D01*
X39154711Y30593126D01*
X39165606Y30591057D01*
X39267163Y30587067D01*
X39421929Y30580986D01*
X39421935Y30580986D01*
X39433013Y30580551D01*
X39631110Y30602246D01*
X39688015Y30608478D01*
X39688017Y30608478D01*
X39699035Y30609685D01*
X39709751Y30612506D01*
X39709755Y30612507D01*
X39947104Y30674996D01*
X39947108Y30674997D01*
X39957829Y30677820D01*
X40089451Y30734369D01*
X40193513Y30779077D01*
X40193514Y30779077D01*
X40203710Y30783458D01*
X40431275Y30924280D01*
X40439740Y30931446D01*
X40439747Y30931451D01*
X40536912Y31013707D01*
X40632395Y31068085D01*
X40730102Y31084500D01*
X42394361Y31084500D01*
X42502372Y31064309D01*
X42549473Y31041120D01*
X42703061Y30947920D01*
X42943001Y30847305D01*
X43071340Y30814711D01*
X43184422Y30785992D01*
X43184427Y30785991D01*
X43195177Y30783261D01*
X43276701Y30775052D01*
X43403824Y30762251D01*
X43403832Y30762251D01*
X43411286Y30761500D01*
X45466044Y30761500D01*
X45659466Y30775874D01*
X45670287Y30778323D01*
X45670290Y30778323D01*
X45735341Y30793043D01*
X45913232Y30833295D01*
X46026635Y30877395D01*
X46145379Y30923572D01*
X46145384Y30923574D01*
X46155723Y30927595D01*
X46381612Y31056701D01*
X46585936Y31217777D01*
X46653923Y31290049D01*
X46756605Y31399203D01*
X46756609Y31399208D01*
X46764208Y31407286D01*
X46912511Y31621063D01*
X46927086Y31650617D01*
X47022679Y31844463D01*
X47027586Y31854413D01*
X47085726Y32036042D01*
X47103524Y32091642D01*
X47103525Y32091645D01*
X47106906Y32102208D01*
X47124194Y32208360D01*
X47146946Y32348061D01*
X47146947Y32348068D01*
X47148728Y32359006D01*
X47152134Y32619165D01*
X47117048Y32876970D01*
X47044242Y33126757D01*
X47032622Y33151964D01*
X46939958Y33352965D01*
X46935314Y33363039D01*
X46929230Y33372319D01*
X46925548Y33378961D01*
X46890842Y33483218D01*
X46896140Y33592973D01*
X46940729Y33693401D01*
X46951443Y33708005D01*
X47097247Y33894625D01*
X47108898Y33911898D01*
X47241805Y34142100D01*
X47250940Y34160829D01*
X47350516Y34407287D01*
X47356954Y34427103D01*
X47368925Y34475115D01*
X47370326Y34498613D01*
X47350398Y34502000D01*
X41550916Y34502000D01*
X41528705Y34497848D01*
X41530360Y34479989D01*
X41591405Y34292112D01*
X41599207Y34272802D01*
X41675893Y34115573D01*
X41705094Y34009642D01*
X41694057Y33900315D01*
X41644272Y33802358D01*
X41562463Y33729001D01*
X41459678Y33690150D01*
X41407153Y33685500D01*
X40733948Y33685500D01*
X40625937Y33705691D01*
X40529080Y33766717D01*
X40506269Y33788175D01*
X40286385Y33940714D01*
X40276439Y33945619D01*
X40276432Y33945623D01*
X40056321Y34054169D01*
X40046371Y34059076D01*
X39929756Y34096405D01*
X39802070Y34137278D01*
X39802064Y34137279D01*
X39791497Y34140662D01*
X39527364Y34183678D01*
X39431333Y34184935D01*
X39270878Y34187036D01*
X39270873Y34187036D01*
X39259774Y34187181D01*
X39248775Y34185684D01*
X39248774Y34185684D01*
X39005601Y34152590D01*
X39005594Y34152589D01*
X38994605Y34151093D01*
X38983950Y34147988D01*
X38983948Y34147987D01*
X38748339Y34079314D01*
X38737683Y34076208D01*
X38494652Y33964169D01*
X38270851Y33817438D01*
X38071197Y33639240D01*
X37900075Y33433488D01*
X37761244Y33204702D01*
X37756958Y33194480D01*
X37756954Y33194473D01*
X37724092Y33116105D01*
X37657755Y32957909D01*
X37655025Y32947161D01*
X37655023Y32947154D01*
X37618782Y32804453D01*
X37572625Y32704735D01*
X37493563Y32628425D01*
X37392273Y32585828D01*
X37282435Y32582698D01*
X37178884Y32619458D01*
X37117557Y32666628D01*
X36560050Y33224135D01*
X36560047Y33224139D01*
X36399139Y33385047D01*
X36385425Y33394650D01*
X36363145Y33410250D01*
X36342453Y33426128D01*
X36318796Y33445979D01*
X36318786Y33445986D01*
X36308786Y33454377D01*
X36270711Y33476360D01*
X36248733Y33490361D01*
X36212734Y33515568D01*
X36200909Y33521082D01*
X36200906Y33521084D01*
X36172909Y33534140D01*
X36149779Y33546180D01*
X36111715Y33568156D01*
X36099454Y33572619D01*
X36099451Y33572620D01*
X36070419Y33583187D01*
X36046327Y33593166D01*
X36018331Y33606221D01*
X36018324Y33606224D01*
X36006496Y33611739D01*
X35964045Y33623114D01*
X35939181Y33630954D01*
X35910150Y33641520D01*
X35910142Y33641522D01*
X35897880Y33645985D01*
X35885027Y33648251D01*
X35885025Y33648252D01*
X35854605Y33653616D01*
X35829150Y33659258D01*
X35786692Y33670635D01*
X35742925Y33674464D01*
X35717063Y33677869D01*
X35701848Y33680551D01*
X35686636Y33683234D01*
X35686635Y33683234D01*
X35673779Y33685501D01*
X35446221Y33685501D01*
X35446217Y33685500D01*
X33389500Y33685500D01*
X33281489Y33705691D01*
X33188065Y33763536D01*
X33121846Y33851224D01*
X33091775Y33956912D01*
X33090500Y33984500D01*
X33090500Y35605387D01*
X41529674Y35605387D01*
X41549602Y35602000D01*
X43872292Y35602000D01*
X43895966Y35606425D01*
X43900000Y35620603D01*
X43900000Y35629708D01*
X45000000Y35629708D01*
X45004425Y35606034D01*
X45018603Y35602000D01*
X47349084Y35602000D01*
X47371295Y35606152D01*
X47369640Y35624011D01*
X47308595Y35811888D01*
X47300788Y35831209D01*
X47184266Y36070115D01*
X47173849Y36088159D01*
X47025202Y36308537D01*
X47012383Y36324945D01*
X46834514Y36522488D01*
X46819526Y36536961D01*
X46615910Y36707815D01*
X46599038Y36720074D01*
X46373621Y36860930D01*
X46355230Y36870709D01*
X46112397Y36978825D01*
X46092811Y36985953D01*
X45837298Y37059221D01*
X45816919Y37063552D01*
X45553697Y37100546D01*
X45532902Y37102000D01*
X45027708Y37102000D01*
X45004034Y37097575D01*
X45000000Y37083397D01*
X45000000Y35629708D01*
X43900000Y35629708D01*
X43900000Y37074292D01*
X43895575Y37097966D01*
X43881397Y37102000D01*
X43433626Y37102000D01*
X43423212Y37101637D01*
X43224415Y37087735D01*
X43203781Y37084835D01*
X42943781Y37029571D01*
X42923751Y37023827D01*
X42673960Y36932910D01*
X42654943Y36924443D01*
X42420222Y36799640D01*
X42402572Y36788611D01*
X42187517Y36632365D01*
X42171557Y36618973D01*
X41980340Y36434316D01*
X41966406Y36418841D01*
X41802753Y36209375D01*
X41791102Y36192102D01*
X41658195Y35961900D01*
X41649060Y35943171D01*
X41549484Y35696713D01*
X41543046Y35676897D01*
X41531075Y35628885D01*
X41529674Y35605387D01*
X33090500Y35605387D01*
X33090500Y36276516D01*
X35750582Y36276516D01*
X35764738Y36264124D01*
X35786694Y36250352D01*
X35804606Y36240748D01*
X36047020Y36131294D01*
X36066041Y36124220D01*
X36321064Y36048678D01*
X36340894Y36044246D01*
X36603801Y36004015D01*
X36624050Y36002315D01*
X36889982Y35998138D01*
X36910272Y35999201D01*
X37174316Y36031154D01*
X37194262Y36034959D01*
X37451538Y36102454D01*
X37470781Y36108930D01*
X37716506Y36210712D01*
X37734709Y36219748D01*
X37810337Y36263942D01*
X37827875Y36279127D01*
X37815768Y36296415D01*
X36809590Y37302593D01*
X36789724Y37316202D01*
X36776846Y37309029D01*
X35764174Y36296357D01*
X35750582Y36276516D01*
X33090500Y36276516D01*
X33090500Y36739535D01*
X33110691Y36847546D01*
X33164701Y36936680D01*
X33224659Y37005049D01*
X33224662Y37005053D01*
X33231976Y37013393D01*
X33376747Y37238466D01*
X33393304Y37275220D01*
X33482107Y37472357D01*
X33486661Y37482466D01*
X33504462Y37545583D01*
X33556290Y37729350D01*
X33556291Y37729355D01*
X33559302Y37740031D01*
X33578200Y37888575D01*
X33592128Y37998060D01*
X33592128Y37998063D01*
X33593075Y38005505D01*
X33594549Y38061792D01*
X33595353Y38092503D01*
X33595353Y38092509D01*
X33595549Y38100000D01*
X33594667Y38111870D01*
X34685795Y38111870D01*
X34701105Y37846350D01*
X34703650Y37826198D01*
X34754858Y37565189D01*
X34760112Y37545583D01*
X34846266Y37293948D01*
X34854139Y37275220D01*
X34953213Y37078231D01*
X34966900Y37060256D01*
X34981659Y37069476D01*
X35992593Y38080410D01*
X36005824Y38099724D01*
X37573798Y38099724D01*
X37580971Y38086846D01*
X38592843Y37074974D01*
X38611211Y37062392D01*
X38626042Y37080450D01*
X38699002Y37214826D01*
X38707454Y37233288D01*
X38801470Y37482091D01*
X38807341Y37501535D01*
X38866718Y37760793D01*
X38869898Y37780868D01*
X38893922Y38050058D01*
X38894507Y38061792D01*
X38894846Y38094141D01*
X38894508Y38105846D01*
X38876124Y38375525D01*
X38873370Y38395626D01*
X38819432Y38656085D01*
X38813971Y38675643D01*
X38725187Y38926361D01*
X38717116Y38945011D01*
X38626235Y39121089D01*
X38612964Y39138143D01*
X38592243Y39124426D01*
X37587407Y38119590D01*
X37573798Y38099724D01*
X36005824Y38099724D01*
X36006202Y38100276D01*
X35999029Y38113154D01*
X34986697Y39125486D01*
X34968596Y39137885D01*
X34953394Y39119176D01*
X34871835Y38965139D01*
X34863573Y38946582D01*
X34772171Y38696815D01*
X34766502Y38677303D01*
X34709842Y38417434D01*
X34706875Y38397341D01*
X34686007Y38132200D01*
X34685795Y38111870D01*
X33594667Y38111870D01*
X33587094Y38213779D01*
X33576539Y38355818D01*
X33576539Y38355821D01*
X33575717Y38366877D01*
X33567657Y38402497D01*
X33519105Y38617065D01*
X33519104Y38617069D01*
X33516655Y38627891D01*
X33512458Y38638685D01*
X33423685Y38866964D01*
X33423685Y38866965D01*
X33419662Y38877309D01*
X33286868Y39109650D01*
X33280000Y39118362D01*
X33279996Y39118368D01*
X33154690Y39277317D01*
X33103677Y39374640D01*
X33090500Y39462426D01*
X33090500Y39920964D01*
X35751698Y39920964D01*
X35763454Y39904363D01*
X36770410Y38897407D01*
X36790276Y38883798D01*
X36803154Y38890971D01*
X37815275Y39903092D01*
X37828710Y39922705D01*
X37813910Y39935523D01*
X37773867Y39960062D01*
X37755883Y39969464D01*
X37512337Y40076373D01*
X37493219Y40083256D01*
X37237424Y40156122D01*
X37217555Y40160345D01*
X36954240Y40197819D01*
X36933980Y40199307D01*
X36668012Y40200700D01*
X36647737Y40199424D01*
X36384042Y40164709D01*
X36364136Y40160695D01*
X36107576Y40090508D01*
X36088407Y40083832D01*
X35843757Y39979480D01*
X35825654Y39970257D01*
X35769295Y39936526D01*
X35751698Y39920964D01*
X33090500Y39920964D01*
X33090500Y40699465D01*
X33110691Y40807476D01*
X33168536Y40900900D01*
X33178075Y40910890D01*
X33859137Y41591952D01*
X33859139Y41591953D01*
X34020047Y41752861D01*
X34045250Y41788855D01*
X34061128Y41809547D01*
X34080979Y41833204D01*
X34080986Y41833214D01*
X34089377Y41843214D01*
X34111360Y41881289D01*
X34125361Y41903267D01*
X34150568Y41939266D01*
X34156084Y41951094D01*
X34169140Y41979091D01*
X34181180Y42002221D01*
X34185989Y42010551D01*
X34203156Y42040285D01*
X34213503Y42068713D01*
X34218187Y42081581D01*
X34228166Y42105673D01*
X34241222Y42133673D01*
X34246739Y42145504D01*
X34258117Y42187967D01*
X34265957Y42212830D01*
X34276519Y42241851D01*
X34280985Y42254121D01*
X34287377Y42290372D01*
X34288617Y42297404D01*
X34294264Y42322873D01*
X34296062Y42329581D01*
X34305635Y42365308D01*
X34309464Y42409075D01*
X34312869Y42434935D01*
X34318233Y42465358D01*
X34318233Y42465360D01*
X34320501Y42478221D01*
X34320501Y42602666D01*
X34340692Y42710677D01*
X34398537Y42804101D01*
X34486225Y42870320D01*
X34591913Y42900391D01*
X34701326Y42890252D01*
X34799689Y42841273D01*
X34836785Y42806083D01*
X34837757Y42806996D01*
X34843289Y42801105D01*
X34848504Y42794912D01*
X34874646Y42769930D01*
X35104249Y42550516D01*
X35104254Y42550511D01*
X35110096Y42544929D01*
X35397156Y42324660D01*
X35421473Y42309875D01*
X35699409Y42140887D01*
X35699417Y42140883D01*
X35706326Y42136682D01*
X35748492Y42116930D01*
X36026653Y41986630D01*
X36026660Y41986627D01*
X36033989Y41983194D01*
X36376312Y41865990D01*
X36384196Y41864213D01*
X36384204Y41864211D01*
X36721400Y41788221D01*
X36721405Y41788220D01*
X36729291Y41786443D01*
X36737326Y41785528D01*
X36737329Y41785527D01*
X37080752Y41746398D01*
X37080761Y41746397D01*
X37088796Y41745482D01*
X37273419Y41744516D01*
X37442530Y41743630D01*
X37442537Y41743630D01*
X37450622Y41743588D01*
X37458673Y41744420D01*
X37458674Y41744420D01*
X37563068Y41755208D01*
X37810537Y41780781D01*
X38125629Y41848331D01*
X38156418Y41854932D01*
X38164329Y41856628D01*
X38507861Y41970240D01*
X38752176Y42081581D01*
X38829743Y42116930D01*
X38829747Y42116932D01*
X38837113Y42120289D01*
X38858939Y42133248D01*
X38986649Y42209077D01*
X39148235Y42305020D01*
X39437586Y42522270D01*
X39456543Y42540009D01*
X39633694Y42705785D01*
X39701781Y42769500D01*
X39723639Y42794912D01*
X39932448Y43037674D01*
X39932455Y43037683D01*
X39937731Y43043817D01*
X40142674Y43342011D01*
X40314214Y43660595D01*
X40450344Y43995842D01*
X40549471Y44343830D01*
X40610435Y44700489D01*
X40632524Y45061645D01*
X40632606Y45085000D01*
X40613039Y45446302D01*
X40554565Y45803377D01*
X40511671Y45958047D01*
X40460029Y46144264D01*
X40460027Y46144269D01*
X40457870Y46152048D01*
X40351471Y46419419D01*
X40327074Y46480725D01*
X40327072Y46480728D01*
X40324084Y46488238D01*
X40311266Y46512448D01*
X40158554Y46800870D01*
X40158554Y46800871D01*
X40154773Y46808011D01*
X40081518Y46916209D01*
X39956450Y47100934D01*
X39956446Y47100940D01*
X39951916Y47107630D01*
X39878556Y47194133D01*
X39723120Y47377417D01*
X39723116Y47377422D01*
X39717887Y47383587D01*
X39578008Y47516327D01*
X39461286Y47627093D01*
X39461278Y47627100D01*
X39455424Y47632655D01*
X39441964Y47642909D01*
X39174031Y47847019D01*
X39174026Y47847022D01*
X39167597Y47851920D01*
X38857773Y48038818D01*
X38766122Y48081361D01*
X38536919Y48187754D01*
X38536911Y48187757D01*
X38529576Y48191162D01*
X38186846Y48307170D01*
X37833592Y48385484D01*
X37825556Y48386371D01*
X37825551Y48386372D01*
X37481982Y48424303D01*
X37481978Y48424303D01*
X37473946Y48425190D01*
X37305824Y48425483D01*
X37120201Y48425807D01*
X37120199Y48425807D01*
X37112115Y48425821D01*
X36989645Y48412733D01*
X36760385Y48388233D01*
X36760376Y48388232D01*
X36752333Y48387372D01*
X36744429Y48385649D01*
X36744425Y48385648D01*
X36588895Y48351737D01*
X36398807Y48310291D01*
X36055674Y48195480D01*
X36048337Y48192105D01*
X36048331Y48192103D01*
X35737885Y48049314D01*
X35726947Y48044283D01*
X35720003Y48040127D01*
X35720001Y48040126D01*
X35703150Y48030041D01*
X35416473Y47858467D01*
X35244436Y47728357D01*
X35138012Y47647869D01*
X35127882Y47640208D01*
X34864551Y47392057D01*
X34859302Y47385911D01*
X34859299Y47385908D01*
X34759707Y47269301D01*
X34629561Y47116919D01*
X34625005Y47110241D01*
X34625001Y47110235D01*
X34492649Y46916215D01*
X34425659Y46818011D01*
X34421850Y46810877D01*
X34421848Y46810874D01*
X34384337Y46740622D01*
X34315651Y46654853D01*
X34220620Y46599687D01*
X34112079Y46582576D01*
X34004685Y46605830D01*
X33909156Y46670030D01*
X33859139Y46720047D01*
X33859136Y46720049D01*
X33385049Y47194136D01*
X33385047Y47194139D01*
X33224139Y47355047D01*
X33205812Y47367880D01*
X33188145Y47380250D01*
X33167453Y47396128D01*
X33143796Y47415979D01*
X33143786Y47415986D01*
X33133786Y47424377D01*
X33095711Y47446360D01*
X33073733Y47460361D01*
X33037734Y47485568D01*
X33025909Y47491082D01*
X33025906Y47491084D01*
X32997909Y47504140D01*
X32974779Y47516180D01*
X32936715Y47538156D01*
X32924454Y47542619D01*
X32924451Y47542620D01*
X32895419Y47553187D01*
X32871327Y47563166D01*
X32843331Y47576221D01*
X32843324Y47576224D01*
X32831496Y47581739D01*
X32789045Y47593114D01*
X32764181Y47600954D01*
X32735150Y47611520D01*
X32735142Y47611522D01*
X32722880Y47615985D01*
X32710027Y47618251D01*
X32710025Y47618252D01*
X32679605Y47623616D01*
X32654150Y47629258D01*
X32611692Y47640635D01*
X32567925Y47644464D01*
X32542063Y47647869D01*
X32526848Y47650551D01*
X32511636Y47653234D01*
X32511635Y47653234D01*
X32498779Y47655501D01*
X32271221Y47655501D01*
X32271217Y47655500D01*
X30243748Y47655500D01*
X30135737Y47675691D01*
X30038880Y47736717D01*
X30016069Y47758175D01*
X30002655Y47767481D01*
X29878530Y47853589D01*
X29796185Y47910714D01*
X29786239Y47915619D01*
X29786232Y47915623D01*
X29566121Y48024169D01*
X29556171Y48029076D01*
X29471173Y48056284D01*
X29311870Y48107278D01*
X29311864Y48107279D01*
X29301297Y48110662D01*
X29037164Y48153678D01*
X28941133Y48154935D01*
X28780678Y48157036D01*
X28780673Y48157036D01*
X28769574Y48157181D01*
X28758575Y48155684D01*
X28758574Y48155684D01*
X28515401Y48122590D01*
X28515394Y48122589D01*
X28504405Y48121093D01*
X28493750Y48117988D01*
X28493748Y48117987D01*
X28412752Y48094379D01*
X28247483Y48046208D01*
X28004452Y47934169D01*
X27995174Y47928086D01*
X27833698Y47822217D01*
X27780651Y47787438D01*
X27708534Y47723071D01*
X27614507Y47666212D01*
X27506289Y47647159D01*
X27398496Y47668485D01*
X27304568Y47728357D01*
X27280957Y47750567D01*
X27280950Y47750573D01*
X27272869Y47758175D01*
X27052985Y47910714D01*
X27043039Y47915619D01*
X27043032Y47915623D01*
X26822921Y48024169D01*
X26812971Y48029076D01*
X26727973Y48056284D01*
X26568670Y48107278D01*
X26568664Y48107279D01*
X26558097Y48110662D01*
X26293964Y48153678D01*
X26197933Y48154935D01*
X26037478Y48157036D01*
X26037473Y48157036D01*
X26026374Y48157181D01*
X26015375Y48155684D01*
X26015374Y48155684D01*
X25772201Y48122590D01*
X25772194Y48122589D01*
X25761205Y48121093D01*
X25750550Y48117988D01*
X25750548Y48117987D01*
X25669552Y48094379D01*
X25504283Y48046208D01*
X25261252Y47934169D01*
X25251974Y47928086D01*
X25155072Y47864554D01*
X25053674Y47822217D01*
X24943828Y47819369D01*
X24840372Y47856393D01*
X24757276Y47928290D01*
X24705764Y48025350D01*
X24693901Y48085347D01*
X24693901Y48094379D01*
X24691634Y48107238D01*
X24691633Y48107244D01*
X24686269Y48137665D01*
X24682864Y48163525D01*
X24680173Y48194287D01*
X24680172Y48194290D01*
X24679035Y48207292D01*
X24667662Y48249735D01*
X24662017Y48275196D01*
X24656652Y48305622D01*
X24654385Y48318479D01*
X24639357Y48359770D01*
X24631516Y48384637D01*
X24630783Y48387372D01*
X24620139Y48427096D01*
X24601566Y48466927D01*
X24591587Y48491019D01*
X24581020Y48520051D01*
X24581019Y48520054D01*
X24576556Y48532315D01*
X24554578Y48570383D01*
X24542540Y48593509D01*
X24529484Y48621506D01*
X24529482Y48621509D01*
X24523968Y48633334D01*
X24498761Y48669333D01*
X24484760Y48691311D01*
X24462777Y48729386D01*
X24459959Y48732744D01*
X24416245Y48829062D01*
X24410044Y48938769D01*
X24443893Y49043308D01*
X24513220Y49128559D01*
X24608662Y49183010D01*
X24706585Y49199500D01*
X48900500Y49199500D01*
X49008511Y49179309D01*
X49101935Y49121464D01*
X49168154Y49033776D01*
X49198225Y48928088D01*
X49199500Y48900500D01*
X49199500Y1099500D01*
X49179309Y991489D01*
X49121464Y898065D01*
X49033776Y831846D01*
X48928088Y801775D01*
X48900500Y800500D01*
X1099500Y800500D01*
X991489Y820691D01*
X898065Y878536D01*
X831846Y966224D01*
X801775Y1071912D01*
X800500Y1099500D01*
X800500Y7258626D01*
X4935000Y7258626D01*
X4935363Y7248212D01*
X4949265Y7049415D01*
X4952165Y7028781D01*
X5007429Y6768781D01*
X5013173Y6748751D01*
X5104090Y6498960D01*
X5112557Y6479943D01*
X5237360Y6245222D01*
X5248389Y6227572D01*
X5404635Y6012517D01*
X5418027Y5996557D01*
X5602684Y5805340D01*
X5618159Y5791406D01*
X5827625Y5627753D01*
X5844898Y5616102D01*
X6075100Y5483195D01*
X6093829Y5474060D01*
X6340287Y5374484D01*
X6360103Y5368046D01*
X6408115Y5356075D01*
X6431613Y5354674D01*
X6435000Y5374602D01*
X6435000Y7697292D01*
X6430575Y7720966D01*
X6416397Y7725000D01*
X4962708Y7725000D01*
X4939034Y7720575D01*
X4935000Y7706397D01*
X4935000Y7258626D01*
X800500Y7258626D01*
X800500Y48900500D01*
X820691Y49008511D01*
X878536Y49101935D01*
X966224Y49168154D01*
X1071912Y49198225D01*
X1099500Y49199500D01*
X7268465Y49199500D01*
X7376476Y49179309D01*
G37*
%TD.AperFunction*%
%TA.AperFunction,Conductor*%
G36*
X29189525Y42337675D02*
G01*
X29275770Y42295486D01*
X29276247Y42296249D01*
X29283587Y42291663D01*
X29284504Y42291214D01*
X29285652Y42290372D01*
X29285658Y42290369D01*
X29294605Y42283808D01*
X29531439Y42159203D01*
X29784090Y42070974D01*
X29875247Y42053667D01*
X30036107Y42023126D01*
X30036111Y42023126D01*
X30047006Y42021057D01*
X30058083Y42020622D01*
X30058099Y42020620D01*
X30239756Y42013483D01*
X30346892Y41989068D01*
X30437973Y41927599D01*
X30500698Y41837379D01*
X30526596Y41730593D01*
X30522476Y41662798D01*
X30521385Y41656610D01*
X30515742Y41631150D01*
X30504365Y41588692D01*
X30503227Y41575682D01*
X30500536Y41544925D01*
X30497131Y41519063D01*
X30489499Y41475779D01*
X30489499Y41248233D01*
X30489500Y41248209D01*
X30489500Y39460289D01*
X30469309Y39352278D01*
X30420384Y39269097D01*
X30320075Y39148488D01*
X30181244Y38919702D01*
X30176958Y38909480D01*
X30176954Y38909473D01*
X30105246Y38738467D01*
X30077755Y38672909D01*
X30075025Y38662161D01*
X30075023Y38662154D01*
X30063572Y38617065D01*
X30011881Y38413530D01*
X29985070Y38147264D01*
X29985602Y38136185D01*
X29985602Y38136181D01*
X29996515Y37908985D01*
X29997909Y37879959D01*
X30050118Y37617488D01*
X30053865Y37607052D01*
X30053866Y37607048D01*
X30098731Y37482091D01*
X30140549Y37365617D01*
X30267215Y37129879D01*
X30273849Y37120994D01*
X30273851Y37120992D01*
X30427335Y36915453D01*
X30425323Y36913950D01*
X30471782Y36834801D01*
X30489500Y36733402D01*
X30489500Y33793383D01*
X30469309Y33685372D01*
X30420385Y33602192D01*
X30280075Y33433488D01*
X30141244Y33204702D01*
X30136958Y33194480D01*
X30136954Y33194473D01*
X30104092Y33116105D01*
X30037755Y32957909D01*
X30035025Y32947161D01*
X30035023Y32947154D01*
X30017199Y32876970D01*
X29971881Y32698530D01*
X29945070Y32432264D01*
X29945602Y32421185D01*
X29945602Y32421181D01*
X29949114Y32348061D01*
X29957909Y32164959D01*
X30010118Y31902488D01*
X30013865Y31892052D01*
X30013866Y31892048D01*
X30058596Y31767466D01*
X30100549Y31650617D01*
X30227215Y31414879D01*
X30233849Y31405994D01*
X30233851Y31405992D01*
X30380696Y31209343D01*
X30380700Y31209339D01*
X30387335Y31200453D01*
X30395211Y31192646D01*
X30395214Y31192642D01*
X30569509Y31019862D01*
X30569513Y31019859D01*
X30577390Y31012050D01*
X30793205Y30853808D01*
X31030039Y30729203D01*
X31282690Y30640974D01*
X31401885Y30618344D01*
X31534707Y30593126D01*
X31534711Y30593126D01*
X31545606Y30591057D01*
X31647163Y30587067D01*
X31801929Y30580986D01*
X31801935Y30580986D01*
X31813013Y30580551D01*
X32011110Y30602246D01*
X32068015Y30608478D01*
X32068017Y30608478D01*
X32079035Y30609685D01*
X32089751Y30612506D01*
X32089755Y30612507D01*
X32327104Y30674996D01*
X32327108Y30674997D01*
X32337829Y30677820D01*
X32469451Y30734369D01*
X32573513Y30779077D01*
X32573514Y30779077D01*
X32583710Y30783458D01*
X32811275Y30924280D01*
X32819740Y30931446D01*
X32819747Y30931451D01*
X32916912Y31013707D01*
X33012395Y31068085D01*
X33110102Y31084500D01*
X34897465Y31084500D01*
X35005476Y31064309D01*
X35098900Y31006464D01*
X35108890Y30996925D01*
X35695925Y30409891D01*
X35758023Y30319239D01*
X35783181Y30212275D01*
X35783500Y30198466D01*
X35783500Y22421837D01*
X35782362Y22395777D01*
X35778532Y22352000D01*
X35779670Y22338993D01*
X35782362Y22308223D01*
X35783500Y22282163D01*
X35783500Y18274785D01*
X35783499Y18274779D01*
X35783499Y18047221D01*
X35785766Y18034365D01*
X35785766Y18034364D01*
X35791131Y18003940D01*
X35794536Y17978075D01*
X35798365Y17934308D01*
X35809742Y17891850D01*
X35815384Y17866395D01*
X35823015Y17823120D01*
X35827478Y17810858D01*
X35827480Y17810850D01*
X35838046Y17781819D01*
X35845886Y17756955D01*
X35857261Y17714504D01*
X35862776Y17702676D01*
X35862779Y17702669D01*
X35875834Y17674673D01*
X35885813Y17650581D01*
X35892301Y17632757D01*
X35900844Y17609285D01*
X35919165Y17577552D01*
X35922820Y17571221D01*
X35934860Y17548091D01*
X35947916Y17520094D01*
X35953432Y17508266D01*
X35978639Y17472267D01*
X35992640Y17450289D01*
X36014623Y17412214D01*
X36023014Y17402214D01*
X36023021Y17402204D01*
X36042872Y17378547D01*
X36058750Y17357855D01*
X36083953Y17321861D01*
X36244861Y17160953D01*
X36244864Y17160951D01*
X37226951Y16178864D01*
X37226953Y16178861D01*
X37387861Y16017953D01*
X37387863Y16017952D01*
X41814898Y11590917D01*
X41876996Y11500264D01*
X41902154Y11393301D01*
X41886973Y11284472D01*
X41854869Y11226834D01*
X41856788Y11225731D01*
X41828624Y11176716D01*
X41825000Y11155398D01*
X41825000Y8004000D01*
X41804809Y7895989D01*
X41746964Y7802565D01*
X41659276Y7736346D01*
X41553588Y7706275D01*
X41526000Y7705000D01*
X41024000Y7705000D01*
X40915989Y7725191D01*
X40822565Y7783036D01*
X40756346Y7870724D01*
X40726275Y7976412D01*
X40725000Y8004000D01*
X40725000Y11154084D01*
X40720848Y11176295D01*
X40702989Y11174640D01*
X40515112Y11113595D01*
X40495791Y11105788D01*
X40465576Y11091051D01*
X40359645Y11061848D01*
X40250319Y11072884D01*
X40152361Y11122668D01*
X40079003Y11204477D01*
X40040151Y11307261D01*
X40035501Y11359789D01*
X40035501Y11543779D01*
X40027869Y11587063D01*
X40024464Y11612925D01*
X40021773Y11643682D01*
X40020635Y11656692D01*
X40009258Y11699150D01*
X40003616Y11724605D01*
X39998252Y11755025D01*
X39998251Y11755027D01*
X39995985Y11767880D01*
X39991522Y11780142D01*
X39991520Y11780150D01*
X39980954Y11809181D01*
X39973112Y11834051D01*
X39965118Y11863885D01*
X39961739Y11876496D01*
X39956224Y11888324D01*
X39956221Y11888331D01*
X39943166Y11916327D01*
X39933187Y11940419D01*
X39922622Y11969445D01*
X39922622Y11969446D01*
X39918156Y11981715D01*
X39896171Y12019794D01*
X39884151Y12042883D01*
X39865568Y12082734D01*
X39840355Y12118743D01*
X39826348Y12140730D01*
X39820503Y12150855D01*
X39804376Y12178786D01*
X39776128Y12212451D01*
X39760260Y12233131D01*
X39753158Y12243274D01*
X39735047Y12269139D01*
X39574139Y12430047D01*
X39574136Y12430049D01*
X35290049Y16714136D01*
X35290047Y16714139D01*
X35129139Y16875047D01*
X35093145Y16900250D01*
X35072453Y16916128D01*
X35048796Y16935979D01*
X35048786Y16935986D01*
X35038786Y16944377D01*
X35000711Y16966360D01*
X34978733Y16980361D01*
X34942734Y17005568D01*
X34930909Y17011082D01*
X34930906Y17011084D01*
X34902909Y17024140D01*
X34879779Y17036180D01*
X34866066Y17044097D01*
X34841715Y17058156D01*
X34829454Y17062619D01*
X34829451Y17062620D01*
X34800419Y17073187D01*
X34776327Y17083166D01*
X34748331Y17096221D01*
X34748324Y17096224D01*
X34736496Y17101739D01*
X34694045Y17113114D01*
X34669181Y17120954D01*
X34640150Y17131520D01*
X34640142Y17131522D01*
X34627880Y17135985D01*
X34615027Y17138251D01*
X34615025Y17138252D01*
X34584605Y17143616D01*
X34559150Y17149258D01*
X34516692Y17160635D01*
X34472925Y17164464D01*
X34447063Y17167869D01*
X34431848Y17170551D01*
X34416636Y17173234D01*
X34416635Y17173234D01*
X34403779Y17175501D01*
X34176221Y17175501D01*
X34176217Y17175500D01*
X33113948Y17175500D01*
X33005937Y17195691D01*
X32909080Y17256717D01*
X32886269Y17278175D01*
X32836600Y17312632D01*
X32707482Y17402204D01*
X32666385Y17430714D01*
X32502219Y17511672D01*
X32414278Y17577552D01*
X32356073Y17670752D01*
X32335466Y17778685D01*
X32355241Y17886773D01*
X32412726Y17980419D01*
X32500158Y18046975D01*
X32516436Y18054555D01*
X32573513Y18079077D01*
X32573514Y18079077D01*
X32583710Y18083458D01*
X32811275Y18224280D01*
X32841701Y18250037D01*
X33007060Y18390024D01*
X33015526Y18397191D01*
X33191976Y18598393D01*
X33336747Y18823466D01*
X33446661Y19067466D01*
X33469433Y19148208D01*
X33516290Y19314350D01*
X33516291Y19314355D01*
X33519302Y19325031D01*
X33522422Y19349551D01*
X33552128Y19583060D01*
X33552128Y19583063D01*
X33553075Y19590505D01*
X33555549Y19685000D01*
X33535717Y19951877D01*
X33533269Y19962696D01*
X33479105Y20202065D01*
X33479104Y20202069D01*
X33476655Y20212891D01*
X33471503Y20226141D01*
X33383685Y20451964D01*
X33383685Y20451965D01*
X33379662Y20462309D01*
X33246868Y20694650D01*
X33240000Y20703362D01*
X33239996Y20703368D01*
X33114690Y20862317D01*
X33063677Y20959640D01*
X33050500Y21047426D01*
X33050500Y24674535D01*
X33070691Y24782546D01*
X33124701Y24871680D01*
X33184659Y24940049D01*
X33184662Y24940053D01*
X33191976Y24948393D01*
X33336747Y25173466D01*
X33446661Y25417466D01*
X33519302Y25675031D01*
X33529135Y25752319D01*
X33552128Y25933060D01*
X33552128Y25933063D01*
X33553075Y25940505D01*
X33555549Y26035000D01*
X33535717Y26301877D01*
X33533269Y26312696D01*
X33479105Y26552065D01*
X33479104Y26552069D01*
X33476655Y26562891D01*
X33379662Y26812309D01*
X33259695Y27022208D01*
X33252378Y27035010D01*
X33252376Y27035013D01*
X33246868Y27044650D01*
X33240000Y27053362D01*
X33239996Y27053368D01*
X33088061Y27246095D01*
X33081190Y27254811D01*
X33053655Y27280714D01*
X32894349Y27430574D01*
X32894350Y27430574D01*
X32886269Y27438175D01*
X32666385Y27590714D01*
X32656439Y27595619D01*
X32656432Y27595623D01*
X32436321Y27704169D01*
X32426371Y27709076D01*
X32288047Y27753354D01*
X32182070Y27787278D01*
X32182064Y27787279D01*
X32171497Y27790662D01*
X31907364Y27833678D01*
X31811333Y27834935D01*
X31650878Y27837036D01*
X31650873Y27837036D01*
X31639774Y27837181D01*
X31628775Y27835684D01*
X31628774Y27835684D01*
X31385601Y27802590D01*
X31385594Y27802589D01*
X31374605Y27801093D01*
X31363950Y27797988D01*
X31363948Y27797987D01*
X31147168Y27734802D01*
X31117683Y27726208D01*
X30874652Y27614169D01*
X30650851Y27467438D01*
X30451197Y27289240D01*
X30280075Y27083488D01*
X30141244Y26854702D01*
X30136958Y26844480D01*
X30136954Y26844473D01*
X30042046Y26618142D01*
X30037755Y26607909D01*
X30035025Y26597161D01*
X30035023Y26597154D01*
X29974611Y26359280D01*
X29971881Y26348530D01*
X29945070Y26082264D01*
X29957909Y25814959D01*
X30010118Y25552488D01*
X30013865Y25542052D01*
X30013866Y25542048D01*
X30058596Y25417466D01*
X30100549Y25300617D01*
X30227215Y25064879D01*
X30233849Y25055994D01*
X30233851Y25055992D01*
X30387335Y24850453D01*
X30385323Y24848950D01*
X30431782Y24769801D01*
X30449500Y24668402D01*
X30449500Y21284500D01*
X30429309Y21176489D01*
X30371464Y21083065D01*
X30283776Y21016846D01*
X30178088Y20986775D01*
X30150500Y20985500D01*
X29041127Y20985500D01*
X28933116Y21005691D01*
X28839692Y21063536D01*
X28773473Y21151224D01*
X28743402Y21256912D01*
X28753541Y21366325D01*
X28767659Y21405398D01*
X28840464Y21570080D01*
X28847610Y21589932D01*
X28914907Y21828549D01*
X28919183Y21849192D01*
X28952579Y22097833D01*
X28953834Y22113023D01*
X28957113Y22217369D01*
X28956814Y22232615D01*
X28939097Y22482850D01*
X28936125Y22503731D01*
X28883945Y22746095D01*
X28878056Y22766363D01*
X28792251Y22998947D01*
X28783565Y23018185D01*
X28740625Y23097768D01*
X28726682Y23115025D01*
X28707163Y23101845D01*
X27263925Y21658608D01*
X27173272Y21596510D01*
X27066309Y21571352D01*
X26957480Y21586533D01*
X26861485Y21640002D01*
X26841075Y21658608D01*
X26486108Y22013575D01*
X26424010Y22104228D01*
X26398852Y22211191D01*
X26414033Y22320020D01*
X26467502Y22416015D01*
X26486108Y22436425D01*
X27930300Y23880618D01*
X27943106Y23899313D01*
X27925870Y23913660D01*
X27872772Y23943397D01*
X27853682Y23952379D01*
X27622462Y24041831D01*
X27602310Y24048031D01*
X27360784Y24104014D01*
X27339953Y24107313D01*
X27092949Y24128706D01*
X27071864Y24129037D01*
X26824320Y24115414D01*
X26803388Y24112770D01*
X26549861Y24062340D01*
X26549230Y24065511D01*
X26461521Y24058094D01*
X26356079Y24089012D01*
X26268926Y24155933D01*
X26211832Y24249819D01*
X26192500Y24355587D01*
X26192500Y24674535D01*
X26212691Y24782546D01*
X26266701Y24871680D01*
X26326659Y24940049D01*
X26326662Y24940053D01*
X26333976Y24948393D01*
X26478747Y25173466D01*
X26588661Y25417466D01*
X26661302Y25675031D01*
X26671135Y25752319D01*
X26694128Y25933060D01*
X26694128Y25933063D01*
X26695075Y25940505D01*
X26697549Y26035000D01*
X26677717Y26301877D01*
X26675269Y26312696D01*
X26621105Y26552065D01*
X26621104Y26552069D01*
X26618655Y26562891D01*
X26521662Y26812309D01*
X26401695Y27022208D01*
X26394378Y27035010D01*
X26394376Y27035013D01*
X26388868Y27044650D01*
X26382000Y27053362D01*
X26381996Y27053368D01*
X26230061Y27246095D01*
X26223190Y27254811D01*
X26195655Y27280714D01*
X26036349Y27430574D01*
X26036350Y27430574D01*
X26028269Y27438175D01*
X25808385Y27590714D01*
X25798439Y27595619D01*
X25798432Y27595623D01*
X25578321Y27704169D01*
X25568371Y27709076D01*
X25430047Y27753354D01*
X25324070Y27787278D01*
X25324064Y27787279D01*
X25313497Y27790662D01*
X25049364Y27833678D01*
X24953333Y27834935D01*
X24792878Y27837036D01*
X24792873Y27837036D01*
X24781774Y27837181D01*
X24770775Y27835684D01*
X24770774Y27835684D01*
X24527601Y27802590D01*
X24527594Y27802589D01*
X24516605Y27801093D01*
X24505950Y27797988D01*
X24505948Y27797987D01*
X24289168Y27734802D01*
X24259683Y27726208D01*
X24016652Y27614169D01*
X23792851Y27467438D01*
X23593197Y27289240D01*
X23422075Y27083488D01*
X23283244Y26854702D01*
X23278958Y26844480D01*
X23278954Y26844473D01*
X23184046Y26618142D01*
X23179755Y26607909D01*
X23177025Y26597161D01*
X23177023Y26597154D01*
X23116611Y26359280D01*
X23113881Y26348530D01*
X23087070Y26082264D01*
X23099909Y25814959D01*
X23152118Y25552488D01*
X23155865Y25542052D01*
X23155866Y25542048D01*
X23200596Y25417466D01*
X23242549Y25300617D01*
X23369215Y25064879D01*
X23375849Y25055994D01*
X23375851Y25055992D01*
X23529335Y24850453D01*
X23527323Y24848950D01*
X23573782Y24769801D01*
X23591500Y24668402D01*
X23591500Y21669617D01*
X23568740Y21555196D01*
X23525627Y21451111D01*
X23522885Y21439691D01*
X23522885Y21439690D01*
X23487388Y21291834D01*
X23466817Y21206148D01*
X23465896Y21194445D01*
X23465895Y21194439D01*
X23450031Y20992860D01*
X23447051Y20955000D01*
X23466817Y20703852D01*
X23469558Y20692435D01*
X23522493Y20471945D01*
X23525627Y20458889D01*
X23622034Y20226141D01*
X23628173Y20216124D01*
X23628174Y20216121D01*
X23636788Y20202065D01*
X23753664Y20011341D01*
X23917276Y19819776D01*
X24108841Y19656164D01*
X24118856Y19650027D01*
X24228136Y19583060D01*
X24323641Y19524534D01*
X24334494Y19520039D01*
X24334497Y19520037D01*
X24479473Y19459986D01*
X24556389Y19428127D01*
X24567809Y19425385D01*
X24567810Y19425385D01*
X24698285Y19394061D01*
X24801352Y19369317D01*
X24813055Y19368396D01*
X24813061Y19368395D01*
X25040785Y19350473D01*
X25052500Y19349551D01*
X25064215Y19350473D01*
X25064216Y19350473D01*
X25229677Y19363495D01*
X25338939Y19351841D01*
X25436614Y19301504D01*
X25509508Y19219282D01*
X25529374Y19179843D01*
X25622034Y18956141D01*
X25753664Y18741341D01*
X25917276Y18549776D01*
X26108841Y18386164D01*
X26118856Y18380027D01*
X26290624Y18274767D01*
X26323641Y18254534D01*
X26334494Y18250039D01*
X26334497Y18250037D01*
X26410775Y18218442D01*
X26556389Y18158127D01*
X26801352Y18099317D01*
X26813055Y18098396D01*
X26813061Y18098395D01*
X27040785Y18080473D01*
X27052500Y18079551D01*
X27064215Y18080473D01*
X27291939Y18098395D01*
X27291945Y18098396D01*
X27303648Y18099317D01*
X27548611Y18158127D01*
X27694225Y18218442D01*
X27770503Y18250037D01*
X27770506Y18250039D01*
X27781359Y18254534D01*
X27814377Y18274767D01*
X27921543Y18340439D01*
X28024187Y18379660D01*
X28077770Y18384500D01*
X30383521Y18384500D01*
X30491532Y18364309D01*
X30574855Y18314563D01*
X30577390Y18312050D01*
X30793205Y18153808D01*
X31003425Y18043205D01*
X31089610Y17975047D01*
X31145355Y17880355D01*
X31163129Y17771920D01*
X31140532Y17664386D01*
X31080615Y17572278D01*
X30989385Y17507062D01*
X30874652Y17454169D01*
X30650851Y17307438D01*
X30451197Y17129240D01*
X30280075Y16923488D01*
X30141244Y16694702D01*
X30136958Y16684480D01*
X30136954Y16684473D01*
X30104974Y16608208D01*
X30037755Y16447909D01*
X30035025Y16437161D01*
X30035023Y16437154D01*
X29974611Y16199280D01*
X29971881Y16188530D01*
X29945070Y15922264D01*
X29945602Y15911185D01*
X29945602Y15911181D01*
X29956720Y15679713D01*
X29957909Y15654959D01*
X30010118Y15392488D01*
X30013865Y15382052D01*
X30013866Y15382048D01*
X30054724Y15268251D01*
X30100549Y15140617D01*
X30227215Y14904879D01*
X30233849Y14895994D01*
X30233851Y14895992D01*
X30380696Y14699343D01*
X30380700Y14699339D01*
X30387335Y14690453D01*
X30395211Y14682646D01*
X30395214Y14682642D01*
X30569509Y14509862D01*
X30569513Y14509859D01*
X30577390Y14502050D01*
X30793205Y14343808D01*
X31030039Y14219203D01*
X31282690Y14130974D01*
X31401885Y14108344D01*
X31534707Y14083126D01*
X31534711Y14083126D01*
X31545606Y14081057D01*
X31647163Y14077067D01*
X31801929Y14070986D01*
X31801935Y14070986D01*
X31813013Y14070551D01*
X31952918Y14085873D01*
X32068015Y14098478D01*
X32068017Y14098478D01*
X32079035Y14099685D01*
X32089751Y14102506D01*
X32089755Y14102507D01*
X32327104Y14164996D01*
X32327108Y14164997D01*
X32337829Y14167820D01*
X32505738Y14239959D01*
X32573513Y14269077D01*
X32573514Y14269077D01*
X32583710Y14273458D01*
X32811275Y14414280D01*
X32819738Y14421445D01*
X32819747Y14421451D01*
X32916912Y14503707D01*
X33012395Y14558085D01*
X33110102Y14574500D01*
X33627465Y14574500D01*
X33735476Y14554309D01*
X33828900Y14496464D01*
X33838890Y14486925D01*
X36734898Y11590917D01*
X36796996Y11500264D01*
X36822154Y11393301D01*
X36806973Y11284472D01*
X36774869Y11226834D01*
X36776788Y11225731D01*
X36748624Y11176716D01*
X36745000Y11155398D01*
X36745000Y8004000D01*
X36724809Y7895989D01*
X36666964Y7802565D01*
X36579276Y7736346D01*
X36473588Y7706275D01*
X36446000Y7705000D01*
X34172708Y7705000D01*
X34149034Y7700575D01*
X34145000Y7686397D01*
X34145000Y7238626D01*
X34145363Y7228212D01*
X34159265Y7029415D01*
X34162165Y7008781D01*
X34217429Y6748781D01*
X34223173Y6728751D01*
X34314090Y6478960D01*
X34322557Y6459943D01*
X34447357Y6225226D01*
X34461277Y6202951D01*
X34501394Y6100654D01*
X34501847Y5990773D01*
X34462577Y5888148D01*
X34388885Y5806639D01*
X34290726Y5757254D01*
X34207714Y5745500D01*
X29542457Y5745500D01*
X29434446Y5765691D01*
X29341022Y5823536D01*
X29274803Y5911224D01*
X29244732Y6016912D01*
X29254871Y6126325D01*
X29303850Y6224688D01*
X29312573Y6235692D01*
X29347011Y6277100D01*
X29354105Y6285629D01*
X29359856Y6295107D01*
X29359860Y6295112D01*
X29471421Y6478960D01*
X29489080Y6508061D01*
X29589695Y6748001D01*
X29653739Y7000177D01*
X29675500Y7216286D01*
X29675500Y8832708D01*
X34145000Y8832708D01*
X34149425Y8809034D01*
X34163603Y8805000D01*
X35617292Y8805000D01*
X35640966Y8809425D01*
X35645000Y8823603D01*
X35645000Y11154084D01*
X35640848Y11176295D01*
X35622989Y11174640D01*
X35435112Y11113595D01*
X35415791Y11105788D01*
X35176885Y10989266D01*
X35158841Y10978849D01*
X34938463Y10830202D01*
X34922055Y10817383D01*
X34724512Y10639514D01*
X34710039Y10624526D01*
X34539185Y10420910D01*
X34526926Y10404038D01*
X34386070Y10178621D01*
X34376291Y10160230D01*
X34268175Y9917397D01*
X34261047Y9897811D01*
X34187779Y9642298D01*
X34183448Y9621919D01*
X34146454Y9358697D01*
X34145000Y9337902D01*
X34145000Y8832708D01*
X29675500Y8832708D01*
X29675500Y9271044D01*
X29661126Y9464466D01*
X29656601Y9484466D01*
X29625498Y9621919D01*
X29603705Y9718232D01*
X29509405Y9960723D01*
X29380299Y10186612D01*
X29289690Y10301550D01*
X29238677Y10398872D01*
X29225500Y10486658D01*
X29225500Y10696209D01*
X29225501Y10696233D01*
X29225501Y10923779D01*
X29217869Y10967063D01*
X29214464Y10992925D01*
X29211773Y11023682D01*
X29210635Y11036692D01*
X29199258Y11079150D01*
X29193616Y11104605D01*
X29188252Y11135025D01*
X29188251Y11135027D01*
X29185985Y11147880D01*
X29181522Y11160142D01*
X29181520Y11160150D01*
X29170954Y11189181D01*
X29163112Y11214051D01*
X29162661Y11215737D01*
X29151739Y11256496D01*
X29146224Y11268324D01*
X29146221Y11268331D01*
X29133166Y11296327D01*
X29123187Y11320419D01*
X29112620Y11349451D01*
X29112619Y11349454D01*
X29108156Y11361715D01*
X29086178Y11399783D01*
X29074140Y11422909D01*
X29061084Y11450906D01*
X29061082Y11450909D01*
X29055568Y11462734D01*
X29030361Y11498733D01*
X29016360Y11520711D01*
X28994377Y11558786D01*
X28985986Y11568786D01*
X28985979Y11568796D01*
X28966128Y11592453D01*
X28950250Y11613145D01*
X28932533Y11638448D01*
X28932532Y11638449D01*
X28925047Y11649139D01*
X28764139Y11810047D01*
X28764136Y11810049D01*
X27670049Y12904136D01*
X27670047Y12904139D01*
X27509139Y13065047D01*
X27473145Y13090250D01*
X27452453Y13106128D01*
X27428796Y13125979D01*
X27428786Y13125986D01*
X27418786Y13134377D01*
X27380711Y13156360D01*
X27358733Y13170361D01*
X27322734Y13195568D01*
X27310909Y13201082D01*
X27310906Y13201084D01*
X27282909Y13214140D01*
X27259779Y13226180D01*
X27221715Y13248156D01*
X27209454Y13252619D01*
X27209451Y13252620D01*
X27180419Y13263187D01*
X27156327Y13273166D01*
X27128331Y13286221D01*
X27128324Y13286224D01*
X27116496Y13291739D01*
X27074045Y13303114D01*
X27049181Y13310954D01*
X27020150Y13321520D01*
X27020142Y13321522D01*
X27007880Y13325985D01*
X26995027Y13328251D01*
X26995025Y13328252D01*
X26964605Y13333616D01*
X26939150Y13339258D01*
X26896692Y13350635D01*
X26852925Y13354464D01*
X26827063Y13357869D01*
X26811848Y13360552D01*
X26796636Y13363234D01*
X26796635Y13363234D01*
X26783779Y13365501D01*
X26556221Y13365501D01*
X26556217Y13365500D01*
X18442535Y13365500D01*
X18334524Y13385691D01*
X18241100Y13443536D01*
X18231110Y13453075D01*
X15993075Y15691110D01*
X15930977Y15781763D01*
X15905819Y15888726D01*
X15905500Y15902535D01*
X15905500Y20910000D01*
X15925691Y21018011D01*
X15983536Y21111435D01*
X16071224Y21177654D01*
X16176912Y21207725D01*
X16204500Y21209000D01*
X20066000Y21209000D01*
X20066000Y24384000D01*
X18878924Y24384000D01*
X18770913Y24404191D01*
X18677489Y24462036D01*
X18611270Y24549724D01*
X18581199Y24655412D01*
X18591338Y24764825D01*
X18640317Y24863188D01*
X18654124Y24880145D01*
X18706665Y24940056D01*
X18706667Y24940059D01*
X18713976Y24948393D01*
X18858747Y25173466D01*
X18968661Y25417466D01*
X19041302Y25675031D01*
X19051135Y25752319D01*
X19074128Y25933060D01*
X19074128Y25933063D01*
X19075075Y25940505D01*
X19077549Y26035000D01*
X19057717Y26301877D01*
X19055269Y26312696D01*
X19001105Y26552065D01*
X19001104Y26552069D01*
X18998655Y26562891D01*
X18901662Y26812309D01*
X18781695Y27022208D01*
X18774378Y27035010D01*
X18774376Y27035013D01*
X18768868Y27044650D01*
X18762000Y27053362D01*
X18761996Y27053368D01*
X18636690Y27212317D01*
X18585677Y27309640D01*
X18572500Y27397426D01*
X18572500Y35024465D01*
X18592691Y35132476D01*
X18650536Y35225900D01*
X18660075Y35235890D01*
X19641906Y36217722D01*
X19732558Y36279820D01*
X19820780Y36303520D01*
X20003015Y36323478D01*
X20003017Y36323478D01*
X20014035Y36324685D01*
X20024751Y36327506D01*
X20024755Y36327507D01*
X20262104Y36389996D01*
X20262108Y36389997D01*
X20272829Y36392820D01*
X20518710Y36498458D01*
X20746275Y36639280D01*
X20797784Y36682885D01*
X20942060Y36805024D01*
X20950526Y36812191D01*
X21126976Y37013393D01*
X21271747Y37238466D01*
X21288304Y37275220D01*
X21377107Y37472357D01*
X21381661Y37482466D01*
X21399462Y37545583D01*
X21451290Y37729350D01*
X21451291Y37729355D01*
X21454302Y37740031D01*
X21483685Y37970994D01*
X21517344Y38075591D01*
X21568868Y38144683D01*
X22097781Y38673596D01*
X22188434Y38735694D01*
X22295397Y38760852D01*
X22404226Y38745671D01*
X22500221Y38692202D01*
X22570419Y38607666D01*
X22605339Y38503480D01*
X22604999Y38418494D01*
X22601875Y38397336D01*
X22581007Y38132200D01*
X22580795Y38111870D01*
X22596105Y37846350D01*
X22598650Y37826198D01*
X22649858Y37565189D01*
X22655112Y37545583D01*
X22741266Y37293948D01*
X22749139Y37275220D01*
X22848213Y37078231D01*
X22861900Y37060256D01*
X22876659Y37069476D01*
X24473575Y38666392D01*
X24564228Y38728490D01*
X24671191Y38753648D01*
X24780020Y38738467D01*
X24876015Y38684998D01*
X24896425Y38666392D01*
X25251392Y38311425D01*
X25313490Y38220772D01*
X25338648Y38113809D01*
X25323467Y38004980D01*
X25269998Y37908985D01*
X25251392Y37888575D01*
X23659174Y36296357D01*
X23645582Y36276516D01*
X23659738Y36264124D01*
X23681694Y36250352D01*
X23699606Y36240748D01*
X23942020Y36131294D01*
X23961041Y36124220D01*
X24216064Y36048678D01*
X24235894Y36044246D01*
X24498801Y36004015D01*
X24519050Y36002315D01*
X24784969Y35998138D01*
X24785901Y35998187D01*
X24786442Y35998115D01*
X24795162Y35997978D01*
X24795146Y35996956D01*
X24894821Y35983681D01*
X24991147Y35930808D01*
X25061868Y35846709D01*
X25097433Y35742742D01*
X25093039Y35632948D01*
X25049280Y35532155D01*
X25012987Y35488172D01*
X23796968Y34272153D01*
X23706315Y34210055D01*
X23599352Y34184897D01*
X23581629Y34184604D01*
X23395878Y34187036D01*
X23395873Y34187036D01*
X23384774Y34187181D01*
X23373775Y34185684D01*
X23373774Y34185684D01*
X23130601Y34152590D01*
X23130594Y34152589D01*
X23119605Y34151093D01*
X23108950Y34147988D01*
X23108948Y34147987D01*
X22873339Y34079314D01*
X22862683Y34076208D01*
X22619652Y33964169D01*
X22395851Y33817438D01*
X22196197Y33639240D01*
X22025075Y33433488D01*
X21886244Y33204702D01*
X21881958Y33194480D01*
X21881954Y33194473D01*
X21849092Y33116105D01*
X21782755Y32957909D01*
X21780025Y32947161D01*
X21780023Y32947154D01*
X21762199Y32876970D01*
X21716881Y32698530D01*
X21690070Y32432264D01*
X21690602Y32421185D01*
X21690602Y32421181D01*
X21694114Y32348061D01*
X21702909Y32164959D01*
X21755118Y31902488D01*
X21758865Y31892052D01*
X21758866Y31892048D01*
X21803596Y31767466D01*
X21845549Y31650617D01*
X21972215Y31414879D01*
X21978849Y31405994D01*
X21978851Y31405992D01*
X22125696Y31209343D01*
X22125700Y31209339D01*
X22132335Y31200453D01*
X22140211Y31192646D01*
X22140214Y31192642D01*
X22314509Y31019862D01*
X22314513Y31019859D01*
X22322390Y31012050D01*
X22538205Y30853808D01*
X22775039Y30729203D01*
X23027690Y30640974D01*
X23146885Y30618344D01*
X23279707Y30593126D01*
X23279711Y30593126D01*
X23290606Y30591057D01*
X23392163Y30587067D01*
X23546929Y30580986D01*
X23546935Y30580986D01*
X23558013Y30580551D01*
X23756110Y30602246D01*
X23813015Y30608478D01*
X23813017Y30608478D01*
X23824035Y30609685D01*
X23834751Y30612506D01*
X23834755Y30612507D01*
X24072104Y30674996D01*
X24072108Y30674997D01*
X24082829Y30677820D01*
X24214451Y30734369D01*
X24318513Y30779077D01*
X24318514Y30779077D01*
X24328710Y30783458D01*
X24556275Y30924280D01*
X24566693Y30933099D01*
X24752060Y31090024D01*
X24760526Y31097191D01*
X24936976Y31298393D01*
X25081747Y31523466D01*
X25191661Y31767466D01*
X25213377Y31844463D01*
X25257298Y32000197D01*
X25306049Y32098673D01*
X25333647Y32130462D01*
X28347337Y35144152D01*
X28347339Y35144153D01*
X28508247Y35305061D01*
X28533450Y35341055D01*
X28549328Y35361747D01*
X28569179Y35385404D01*
X28569186Y35385414D01*
X28577577Y35395414D01*
X28599560Y35433489D01*
X28613561Y35455467D01*
X28638768Y35491466D01*
X28644284Y35503294D01*
X28657340Y35531291D01*
X28669380Y35554421D01*
X28691356Y35592485D01*
X28696052Y35605387D01*
X28706387Y35633781D01*
X28716366Y35657873D01*
X28729422Y35685873D01*
X28734939Y35697704D01*
X28746317Y35740167D01*
X28754157Y35765030D01*
X28762674Y35788432D01*
X28769185Y35806321D01*
X28776010Y35845025D01*
X28776817Y35849604D01*
X28782464Y35875073D01*
X28786395Y35889741D01*
X28793835Y35917508D01*
X28797018Y35953885D01*
X28797664Y35961275D01*
X28801069Y35987135D01*
X28806433Y36017558D01*
X28806433Y36017560D01*
X28808701Y36030421D01*
X28808701Y36257979D01*
X28808700Y36257985D01*
X28808700Y42050089D01*
X28828891Y42158100D01*
X28886736Y42251524D01*
X28974424Y42317743D01*
X29080112Y42347814D01*
X29189525Y42337675D01*
G37*
%TD.AperFunction*%
%TA.AperFunction,Conductor*%
G36*
X9341325Y43286803D02*
G01*
X9439688Y43237824D01*
X9507674Y43165982D01*
X9571040Y43071684D01*
X9576250Y43065497D01*
X9576253Y43065493D01*
X9715282Y42900391D01*
X9804104Y42794912D01*
X9830246Y42769930D01*
X10059849Y42550516D01*
X10059854Y42550511D01*
X10065696Y42544929D01*
X10352756Y42324660D01*
X10377073Y42309875D01*
X10655009Y42140887D01*
X10655017Y42140883D01*
X10661926Y42136682D01*
X10704092Y42116930D01*
X10982253Y41986630D01*
X10982260Y41986627D01*
X10989589Y41983194D01*
X11331912Y41865990D01*
X11339796Y41864213D01*
X11339804Y41864211D01*
X11677000Y41788221D01*
X11677005Y41788220D01*
X11684891Y41786443D01*
X11692926Y41785528D01*
X11692929Y41785527D01*
X12036352Y41746398D01*
X12036361Y41746397D01*
X12044396Y41745482D01*
X12229019Y41744516D01*
X12398130Y41743630D01*
X12398137Y41743630D01*
X12406222Y41743588D01*
X12414273Y41744420D01*
X12414274Y41744420D01*
X12518668Y41755208D01*
X12766137Y41780781D01*
X13081229Y41848331D01*
X13112018Y41854932D01*
X13119929Y41856628D01*
X13463461Y41970240D01*
X13707776Y42081581D01*
X13785343Y42116930D01*
X13785347Y42116932D01*
X13792713Y42120289D01*
X13814539Y42133248D01*
X13942249Y42209077D01*
X14103835Y42305020D01*
X14393186Y42522270D01*
X14412143Y42540009D01*
X14589294Y42705785D01*
X14657381Y42769500D01*
X14683821Y42800239D01*
X14769558Y42868957D01*
X14874335Y42902064D01*
X14983995Y42895086D01*
X15083729Y42848965D01*
X15160068Y42769930D01*
X15202702Y42668656D01*
X15209500Y42605259D01*
X15209500Y38931674D01*
X15189309Y38823663D01*
X15131464Y38730239D01*
X15043776Y38664020D01*
X14938088Y38633949D01*
X14828675Y38644088D01*
X14730312Y38693067D01*
X14656285Y38774271D01*
X14628651Y38831865D01*
X14595192Y38926348D01*
X14587116Y38945011D01*
X14496235Y39121089D01*
X14482964Y39138143D01*
X14462243Y39124426D01*
X11634174Y36296357D01*
X11620582Y36276516D01*
X11634738Y36264124D01*
X11656694Y36250352D01*
X11674606Y36240748D01*
X11917020Y36131294D01*
X11936041Y36124220D01*
X12191064Y36048678D01*
X12210894Y36044246D01*
X12473801Y36004015D01*
X12494050Y36002315D01*
X12759982Y35998138D01*
X12780272Y35999201D01*
X12969579Y36022110D01*
X13079234Y36015042D01*
X13178930Y35968839D01*
X13255204Y35889741D01*
X13297754Y35788432D01*
X13304500Y35725276D01*
X13304500Y24683000D01*
X13284309Y24574989D01*
X13226464Y24481565D01*
X13138776Y24415346D01*
X13033088Y24385275D01*
X13005500Y24384000D01*
X9219500Y24384000D01*
X9111489Y24404191D01*
X9018065Y24462036D01*
X8951846Y24549724D01*
X8921775Y24655412D01*
X8920500Y24683000D01*
X8920500Y31024535D01*
X8940691Y31132546D01*
X8994701Y31221680D01*
X9054659Y31290049D01*
X9054662Y31290053D01*
X9061976Y31298393D01*
X9206747Y31523466D01*
X9316661Y31767466D01*
X9319672Y31778141D01*
X9386290Y32014350D01*
X9386291Y32014355D01*
X9389302Y32025031D01*
X9423075Y32290505D01*
X9424582Y32348061D01*
X9425353Y32377503D01*
X9425353Y32377509D01*
X9425549Y32385000D01*
X9405717Y32651877D01*
X9397657Y32687497D01*
X9349105Y32902065D01*
X9349104Y32902069D01*
X9346655Y32912891D01*
X9249662Y33162309D01*
X9134935Y33363039D01*
X9122378Y33385010D01*
X9122376Y33385013D01*
X9116868Y33394650D01*
X9110000Y33403362D01*
X9109996Y33403368D01*
X8958061Y33596095D01*
X8951190Y33604811D01*
X8940234Y33615118D01*
X8764349Y33780574D01*
X8764350Y33780574D01*
X8756269Y33788175D01*
X8536385Y33940714D01*
X8526439Y33945619D01*
X8526432Y33945623D01*
X8306321Y34054169D01*
X8296371Y34059076D01*
X8179756Y34096405D01*
X8052070Y34137278D01*
X8052064Y34137279D01*
X8041497Y34140662D01*
X7777364Y34183678D01*
X7681333Y34184935D01*
X7520878Y34187036D01*
X7520873Y34187036D01*
X7509774Y34187181D01*
X7498775Y34185684D01*
X7498774Y34185684D01*
X7255601Y34152590D01*
X7255594Y34152589D01*
X7244605Y34151093D01*
X7233950Y34147988D01*
X7233948Y34147987D01*
X6998339Y34079314D01*
X6987683Y34076208D01*
X6977605Y34071562D01*
X6804679Y33991842D01*
X6698136Y33964958D01*
X6589077Y33978378D01*
X6492229Y34030288D01*
X6420674Y34113678D01*
X6384074Y34217285D01*
X6380500Y34263377D01*
X6380500Y34857465D01*
X6400691Y34965476D01*
X6458536Y35058900D01*
X6468075Y35068890D01*
X7616907Y36217722D01*
X7707560Y36279820D01*
X7795780Y36303520D01*
X7978016Y36323478D01*
X7978019Y36323479D01*
X7989035Y36324685D01*
X7999751Y36327506D01*
X7999755Y36327507D01*
X8237104Y36389996D01*
X8237108Y36389997D01*
X8247829Y36392820D01*
X8493710Y36498458D01*
X8721275Y36639280D01*
X8772784Y36682885D01*
X8917060Y36805024D01*
X8925526Y36812191D01*
X9101976Y37013393D01*
X9246747Y37238466D01*
X9263304Y37275220D01*
X9352107Y37472357D01*
X9356661Y37482466D01*
X9374462Y37545583D01*
X9426290Y37729350D01*
X9426291Y37729355D01*
X9429302Y37740031D01*
X9448200Y37888575D01*
X9462128Y37998060D01*
X9462128Y37998063D01*
X9463075Y38005505D01*
X9464549Y38061792D01*
X9465353Y38092503D01*
X9465353Y38092509D01*
X9465549Y38100000D01*
X9464667Y38111870D01*
X10555795Y38111870D01*
X10571105Y37846350D01*
X10573650Y37826198D01*
X10624858Y37565189D01*
X10630112Y37545583D01*
X10716266Y37293948D01*
X10724139Y37275220D01*
X10823213Y37078231D01*
X10836900Y37060256D01*
X10851659Y37069476D01*
X11862593Y38080410D01*
X11876202Y38100276D01*
X11869029Y38113154D01*
X10856697Y39125486D01*
X10838596Y39137885D01*
X10823394Y39119176D01*
X10741835Y38965139D01*
X10733573Y38946582D01*
X10642171Y38696815D01*
X10636502Y38677303D01*
X10579842Y38417434D01*
X10576875Y38397341D01*
X10556007Y38132200D01*
X10555795Y38111870D01*
X9464667Y38111870D01*
X9457094Y38213779D01*
X9446539Y38355818D01*
X9446539Y38355821D01*
X9445717Y38366877D01*
X9437657Y38402497D01*
X9389105Y38617065D01*
X9389104Y38617069D01*
X9386655Y38627891D01*
X9382458Y38638685D01*
X9293685Y38866964D01*
X9293685Y38866965D01*
X9289662Y38877309D01*
X9156868Y39109650D01*
X9150000Y39118362D01*
X9149996Y39118368D01*
X9024690Y39277317D01*
X8973677Y39374640D01*
X8960500Y39462426D01*
X8960500Y39920964D01*
X11621698Y39920964D01*
X11633454Y39904363D01*
X12640410Y38897407D01*
X12660276Y38883798D01*
X12673154Y38890971D01*
X13685275Y39903092D01*
X13698710Y39922705D01*
X13683910Y39935523D01*
X13643867Y39960062D01*
X13625883Y39969464D01*
X13382337Y40076373D01*
X13363219Y40083256D01*
X13107424Y40156122D01*
X13087555Y40160345D01*
X12824240Y40197819D01*
X12803980Y40199307D01*
X12538012Y40200700D01*
X12517737Y40199424D01*
X12254042Y40164709D01*
X12234136Y40160695D01*
X11977576Y40090508D01*
X11958407Y40083832D01*
X11713757Y39979480D01*
X11695654Y39970257D01*
X11639295Y39936526D01*
X11621698Y39920964D01*
X8960500Y39920964D01*
X8960500Y42999217D01*
X8980691Y43107228D01*
X9038536Y43200652D01*
X9126224Y43266871D01*
X9231912Y43296942D01*
X9341325Y43286803D01*
G37*
%TD.AperFunction*%
%TD*%
%TA.AperFunction,NonConductor*%
G36*
X16566477Y47447309D02*
G01*
X16659901Y47389464D01*
X16726120Y47301776D01*
X16756191Y47196088D01*
X16746052Y47086675D01*
X16697073Y46988312D01*
X16669892Y46957076D01*
X16225263Y46512448D01*
X15863219Y46150404D01*
X15772566Y46088306D01*
X15665603Y46063148D01*
X15556774Y46078329D01*
X15460779Y46131798D01*
X15390581Y46216334D01*
X15373983Y46251275D01*
X15282674Y46480725D01*
X15282672Y46480728D01*
X15279684Y46488238D01*
X15266866Y46512448D01*
X15114154Y46800870D01*
X15114154Y46800871D01*
X15110373Y46808011D01*
X15105842Y46814703D01*
X15105837Y46814712D01*
X14979799Y47000870D01*
X14935963Y47101629D01*
X14931486Y47211420D01*
X14966972Y47315415D01*
X15037629Y47399567D01*
X15133914Y47452513D01*
X15227389Y47467500D01*
X16458466Y47467500D01*
X16566477Y47447309D01*
G37*
%TD.AperFunction*%
%TA.AperFunction,NonConductor*%
G36*
X23703125Y42337675D02*
G01*
X23789370Y42295486D01*
X23789847Y42296249D01*
X23797187Y42291663D01*
X23798104Y42291214D01*
X23799252Y42290372D01*
X23799258Y42290369D01*
X23808205Y42283808D01*
X24045039Y42159203D01*
X24297690Y42070974D01*
X24388847Y42053667D01*
X24549707Y42023126D01*
X24549711Y42023126D01*
X24560606Y42021057D01*
X24662163Y42017067D01*
X24816929Y42010986D01*
X24816935Y42010986D01*
X24828013Y42010551D01*
X24996361Y42028988D01*
X25083015Y42038478D01*
X25083017Y42038478D01*
X25094035Y42039685D01*
X25104751Y42042506D01*
X25104755Y42042507D01*
X25342104Y42104996D01*
X25342108Y42104997D01*
X25352829Y42107820D01*
X25539368Y42187963D01*
X25588513Y42209077D01*
X25588514Y42209077D01*
X25598710Y42213458D01*
X25724362Y42291214D01*
X25751362Y42307922D01*
X25853834Y42347590D01*
X25963716Y42347562D01*
X26066168Y42307842D01*
X26147353Y42233794D01*
X26196307Y42135419D01*
X26207700Y42053667D01*
X26207700Y40163767D01*
X26187509Y40055756D01*
X26129664Y39962332D01*
X26041976Y39896113D01*
X25936288Y39866042D01*
X25826875Y39876181D01*
X25752473Y39908828D01*
X25668878Y39960055D01*
X25650874Y39969468D01*
X25407337Y40076373D01*
X25388219Y40083256D01*
X25132424Y40156122D01*
X25112555Y40160345D01*
X24849240Y40197819D01*
X24828980Y40199307D01*
X24563012Y40200700D01*
X24542737Y40199424D01*
X24279042Y40164709D01*
X24259136Y40160695D01*
X24002576Y40090508D01*
X23983407Y40083832D01*
X23730521Y39975968D01*
X23623248Y39952163D01*
X23514620Y39968718D01*
X23419308Y40023395D01*
X23350183Y40108811D01*
X23316582Y40213430D01*
X23318756Y40302917D01*
X23322301Y40323021D01*
X23322301Y40550579D01*
X23322300Y40550585D01*
X23322300Y42050089D01*
X23342491Y42158100D01*
X23400336Y42251524D01*
X23488024Y42317743D01*
X23593712Y42347814D01*
X23703125Y42337675D01*
G37*
%TD.AperFunction*%
%TA.AperFunction,NonConductor*%
G36*
X18191325Y42356299D02*
G01*
X18286301Y42309840D01*
X18321805Y42283808D01*
X18558639Y42159203D01*
X18811290Y42070974D01*
X18902447Y42053667D01*
X19063307Y42023126D01*
X19063311Y42023126D01*
X19074206Y42021057D01*
X19175763Y42017067D01*
X19330529Y42010986D01*
X19330535Y42010986D01*
X19341613Y42010551D01*
X19509961Y42028988D01*
X19596615Y42038478D01*
X19596617Y42038478D01*
X19607635Y42039685D01*
X19618351Y42042506D01*
X19618355Y42042507D01*
X19855704Y42104996D01*
X19855708Y42104997D01*
X19866429Y42107820D01*
X20052968Y42187963D01*
X20102113Y42209077D01*
X20102114Y42209077D01*
X20112310Y42213458D01*
X20237962Y42291214D01*
X20264962Y42307922D01*
X20367434Y42347590D01*
X20477316Y42347562D01*
X20579768Y42307842D01*
X20660953Y42233794D01*
X20709907Y42135419D01*
X20721300Y42053667D01*
X20721300Y41099335D01*
X20701109Y40991324D01*
X20643264Y40897900D01*
X20633725Y40887910D01*
X19730786Y39984971D01*
X19640133Y39922873D01*
X19559681Y39900127D01*
X19320603Y39867590D01*
X19320600Y39867589D01*
X19309605Y39866093D01*
X19298950Y39862988D01*
X19298948Y39862987D01*
X19063339Y39794314D01*
X19052683Y39791208D01*
X18809652Y39679169D01*
X18585851Y39532438D01*
X18386197Y39354240D01*
X18339383Y39297953D01*
X18254795Y39227821D01*
X18150582Y39192981D01*
X18040821Y39198140D01*
X17940335Y39242600D01*
X17862696Y39320358D01*
X17818390Y39420912D01*
X17810500Y39489145D01*
X17810500Y42068713D01*
X17830691Y42176724D01*
X17888536Y42270148D01*
X17976224Y42336367D01*
X18081912Y42366438D01*
X18191325Y42356299D01*
G37*
%TD.AperFunction*%
M02*
